<?xml version="1.0" encoding="UTF-8" standalone="no"?>
<!-- Created with Inkscape (http://www.inkscape.org/) -->

<svg
   version="1.1"
   id="svg1"
   width="146.584"
   height="146.584"
   viewBox="0 0 146.584 146.584"
   sodipodi:docname="upload_onaxawsjeez6abahwjxb5ywbbd.pdf"
   xmlns:inkscape="http://www.inkscape.org/namespaces/inkscape"
   xmlns:sodipodi="http://sodipodi.sourceforge.net/DTD/sodipodi-0.dtd"
   xmlns="http://www.w3.org/2000/svg"
   xmlns:svg="http://www.w3.org/2000/svg">
  <defs
     id="defs1">
    <clipPath
       clipPathUnits="userSpaceOnUse"
       id="clipPath2">
      <path
         d="M 0,109.938 H 109.938 V 0 H 0 Z"
         transform="translate(-13.084401,-100.379)"
         id="path2" />
    </clipPath>
    <clipPath
       clipPathUnits="userSpaceOnUse"
       id="clipPath4">
      <path
         d="M 0,109.938 H 109.938 V 0 H 0 Z"
         transform="translate(-26.087401,-100.379)"
         id="path4" />
    </clipPath>
    <clipPath
       clipPathUnits="userSpaceOnUse"
       id="clipPath6">
      <path
         d="M 0,109.938 H 109.938 V 0 H 0 Z"
         transform="translate(-13.084401,-87.335602)"
         id="path6" />
    </clipPath>
    <clipPath
       clipPathUnits="userSpaceOnUse"
       id="clipPath8">
      <path
         d="M 0,109.938 H 109.938 V 0 H 0 Z"
         transform="translate(-26.087401,-87.335602)"
         id="path8" />
    </clipPath>
    <clipPath
       clipPathUnits="userSpaceOnUse"
       id="clipPath10">
      <path
         d="M 0,109.938 H 109.938 V 0 H 0 Z"
         transform="translate(-38.509201,-100.379)"
         id="path10" />
    </clipPath>
    <clipPath
       clipPathUnits="userSpaceOnUse"
       id="clipPath12">
      <path
         d="M 0,109.938 H 109.938 V 0 H 0 Z"
         transform="translate(-38.509201,-87.335602)"
         id="path12" />
    </clipPath>
    <clipPath
       clipPathUnits="userSpaceOnUse"
       id="clipPath14">
      <path
         d="M 0,109.938 H 109.938 V 0 H 0 Z"
         transform="translate(-13.084401,-74.913202)"
         id="path14" />
    </clipPath>
    <clipPath
       clipPathUnits="userSpaceOnUse"
       id="clipPath16">
      <path
         d="M 0,109.938 H 109.938 V 0 H 0 Z"
         transform="translate(-26.087401,-74.913202)"
         id="path16" />
    </clipPath>
    <clipPath
       clipPathUnits="userSpaceOnUse"
       id="clipPath18">
      <path
         d="M 0,109.938 H 109.938 V 0 H 0 Z"
         transform="translate(-38.509201,-74.913202)"
         id="path18" />
    </clipPath>
    <clipPath
       clipPathUnits="userSpaceOnUse"
       id="clipPath20">
      <path
         d="M 0,109.938 H 109.938 V 0 H 0 Z"
         transform="translate(-51.553201,-100.379)"
         id="path20" />
    </clipPath>
    <clipPath
       clipPathUnits="userSpaceOnUse"
       id="clipPath22">
      <path
         d="M 0,109.938 H 109.938 V 0 H 0 Z"
         transform="translate(-51.553201,-87.335602)"
         id="path22" />
    </clipPath>
    <clipPath
       clipPathUnits="userSpaceOnUse"
       id="clipPath24">
      <path
         d="M 0,109.938 H 109.938 V 0 H 0 Z"
         transform="translate(-51.553201,-74.913202)"
         id="path24" />
    </clipPath>
    <clipPath
       clipPathUnits="userSpaceOnUse"
       id="clipPath26">
      <path
         d="M 0,109.938 H 109.938 V 0 H 0 Z"
         transform="translate(-13.084401,-62.111902)"
         id="path26" />
    </clipPath>
    <clipPath
       clipPathUnits="userSpaceOnUse"
       id="clipPath28">
      <path
         d="M 0,109.938 H 109.938 V 0 H 0 Z"
         transform="translate(-26.087401,-62.111902)"
         id="path28" />
    </clipPath>
    <clipPath
       clipPathUnits="userSpaceOnUse"
       id="clipPath30">
      <path
         d="M 0,109.938 H 109.938 V 0 H 0 Z"
         transform="translate(-38.509201,-62.111902)"
         id="path30" />
    </clipPath>
    <clipPath
       clipPathUnits="userSpaceOnUse"
       id="clipPath32">
      <path
         d="M 0,109.938 H 109.938 V 0 H 0 Z"
         transform="translate(-51.553201,-62.111902)"
         id="path32" />
    </clipPath>
    <clipPath
       clipPathUnits="userSpaceOnUse"
       id="clipPath34">
      <path
         d="M 0,109.938 H 109.938 V 0 H 0 Z"
         transform="translate(-65.258302,-100.379)"
         id="path34" />
    </clipPath>
    <clipPath
       clipPathUnits="userSpaceOnUse"
       id="clipPath36">
      <path
         d="M 0,109.938 H 109.938 V 0 H 0 Z"
         transform="translate(-78.261204,-100.379)"
         id="path36" />
    </clipPath>
    <clipPath
       clipPathUnits="userSpaceOnUse"
       id="clipPath38">
      <path
         d="M 0,109.938 H 109.938 V 0 H 0 Z"
         transform="translate(-65.258302,-87.335602)"
         id="path38" />
    </clipPath>
    <clipPath
       clipPathUnits="userSpaceOnUse"
       id="clipPath40">
      <path
         d="M 0,109.938 H 109.938 V 0 H 0 Z"
         transform="translate(-78.261204,-87.335602)"
         id="path40" />
    </clipPath>
    <clipPath
       clipPathUnits="userSpaceOnUse"
       id="clipPath42">
      <path
         d="M 0,109.938 H 109.938 V 0 H 0 Z"
         transform="translate(-90.683102,-100.379)"
         id="path42" />
    </clipPath>
    <clipPath
       clipPathUnits="userSpaceOnUse"
       id="clipPath44">
      <path
         d="M 0,109.938 H 109.938 V 0 H 0 Z"
         transform="translate(-90.683102,-87.335602)"
         id="path44" />
    </clipPath>
    <clipPath
       clipPathUnits="userSpaceOnUse"
       id="clipPath46">
      <path
         d="M 0,109.938 H 109.938 V 0 H 0 Z"
         transform="translate(-65.258302,-74.913202)"
         id="path46" />
    </clipPath>
    <clipPath
       clipPathUnits="userSpaceOnUse"
       id="clipPath48">
      <path
         d="M 0,109.938 H 109.938 V 0 H 0 Z"
         transform="translate(-78.261204,-74.913202)"
         id="path48" />
    </clipPath>
    <clipPath
       clipPathUnits="userSpaceOnUse"
       id="clipPath50">
      <path
         d="M 0,109.938 H 109.938 V 0 H 0 Z"
         transform="translate(-90.683102,-74.913202)"
         id="path50" />
    </clipPath>
    <clipPath
       clipPathUnits="userSpaceOnUse"
       id="clipPath52">
      <path
         d="M 0,109.938 H 109.938 V 0 H 0 Z"
         transform="translate(-103.72701,-100.379)"
         id="path52" />
    </clipPath>
    <clipPath
       clipPathUnits="userSpaceOnUse"
       id="clipPath54">
      <path
         d="M 0,109.938 H 109.938 V 0 H 0 Z"
         transform="translate(-103.72701,-87.335602)"
         id="path54" />
    </clipPath>
    <clipPath
       clipPathUnits="userSpaceOnUse"
       id="clipPath56">
      <path
         d="M 0,109.938 H 109.938 V 0 H 0 Z"
         transform="translate(-103.72701,-74.913202)"
         id="path56" />
    </clipPath>
    <clipPath
       clipPathUnits="userSpaceOnUse"
       id="clipPath58">
      <path
         d="M 0,109.938 H 109.938 V 0 H 0 Z"
         transform="translate(-65.258302,-62.111902)"
         id="path58" />
    </clipPath>
    <clipPath
       clipPathUnits="userSpaceOnUse"
       id="clipPath60">
      <path
         d="M 0,109.938 H 109.938 V 0 H 0 Z"
         transform="translate(-78.261204,-62.111902)"
         id="path60" />
    </clipPath>
    <clipPath
       clipPathUnits="userSpaceOnUse"
       id="clipPath62">
      <path
         d="M 0,109.938 H 109.938 V 0 H 0 Z"
         transform="translate(-90.683102,-62.111902)"
         id="path62" />
    </clipPath>
    <clipPath
       clipPathUnits="userSpaceOnUse"
       id="clipPath64">
      <path
         d="M 0,109.938 H 109.938 V 0 H 0 Z"
         transform="translate(-103.72701,-62.111902)"
         id="path64" />
    </clipPath>
    <clipPath
       clipPathUnits="userSpaceOnUse"
       id="clipPath66">
      <path
         d="M 0,109.938 H 109.938 V 0 H 0 Z"
         transform="translate(-13.084401,-48.205201)"
         id="path66" />
    </clipPath>
    <clipPath
       clipPathUnits="userSpaceOnUse"
       id="clipPath68">
      <path
         d="M 0,109.938 H 109.938 V 0 H 0 Z"
         transform="translate(-26.087401,-48.205201)"
         id="path68" />
    </clipPath>
    <clipPath
       clipPathUnits="userSpaceOnUse"
       id="clipPath70">
      <path
         d="M 0,109.938 H 109.938 V 0 H 0 Z"
         transform="translate(-13.084401,-35.161701)"
         id="path70" />
    </clipPath>
    <clipPath
       clipPathUnits="userSpaceOnUse"
       id="clipPath72">
      <path
         d="M 0,109.938 H 109.938 V 0 H 0 Z"
         transform="translate(-26.087401,-35.161701)"
         id="path72" />
    </clipPath>
    <clipPath
       clipPathUnits="userSpaceOnUse"
       id="clipPath74">
      <path
         d="M 0,109.938 H 109.938 V 0 H 0 Z"
         transform="translate(-38.509201,-48.205201)"
         id="path74" />
    </clipPath>
    <clipPath
       clipPathUnits="userSpaceOnUse"
       id="clipPath76">
      <path
         d="M 0,109.938 H 109.938 V 0 H 0 Z"
         transform="translate(-38.509201,-35.161701)"
         id="path76" />
    </clipPath>
    <clipPath
       clipPathUnits="userSpaceOnUse"
       id="clipPath78">
      <path
         d="M 0,109.938 H 109.938 V 0 H 0 Z"
         transform="translate(-13.084401,-22.739303)"
         id="path78" />
    </clipPath>
    <clipPath
       clipPathUnits="userSpaceOnUse"
       id="clipPath80">
      <path
         d="M 0,109.938 H 109.938 V 0 H 0 Z"
         transform="translate(-26.087401,-22.739303)"
         id="path80" />
    </clipPath>
    <clipPath
       clipPathUnits="userSpaceOnUse"
       id="clipPath82">
      <path
         d="M 0,109.938 H 109.938 V 0 H 0 Z"
         transform="translate(-38.509201,-22.739303)"
         id="path82" />
    </clipPath>
    <clipPath
       clipPathUnits="userSpaceOnUse"
       id="clipPath84">
      <path
         d="M 0,109.938 H 109.938 V 0 H 0 Z"
         transform="translate(-51.553201,-48.205201)"
         id="path84" />
    </clipPath>
    <clipPath
       clipPathUnits="userSpaceOnUse"
       id="clipPath86">
      <path
         d="M 0,109.938 H 109.938 V 0 H 0 Z"
         transform="translate(-51.553201,-35.161701)"
         id="path86" />
    </clipPath>
    <clipPath
       clipPathUnits="userSpaceOnUse"
       id="clipPath88">
      <path
         d="M 0,109.938 H 109.938 V 0 H 0 Z"
         transform="translate(-51.553201,-22.739303)"
         id="path88" />
    </clipPath>
    <clipPath
       clipPathUnits="userSpaceOnUse"
       id="clipPath90">
      <path
         d="M 0,109.938 H 109.938 V 0 H 0 Z"
         transform="translate(-13.084401,-9.9381002)"
         id="path90" />
    </clipPath>
    <clipPath
       clipPathUnits="userSpaceOnUse"
       id="clipPath92">
      <path
         d="M 0,109.938 H 109.938 V 0 H 0 Z"
         transform="translate(-26.087401,-9.9381002)"
         id="path92" />
    </clipPath>
    <clipPath
       clipPathUnits="userSpaceOnUse"
       id="clipPath94">
      <path
         d="M 0,109.938 H 109.938 V 0 H 0 Z"
         transform="translate(-38.509201,-9.9381002)"
         id="path94" />
    </clipPath>
    <clipPath
       clipPathUnits="userSpaceOnUse"
       id="clipPath96">
      <path
         d="M 0,109.938 H 109.938 V 0 H 0 Z"
         transform="translate(-51.553201,-9.9381002)"
         id="path96" />
    </clipPath>
    <clipPath
       clipPathUnits="userSpaceOnUse"
       id="clipPath98">
      <path
         d="M 0,109.938 H 109.938 V 0 H 0 Z"
         transform="translate(-65.258302,-48.205201)"
         id="path98" />
    </clipPath>
    <clipPath
       clipPathUnits="userSpaceOnUse"
       id="clipPath100">
      <path
         d="M 0,109.938 H 109.938 V 0 H 0 Z"
         transform="translate(-78.261204,-48.205201)"
         id="path100" />
    </clipPath>
    <clipPath
       clipPathUnits="userSpaceOnUse"
       id="clipPath102">
      <path
         d="M 0,109.938 H 109.938 V 0 H 0 Z"
         transform="translate(-65.258302,-35.161701)"
         id="path102" />
    </clipPath>
    <clipPath
       clipPathUnits="userSpaceOnUse"
       id="clipPath104">
      <path
         d="M 0,109.938 H 109.938 V 0 H 0 Z"
         transform="translate(-78.261204,-35.161701)"
         id="path104" />
    </clipPath>
    <clipPath
       clipPathUnits="userSpaceOnUse"
       id="clipPath106">
      <path
         d="M 0,109.938 H 109.938 V 0 H 0 Z"
         transform="translate(-90.683102,-48.205201)"
         id="path106" />
    </clipPath>
    <clipPath
       clipPathUnits="userSpaceOnUse"
       id="clipPath108">
      <path
         d="M 0,109.938 H 109.938 V 0 H 0 Z"
         transform="translate(-90.683102,-35.161701)"
         id="path108" />
    </clipPath>
    <clipPath
       clipPathUnits="userSpaceOnUse"
       id="clipPath110">
      <path
         d="M 0,109.938 H 109.938 V 0 H 0 Z"
         transform="translate(-65.258302,-22.739303)"
         id="path110" />
    </clipPath>
    <clipPath
       clipPathUnits="userSpaceOnUse"
       id="clipPath112">
      <path
         d="M 0,109.938 H 109.938 V 0 H 0 Z"
         transform="translate(-78.261204,-22.739303)"
         id="path112" />
    </clipPath>
    <clipPath
       clipPathUnits="userSpaceOnUse"
       id="clipPath114">
      <path
         d="M 0,109.938 H 109.938 V 0 H 0 Z"
         transform="translate(-90.683102,-22.739303)"
         id="path114" />
    </clipPath>
    <clipPath
       clipPathUnits="userSpaceOnUse"
       id="clipPath116">
      <path
         d="M 0,109.938 H 109.938 V 0 H 0 Z"
         transform="translate(-103.72701,-48.205201)"
         id="path116" />
    </clipPath>
    <clipPath
       clipPathUnits="userSpaceOnUse"
       id="clipPath118">
      <path
         d="M 0,109.938 H 109.938 V 0 H 0 Z"
         transform="translate(-103.72701,-35.161701)"
         id="path118" />
    </clipPath>
    <clipPath
       clipPathUnits="userSpaceOnUse"
       id="clipPath120">
      <path
         d="M 0,109.938 H 109.938 V 0 H 0 Z"
         transform="translate(-103.72701,-22.739303)"
         id="path120" />
    </clipPath>
    <clipPath
       clipPathUnits="userSpaceOnUse"
       id="clipPath122">
      <path
         d="M 0,109.938 H 109.938 V 0 H 0 Z"
         transform="translate(-65.258302,-9.9381002)"
         id="path122" />
    </clipPath>
    <clipPath
       clipPathUnits="userSpaceOnUse"
       id="clipPath124">
      <path
         d="M 0,109.938 H 109.938 V 0 H 0 Z"
         transform="translate(-78.261204,-9.9381002)"
         id="path124" />
    </clipPath>
    <clipPath
       clipPathUnits="userSpaceOnUse"
       id="clipPath126">
      <path
         d="M 0,109.938 H 109.938 V 0 H 0 Z"
         transform="translate(-90.683102,-9.9381002)"
         id="path126" />
    </clipPath>
    <clipPath
       clipPathUnits="userSpaceOnUse"
       id="clipPath128">
      <path
         d="M 0,109.938 H 109.938 V 0 H 0 Z"
         transform="translate(-103.72701,-9.9381002)"
         id="path128" />
    </clipPath>
  </defs>
  <sodipodi:namedview
     id="namedview1"
     pagecolor="#ffffff"
     bordercolor="#000000"
     borderopacity="0.25"
     inkscape:showpageshadow="2"
     inkscape:pageopacity="0.0"
     inkscape:pagecheckerboard="0"
     inkscape:deskcolor="#d1d1d1">
    <inkscape:page
       x="0"
       y="0"
       inkscape:label="1"
       id="page1"
       width="146.584"
       height="146.584"
       margin="6.7867465 7.6146665 6.2813334 5.1854267"
       bleed="0" />
  </sodipodi:namedview>
  <g
     id="layer-MC0"
     inkscape:groupmode="layer"
     inkscape:label="Layer 1">
    <path
       id="path1"
       d="m 0,0 c 0,-2.401 -1.946,-4.348 -4.348,-4.348 -2.401,0 -4.347,1.947 -4.347,4.348 0,2.401 1.946,4.348 4.347,4.348 C -1.946,4.348 0,2.401 0,0"
       style="fill:#231f20;fill-opacity:1;fill-rule:nonzero;stroke:#231f20;stroke-width:1;stroke-linecap:butt;stroke-linejoin:miter;stroke-miterlimit:10;stroke-dasharray:none;stroke-opacity:1"
       transform="matrix(1.3333333,0,0,-1.3333333,17.445867,12.745333)"
       clip-path="url(#clipPath2)" />
    <path
       id="path3"
       d="m 0,0 c 0,-2.401 -1.947,-4.348 -4.349,-4.348 -2.4,0 -4.347,1.947 -4.347,4.348 0,2.401 1.947,4.348 4.347,4.348 C -1.947,4.348 0,2.401 0,0"
       style="fill:#231f20;fill-opacity:1;fill-rule:nonzero;stroke:#231f20;stroke-width:1;stroke-linecap:butt;stroke-linejoin:miter;stroke-miterlimit:10;stroke-dasharray:none;stroke-opacity:1"
       transform="matrix(1.3333333,0,0,-1.3333333,34.7832,12.745333)"
       clip-path="url(#clipPath4)" />
    <path
       id="path5"
       d="m 0,0 c 0,-2.401 -1.946,-4.348 -4.348,-4.348 -2.401,0 -4.347,1.947 -4.347,4.348 0,2.401 1.946,4.348 4.347,4.348 C -1.946,4.348 0,2.401 0,0"
       style="fill:#ffffff;fill-opacity:1;fill-rule:nonzero;stroke:#231f20;stroke-width:1;stroke-linecap:butt;stroke-linejoin:miter;stroke-miterlimit:10;stroke-dasharray:none;stroke-opacity:1"
       transform="matrix(1.3333333,0,0,-1.3333333,17.445867,30.136533)"
       clip-path="url(#clipPath6)" />
    <path
       id="path7"
       d="m 0,0 c 0,-2.401 -1.947,-4.348 -4.349,-4.348 -2.4,0 -4.347,1.947 -4.347,4.348 0,2.401 1.947,4.348 4.347,4.348 C -1.947,4.348 0,2.401 0,0"
       style="fill:#231f20;fill-opacity:1;fill-rule:nonzero;stroke:#231f20;stroke-width:1;stroke-linecap:butt;stroke-linejoin:miter;stroke-miterlimit:10;stroke-dasharray:none;stroke-opacity:1"
       transform="matrix(1.3333333,0,0,-1.3333333,34.7832,30.136533)"
       clip-path="url(#clipPath8)" />
    <path
       id="path9"
       d="m 0,0 c 0,-2.401 -1.946,-4.348 -4.348,-4.348 -2.401,0 -4.347,1.947 -4.347,4.348 0,2.401 1.946,4.348 4.347,4.348 C -1.946,4.348 0,2.401 0,0"
       style="fill:#231f20;fill-opacity:1;fill-rule:nonzero;stroke:#231f20;stroke-width:1;stroke-linecap:butt;stroke-linejoin:miter;stroke-miterlimit:10;stroke-dasharray:none;stroke-opacity:1"
       transform="matrix(1.3333333,0,0,-1.3333333,51.3456,12.745333)"
       clip-path="url(#clipPath10)" />
    <path
       id="path11"
       d="m 0,0 c 0,-2.401 -1.946,-4.348 -4.348,-4.348 -2.401,0 -4.347,1.947 -4.347,4.348 0,2.401 1.946,4.348 4.347,4.348 C -1.946,4.348 0,2.401 0,0"
       style="fill:#231f20;fill-opacity:1;fill-rule:nonzero;stroke:#231f20;stroke-width:1;stroke-linecap:butt;stroke-linejoin:miter;stroke-miterlimit:10;stroke-dasharray:none;stroke-opacity:1"
       transform="matrix(1.3333333,0,0,-1.3333333,51.3456,30.136533)"
       clip-path="url(#clipPath12)" />
    <path
       id="path13"
       d="m 0,0 c 0,-2.401 -1.946,-4.348 -4.348,-4.348 -2.401,0 -4.347,1.947 -4.347,4.348 0,2.401 1.946,4.348 4.347,4.348 C -1.946,4.348 0,2.401 0,0"
       style="fill:#ffffff;fill-opacity:1;fill-rule:nonzero;stroke:#231f20;stroke-width:1;stroke-linecap:butt;stroke-linejoin:miter;stroke-miterlimit:10;stroke-dasharray:none;stroke-opacity:1"
       transform="matrix(1.3333333,0,0,-1.3333333,17.445867,46.699733)"
       clip-path="url(#clipPath14)" />
    <path
       id="path15"
       d="m 0,0 c 0,-2.401 -1.947,-4.348 -4.349,-4.348 -2.4,0 -4.347,1.947 -4.347,4.348 0,2.401 1.947,4.348 4.347,4.348 C -1.947,4.348 0,2.401 0,0"
       style="fill:#ffffff;fill-opacity:1;fill-rule:nonzero;stroke:#231f20;stroke-width:1;stroke-linecap:butt;stroke-linejoin:miter;stroke-miterlimit:10;stroke-dasharray:none;stroke-opacity:1"
       transform="matrix(1.3333333,0,0,-1.3333333,34.7832,46.699733)"
       clip-path="url(#clipPath16)" />
    <path
       id="path17"
       d="m 0,0 c 0,-2.401 -1.946,-4.348 -4.348,-4.348 -2.401,0 -4.347,1.947 -4.347,4.348 0,2.401 1.946,4.348 4.347,4.348 C -1.946,4.348 0,2.401 0,0"
       style="fill:#231f20;fill-opacity:1;fill-rule:nonzero;stroke:#231f20;stroke-width:1;stroke-linecap:butt;stroke-linejoin:miter;stroke-miterlimit:10;stroke-dasharray:none;stroke-opacity:1"
       transform="matrix(1.3333333,0,0,-1.3333333,51.3456,46.699733)"
       clip-path="url(#clipPath18)" />
    <path
       id="path19"
       d="m 0,0 c 0,-2.401 -1.947,-4.348 -4.349,-4.348 -2.4,0 -4.347,1.947 -4.347,4.348 0,2.401 1.947,4.348 4.347,4.348 C -1.947,4.348 0,2.401 0,0"
       style="fill:#231f20;fill-opacity:1;fill-rule:nonzero;stroke:#231f20;stroke-width:1;stroke-linecap:butt;stroke-linejoin:miter;stroke-miterlimit:10;stroke-dasharray:none;stroke-opacity:1"
       transform="matrix(1.3333333,0,0,-1.3333333,68.7376,12.745333)"
       clip-path="url(#clipPath20)" />
    <path
       id="path21"
       d="m 0,0 c 0,-2.401 -1.947,-4.348 -4.349,-4.348 -2.4,0 -4.347,1.947 -4.347,4.348 0,2.401 1.947,4.348 4.347,4.348 C -1.947,4.348 0,2.401 0,0"
       style="fill:#231f20;fill-opacity:1;fill-rule:nonzero;stroke:#231f20;stroke-width:1;stroke-linecap:butt;stroke-linejoin:miter;stroke-miterlimit:10;stroke-dasharray:none;stroke-opacity:1"
       transform="matrix(1.3333333,0,0,-1.3333333,68.7376,30.136533)"
       clip-path="url(#clipPath22)" />
    <path
       id="path23"
       d="m 0,0 c 0,-2.401 -1.947,-4.348 -4.349,-4.348 -2.4,0 -4.347,1.947 -4.347,4.348 0,2.401 1.947,4.348 4.347,4.348 C -1.947,4.348 0,2.401 0,0"
       style="fill:#231f20;fill-opacity:1;fill-rule:nonzero;stroke:#231f20;stroke-width:1;stroke-linecap:butt;stroke-linejoin:miter;stroke-miterlimit:10;stroke-dasharray:none;stroke-opacity:1"
       transform="matrix(1.3333333,0,0,-1.3333333,68.7376,46.699733)"
       clip-path="url(#clipPath24)" />
    <path
       id="path25"
       d="m 0,0 c 0,-2.401 -1.946,-4.348 -4.348,-4.348 -2.401,0 -4.347,1.947 -4.347,4.348 0,2.401 1.946,4.348 4.347,4.348 C -1.946,4.348 0,2.401 0,0"
       style="fill:#ffffff;fill-opacity:1;fill-rule:nonzero;stroke:#231f20;stroke-width:1;stroke-linecap:butt;stroke-linejoin:miter;stroke-miterlimit:10;stroke-dasharray:none;stroke-opacity:1"
       transform="matrix(1.3333333,0,0,-1.3333333,17.445867,63.768133)"
       clip-path="url(#clipPath26)" />
    <path
       id="path27"
       d="m 0,0 c 0,-2.401 -1.947,-4.348 -4.349,-4.348 -2.4,0 -4.347,1.947 -4.347,4.348 0,2.401 1.947,4.348 4.347,4.348 C -1.947,4.348 0,2.401 0,0"
       style="fill:#ffffff;fill-opacity:1;fill-rule:nonzero;stroke:#231f20;stroke-width:1;stroke-linecap:butt;stroke-linejoin:miter;stroke-miterlimit:10;stroke-dasharray:none;stroke-opacity:1"
       transform="matrix(1.3333333,0,0,-1.3333333,34.7832,63.768133)"
       clip-path="url(#clipPath28)" />
    <path
       id="path29"
       d="m 0,0 c 0,-2.401 -1.946,-4.348 -4.348,-4.348 -2.401,0 -4.347,1.947 -4.347,4.348 0,2.401 1.946,4.348 4.347,4.348 C -1.946,4.348 0,2.401 0,0"
       style="fill:#ffffff;fill-opacity:1;fill-rule:nonzero;stroke:#231f20;stroke-width:1;stroke-linecap:butt;stroke-linejoin:miter;stroke-miterlimit:10;stroke-dasharray:none;stroke-opacity:1"
       transform="matrix(1.3333333,0,0,-1.3333333,51.3456,63.768133)"
       clip-path="url(#clipPath30)" />
    <path
       id="path31"
       d="m 0,0 c 0,-2.401 -1.947,-4.348 -4.349,-4.348 -2.4,0 -4.347,1.947 -4.347,4.348 0,2.401 1.947,4.348 4.347,4.348 C -1.947,4.348 0,2.401 0,0"
       style="fill:#231f20;fill-opacity:1;fill-rule:nonzero;stroke:#231f20;stroke-width:1;stroke-linecap:butt;stroke-linejoin:miter;stroke-miterlimit:10;stroke-dasharray:none;stroke-opacity:1"
       transform="matrix(1.3333333,0,0,-1.3333333,68.7376,63.768133)"
       clip-path="url(#clipPath32)" />
    <path
       id="path33"
       d="m 0,0 c 0,-2.401 -1.946,-4.348 -4.348,-4.348 -2.401,0 -4.347,1.947 -4.347,4.348 0,2.401 1.946,4.348 4.347,4.348 C -1.946,4.348 0,2.401 0,0"
       style="fill:#231f20;fill-opacity:1;fill-rule:nonzero;stroke:#231f20;stroke-width:1;stroke-linecap:butt;stroke-linejoin:miter;stroke-miterlimit:10;stroke-dasharray:none;stroke-opacity:1"
       transform="matrix(1.3333333,0,0,-1.3333333,87.011067,12.745333)"
       clip-path="url(#clipPath34)" />
    <path
       id="path35"
       d="m 0,0 c 0,-2.401 -1.947,-4.348 -4.348,-4.348 -2.401,0 -4.348,1.947 -4.348,4.348 0,2.401 1.947,4.348 4.348,4.348 C -1.947,4.348 0,2.401 0,0"
       style="fill:#231f20;fill-opacity:1;fill-rule:nonzero;stroke:#231f20;stroke-width:1;stroke-linecap:butt;stroke-linejoin:miter;stroke-miterlimit:10;stroke-dasharray:none;stroke-opacity:1"
       transform="matrix(1.3333333,0,0,-1.3333333,104.34827,12.745333)"
       clip-path="url(#clipPath36)" />
    <path
       id="path37"
       d="m 0,0 c 0,-2.401 -1.946,-4.348 -4.348,-4.348 -2.401,0 -4.347,1.947 -4.347,4.348 0,2.401 1.946,4.348 4.347,4.348 C -1.946,4.348 0,2.401 0,0"
       style="fill:#231f20;fill-opacity:1;fill-rule:nonzero;stroke:#231f20;stroke-width:1;stroke-linecap:butt;stroke-linejoin:miter;stroke-miterlimit:10;stroke-dasharray:none;stroke-opacity:1"
       transform="matrix(1.3333333,0,0,-1.3333333,87.011067,30.136533)"
       clip-path="url(#clipPath38)" />
    <path
       id="path39"
       d="m 0,0 c 0,-2.401 -1.947,-4.348 -4.348,-4.348 -2.401,0 -4.348,1.947 -4.348,4.348 0,2.401 1.947,4.348 4.348,4.348 C -1.947,4.348 0,2.401 0,0"
       style="fill:#231f20;fill-opacity:1;fill-rule:nonzero;stroke:#231f20;stroke-width:1;stroke-linecap:butt;stroke-linejoin:miter;stroke-miterlimit:10;stroke-dasharray:none;stroke-opacity:1"
       transform="matrix(1.3333333,0,0,-1.3333333,104.34827,30.136533)"
       clip-path="url(#clipPath40)" />
    <path
       id="path41"
       d="m 0,0 c 0,-2.401 -1.946,-4.348 -4.348,-4.348 -2.401,0 -4.347,1.947 -4.347,4.348 0,2.401 1.946,4.348 4.347,4.348 C -1.946,4.348 0,2.401 0,0"
       style="fill:#231f20;fill-opacity:1;fill-rule:nonzero;stroke:#231f20;stroke-width:1;stroke-linecap:butt;stroke-linejoin:miter;stroke-miterlimit:10;stroke-dasharray:none;stroke-opacity:1"
       transform="matrix(1.3333333,0,0,-1.3333333,120.9108,12.745333)"
       clip-path="url(#clipPath42)" />
    <path
       id="path43"
       d="m 0,0 c 0,-2.401 -1.946,-4.348 -4.348,-4.348 -2.401,0 -4.347,1.947 -4.347,4.348 0,2.401 1.946,4.348 4.347,4.348 C -1.946,4.348 0,2.401 0,0"
       style="fill:#231f20;fill-opacity:1;fill-rule:nonzero;stroke:#231f20;stroke-width:1;stroke-linecap:butt;stroke-linejoin:miter;stroke-miterlimit:10;stroke-dasharray:none;stroke-opacity:1"
       transform="matrix(1.3333333,0,0,-1.3333333,120.9108,30.136533)"
       clip-path="url(#clipPath44)" />
    <path
       id="path45"
       d="m 0,0 c 0,-2.401 -1.946,-4.348 -4.348,-4.348 -2.401,0 -4.347,1.947 -4.347,4.348 0,2.401 1.946,4.348 4.347,4.348 C -1.946,4.348 0,2.401 0,0"
       style="fill:#231f20;fill-opacity:1;fill-rule:nonzero;stroke:#231f20;stroke-width:1;stroke-linecap:butt;stroke-linejoin:miter;stroke-miterlimit:10;stroke-dasharray:none;stroke-opacity:1"
       transform="matrix(1.3333333,0,0,-1.3333333,87.011067,46.699733)"
       clip-path="url(#clipPath46)" />
    <path
       id="path47"
       d="m 0,0 c 0,-2.401 -1.947,-4.348 -4.348,-4.348 -2.401,0 -4.348,1.947 -4.348,4.348 0,2.401 1.947,4.348 4.348,4.348 C -1.947,4.348 0,2.401 0,0"
       style="fill:#231f20;fill-opacity:1;fill-rule:nonzero;stroke:#231f20;stroke-width:1;stroke-linecap:butt;stroke-linejoin:miter;stroke-miterlimit:10;stroke-dasharray:none;stroke-opacity:1"
       transform="matrix(1.3333333,0,0,-1.3333333,104.34827,46.699733)"
       clip-path="url(#clipPath48)" />
    <path
       id="path49"
       d="m 0,0 c 0,-2.401 -1.946,-4.348 -4.348,-4.348 -2.401,0 -4.347,1.947 -4.347,4.348 0,2.401 1.946,4.348 4.347,4.348 C -1.946,4.348 0,2.401 0,0"
       style="fill:#231f20;fill-opacity:1;fill-rule:nonzero;stroke:#231f20;stroke-width:1;stroke-linecap:butt;stroke-linejoin:miter;stroke-miterlimit:10;stroke-dasharray:none;stroke-opacity:1"
       transform="matrix(1.3333333,0,0,-1.3333333,120.9108,46.699733)"
       clip-path="url(#clipPath50)" />
    <path
       id="path51"
       d="m 0,0 c 0,-2.401 -1.947,-4.348 -4.348,-4.348 -2.401,0 -4.348,1.947 -4.348,4.348 0,2.401 1.947,4.348 4.348,4.348 C -1.947,4.348 0,2.401 0,0"
       style="fill:#231f20;fill-opacity:1;fill-rule:nonzero;stroke:#231f20;stroke-width:1;stroke-linecap:butt;stroke-linejoin:miter;stroke-miterlimit:10;stroke-dasharray:none;stroke-opacity:1"
       transform="matrix(1.3333333,0,0,-1.3333333,138.30267,12.745333)"
       clip-path="url(#clipPath52)" />
    <path
       id="path53"
       d="m 0,0 c 0,-2.401 -1.947,-4.348 -4.348,-4.348 -2.401,0 -4.348,1.947 -4.348,4.348 0,2.401 1.947,4.348 4.348,4.348 C -1.947,4.348 0,2.401 0,0"
       style="fill:#231f20;fill-opacity:1;fill-rule:nonzero;stroke:#231f20;stroke-width:1;stroke-linecap:butt;stroke-linejoin:miter;stroke-miterlimit:10;stroke-dasharray:none;stroke-opacity:1"
       transform="matrix(1.3333333,0,0,-1.3333333,138.30267,30.136533)"
       clip-path="url(#clipPath54)" />
    <path
       id="path55"
       d="m 0,0 c 0,-2.401 -1.947,-4.348 -4.348,-4.348 -2.401,0 -4.348,1.947 -4.348,4.348 0,2.401 1.947,4.348 4.348,4.348 C -1.947,4.348 0,2.401 0,0"
       style="fill:#231f20;fill-opacity:1;fill-rule:nonzero;stroke:#231f20;stroke-width:1;stroke-linecap:butt;stroke-linejoin:miter;stroke-miterlimit:10;stroke-dasharray:none;stroke-opacity:1"
       transform="matrix(1.3333333,0,0,-1.3333333,138.30267,46.699733)"
       clip-path="url(#clipPath56)" />
    <path
       id="path57"
       d="m 0,0 c 0,-2.401 -1.946,-4.348 -4.348,-4.348 -2.401,0 -4.347,1.947 -4.347,4.348 0,2.401 1.946,4.348 4.347,4.348 C -1.946,4.348 0,2.401 0,0"
       style="fill:#231f20;fill-opacity:1;fill-rule:nonzero;stroke:#231f20;stroke-width:1;stroke-linecap:butt;stroke-linejoin:miter;stroke-miterlimit:10;stroke-dasharray:none;stroke-opacity:1"
       transform="matrix(1.3333333,0,0,-1.3333333,87.011067,63.768133)"
       clip-path="url(#clipPath58)" />
    <path
       id="path59"
       d="m 0,0 c 0,-2.401 -1.947,-4.348 -4.348,-4.348 -2.401,0 -4.348,1.947 -4.348,4.348 0,2.401 1.947,4.348 4.348,4.348 C -1.947,4.348 0,2.401 0,0"
       style="fill:#231f20;fill-opacity:1;fill-rule:nonzero;stroke:#231f20;stroke-width:1;stroke-linecap:butt;stroke-linejoin:miter;stroke-miterlimit:10;stroke-dasharray:none;stroke-opacity:1"
       transform="matrix(1.3333333,0,0,-1.3333333,104.34827,63.768133)"
       clip-path="url(#clipPath60)" />
    <path
       id="path61"
       d="m 0,0 c 0,-2.401 -1.946,-4.348 -4.348,-4.348 -2.401,0 -4.347,1.947 -4.347,4.348 0,2.401 1.946,4.348 4.347,4.348 C -1.946,4.348 0,2.401 0,0"
       style="fill:#231f20;fill-opacity:1;fill-rule:nonzero;stroke:#231f20;stroke-width:1;stroke-linecap:butt;stroke-linejoin:miter;stroke-miterlimit:10;stroke-dasharray:none;stroke-opacity:1"
       transform="matrix(1.3333333,0,0,-1.3333333,120.9108,63.768133)"
       clip-path="url(#clipPath62)" />
    <path
       id="path63"
       d="m 0,0 c 0,-2.401 -1.947,-4.348 -4.348,-4.348 -2.401,0 -4.348,1.947 -4.348,4.348 0,2.401 1.947,4.348 4.348,4.348 C -1.947,4.348 0,2.401 0,0"
       style="fill:#231f20;fill-opacity:1;fill-rule:nonzero;stroke:#231f20;stroke-width:1;stroke-linecap:butt;stroke-linejoin:miter;stroke-miterlimit:10;stroke-dasharray:none;stroke-opacity:1"
       transform="matrix(1.3333333,0,0,-1.3333333,138.30267,63.768133)"
       clip-path="url(#clipPath64)" />
    <path
       id="path65"
       d="m 0,0 c 0,-2.401 -1.946,-4.348 -4.348,-4.348 -2.401,0 -4.347,1.947 -4.347,4.348 0,2.401 1.946,4.348 4.347,4.348 C -1.946,4.348 0,2.401 0,0"
       style="fill:#ffffff;fill-opacity:1;fill-rule:nonzero;stroke:#231f20;stroke-width:1;stroke-linecap:butt;stroke-linejoin:miter;stroke-miterlimit:10;stroke-dasharray:none;stroke-opacity:1"
       transform="matrix(1.3333333,0,0,-1.3333333,17.445867,82.3104)"
       clip-path="url(#clipPath66)" />
    <path
       id="path67"
       d="m 0,0 c 0,-2.401 -1.947,-4.348 -4.349,-4.348 -2.4,0 -4.347,1.947 -4.347,4.348 0,2.401 1.947,4.348 4.347,4.348 C -1.947,4.348 0,2.401 0,0"
       style="fill:#ffffff;fill-opacity:1;fill-rule:nonzero;stroke:#231f20;stroke-width:1;stroke-linecap:butt;stroke-linejoin:miter;stroke-miterlimit:10;stroke-dasharray:none;stroke-opacity:1"
       transform="matrix(1.3333333,0,0,-1.3333333,34.7832,82.3104)"
       clip-path="url(#clipPath68)" />
    <path
       id="path69"
       d="m 0,0 c 0,-2.401 -1.946,-4.348 -4.348,-4.348 -2.401,0 -4.347,1.947 -4.347,4.348 0,2.401 1.946,4.348 4.347,4.348 C -1.946,4.348 0,2.401 0,0"
       style="fill:#ffffff;fill-opacity:1;fill-rule:nonzero;stroke:#231f20;stroke-width:1;stroke-linecap:butt;stroke-linejoin:miter;stroke-miterlimit:10;stroke-dasharray:none;stroke-opacity:1"
       transform="matrix(1.3333333,0,0,-1.3333333,17.445867,99.701733)"
       clip-path="url(#clipPath70)" />
    <path
       id="path71"
       d="m 0,0 c 0,-2.401 -1.947,-4.348 -4.349,-4.348 -2.4,0 -4.347,1.947 -4.347,4.348 0,2.401 1.947,4.348 4.347,4.348 C -1.947,4.348 0,2.401 0,0"
       style="fill:#ffffff;fill-opacity:1;fill-rule:nonzero;stroke:#231f20;stroke-width:1;stroke-linecap:butt;stroke-linejoin:miter;stroke-miterlimit:10;stroke-dasharray:none;stroke-opacity:1"
       transform="matrix(1.3333333,0,0,-1.3333333,34.7832,99.701733)"
       clip-path="url(#clipPath72)" />
    <path
       id="path73"
       d="m 0,0 c 0,-2.401 -1.946,-4.348 -4.348,-4.348 -2.401,0 -4.347,1.947 -4.347,4.348 0,2.401 1.946,4.348 4.347,4.348 C -1.946,4.348 0,2.401 0,0"
       style="fill:#ffffff;fill-opacity:1;fill-rule:nonzero;stroke:#231f20;stroke-width:1;stroke-linecap:butt;stroke-linejoin:miter;stroke-miterlimit:10;stroke-dasharray:none;stroke-opacity:1"
       transform="matrix(1.3333333,0,0,-1.3333333,51.3456,82.3104)"
       clip-path="url(#clipPath74)" />
    <path
       id="path75"
       d="m 0,0 c 0,-2.401 -1.946,-4.348 -4.348,-4.348 -2.401,0 -4.347,1.947 -4.347,4.348 0,2.401 1.946,4.348 4.347,4.348 C -1.946,4.348 0,2.401 0,0"
       style="fill:#ffffff;fill-opacity:1;fill-rule:nonzero;stroke:#231f20;stroke-width:1;stroke-linecap:butt;stroke-linejoin:miter;stroke-miterlimit:10;stroke-dasharray:none;stroke-opacity:1"
       transform="matrix(1.3333333,0,0,-1.3333333,51.3456,99.701733)"
       clip-path="url(#clipPath76)" />
    <path
       id="path77"
       d="m 0,0 c 0,-2.401 -1.946,-4.348 -4.348,-4.348 -2.401,0 -4.347,1.947 -4.347,4.348 0,2.401 1.946,4.348 4.347,4.348 C -1.946,4.348 0,2.401 0,0"
       style="fill:#ffffff;fill-opacity:1;fill-rule:nonzero;stroke:#231f20;stroke-width:1;stroke-linecap:butt;stroke-linejoin:miter;stroke-miterlimit:10;stroke-dasharray:none;stroke-opacity:1"
       transform="matrix(1.3333333,0,0,-1.3333333,17.445867,116.26493)"
       clip-path="url(#clipPath78)" />
    <path
       id="path79"
       d="m 0,0 c 0,-2.401 -1.947,-4.348 -4.349,-4.348 -2.4,0 -4.347,1.947 -4.347,4.348 0,2.401 1.947,4.348 4.347,4.348 C -1.947,4.348 0,2.401 0,0"
       style="fill:#ffffff;fill-opacity:1;fill-rule:nonzero;stroke:#231f20;stroke-width:1;stroke-linecap:butt;stroke-linejoin:miter;stroke-miterlimit:10;stroke-dasharray:none;stroke-opacity:1"
       transform="matrix(1.3333333,0,0,-1.3333333,34.7832,116.26493)"
       clip-path="url(#clipPath80)" />
    <path
       id="path81"
       d="m 0,0 c 0,-2.401 -1.946,-4.348 -4.348,-4.348 -2.401,0 -4.347,1.947 -4.347,4.348 0,2.401 1.946,4.348 4.347,4.348 C -1.946,4.348 0,2.401 0,0"
       style="fill:#ffffff;fill-opacity:1;fill-rule:nonzero;stroke:#231f20;stroke-width:1;stroke-linecap:butt;stroke-linejoin:miter;stroke-miterlimit:10;stroke-dasharray:none;stroke-opacity:1"
       transform="matrix(1.3333333,0,0,-1.3333333,51.3456,116.26493)"
       clip-path="url(#clipPath82)" />
    <path
       id="path83"
       d="m 0,0 c 0,-2.401 -1.947,-4.348 -4.349,-4.348 -2.4,0 -4.347,1.947 -4.347,4.348 0,2.401 1.947,4.348 4.347,4.348 C -1.947,4.348 0,2.401 0,0"
       style="fill:#ffffff;fill-opacity:1;fill-rule:nonzero;stroke:#231f20;stroke-width:1;stroke-linecap:butt;stroke-linejoin:miter;stroke-miterlimit:10;stroke-dasharray:none;stroke-opacity:1"
       transform="matrix(1.3333333,0,0,-1.3333333,68.7376,82.3104)"
       clip-path="url(#clipPath84)" />
    <path
       id="path85"
       d="m 0,0 c 0,-2.401 -1.947,-4.348 -4.349,-4.348 -2.4,0 -4.347,1.947 -4.347,4.348 0,2.401 1.947,4.348 4.347,4.348 C -1.947,4.348 0,2.401 0,0"
       style="fill:#ffffff;fill-opacity:1;fill-rule:nonzero;stroke:#231f20;stroke-width:1;stroke-linecap:butt;stroke-linejoin:miter;stroke-miterlimit:10;stroke-dasharray:none;stroke-opacity:1"
       transform="matrix(1.3333333,0,0,-1.3333333,68.7376,99.701733)"
       clip-path="url(#clipPath86)" />
    <path
       id="path87"
       d="m 0,0 c 0,-2.401 -1.947,-4.348 -4.349,-4.348 -2.4,0 -4.347,1.947 -4.347,4.348 0,2.401 1.947,4.348 4.347,4.348 C -1.947,4.348 0,2.401 0,0"
       style="fill:#ffffff;fill-opacity:1;fill-rule:nonzero;stroke:#231f20;stroke-width:1;stroke-linecap:butt;stroke-linejoin:miter;stroke-miterlimit:10;stroke-dasharray:none;stroke-opacity:1"
       transform="matrix(1.3333333,0,0,-1.3333333,68.7376,116.26493)"
       clip-path="url(#clipPath88)" />
    <path
       id="path89"
       d="m 0,0 c 0,-2.401 -1.946,-4.348 -4.348,-4.348 -2.401,0 -4.347,1.947 -4.347,4.348 0,2.401 1.946,4.348 4.347,4.348 C -1.946,4.348 0,2.401 0,0"
       style="fill:#ffffff;fill-opacity:1;fill-rule:nonzero;stroke:#231f20;stroke-width:1;stroke-linecap:butt;stroke-linejoin:miter;stroke-miterlimit:10;stroke-dasharray:none;stroke-opacity:1"
       transform="matrix(1.3333333,0,0,-1.3333333,17.445867,133.3332)"
       clip-path="url(#clipPath90)" />
    <path
       id="path91"
       d="m 0,0 c 0,-2.401 -1.947,-4.348 -4.349,-4.348 -2.4,0 -4.347,1.947 -4.347,4.348 0,2.401 1.947,4.348 4.347,4.348 C -1.947,4.348 0,2.401 0,0"
       style="fill:#ffffff;fill-opacity:1;fill-rule:nonzero;stroke:#231f20;stroke-width:1;stroke-linecap:butt;stroke-linejoin:miter;stroke-miterlimit:10;stroke-dasharray:none;stroke-opacity:1"
       transform="matrix(1.3333333,0,0,-1.3333333,34.7832,133.3332)"
       clip-path="url(#clipPath92)" />
    <path
       id="path93"
       d="m 0,0 c 0,-2.401 -1.946,-4.348 -4.348,-4.348 -2.401,0 -4.347,1.947 -4.347,4.348 0,2.401 1.946,4.348 4.347,4.348 C -1.946,4.348 0,2.401 0,0"
       style="fill:#ffffff;fill-opacity:1;fill-rule:nonzero;stroke:#231f20;stroke-width:1;stroke-linecap:butt;stroke-linejoin:miter;stroke-miterlimit:10;stroke-dasharray:none;stroke-opacity:1"
       transform="matrix(1.3333333,0,0,-1.3333333,51.3456,133.3332)"
       clip-path="url(#clipPath94)" />
    <path
       id="path95"
       d="m 0,0 c 0,-2.401 -1.947,-4.348 -4.349,-4.348 -2.4,0 -4.347,1.947 -4.347,4.348 0,2.401 1.947,4.348 4.347,4.348 C -1.947,4.348 0,2.401 0,0"
       style="fill:#ffffff;fill-opacity:1;fill-rule:nonzero;stroke:#231f20;stroke-width:1;stroke-linecap:butt;stroke-linejoin:miter;stroke-miterlimit:10;stroke-dasharray:none;stroke-opacity:1"
       transform="matrix(1.3333333,0,0,-1.3333333,68.7376,133.3332)"
       clip-path="url(#clipPath96)" />
    <path
       id="path97"
       d="m 0,0 c 0,-2.401 -1.946,-4.348 -4.348,-4.348 -2.401,0 -4.347,1.947 -4.347,4.348 0,2.401 1.946,4.348 4.347,4.348 C -1.946,4.348 0,2.401 0,0"
       style="fill:#231f20;fill-opacity:1;fill-rule:nonzero;stroke:#231f20;stroke-width:1;stroke-linecap:butt;stroke-linejoin:miter;stroke-miterlimit:10;stroke-dasharray:none;stroke-opacity:1"
       transform="matrix(1.3333333,0,0,-1.3333333,87.011067,82.3104)"
       clip-path="url(#clipPath98)" />
    <path
       id="path99"
       d="m 0,0 c 0,-2.401 -1.947,-4.348 -4.348,-4.348 -2.401,0 -4.348,1.947 -4.348,4.348 0,2.401 1.947,4.348 4.348,4.348 C -1.947,4.348 0,2.401 0,0"
       style="fill:#231f20;fill-opacity:1;fill-rule:nonzero;stroke:#231f20;stroke-width:1;stroke-linecap:butt;stroke-linejoin:miter;stroke-miterlimit:10;stroke-dasharray:none;stroke-opacity:1"
       transform="matrix(1.3333333,0,0,-1.3333333,104.34827,82.3104)"
       clip-path="url(#clipPath100)" />
    <path
       id="path101"
       d="m 0,0 c 0,-2.401 -1.946,-4.348 -4.348,-4.348 -2.401,0 -4.347,1.947 -4.347,4.348 0,2.401 1.946,4.348 4.347,4.348 C -1.946,4.348 0,2.401 0,0"
       style="fill:#ffffff;fill-opacity:1;fill-rule:nonzero;stroke:#231f20;stroke-width:1;stroke-linecap:butt;stroke-linejoin:miter;stroke-miterlimit:10;stroke-dasharray:none;stroke-opacity:1"
       transform="matrix(1.3333333,0,0,-1.3333333,87.011067,99.701733)"
       clip-path="url(#clipPath102)" />
    <path
       id="path103"
       d="m 0,0 c 0,-2.401 -1.947,-4.348 -4.348,-4.348 -2.401,0 -4.348,1.947 -4.348,4.348 0,2.401 1.947,4.348 4.348,4.348 C -1.947,4.348 0,2.401 0,0"
       style="fill:#231f20;fill-opacity:1;fill-rule:nonzero;stroke:#231f20;stroke-width:1;stroke-linecap:butt;stroke-linejoin:miter;stroke-miterlimit:10;stroke-dasharray:none;stroke-opacity:1"
       transform="matrix(1.3333333,0,0,-1.3333333,104.34827,99.701733)"
       clip-path="url(#clipPath104)" />
    <path
       id="path105"
       d="m 0,0 c 0,-2.401 -1.946,-4.348 -4.348,-4.348 -2.401,0 -4.347,1.947 -4.347,4.348 0,2.401 1.946,4.348 4.347,4.348 C -1.946,4.348 0,2.401 0,0"
       style="fill:#231f20;fill-opacity:1;fill-rule:nonzero;stroke:#231f20;stroke-width:1;stroke-linecap:butt;stroke-linejoin:miter;stroke-miterlimit:10;stroke-dasharray:none;stroke-opacity:1"
       transform="matrix(1.3333333,0,0,-1.3333333,120.9108,82.3104)"
       clip-path="url(#clipPath106)" />
    <path
       id="path107"
       d="m 0,0 c 0,-2.401 -1.946,-4.348 -4.348,-4.348 -2.401,0 -4.347,1.947 -4.347,4.348 0,2.401 1.946,4.348 4.347,4.348 C -1.946,4.348 0,2.401 0,0"
       style="fill:#231f20;fill-opacity:1;fill-rule:nonzero;stroke:#231f20;stroke-width:1;stroke-linecap:butt;stroke-linejoin:miter;stroke-miterlimit:10;stroke-dasharray:none;stroke-opacity:1"
       transform="matrix(1.3333333,0,0,-1.3333333,120.9108,99.701733)"
       clip-path="url(#clipPath108)" />
    <path
       id="path109"
       d="m 0,0 c 0,-2.401 -1.946,-4.348 -4.348,-4.348 -2.401,0 -4.347,1.947 -4.347,4.348 0,2.401 1.946,4.348 4.347,4.348 C -1.946,4.348 0,2.401 0,0"
       style="fill:#ffffff;fill-opacity:1;fill-rule:nonzero;stroke:#231f20;stroke-width:1;stroke-linecap:butt;stroke-linejoin:miter;stroke-miterlimit:10;stroke-dasharray:none;stroke-opacity:1"
       transform="matrix(1.3333333,0,0,-1.3333333,87.011067,116.26493)"
       clip-path="url(#clipPath110)" />
    <path
       id="path111"
       d="m 0,0 c 0,-2.401 -1.947,-4.348 -4.348,-4.348 -2.401,0 -4.348,1.947 -4.348,4.348 0,2.401 1.947,4.348 4.348,4.348 C -1.947,4.348 0,2.401 0,0"
       style="fill:#ffffff;fill-opacity:1;fill-rule:nonzero;stroke:#231f20;stroke-width:1;stroke-linecap:butt;stroke-linejoin:miter;stroke-miterlimit:10;stroke-dasharray:none;stroke-opacity:1"
       transform="matrix(1.3333333,0,0,-1.3333333,104.34827,116.26493)"
       clip-path="url(#clipPath112)" />
    <path
       id="path113"
       d="m 0,0 c 0,-2.401 -1.946,-4.348 -4.348,-4.348 -2.401,0 -4.347,1.947 -4.347,4.348 0,2.401 1.946,4.348 4.347,4.348 C -1.946,4.348 0,2.401 0,0"
       style="fill:#231f20;fill-opacity:1;fill-rule:nonzero;stroke:#231f20;stroke-width:1;stroke-linecap:butt;stroke-linejoin:miter;stroke-miterlimit:10;stroke-dasharray:none;stroke-opacity:1"
       transform="matrix(1.3333333,0,0,-1.3333333,120.9108,116.26493)"
       clip-path="url(#clipPath114)" />
    <path
       id="path115"
       d="m 0,0 c 0,-2.401 -1.947,-4.348 -4.348,-4.348 -2.401,0 -4.348,1.947 -4.348,4.348 0,2.401 1.947,4.348 4.348,4.348 C -1.947,4.348 0,2.401 0,0"
       style="fill:#231f20;fill-opacity:1;fill-rule:nonzero;stroke:#231f20;stroke-width:1;stroke-linecap:butt;stroke-linejoin:miter;stroke-miterlimit:10;stroke-dasharray:none;stroke-opacity:1"
       transform="matrix(1.3333333,0,0,-1.3333333,138.30267,82.3104)"
       clip-path="url(#clipPath116)" />
    <path
       id="path117"
       d="m 0,0 c 0,-2.401 -1.947,-4.348 -4.348,-4.348 -2.401,0 -4.348,1.947 -4.348,4.348 0,2.401 1.947,4.348 4.348,4.348 C -1.947,4.348 0,2.401 0,0"
       style="fill:#231f20;fill-opacity:1;fill-rule:nonzero;stroke:#231f20;stroke-width:1;stroke-linecap:butt;stroke-linejoin:miter;stroke-miterlimit:10;stroke-dasharray:none;stroke-opacity:1"
       transform="matrix(1.3333333,0,0,-1.3333333,138.30267,99.701733)"
       clip-path="url(#clipPath118)" />
    <path
       id="path119"
       d="m 0,0 c 0,-2.401 -1.947,-4.348 -4.348,-4.348 -2.401,0 -4.348,1.947 -4.348,4.348 0,2.401 1.947,4.348 4.348,4.348 C -1.947,4.348 0,2.401 0,0"
       style="fill:#231f20;fill-opacity:1;fill-rule:nonzero;stroke:#231f20;stroke-width:1;stroke-linecap:butt;stroke-linejoin:miter;stroke-miterlimit:10;stroke-dasharray:none;stroke-opacity:1"
       transform="matrix(1.3333333,0,0,-1.3333333,138.30267,116.26493)"
       clip-path="url(#clipPath120)" />
    <path
       id="path121"
       d="m 0,0 c 0,-2.401 -1.946,-4.348 -4.348,-4.348 -2.401,0 -4.347,1.947 -4.347,4.348 0,2.401 1.946,4.348 4.347,4.348 C -1.946,4.348 0,2.401 0,0"
       style="fill:#ffffff;fill-opacity:1;fill-rule:nonzero;stroke:#231f20;stroke-width:1;stroke-linecap:butt;stroke-linejoin:miter;stroke-miterlimit:10;stroke-dasharray:none;stroke-opacity:1"
       transform="matrix(1.3333333,0,0,-1.3333333,87.011067,133.3332)"
       clip-path="url(#clipPath122)" />
    <path
       id="path123"
       d="m 0,0 c 0,-2.401 -1.947,-4.348 -4.348,-4.348 -2.401,0 -4.348,1.947 -4.348,4.348 0,2.401 1.947,4.348 4.348,4.348 C -1.947,4.348 0,2.401 0,0"
       style="fill:#ffffff;fill-opacity:1;fill-rule:nonzero;stroke:#231f20;stroke-width:1;stroke-linecap:butt;stroke-linejoin:miter;stroke-miterlimit:10;stroke-dasharray:none;stroke-opacity:1"
       transform="matrix(1.3333333,0,0,-1.3333333,104.34827,133.3332)"
       clip-path="url(#clipPath124)" />
    <path
       id="path125"
       d="m 0,0 c 0,-2.401 -1.946,-4.348 -4.348,-4.348 -2.401,0 -4.347,1.947 -4.347,4.348 0,2.401 1.946,4.348 4.347,4.348 C -1.946,4.348 0,2.401 0,0"
       style="fill:#ffffff;fill-opacity:1;fill-rule:nonzero;stroke:#231f20;stroke-width:1;stroke-linecap:butt;stroke-linejoin:miter;stroke-miterlimit:10;stroke-dasharray:none;stroke-opacity:1"
       transform="matrix(1.3333333,0,0,-1.3333333,120.9108,133.3332)"
       clip-path="url(#clipPath126)" />
    <path
       id="path127"
       d="m 0,0 c 0,-2.401 -1.947,-4.348 -4.348,-4.348 -2.401,0 -4.348,1.947 -4.348,4.348 0,2.401 1.947,4.348 4.348,4.348 C -1.947,4.348 0,2.401 0,0"
       style="fill:#231f20;fill-opacity:1;fill-rule:nonzero;stroke:#231f20;stroke-width:1;stroke-linecap:butt;stroke-linejoin:miter;stroke-miterlimit:10;stroke-dasharray:none;stroke-opacity:1"
       transform="matrix(1.3333333,0,0,-1.3333333,138.30267,133.3332)"
       clip-path="url(#clipPath128)" />
  </g>
</svg>
