<?xml version="1.0" encoding="UTF-8" standalone="no"?>
<!-- Created with Inkscape (http://www.inkscape.org/) -->

<svg
   version="1.1"
   id="svg1"
   width="146.584"
   height="146.584"
   viewBox="0 0 146.584 146.584"
   sodipodi:docname="upload_y7qye27n46baitqrlvv2u762bm.pdf"
   xmlns:inkscape="http://www.inkscape.org/namespaces/inkscape"
   xmlns:sodipodi="http://sodipodi.sourceforge.net/DTD/sodipodi-0.dtd"
   xmlns="http://www.w3.org/2000/svg"
   xmlns:svg="http://www.w3.org/2000/svg">
  <defs
     id="defs1">
    <clipPath
       clipPathUnits="userSpaceOnUse"
       id="clipPath2">
      <path
         d="M 0,109.938 H 109.938 V 0 H 0 Z"
         transform="translate(-14.9478,-100.3791)"
         id="path2" />
    </clipPath>
    <clipPath
       clipPathUnits="userSpaceOnUse"
       id="clipPath4">
      <path
         d="M 0,109.938 H 109.938 V 0 H 0 Z"
         transform="translate(-27.9508,-100.3791)"
         id="path4" />
    </clipPath>
    <clipPath
       clipPathUnits="userSpaceOnUse"
       id="clipPath6">
      <path
         d="M 0,109.938 H 109.938 V 0 H 0 Z"
         transform="translate(-14.9478,-87.335602)"
         id="path6" />
    </clipPath>
    <clipPath
       clipPathUnits="userSpaceOnUse"
       id="clipPath8">
      <path
         d="M 0,109.938 H 109.938 V 0 H 0 Z"
         transform="translate(-27.9508,-87.335602)"
         id="path8" />
    </clipPath>
    <clipPath
       clipPathUnits="userSpaceOnUse"
       id="clipPath10">
      <path
         d="M 0,109.938 H 109.938 V 0 H 0 Z"
         transform="translate(-40.372701,-100.3791)"
         id="path10" />
    </clipPath>
    <clipPath
       clipPathUnits="userSpaceOnUse"
       id="clipPath12">
      <path
         d="M 0,109.938 H 109.938 V 0 H 0 Z"
         transform="translate(-40.372701,-87.335602)"
         id="path12" />
    </clipPath>
    <clipPath
       clipPathUnits="userSpaceOnUse"
       id="clipPath14">
      <path
         d="M 0,109.938 H 109.938 V 0 H 0 Z"
         transform="translate(-14.9478,-74.913302)"
         id="path14" />
    </clipPath>
    <clipPath
       clipPathUnits="userSpaceOnUse"
       id="clipPath16">
      <path
         d="M 0,109.938 H 109.938 V 0 H 0 Z"
         transform="translate(-27.9508,-74.913302)"
         id="path16" />
    </clipPath>
    <clipPath
       clipPathUnits="userSpaceOnUse"
       id="clipPath18">
      <path
         d="M 0,109.938 H 109.938 V 0 H 0 Z"
         transform="translate(-40.372701,-74.913302)"
         id="path18" />
    </clipPath>
    <clipPath
       clipPathUnits="userSpaceOnUse"
       id="clipPath20">
      <path
         d="M 0,109.938 H 109.938 V 0 H 0 Z"
         transform="translate(-53.416601,-100.3791)"
         id="path20" />
    </clipPath>
    <clipPath
       clipPathUnits="userSpaceOnUse"
       id="clipPath22">
      <path
         d="M 0,109.938 H 109.938 V 0 H 0 Z"
         transform="translate(-53.416601,-87.335602)"
         id="path22" />
    </clipPath>
    <clipPath
       clipPathUnits="userSpaceOnUse"
       id="clipPath24">
      <path
         d="M 0,109.938 H 109.938 V 0 H 0 Z"
         transform="translate(-53.416601,-74.913302)"
         id="path24" />
    </clipPath>
    <clipPath
       clipPathUnits="userSpaceOnUse"
       id="clipPath26">
      <path
         d="M 0,109.938 H 109.938 V 0 H 0 Z"
         transform="translate(-14.9478,-62.112002)"
         id="path26" />
    </clipPath>
    <clipPath
       clipPathUnits="userSpaceOnUse"
       id="clipPath28">
      <path
         d="M 0,109.938 H 109.938 V 0 H 0 Z"
         transform="translate(-27.9508,-62.112002)"
         id="path28" />
    </clipPath>
    <clipPath
       clipPathUnits="userSpaceOnUse"
       id="clipPath30">
      <path
         d="M 0,109.938 H 109.938 V 0 H 0 Z"
         transform="translate(-40.372701,-62.112002)"
         id="path30" />
    </clipPath>
    <clipPath
       clipPathUnits="userSpaceOnUse"
       id="clipPath32">
      <path
         d="M 0,109.938 H 109.938 V 0 H 0 Z"
         transform="translate(-53.416601,-62.112002)"
         id="path32" />
    </clipPath>
    <clipPath
       clipPathUnits="userSpaceOnUse"
       id="clipPath34">
      <path
         d="M 0,109.938 H 109.938 V 0 H 0 Z"
         transform="translate(-67.121702,-100.3791)"
         id="path34" />
    </clipPath>
    <clipPath
       clipPathUnits="userSpaceOnUse"
       id="clipPath36">
      <path
         d="M 0,109.938 H 109.938 V 0 H 0 Z"
         transform="translate(-80.124602,-100.3791)"
         id="path36" />
    </clipPath>
    <clipPath
       clipPathUnits="userSpaceOnUse"
       id="clipPath38">
      <path
         d="M 0,109.938 H 109.938 V 0 H 0 Z"
         transform="translate(-67.121702,-87.335602)"
         id="path38" />
    </clipPath>
    <clipPath
       clipPathUnits="userSpaceOnUse"
       id="clipPath40">
      <path
         d="M 0,109.938 H 109.938 V 0 H 0 Z"
         transform="translate(-80.124602,-87.335602)"
         id="path40" />
    </clipPath>
    <clipPath
       clipPathUnits="userSpaceOnUse"
       id="clipPath42">
      <path
         d="M 0,109.938 H 109.938 V 0 H 0 Z"
         transform="translate(-92.5465,-100.3791)"
         id="path42" />
    </clipPath>
    <clipPath
       clipPathUnits="userSpaceOnUse"
       id="clipPath44">
      <path
         d="M 0,109.938 H 109.938 V 0 H 0 Z"
         transform="translate(-92.5465,-87.335602)"
         id="path44" />
    </clipPath>
    <clipPath
       clipPathUnits="userSpaceOnUse"
       id="clipPath46">
      <path
         d="M 0,109.938 H 109.938 V 0 H 0 Z"
         transform="translate(-67.121702,-74.913302)"
         id="path46" />
    </clipPath>
    <clipPath
       clipPathUnits="userSpaceOnUse"
       id="clipPath48">
      <path
         d="M 0,109.938 H 109.938 V 0 H 0 Z"
         transform="translate(-80.124602,-74.913302)"
         id="path48" />
    </clipPath>
    <clipPath
       clipPathUnits="userSpaceOnUse"
       id="clipPath50">
      <path
         d="M 0,109.938 H 109.938 V 0 H 0 Z"
         transform="translate(-92.5465,-74.913302)"
         id="path50" />
    </clipPath>
    <clipPath
       clipPathUnits="userSpaceOnUse"
       id="clipPath52">
      <path
         d="M 0,109.938 H 109.938 V 0 H 0 Z"
         transform="translate(-105.5904,-100.3791)"
         id="path52" />
    </clipPath>
    <clipPath
       clipPathUnits="userSpaceOnUse"
       id="clipPath54">
      <path
         d="M 0,109.938 H 109.938 V 0 H 0 Z"
         transform="translate(-105.5904,-87.335602)"
         id="path54" />
    </clipPath>
    <clipPath
       clipPathUnits="userSpaceOnUse"
       id="clipPath56">
      <path
         d="M 0,109.938 H 109.938 V 0 H 0 Z"
         transform="translate(-105.5904,-74.913302)"
         id="path56" />
    </clipPath>
    <clipPath
       clipPathUnits="userSpaceOnUse"
       id="clipPath58">
      <path
         d="M 0,109.938 H 109.938 V 0 H 0 Z"
         transform="translate(-67.121702,-62.112002)"
         id="path58" />
    </clipPath>
    <clipPath
       clipPathUnits="userSpaceOnUse"
       id="clipPath60">
      <path
         d="M 0,109.938 H 109.938 V 0 H 0 Z"
         transform="translate(-80.124602,-62.112002)"
         id="path60" />
    </clipPath>
    <clipPath
       clipPathUnits="userSpaceOnUse"
       id="clipPath62">
      <path
         d="M 0,109.938 H 109.938 V 0 H 0 Z"
         transform="translate(-92.5465,-62.112002)"
         id="path62" />
    </clipPath>
    <clipPath
       clipPathUnits="userSpaceOnUse"
       id="clipPath64">
      <path
         d="M 0,109.938 H 109.938 V 0 H 0 Z"
         transform="translate(-105.5904,-62.112002)"
         id="path64" />
    </clipPath>
    <clipPath
       clipPathUnits="userSpaceOnUse"
       id="clipPath66">
      <path
         d="M 0,109.938 H 109.938 V 0 H 0 Z"
         transform="translate(-14.9478,-48.204801)"
         id="path66" />
    </clipPath>
    <clipPath
       clipPathUnits="userSpaceOnUse"
       id="clipPath68">
      <path
         d="M 0,109.938 H 109.938 V 0 H 0 Z"
         transform="translate(-27.9508,-48.204801)"
         id="path68" />
    </clipPath>
    <clipPath
       clipPathUnits="userSpaceOnUse"
       id="clipPath70">
      <path
         d="M 0,109.938 H 109.938 V 0 H 0 Z"
         transform="translate(-14.9478,-35.161301)"
         id="path70" />
    </clipPath>
    <clipPath
       clipPathUnits="userSpaceOnUse"
       id="clipPath72">
      <path
         d="M 0,109.938 H 109.938 V 0 H 0 Z"
         transform="translate(-27.9508,-35.161301)"
         id="path72" />
    </clipPath>
    <clipPath
       clipPathUnits="userSpaceOnUse"
       id="clipPath74">
      <path
         d="M 0,109.938 H 109.938 V 0 H 0 Z"
         transform="translate(-40.372701,-48.204801)"
         id="path74" />
    </clipPath>
    <clipPath
       clipPathUnits="userSpaceOnUse"
       id="clipPath76">
      <path
         d="M 0,109.938 H 109.938 V 0 H 0 Z"
         transform="translate(-40.372701,-35.161301)"
         id="path76" />
    </clipPath>
    <clipPath
       clipPathUnits="userSpaceOnUse"
       id="clipPath78">
      <path
         d="M 0,109.938 H 109.938 V 0 H 0 Z"
         transform="translate(-14.9478,-22.738898)"
         id="path78" />
    </clipPath>
    <clipPath
       clipPathUnits="userSpaceOnUse"
       id="clipPath80">
      <path
         d="M 0,109.938 H 109.938 V 0 H 0 Z"
         transform="translate(-27.9508,-22.738898)"
         id="path80" />
    </clipPath>
    <clipPath
       clipPathUnits="userSpaceOnUse"
       id="clipPath82">
      <path
         d="M 0,109.938 H 109.938 V 0 H 0 Z"
         transform="translate(-40.372701,-22.738898)"
         id="path82" />
    </clipPath>
    <clipPath
       clipPathUnits="userSpaceOnUse"
       id="clipPath84">
      <path
         d="M 0,109.938 H 109.938 V 0 H 0 Z"
         transform="translate(-53.416601,-48.204801)"
         id="path84" />
    </clipPath>
    <clipPath
       clipPathUnits="userSpaceOnUse"
       id="clipPath86">
      <path
         d="M 0,109.938 H 109.938 V 0 H 0 Z"
         transform="translate(-53.416601,-35.161301)"
         id="path86" />
    </clipPath>
    <clipPath
       clipPathUnits="userSpaceOnUse"
       id="clipPath88">
      <path
         d="M 0,109.938 H 109.938 V 0 H 0 Z"
         transform="translate(-53.416601,-22.738898)"
         id="path88" />
    </clipPath>
    <clipPath
       clipPathUnits="userSpaceOnUse"
       id="clipPath90">
      <path
         d="M 0,109.938 H 109.938 V 0 H 0 Z"
         transform="translate(-14.9478,-9.9377027)"
         id="path90" />
    </clipPath>
    <clipPath
       clipPathUnits="userSpaceOnUse"
       id="clipPath92">
      <path
         d="M 0,109.938 H 109.938 V 0 H 0 Z"
         transform="translate(-27.9508,-9.9377027)"
         id="path92" />
    </clipPath>
    <clipPath
       clipPathUnits="userSpaceOnUse"
       id="clipPath94">
      <path
         d="M 0,109.938 H 109.938 V 0 H 0 Z"
         transform="translate(-40.372701,-9.9377027)"
         id="path94" />
    </clipPath>
    <clipPath
       clipPathUnits="userSpaceOnUse"
       id="clipPath96">
      <path
         d="M 0,109.938 H 109.938 V 0 H 0 Z"
         transform="translate(-53.416601,-9.9377027)"
         id="path96" />
    </clipPath>
    <clipPath
       clipPathUnits="userSpaceOnUse"
       id="clipPath98">
      <path
         d="M 0,109.938 H 109.938 V 0 H 0 Z"
         transform="translate(-67.121702,-48.204801)"
         id="path98" />
    </clipPath>
    <clipPath
       clipPathUnits="userSpaceOnUse"
       id="clipPath100">
      <path
         d="M 0,109.938 H 109.938 V 0 H 0 Z"
         transform="translate(-80.124602,-48.204801)"
         id="path100" />
    </clipPath>
    <clipPath
       clipPathUnits="userSpaceOnUse"
       id="clipPath102">
      <path
         d="M 0,109.938 H 109.938 V 0 H 0 Z"
         transform="translate(-67.121702,-35.161301)"
         id="path102" />
    </clipPath>
    <clipPath
       clipPathUnits="userSpaceOnUse"
       id="clipPath104">
      <path
         d="M 0,109.938 H 109.938 V 0 H 0 Z"
         transform="translate(-80.124602,-35.161301)"
         id="path104" />
    </clipPath>
    <clipPath
       clipPathUnits="userSpaceOnUse"
       id="clipPath106">
      <path
         d="M 0,109.938 H 109.938 V 0 H 0 Z"
         transform="translate(-92.5465,-48.204801)"
         id="path106" />
    </clipPath>
    <clipPath
       clipPathUnits="userSpaceOnUse"
       id="clipPath108">
      <path
         d="M 0,109.938 H 109.938 V 0 H 0 Z"
         transform="translate(-92.5465,-35.161301)"
         id="path108" />
    </clipPath>
    <clipPath
       clipPathUnits="userSpaceOnUse"
       id="clipPath110">
      <path
         d="M 0,109.938 H 109.938 V 0 H 0 Z"
         transform="translate(-67.121702,-22.738898)"
         id="path110" />
    </clipPath>
    <clipPath
       clipPathUnits="userSpaceOnUse"
       id="clipPath112">
      <path
         d="M 0,109.938 H 109.938 V 0 H 0 Z"
         transform="translate(-80.124602,-22.738898)"
         id="path112" />
    </clipPath>
    <clipPath
       clipPathUnits="userSpaceOnUse"
       id="clipPath114">
      <path
         d="M 0,109.938 H 109.938 V 0 H 0 Z"
         transform="translate(-92.5465,-22.738898)"
         id="path114" />
    </clipPath>
    <clipPath
       clipPathUnits="userSpaceOnUse"
       id="clipPath116">
      <path
         d="M 0,109.938 H 109.938 V 0 H 0 Z"
         transform="translate(-105.5904,-48.204801)"
         id="path116" />
    </clipPath>
    <clipPath
       clipPathUnits="userSpaceOnUse"
       id="clipPath118">
      <path
         d="M 0,109.938 H 109.938 V 0 H 0 Z"
         transform="translate(-105.5904,-35.161301)"
         id="path118" />
    </clipPath>
    <clipPath
       clipPathUnits="userSpaceOnUse"
       id="clipPath120">
      <path
         d="M 0,109.938 H 109.938 V 0 H 0 Z"
         transform="translate(-105.5904,-22.738898)"
         id="path120" />
    </clipPath>
    <clipPath
       clipPathUnits="userSpaceOnUse"
       id="clipPath122">
      <path
         d="M 0,109.938 H 109.938 V 0 H 0 Z"
         transform="translate(-67.121702,-9.9377027)"
         id="path122" />
    </clipPath>
    <clipPath
       clipPathUnits="userSpaceOnUse"
       id="clipPath124">
      <path
         d="M 0,109.938 H 109.938 V 0 H 0 Z"
         transform="translate(-80.124602,-9.9377027)"
         id="path124" />
    </clipPath>
    <clipPath
       clipPathUnits="userSpaceOnUse"
       id="clipPath126">
      <path
         d="M 0,109.938 H 109.938 V 0 H 0 Z"
         transform="translate(-92.5465,-9.9377027)"
         id="path126" />
    </clipPath>
    <clipPath
       clipPathUnits="userSpaceOnUse"
       id="clipPath128">
      <path
         d="M 0,109.938 H 109.938 V 0 H 0 Z"
         transform="translate(-105.5904,-9.9377027)"
         id="path128" />
    </clipPath>
  </defs>
  <sodipodi:namedview
     id="namedview1"
     pagecolor="#ffffff"
     bordercolor="#000000"
     borderopacity="0.25"
     inkscape:showpageshadow="2"
     inkscape:pageopacity="0.0"
     inkscape:pagecheckerboard="0"
     inkscape:deskcolor="#d1d1d1">
    <inkscape:page
       x="0"
       y="0"
       inkscape:label="1"
       id="page1"
       width="146.584"
       height="146.584"
       margin="6.7867465 5.1306667 6.2813334 7.6699066"
       bleed="0" />
  </sodipodi:namedview>
  <g
     id="layer-MC0"
     inkscape:groupmode="layer"
     inkscape:label="Layer 1">
    <path
       id="path1"
       d="m 0,0 c 0,-2.401 -1.946,-4.348 -4.348,-4.348 -2.401,0 -4.347,1.947 -4.347,4.348 0,2.401 1.946,4.348 4.347,4.348 C -1.946,4.348 0,2.401 0,0"
       style="fill:#231f20;fill-opacity:1;fill-rule:nonzero;stroke:#231f20;stroke-width:1;stroke-linecap:butt;stroke-linejoin:miter;stroke-miterlimit:10;stroke-dasharray:none;stroke-opacity:1"
       transform="matrix(1.3333333,0,0,-1.3333333,19.9304,12.7452)"
       clip-path="url(#clipPath2)" />
    <path
       id="path3"
       d="m 0,0 c 0,-2.401 -1.947,-4.348 -4.349,-4.348 -2.401,0 -4.347,1.947 -4.347,4.348 0,2.401 1.946,4.348 4.347,4.348 C -1.947,4.348 0,2.401 0,0"
       style="fill:#231f20;fill-opacity:1;fill-rule:nonzero;stroke:#231f20;stroke-width:1;stroke-linecap:butt;stroke-linejoin:miter;stroke-miterlimit:10;stroke-dasharray:none;stroke-opacity:1"
       transform="matrix(1.3333333,0,0,-1.3333333,37.267733,12.7452)"
       clip-path="url(#clipPath4)" />
    <path
       id="path5"
       d="m 0,0 c 0,-2.401 -1.946,-4.348 -4.348,-4.348 -2.401,0 -4.347,1.947 -4.347,4.348 0,2.401 1.946,4.348 4.347,4.348 C -1.946,4.348 0,2.401 0,0"
       style="fill:#231f20;fill-opacity:1;fill-rule:nonzero;stroke:#231f20;stroke-width:1;stroke-linecap:butt;stroke-linejoin:miter;stroke-miterlimit:10;stroke-dasharray:none;stroke-opacity:1"
       transform="matrix(1.3333333,0,0,-1.3333333,19.9304,30.136533)"
       clip-path="url(#clipPath6)" />
    <path
       id="path7"
       d="m 0,0 c 0,-2.401 -1.947,-4.348 -4.349,-4.348 -2.401,0 -4.347,1.947 -4.347,4.348 0,2.401 1.946,4.348 4.347,4.348 C -1.947,4.348 0,2.401 0,0"
       style="fill:#231f20;fill-opacity:1;fill-rule:nonzero;stroke:#231f20;stroke-width:1;stroke-linecap:butt;stroke-linejoin:miter;stroke-miterlimit:10;stroke-dasharray:none;stroke-opacity:1"
       transform="matrix(1.3333333,0,0,-1.3333333,37.267733,30.136533)"
       clip-path="url(#clipPath8)" />
    <path
       id="path9"
       d="m 0,0 c 0,-2.401 -1.946,-4.348 -4.348,-4.348 -2.401,0 -4.347,1.947 -4.347,4.348 0,2.401 1.946,4.348 4.347,4.348 C -1.946,4.348 0,2.401 0,0"
       style="fill:#231f20;fill-opacity:1;fill-rule:nonzero;stroke:#231f20;stroke-width:1;stroke-linecap:butt;stroke-linejoin:miter;stroke-miterlimit:10;stroke-dasharray:none;stroke-opacity:1"
       transform="matrix(1.3333333,0,0,-1.3333333,53.830267,12.7452)"
       clip-path="url(#clipPath10)" />
    <path
       id="path11"
       d="m 0,0 c 0,-2.401 -1.946,-4.348 -4.348,-4.348 -2.401,0 -4.347,1.947 -4.347,4.348 0,2.401 1.946,4.348 4.347,4.348 C -1.946,4.348 0,2.401 0,0"
       style="fill:#231f20;fill-opacity:1;fill-rule:nonzero;stroke:#231f20;stroke-width:1;stroke-linecap:butt;stroke-linejoin:miter;stroke-miterlimit:10;stroke-dasharray:none;stroke-opacity:1"
       transform="matrix(1.3333333,0,0,-1.3333333,53.830267,30.136533)"
       clip-path="url(#clipPath12)" />
    <path
       id="path13"
       d="m 0,0 c 0,-2.401 -1.946,-4.348 -4.348,-4.348 -2.401,0 -4.347,1.947 -4.347,4.348 0,2.401 1.946,4.348 4.347,4.348 C -1.946,4.348 0,2.401 0,0"
       style="fill:#ffffff;fill-opacity:1;fill-rule:nonzero;stroke:#231f20;stroke-width:1;stroke-linecap:butt;stroke-linejoin:miter;stroke-miterlimit:10;stroke-dasharray:none;stroke-opacity:1"
       transform="matrix(1.3333333,0,0,-1.3333333,19.9304,46.6996)"
       clip-path="url(#clipPath14)" />
    <path
       id="path15"
       d="m 0,0 c 0,-2.401 -1.947,-4.348 -4.349,-4.348 -2.401,0 -4.347,1.947 -4.347,4.348 0,2.401 1.946,4.348 4.347,4.348 C -1.947,4.348 0,2.401 0,0"
       style="fill:#231f20;fill-opacity:1;fill-rule:nonzero;stroke:#231f20;stroke-width:1;stroke-linecap:butt;stroke-linejoin:miter;stroke-miterlimit:10;stroke-dasharray:none;stroke-opacity:1"
       transform="matrix(1.3333333,0,0,-1.3333333,37.267733,46.6996)"
       clip-path="url(#clipPath16)" />
    <path
       id="path17"
       d="m 0,0 c 0,-2.401 -1.946,-4.348 -4.348,-4.348 -2.401,0 -4.347,1.947 -4.347,4.348 0,2.401 1.946,4.348 4.347,4.348 C -1.946,4.348 0,2.401 0,0"
       style="fill:#231f20;fill-opacity:1;fill-rule:nonzero;stroke:#231f20;stroke-width:1;stroke-linecap:butt;stroke-linejoin:miter;stroke-miterlimit:10;stroke-dasharray:none;stroke-opacity:1"
       transform="matrix(1.3333333,0,0,-1.3333333,53.830267,46.6996)"
       clip-path="url(#clipPath18)" />
    <path
       id="path19"
       d="m 0,0 c 0,-2.401 -1.947,-4.348 -4.349,-4.348 -2.401,0 -4.347,1.947 -4.347,4.348 0,2.401 1.946,4.348 4.347,4.348 C -1.947,4.348 0,2.401 0,0"
       style="fill:#231f20;fill-opacity:1;fill-rule:nonzero;stroke:#231f20;stroke-width:1;stroke-linecap:butt;stroke-linejoin:miter;stroke-miterlimit:10;stroke-dasharray:none;stroke-opacity:1"
       transform="matrix(1.3333333,0,0,-1.3333333,71.222133,12.7452)"
       clip-path="url(#clipPath20)" />
    <path
       id="path21"
       d="m 0,0 c 0,-2.401 -1.947,-4.348 -4.349,-4.348 -2.401,0 -4.347,1.947 -4.347,4.348 0,2.401 1.946,4.348 4.347,4.348 C -1.947,4.348 0,2.401 0,0"
       style="fill:#231f20;fill-opacity:1;fill-rule:nonzero;stroke:#231f20;stroke-width:1;stroke-linecap:butt;stroke-linejoin:miter;stroke-miterlimit:10;stroke-dasharray:none;stroke-opacity:1"
       transform="matrix(1.3333333,0,0,-1.3333333,71.222133,30.136533)"
       clip-path="url(#clipPath22)" />
    <path
       id="path23"
       d="m 0,0 c 0,-2.401 -1.947,-4.348 -4.349,-4.348 -2.401,0 -4.347,1.947 -4.347,4.348 0,2.401 1.946,4.348 4.347,4.348 C -1.947,4.348 0,2.401 0,0"
       style="fill:#231f20;fill-opacity:1;fill-rule:nonzero;stroke:#231f20;stroke-width:1;stroke-linecap:butt;stroke-linejoin:miter;stroke-miterlimit:10;stroke-dasharray:none;stroke-opacity:1"
       transform="matrix(1.3333333,0,0,-1.3333333,71.222133,46.6996)"
       clip-path="url(#clipPath24)" />
    <path
       id="path25"
       d="m 0,0 c 0,-2.401 -1.946,-4.348 -4.348,-4.348 -2.401,0 -4.347,1.947 -4.347,4.348 0,2.401 1.946,4.348 4.347,4.348 C -1.946,4.348 0,2.401 0,0"
       style="fill:#ffffff;fill-opacity:1;fill-rule:nonzero;stroke:#231f20;stroke-width:1;stroke-linecap:butt;stroke-linejoin:miter;stroke-miterlimit:10;stroke-dasharray:none;stroke-opacity:1"
       transform="matrix(1.3333333,0,0,-1.3333333,19.9304,63.768)"
       clip-path="url(#clipPath26)" />
    <path
       id="path27"
       d="m 0,0 c 0,-2.401 -1.947,-4.348 -4.349,-4.348 -2.401,0 -4.347,1.947 -4.347,4.348 0,2.401 1.946,4.348 4.347,4.348 C -1.947,4.348 0,2.401 0,0"
       style="fill:#ffffff;fill-opacity:1;fill-rule:nonzero;stroke:#231f20;stroke-width:1;stroke-linecap:butt;stroke-linejoin:miter;stroke-miterlimit:10;stroke-dasharray:none;stroke-opacity:1"
       transform="matrix(1.3333333,0,0,-1.3333333,37.267733,63.768)"
       clip-path="url(#clipPath28)" />
    <path
       id="path29"
       d="m 0,0 c 0,-2.401 -1.946,-4.348 -4.348,-4.348 -2.401,0 -4.347,1.947 -4.347,4.348 0,2.401 1.946,4.348 4.347,4.348 C -1.946,4.348 0,2.401 0,0"
       style="fill:#231f20;fill-opacity:1;fill-rule:nonzero;stroke:#231f20;stroke-width:1;stroke-linecap:butt;stroke-linejoin:miter;stroke-miterlimit:10;stroke-dasharray:none;stroke-opacity:1"
       transform="matrix(1.3333333,0,0,-1.3333333,53.830267,63.768)"
       clip-path="url(#clipPath30)" />
    <path
       id="path31"
       d="m 0,0 c 0,-2.401 -1.947,-4.348 -4.349,-4.348 -2.401,0 -4.347,1.947 -4.347,4.348 0,2.401 1.946,4.348 4.347,4.348 C -1.947,4.348 0,2.401 0,0"
       style="fill:#231f20;fill-opacity:1;fill-rule:nonzero;stroke:#231f20;stroke-width:1;stroke-linecap:butt;stroke-linejoin:miter;stroke-miterlimit:10;stroke-dasharray:none;stroke-opacity:1"
       transform="matrix(1.3333333,0,0,-1.3333333,71.222133,63.768)"
       clip-path="url(#clipPath32)" />
    <path
       id="path33"
       d="m 0,0 c 0,-2.401 -1.946,-4.348 -4.348,-4.348 -2.401,0 -4.347,1.947 -4.347,4.348 0,2.401 1.946,4.348 4.347,4.348 C -1.946,4.348 0,2.401 0,0"
       style="fill:#231f20;fill-opacity:1;fill-rule:nonzero;stroke:#231f20;stroke-width:1;stroke-linecap:butt;stroke-linejoin:miter;stroke-miterlimit:10;stroke-dasharray:none;stroke-opacity:1"
       transform="matrix(1.3333333,0,0,-1.3333333,89.4956,12.7452)"
       clip-path="url(#clipPath34)" />
    <path
       id="path35"
       d="m 0,0 c 0,-2.401 -1.947,-4.348 -4.349,-4.348 -2.4,0 -4.347,1.947 -4.347,4.348 0,2.401 1.947,4.348 4.347,4.348 C -1.947,4.348 0,2.401 0,0"
       style="fill:#231f20;fill-opacity:1;fill-rule:nonzero;stroke:#231f20;stroke-width:1;stroke-linecap:butt;stroke-linejoin:miter;stroke-miterlimit:10;stroke-dasharray:none;stroke-opacity:1"
       transform="matrix(1.3333333,0,0,-1.3333333,106.8328,12.7452)"
       clip-path="url(#clipPath36)" />
    <path
       id="path37"
       d="m 0,0 c 0,-2.401 -1.946,-4.348 -4.348,-4.348 -2.401,0 -4.347,1.947 -4.347,4.348 0,2.401 1.946,4.348 4.347,4.348 C -1.946,4.348 0,2.401 0,0"
       style="fill:#231f20;fill-opacity:1;fill-rule:nonzero;stroke:#231f20;stroke-width:1;stroke-linecap:butt;stroke-linejoin:miter;stroke-miterlimit:10;stroke-dasharray:none;stroke-opacity:1"
       transform="matrix(1.3333333,0,0,-1.3333333,89.4956,30.136533)"
       clip-path="url(#clipPath38)" />
    <path
       id="path39"
       d="m 0,0 c 0,-2.401 -1.947,-4.348 -4.349,-4.348 -2.4,0 -4.347,1.947 -4.347,4.348 0,2.401 1.947,4.348 4.347,4.348 C -1.947,4.348 0,2.401 0,0"
       style="fill:#231f20;fill-opacity:1;fill-rule:nonzero;stroke:#231f20;stroke-width:1;stroke-linecap:butt;stroke-linejoin:miter;stroke-miterlimit:10;stroke-dasharray:none;stroke-opacity:1"
       transform="matrix(1.3333333,0,0,-1.3333333,106.8328,30.136533)"
       clip-path="url(#clipPath40)" />
    <path
       id="path41"
       d="m 0,0 c 0,-2.401 -1.946,-4.348 -4.348,-4.348 -2.401,0 -4.347,1.947 -4.347,4.348 0,2.401 1.946,4.348 4.347,4.348 C -1.946,4.348 0,2.401 0,0"
       style="fill:#231f20;fill-opacity:1;fill-rule:nonzero;stroke:#231f20;stroke-width:1;stroke-linecap:butt;stroke-linejoin:miter;stroke-miterlimit:10;stroke-dasharray:none;stroke-opacity:1"
       transform="matrix(1.3333333,0,0,-1.3333333,123.39533,12.7452)"
       clip-path="url(#clipPath42)" />
    <path
       id="path43"
       d="m 0,0 c 0,-2.401 -1.946,-4.348 -4.348,-4.348 -2.401,0 -4.347,1.947 -4.347,4.348 0,2.401 1.946,4.348 4.347,4.348 C -1.946,4.348 0,2.401 0,0"
       style="fill:#231f20;fill-opacity:1;fill-rule:nonzero;stroke:#231f20;stroke-width:1;stroke-linecap:butt;stroke-linejoin:miter;stroke-miterlimit:10;stroke-dasharray:none;stroke-opacity:1"
       transform="matrix(1.3333333,0,0,-1.3333333,123.39533,30.136533)"
       clip-path="url(#clipPath44)" />
    <path
       id="path45"
       d="m 0,0 c 0,-2.401 -1.946,-4.348 -4.348,-4.348 -2.401,0 -4.347,1.947 -4.347,4.348 0,2.401 1.946,4.348 4.347,4.348 C -1.946,4.348 0,2.401 0,0"
       style="fill:#231f20;fill-opacity:1;fill-rule:nonzero;stroke:#231f20;stroke-width:1;stroke-linecap:butt;stroke-linejoin:miter;stroke-miterlimit:10;stroke-dasharray:none;stroke-opacity:1"
       transform="matrix(1.3333333,0,0,-1.3333333,89.4956,46.6996)"
       clip-path="url(#clipPath46)" />
    <path
       id="path47"
       d="m 0,0 c 0,-2.401 -1.947,-4.348 -4.349,-4.348 -2.4,0 -4.347,1.947 -4.347,4.348 0,2.401 1.947,4.348 4.347,4.348 C -1.947,4.348 0,2.401 0,0"
       style="fill:#231f20;fill-opacity:1;fill-rule:nonzero;stroke:#231f20;stroke-width:1;stroke-linecap:butt;stroke-linejoin:miter;stroke-miterlimit:10;stroke-dasharray:none;stroke-opacity:1"
       transform="matrix(1.3333333,0,0,-1.3333333,106.8328,46.6996)"
       clip-path="url(#clipPath48)" />
    <path
       id="path49"
       d="m 0,0 c 0,-2.401 -1.946,-4.348 -4.348,-4.348 -2.401,0 -4.347,1.947 -4.347,4.348 0,2.401 1.946,4.348 4.347,4.348 C -1.946,4.348 0,2.401 0,0"
       style="fill:#231f20;fill-opacity:1;fill-rule:nonzero;stroke:#231f20;stroke-width:1;stroke-linecap:butt;stroke-linejoin:miter;stroke-miterlimit:10;stroke-dasharray:none;stroke-opacity:1"
       transform="matrix(1.3333333,0,0,-1.3333333,123.39533,46.6996)"
       clip-path="url(#clipPath50)" />
    <path
       id="path51"
       d="m 0,0 c 0,-2.401 -1.947,-4.348 -4.349,-4.348 -2.4,0 -4.347,1.947 -4.347,4.348 0,2.401 1.947,4.348 4.347,4.348 C -1.947,4.348 0,2.401 0,0"
       style="fill:#231f20;fill-opacity:1;fill-rule:nonzero;stroke:#231f20;stroke-width:1;stroke-linecap:butt;stroke-linejoin:miter;stroke-miterlimit:10;stroke-dasharray:none;stroke-opacity:1"
       transform="matrix(1.3333333,0,0,-1.3333333,140.7872,12.7452)"
       clip-path="url(#clipPath52)" />
    <path
       id="path53"
       d="m 0,0 c 0,-2.401 -1.947,-4.348 -4.349,-4.348 -2.4,0 -4.347,1.947 -4.347,4.348 0,2.401 1.947,4.348 4.347,4.348 C -1.947,4.348 0,2.401 0,0"
       style="fill:#231f20;fill-opacity:1;fill-rule:nonzero;stroke:#231f20;stroke-width:1;stroke-linecap:butt;stroke-linejoin:miter;stroke-miterlimit:10;stroke-dasharray:none;stroke-opacity:1"
       transform="matrix(1.3333333,0,0,-1.3333333,140.7872,30.136533)"
       clip-path="url(#clipPath54)" />
    <path
       id="path55"
       d="m 0,0 c 0,-2.401 -1.947,-4.348 -4.349,-4.348 -2.4,0 -4.347,1.947 -4.347,4.348 0,2.401 1.947,4.348 4.347,4.348 C -1.947,4.348 0,2.401 0,0"
       style="fill:#231f20;fill-opacity:1;fill-rule:nonzero;stroke:#231f20;stroke-width:1;stroke-linecap:butt;stroke-linejoin:miter;stroke-miterlimit:10;stroke-dasharray:none;stroke-opacity:1"
       transform="matrix(1.3333333,0,0,-1.3333333,140.7872,46.6996)"
       clip-path="url(#clipPath56)" />
    <path
       id="path57"
       d="m 0,0 c 0,-2.401 -1.946,-4.348 -4.348,-4.348 -2.401,0 -4.347,1.947 -4.347,4.348 0,2.401 1.946,4.348 4.347,4.348 C -1.946,4.348 0,2.401 0,0"
       style="fill:#231f20;fill-opacity:1;fill-rule:nonzero;stroke:#231f20;stroke-width:1;stroke-linecap:butt;stroke-linejoin:miter;stroke-miterlimit:10;stroke-dasharray:none;stroke-opacity:1"
       transform="matrix(1.3333333,0,0,-1.3333333,89.4956,63.768)"
       clip-path="url(#clipPath58)" />
    <path
       id="path59"
       d="m 0,0 c 0,-2.401 -1.947,-4.348 -4.349,-4.348 -2.4,0 -4.347,1.947 -4.347,4.348 0,2.401 1.947,4.348 4.347,4.348 C -1.947,4.348 0,2.401 0,0"
       style="fill:#231f20;fill-opacity:1;fill-rule:nonzero;stroke:#231f20;stroke-width:1;stroke-linecap:butt;stroke-linejoin:miter;stroke-miterlimit:10;stroke-dasharray:none;stroke-opacity:1"
       transform="matrix(1.3333333,0,0,-1.3333333,106.8328,63.768)"
       clip-path="url(#clipPath60)" />
    <path
       id="path61"
       d="m 0,0 c 0,-2.401 -1.946,-4.348 -4.348,-4.348 -2.401,0 -4.347,1.947 -4.347,4.348 0,2.401 1.946,4.348 4.347,4.348 C -1.946,4.348 0,2.401 0,0"
       style="fill:#231f20;fill-opacity:1;fill-rule:nonzero;stroke:#231f20;stroke-width:1;stroke-linecap:butt;stroke-linejoin:miter;stroke-miterlimit:10;stroke-dasharray:none;stroke-opacity:1"
       transform="matrix(1.3333333,0,0,-1.3333333,123.39533,63.768)"
       clip-path="url(#clipPath62)" />
    <path
       id="path63"
       d="m 0,0 c 0,-2.401 -1.947,-4.348 -4.349,-4.348 -2.4,0 -4.347,1.947 -4.347,4.348 0,2.401 1.947,4.348 4.347,4.348 C -1.947,4.348 0,2.401 0,0"
       style="fill:#231f20;fill-opacity:1;fill-rule:nonzero;stroke:#231f20;stroke-width:1;stroke-linecap:butt;stroke-linejoin:miter;stroke-miterlimit:10;stroke-dasharray:none;stroke-opacity:1"
       transform="matrix(1.3333333,0,0,-1.3333333,140.7872,63.768)"
       clip-path="url(#clipPath64)" />
    <path
       id="path65"
       d="m 0,0 c 0,-2.401 -1.946,-4.348 -4.348,-4.348 -2.401,0 -4.347,1.947 -4.347,4.348 0,2.401 1.946,4.348 4.347,4.348 C -1.946,4.348 0,2.401 0,0"
       style="fill:#ffffff;fill-opacity:1;fill-rule:nonzero;stroke:#231f20;stroke-width:1;stroke-linecap:butt;stroke-linejoin:miter;stroke-miterlimit:10;stroke-dasharray:none;stroke-opacity:1"
       transform="matrix(1.3333333,0,0,-1.3333333,19.9304,82.310933)"
       clip-path="url(#clipPath66)" />
    <path
       id="path67"
       d="m 0,0 c 0,-2.401 -1.947,-4.348 -4.349,-4.348 -2.401,0 -4.347,1.947 -4.347,4.348 0,2.401 1.946,4.348 4.347,4.348 C -1.947,4.348 0,2.401 0,0"
       style="fill:#ffffff;fill-opacity:1;fill-rule:nonzero;stroke:#231f20;stroke-width:1;stroke-linecap:butt;stroke-linejoin:miter;stroke-miterlimit:10;stroke-dasharray:none;stroke-opacity:1"
       transform="matrix(1.3333333,0,0,-1.3333333,37.267733,82.310933)"
       clip-path="url(#clipPath68)" />
    <path
       id="path69"
       d="m 0,0 c 0,-2.401 -1.946,-4.348 -4.348,-4.348 -2.401,0 -4.347,1.947 -4.347,4.348 0,2.401 1.946,4.348 4.347,4.348 C -1.946,4.348 0,2.401 0,0"
       style="fill:#ffffff;fill-opacity:1;fill-rule:nonzero;stroke:#231f20;stroke-width:1;stroke-linecap:butt;stroke-linejoin:miter;stroke-miterlimit:10;stroke-dasharray:none;stroke-opacity:1"
       transform="matrix(1.3333333,0,0,-1.3333333,19.9304,99.702267)"
       clip-path="url(#clipPath70)" />
    <path
       id="path71"
       d="m 0,0 c 0,-2.401 -1.947,-4.348 -4.349,-4.348 -2.401,0 -4.347,1.947 -4.347,4.348 0,2.401 1.946,4.348 4.347,4.348 C -1.947,4.348 0,2.401 0,0"
       style="fill:#ffffff;fill-opacity:1;fill-rule:nonzero;stroke:#231f20;stroke-width:1;stroke-linecap:butt;stroke-linejoin:miter;stroke-miterlimit:10;stroke-dasharray:none;stroke-opacity:1"
       transform="matrix(1.3333333,0,0,-1.3333333,37.267733,99.702267)"
       clip-path="url(#clipPath72)" />
    <path
       id="path73"
       d="m 0,0 c 0,-2.401 -1.946,-4.348 -4.348,-4.348 -2.401,0 -4.347,1.947 -4.347,4.348 0,2.401 1.946,4.348 4.347,4.348 C -1.946,4.348 0,2.401 0,0"
       style="fill:#ffffff;fill-opacity:1;fill-rule:nonzero;stroke:#231f20;stroke-width:1;stroke-linecap:butt;stroke-linejoin:miter;stroke-miterlimit:10;stroke-dasharray:none;stroke-opacity:1"
       transform="matrix(1.3333333,0,0,-1.3333333,53.830267,82.310933)"
       clip-path="url(#clipPath74)" />
    <path
       id="path75"
       d="m 0,0 c 0,-2.401 -1.946,-4.348 -4.348,-4.348 -2.401,0 -4.347,1.947 -4.347,4.348 0,2.401 1.946,4.348 4.347,4.348 C -1.946,4.348 0,2.401 0,0"
       style="fill:#ffffff;fill-opacity:1;fill-rule:nonzero;stroke:#231f20;stroke-width:1;stroke-linecap:butt;stroke-linejoin:miter;stroke-miterlimit:10;stroke-dasharray:none;stroke-opacity:1"
       transform="matrix(1.3333333,0,0,-1.3333333,53.830267,99.702267)"
       clip-path="url(#clipPath76)" />
    <path
       id="path77"
       d="m 0,0 c 0,-2.401 -1.946,-4.348 -4.348,-4.348 -2.401,0 -4.347,1.947 -4.347,4.348 0,2.401 1.946,4.348 4.347,4.348 C -1.946,4.348 0,2.401 0,0"
       style="fill:#ffffff;fill-opacity:1;fill-rule:nonzero;stroke:#231f20;stroke-width:1;stroke-linecap:butt;stroke-linejoin:miter;stroke-miterlimit:10;stroke-dasharray:none;stroke-opacity:1"
       transform="matrix(1.3333333,0,0,-1.3333333,19.9304,116.26547)"
       clip-path="url(#clipPath78)" />
    <path
       id="path79"
       d="m 0,0 c 0,-2.401 -1.947,-4.348 -4.349,-4.348 -2.401,0 -4.347,1.947 -4.347,4.348 0,2.401 1.946,4.348 4.347,4.348 C -1.947,4.348 0,2.401 0,0"
       style="fill:#ffffff;fill-opacity:1;fill-rule:nonzero;stroke:#231f20;stroke-width:1;stroke-linecap:butt;stroke-linejoin:miter;stroke-miterlimit:10;stroke-dasharray:none;stroke-opacity:1"
       transform="matrix(1.3333333,0,0,-1.3333333,37.267733,116.26547)"
       clip-path="url(#clipPath80)" />
    <path
       id="path81"
       d="m 0,0 c 0,-2.401 -1.946,-4.348 -4.348,-4.348 -2.401,0 -4.347,1.947 -4.347,4.348 0,2.401 1.946,4.348 4.347,4.348 C -1.946,4.348 0,2.401 0,0"
       style="fill:#ffffff;fill-opacity:1;fill-rule:nonzero;stroke:#231f20;stroke-width:1;stroke-linecap:butt;stroke-linejoin:miter;stroke-miterlimit:10;stroke-dasharray:none;stroke-opacity:1"
       transform="matrix(1.3333333,0,0,-1.3333333,53.830267,116.26547)"
       clip-path="url(#clipPath82)" />
    <path
       id="path83"
       d="m 0,0 c 0,-2.401 -1.947,-4.348 -4.349,-4.348 -2.401,0 -4.347,1.947 -4.347,4.348 0,2.401 1.946,4.348 4.347,4.348 C -1.947,4.348 0,2.401 0,0"
       style="fill:#231f20;fill-opacity:1;fill-rule:nonzero;stroke:#231f20;stroke-width:1;stroke-linecap:butt;stroke-linejoin:miter;stroke-miterlimit:10;stroke-dasharray:none;stroke-opacity:1"
       transform="matrix(1.3333333,0,0,-1.3333333,71.222133,82.310933)"
       clip-path="url(#clipPath84)" />
    <path
       id="path85"
       d="m 0,0 c 0,-2.401 -1.947,-4.348 -4.349,-4.348 -2.401,0 -4.347,1.947 -4.347,4.348 0,2.401 1.946,4.348 4.347,4.348 C -1.947,4.348 0,2.401 0,0"
       style="fill:#ffffff;fill-opacity:1;fill-rule:nonzero;stroke:#231f20;stroke-width:1;stroke-linecap:butt;stroke-linejoin:miter;stroke-miterlimit:10;stroke-dasharray:none;stroke-opacity:1"
       transform="matrix(1.3333333,0,0,-1.3333333,71.222133,99.702267)"
       clip-path="url(#clipPath86)" />
    <path
       id="path87"
       d="m 0,0 c 0,-2.401 -1.947,-4.348 -4.349,-4.348 -2.401,0 -4.347,1.947 -4.347,4.348 0,2.401 1.946,4.348 4.347,4.348 C -1.947,4.348 0,2.401 0,0"
       style="fill:#ffffff;fill-opacity:1;fill-rule:nonzero;stroke:#231f20;stroke-width:1;stroke-linecap:butt;stroke-linejoin:miter;stroke-miterlimit:10;stroke-dasharray:none;stroke-opacity:1"
       transform="matrix(1.3333333,0,0,-1.3333333,71.222133,116.26547)"
       clip-path="url(#clipPath88)" />
    <path
       id="path89"
       d="m 0,0 c 0,-2.401 -1.946,-4.348 -4.348,-4.348 -2.401,0 -4.347,1.947 -4.347,4.348 0,2.401 1.946,4.348 4.347,4.348 C -1.946,4.348 0,2.401 0,0"
       style="fill:#ffffff;fill-opacity:1;fill-rule:nonzero;stroke:#231f20;stroke-width:1;stroke-linecap:butt;stroke-linejoin:miter;stroke-miterlimit:10;stroke-dasharray:none;stroke-opacity:1"
       transform="matrix(1.3333333,0,0,-1.3333333,19.9304,133.33373)"
       clip-path="url(#clipPath90)" />
    <path
       id="path91"
       d="m 0,0 c 0,-2.401 -1.947,-4.348 -4.349,-4.348 -2.401,0 -4.347,1.947 -4.347,4.348 0,2.401 1.946,4.348 4.347,4.348 C -1.947,4.348 0,2.401 0,0"
       style="fill:#ffffff;fill-opacity:1;fill-rule:nonzero;stroke:#231f20;stroke-width:1;stroke-linecap:butt;stroke-linejoin:miter;stroke-miterlimit:10;stroke-dasharray:none;stroke-opacity:1"
       transform="matrix(1.3333333,0,0,-1.3333333,37.267733,133.33373)"
       clip-path="url(#clipPath92)" />
    <path
       id="path93"
       d="m 0,0 c 0,-2.401 -1.946,-4.348 -4.348,-4.348 -2.401,0 -4.347,1.947 -4.347,4.348 0,2.401 1.946,4.348 4.347,4.348 C -1.946,4.348 0,2.401 0,0"
       style="fill:#ffffff;fill-opacity:1;fill-rule:nonzero;stroke:#231f20;stroke-width:1;stroke-linecap:butt;stroke-linejoin:miter;stroke-miterlimit:10;stroke-dasharray:none;stroke-opacity:1"
       transform="matrix(1.3333333,0,0,-1.3333333,53.830267,133.33373)"
       clip-path="url(#clipPath94)" />
    <path
       id="path95"
       d="m 0,0 c 0,-2.401 -1.947,-4.348 -4.349,-4.348 -2.401,0 -4.347,1.947 -4.347,4.348 0,2.401 1.946,4.348 4.347,4.348 C -1.947,4.348 0,2.401 0,0"
       style="fill:#ffffff;fill-opacity:1;fill-rule:nonzero;stroke:#231f20;stroke-width:1;stroke-linecap:butt;stroke-linejoin:miter;stroke-miterlimit:10;stroke-dasharray:none;stroke-opacity:1"
       transform="matrix(1.3333333,0,0,-1.3333333,71.222133,133.33373)"
       clip-path="url(#clipPath96)" />
    <path
       id="path97"
       d="m 0,0 c 0,-2.401 -1.946,-4.348 -4.348,-4.348 -2.401,0 -4.347,1.947 -4.347,4.348 0,2.401 1.946,4.348 4.347,4.348 C -1.946,4.348 0,2.401 0,0"
       style="fill:#231f20;fill-opacity:1;fill-rule:nonzero;stroke:#231f20;stroke-width:1;stroke-linecap:butt;stroke-linejoin:miter;stroke-miterlimit:10;stroke-dasharray:none;stroke-opacity:1"
       transform="matrix(1.3333333,0,0,-1.3333333,89.4956,82.310933)"
       clip-path="url(#clipPath98)" />
    <path
       id="path99"
       d="m 0,0 c 0,-2.401 -1.947,-4.348 -4.349,-4.348 -2.4,0 -4.347,1.947 -4.347,4.348 0,2.401 1.947,4.348 4.347,4.348 C -1.947,4.348 0,2.401 0,0"
       style="fill:#231f20;fill-opacity:1;fill-rule:nonzero;stroke:#231f20;stroke-width:1;stroke-linecap:butt;stroke-linejoin:miter;stroke-miterlimit:10;stroke-dasharray:none;stroke-opacity:1"
       transform="matrix(1.3333333,0,0,-1.3333333,106.8328,82.310933)"
       clip-path="url(#clipPath100)" />
    <path
       id="path101"
       d="m 0,0 c 0,-2.401 -1.946,-4.348 -4.348,-4.348 -2.401,0 -4.347,1.947 -4.347,4.348 0,2.401 1.946,4.348 4.347,4.348 C -1.946,4.348 0,2.401 0,0"
       style="fill:#231f20;fill-opacity:1;fill-rule:nonzero;stroke:#231f20;stroke-width:1;stroke-linecap:butt;stroke-linejoin:miter;stroke-miterlimit:10;stroke-dasharray:none;stroke-opacity:1"
       transform="matrix(1.3333333,0,0,-1.3333333,89.4956,99.702267)"
       clip-path="url(#clipPath102)" />
    <path
       id="path103"
       d="m 0,0 c 0,-2.401 -1.947,-4.348 -4.349,-4.348 -2.4,0 -4.347,1.947 -4.347,4.348 0,2.401 1.947,4.348 4.347,4.348 C -1.947,4.348 0,2.401 0,0"
       style="fill:#231f20;fill-opacity:1;fill-rule:nonzero;stroke:#231f20;stroke-width:1;stroke-linecap:butt;stroke-linejoin:miter;stroke-miterlimit:10;stroke-dasharray:none;stroke-opacity:1"
       transform="matrix(1.3333333,0,0,-1.3333333,106.8328,99.702267)"
       clip-path="url(#clipPath104)" />
    <path
       id="path105"
       d="m 0,0 c 0,-2.401 -1.946,-4.348 -4.348,-4.348 -2.401,0 -4.347,1.947 -4.347,4.348 0,2.401 1.946,4.348 4.347,4.348 C -1.946,4.348 0,2.401 0,0"
       style="fill:#231f20;fill-opacity:1;fill-rule:nonzero;stroke:#231f20;stroke-width:1;stroke-linecap:butt;stroke-linejoin:miter;stroke-miterlimit:10;stroke-dasharray:none;stroke-opacity:1"
       transform="matrix(1.3333333,0,0,-1.3333333,123.39533,82.310933)"
       clip-path="url(#clipPath106)" />
    <path
       id="path107"
       d="m 0,0 c 0,-2.401 -1.946,-4.348 -4.348,-4.348 -2.401,0 -4.347,1.947 -4.347,4.348 0,2.401 1.946,4.348 4.347,4.348 C -1.946,4.348 0,2.401 0,0"
       style="fill:#231f20;fill-opacity:1;fill-rule:nonzero;stroke:#231f20;stroke-width:1;stroke-linecap:butt;stroke-linejoin:miter;stroke-miterlimit:10;stroke-dasharray:none;stroke-opacity:1"
       transform="matrix(1.3333333,0,0,-1.3333333,123.39533,99.702267)"
       clip-path="url(#clipPath108)" />
    <path
       id="path109"
       d="m 0,0 c 0,-2.401 -1.946,-4.348 -4.348,-4.348 -2.401,0 -4.347,1.947 -4.347,4.348 0,2.401 1.946,4.348 4.347,4.348 C -1.946,4.348 0,2.401 0,0"
       style="fill:#ffffff;fill-opacity:1;fill-rule:nonzero;stroke:#231f20;stroke-width:1;stroke-linecap:butt;stroke-linejoin:miter;stroke-miterlimit:10;stroke-dasharray:none;stroke-opacity:1"
       transform="matrix(1.3333333,0,0,-1.3333333,89.4956,116.26547)"
       clip-path="url(#clipPath110)" />
    <path
       id="path111"
       d="m 0,0 c 0,-2.401 -1.947,-4.348 -4.349,-4.348 -2.4,0 -4.347,1.947 -4.347,4.348 0,2.401 1.947,4.348 4.347,4.348 C -1.947,4.348 0,2.401 0,0"
       style="fill:#231f20;fill-opacity:1;fill-rule:nonzero;stroke:#231f20;stroke-width:1;stroke-linecap:butt;stroke-linejoin:miter;stroke-miterlimit:10;stroke-dasharray:none;stroke-opacity:1"
       transform="matrix(1.3333333,0,0,-1.3333333,106.8328,116.26547)"
       clip-path="url(#clipPath112)" />
    <path
       id="path113"
       d="m 0,0 c 0,-2.401 -1.946,-4.348 -4.348,-4.348 -2.401,0 -4.347,1.947 -4.347,4.348 0,2.401 1.946,4.348 4.347,4.348 C -1.946,4.348 0,2.401 0,0"
       style="fill:#231f20;fill-opacity:1;fill-rule:nonzero;stroke:#231f20;stroke-width:1;stroke-linecap:butt;stroke-linejoin:miter;stroke-miterlimit:10;stroke-dasharray:none;stroke-opacity:1"
       transform="matrix(1.3333333,0,0,-1.3333333,123.39533,116.26547)"
       clip-path="url(#clipPath114)" />
    <path
       id="path115"
       d="m 0,0 c 0,-2.401 -1.947,-4.348 -4.349,-4.348 -2.4,0 -4.347,1.947 -4.347,4.348 0,2.401 1.947,4.348 4.347,4.348 C -1.947,4.348 0,2.401 0,0"
       style="fill:#231f20;fill-opacity:1;fill-rule:nonzero;stroke:#231f20;stroke-width:1;stroke-linecap:butt;stroke-linejoin:miter;stroke-miterlimit:10;stroke-dasharray:none;stroke-opacity:1"
       transform="matrix(1.3333333,0,0,-1.3333333,140.7872,82.310933)"
       clip-path="url(#clipPath116)" />
    <path
       id="path117"
       d="m 0,0 c 0,-2.401 -1.947,-4.348 -4.349,-4.348 -2.4,0 -4.347,1.947 -4.347,4.348 0,2.401 1.947,4.348 4.347,4.348 C -1.947,4.348 0,2.401 0,0"
       style="fill:#231f20;fill-opacity:1;fill-rule:nonzero;stroke:#231f20;stroke-width:1;stroke-linecap:butt;stroke-linejoin:miter;stroke-miterlimit:10;stroke-dasharray:none;stroke-opacity:1"
       transform="matrix(1.3333333,0,0,-1.3333333,140.7872,99.702267)"
       clip-path="url(#clipPath118)" />
    <path
       id="path119"
       d="m 0,0 c 0,-2.401 -1.947,-4.348 -4.349,-4.348 -2.4,0 -4.347,1.947 -4.347,4.348 0,2.401 1.947,4.348 4.347,4.348 C -1.947,4.348 0,2.401 0,0"
       style="fill:#231f20;fill-opacity:1;fill-rule:nonzero;stroke:#231f20;stroke-width:1;stroke-linecap:butt;stroke-linejoin:miter;stroke-miterlimit:10;stroke-dasharray:none;stroke-opacity:1"
       transform="matrix(1.3333333,0,0,-1.3333333,140.7872,116.26547)"
       clip-path="url(#clipPath120)" />
    <path
       id="path121"
       d="m 0,0 c 0,-2.401 -1.946,-4.348 -4.348,-4.348 -2.401,0 -4.347,1.947 -4.347,4.348 0,2.401 1.946,4.348 4.347,4.348 C -1.946,4.348 0,2.401 0,0"
       style="fill:#ffffff;fill-opacity:1;fill-rule:nonzero;stroke:#231f20;stroke-width:1;stroke-linecap:butt;stroke-linejoin:miter;stroke-miterlimit:10;stroke-dasharray:none;stroke-opacity:1"
       transform="matrix(1.3333333,0,0,-1.3333333,89.4956,133.33373)"
       clip-path="url(#clipPath122)" />
    <path
       id="path123"
       d="m 0,0 c 0,-2.401 -1.947,-4.348 -4.349,-4.348 -2.4,0 -4.347,1.947 -4.347,4.348 0,2.401 1.947,4.348 4.347,4.348 C -1.947,4.348 0,2.401 0,0"
       style="fill:#ffffff;fill-opacity:1;fill-rule:nonzero;stroke:#231f20;stroke-width:1;stroke-linecap:butt;stroke-linejoin:miter;stroke-miterlimit:10;stroke-dasharray:none;stroke-opacity:1"
       transform="matrix(1.3333333,0,0,-1.3333333,106.8328,133.33373)"
       clip-path="url(#clipPath124)" />
    <path
       id="path125"
       d="m 0,0 c 0,-2.401 -1.946,-4.348 -4.348,-4.348 -2.401,0 -4.347,1.947 -4.347,4.348 0,2.401 1.946,4.348 4.347,4.348 C -1.946,4.348 0,2.401 0,0"
       style="fill:#231f20;fill-opacity:1;fill-rule:nonzero;stroke:#231f20;stroke-width:1;stroke-linecap:butt;stroke-linejoin:miter;stroke-miterlimit:10;stroke-dasharray:none;stroke-opacity:1"
       transform="matrix(1.3333333,0,0,-1.3333333,123.39533,133.33373)"
       clip-path="url(#clipPath126)" />
    <path
       id="path127"
       d="m 0,0 c 0,-2.401 -1.947,-4.348 -4.349,-4.348 -2.4,0 -4.347,1.947 -4.347,4.348 0,2.401 1.947,4.348 4.347,4.348 C -1.947,4.348 0,2.401 0,0"
       style="fill:#231f20;fill-opacity:1;fill-rule:nonzero;stroke:#231f20;stroke-width:1;stroke-linecap:butt;stroke-linejoin:miter;stroke-miterlimit:10;stroke-dasharray:none;stroke-opacity:1"
       transform="matrix(1.3333333,0,0,-1.3333333,140.7872,133.33373)"
       clip-path="url(#clipPath128)" />
  </g>
</svg>
