<?xml version="1.0" encoding="UTF-8" standalone="no"?>
<!-- Created with Inkscape (http://www.inkscape.org/) -->

<svg
   version="1.1"
   id="svg1"
   width="146.584"
   height="146.584"
   viewBox="0 0 146.584 146.584"
   sodipodi:docname="upload_fgarq7fn6kpp3yeegxjcd452st.pdf"
   xmlns:inkscape="http://www.inkscape.org/namespaces/inkscape"
   xmlns:sodipodi="http://sodipodi.sourceforge.net/DTD/sodipodi-0.dtd"
   xmlns="http://www.w3.org/2000/svg"
   xmlns:svg="http://www.w3.org/2000/svg">
  <defs
     id="defs1">
    <clipPath
       clipPathUnits="userSpaceOnUse"
       id="clipPath2">
      <path
         d="M 0,109.938 H 109.938 V 0 H 0 Z"
         transform="translate(-14.9484,-100.0002)"
         id="path2" />
    </clipPath>
    <clipPath
       clipPathUnits="userSpaceOnUse"
       id="clipPath4">
      <path
         d="M 0,109.938 H 109.938 V 0 H 0 Z"
         transform="translate(-27.950301,-100.0002)"
         id="path4" />
    </clipPath>
    <clipPath
       clipPathUnits="userSpaceOnUse"
       id="clipPath6">
      <path
         d="M 0,109.938 H 109.938 V 0 H 0 Z"
         transform="translate(-14.9484,-86.956702)"
         id="path6" />
    </clipPath>
    <clipPath
       clipPathUnits="userSpaceOnUse"
       id="clipPath8">
      <path
         d="M 0,109.938 H 109.938 V 0 H 0 Z"
         transform="translate(-27.950301,-86.956702)"
         id="path8" />
    </clipPath>
    <clipPath
       clipPathUnits="userSpaceOnUse"
       id="clipPath10">
      <path
         d="M 0,109.938 H 109.938 V 0 H 0 Z"
         transform="translate(-40.372201,-100.0002)"
         id="path10" />
    </clipPath>
    <clipPath
       clipPathUnits="userSpaceOnUse"
       id="clipPath12">
      <path
         d="M 0,109.938 H 109.938 V 0 H 0 Z"
         transform="translate(-40.372201,-86.956702)"
         id="path12" />
    </clipPath>
    <clipPath
       clipPathUnits="userSpaceOnUse"
       id="clipPath14">
      <path
         d="M 0,109.938 H 109.938 V 0 H 0 Z"
         transform="translate(-14.9484,-74.534402)"
         id="path14" />
    </clipPath>
    <clipPath
       clipPathUnits="userSpaceOnUse"
       id="clipPath16">
      <path
         d="M 0,109.938 H 109.938 V 0 H 0 Z"
         transform="translate(-27.950301,-74.534402)"
         id="path16" />
    </clipPath>
    <clipPath
       clipPathUnits="userSpaceOnUse"
       id="clipPath18">
      <path
         d="M 0,109.938 H 109.938 V 0 H 0 Z"
         transform="translate(-40.372201,-74.534402)"
         id="path18" />
    </clipPath>
    <clipPath
       clipPathUnits="userSpaceOnUse"
       id="clipPath20">
      <path
         d="M 0,109.938 H 109.938 V 0 H 0 Z"
         transform="translate(-53.416201,-100.0002)"
         id="path20" />
    </clipPath>
    <clipPath
       clipPathUnits="userSpaceOnUse"
       id="clipPath22">
      <path
         d="M 0,109.938 H 109.938 V 0 H 0 Z"
         transform="translate(-53.416201,-86.956702)"
         id="path22" />
    </clipPath>
    <clipPath
       clipPathUnits="userSpaceOnUse"
       id="clipPath24">
      <path
         d="M 0,109.938 H 109.938 V 0 H 0 Z"
         transform="translate(-53.416201,-74.534402)"
         id="path24" />
    </clipPath>
    <clipPath
       clipPathUnits="userSpaceOnUse"
       id="clipPath26">
      <path
         d="M 0,109.938 H 109.938 V 0 H 0 Z"
         transform="translate(-14.9484,-61.733102)"
         id="path26" />
    </clipPath>
    <clipPath
       clipPathUnits="userSpaceOnUse"
       id="clipPath28">
      <path
         d="M 0,109.938 H 109.938 V 0 H 0 Z"
         transform="translate(-27.950301,-61.733102)"
         id="path28" />
    </clipPath>
    <clipPath
       clipPathUnits="userSpaceOnUse"
       id="clipPath30">
      <path
         d="M 0,109.938 H 109.938 V 0 H 0 Z"
         transform="translate(-40.372201,-61.733102)"
         id="path30" />
    </clipPath>
    <clipPath
       clipPathUnits="userSpaceOnUse"
       id="clipPath32">
      <path
         d="M 0,109.938 H 109.938 V 0 H 0 Z"
         transform="translate(-53.416201,-61.733102)"
         id="path32" />
    </clipPath>
    <clipPath
       clipPathUnits="userSpaceOnUse"
       id="clipPath34">
      <path
         d="M 0,109.938 H 109.938 V 0 H 0 Z"
         transform="translate(-67.122202,-100.0002)"
         id="path34" />
    </clipPath>
    <clipPath
       clipPathUnits="userSpaceOnUse"
       id="clipPath36">
      <path
         d="M 0,109.938 H 109.938 V 0 H 0 Z"
         transform="translate(-80.124205,-100.0002)"
         id="path36" />
    </clipPath>
    <clipPath
       clipPathUnits="userSpaceOnUse"
       id="clipPath38">
      <path
         d="M 0,109.938 H 109.938 V 0 H 0 Z"
         transform="translate(-67.122202,-86.956702)"
         id="path38" />
    </clipPath>
    <clipPath
       clipPathUnits="userSpaceOnUse"
       id="clipPath40">
      <path
         d="M 0,109.938 H 109.938 V 0 H 0 Z"
         transform="translate(-80.124205,-86.956702)"
         id="path40" />
    </clipPath>
    <clipPath
       clipPathUnits="userSpaceOnUse"
       id="clipPath42">
      <path
         d="M 0,109.938 H 109.938 V 0 H 0 Z"
         transform="translate(-92.547002,-100.0002)"
         id="path42" />
    </clipPath>
    <clipPath
       clipPathUnits="userSpaceOnUse"
       id="clipPath44">
      <path
         d="M 0,109.938 H 109.938 V 0 H 0 Z"
         transform="translate(-92.547002,-86.956702)"
         id="path44" />
    </clipPath>
    <clipPath
       clipPathUnits="userSpaceOnUse"
       id="clipPath46">
      <path
         d="M 0,109.938 H 109.938 V 0 H 0 Z"
         transform="translate(-67.122202,-74.534402)"
         id="path46" />
    </clipPath>
    <clipPath
       clipPathUnits="userSpaceOnUse"
       id="clipPath48">
      <path
         d="M 0,109.938 H 109.938 V 0 H 0 Z"
         transform="translate(-80.124205,-74.534402)"
         id="path48" />
    </clipPath>
    <clipPath
       clipPathUnits="userSpaceOnUse"
       id="clipPath50">
      <path
         d="M 0,109.938 H 109.938 V 0 H 0 Z"
         transform="translate(-92.547002,-74.534402)"
         id="path50" />
    </clipPath>
    <clipPath
       clipPathUnits="userSpaceOnUse"
       id="clipPath52">
      <path
         d="M 0,109.938 H 109.938 V 0 H 0 Z"
         transform="translate(-105.59001,-100.0002)"
         id="path52" />
    </clipPath>
    <clipPath
       clipPathUnits="userSpaceOnUse"
       id="clipPath54">
      <path
         d="M 0,109.938 H 109.938 V 0 H 0 Z"
         transform="translate(-105.59001,-86.956702)"
         id="path54" />
    </clipPath>
    <clipPath
       clipPathUnits="userSpaceOnUse"
       id="clipPath56">
      <path
         d="M 0,109.938 H 109.938 V 0 H 0 Z"
         transform="translate(-105.59001,-74.534402)"
         id="path56" />
    </clipPath>
    <clipPath
       clipPathUnits="userSpaceOnUse"
       id="clipPath58">
      <path
         d="M 0,109.938 H 109.938 V 0 H 0 Z"
         transform="translate(-67.122202,-61.733102)"
         id="path58" />
    </clipPath>
    <clipPath
       clipPathUnits="userSpaceOnUse"
       id="clipPath60">
      <path
         d="M 0,109.938 H 109.938 V 0 H 0 Z"
         transform="translate(-80.124205,-61.733102)"
         id="path60" />
    </clipPath>
    <clipPath
       clipPathUnits="userSpaceOnUse"
       id="clipPath62">
      <path
         d="M 0,109.938 H 109.938 V 0 H 0 Z"
         transform="translate(-92.547002,-61.733102)"
         id="path62" />
    </clipPath>
    <clipPath
       clipPathUnits="userSpaceOnUse"
       id="clipPath64">
      <path
         d="M 0,109.938 H 109.938 V 0 H 0 Z"
         transform="translate(-105.59001,-61.733102)"
         id="path64" />
    </clipPath>
    <clipPath
       clipPathUnits="userSpaceOnUse"
       id="clipPath66">
      <path
         d="M 0,109.938 H 109.938 V 0 H 0 Z"
         transform="translate(-14.9484,-47.825901)"
         id="path66" />
    </clipPath>
    <clipPath
       clipPathUnits="userSpaceOnUse"
       id="clipPath68">
      <path
         d="M 0,109.938 H 109.938 V 0 H 0 Z"
         transform="translate(-27.950301,-47.825901)"
         id="path68" />
    </clipPath>
    <clipPath
       clipPathUnits="userSpaceOnUse"
       id="clipPath70">
      <path
         d="M 0,109.938 H 109.938 V 0 H 0 Z"
         transform="translate(-14.9484,-34.782398)"
         id="path70" />
    </clipPath>
    <clipPath
       clipPathUnits="userSpaceOnUse"
       id="clipPath72">
      <path
         d="M 0,109.938 H 109.938 V 0 H 0 Z"
         transform="translate(-27.950301,-34.782398)"
         id="path72" />
    </clipPath>
    <clipPath
       clipPathUnits="userSpaceOnUse"
       id="clipPath74">
      <path
         d="M 0,109.938 H 109.938 V 0 H 0 Z"
         transform="translate(-40.372201,-47.825901)"
         id="path74" />
    </clipPath>
    <clipPath
       clipPathUnits="userSpaceOnUse"
       id="clipPath76">
      <path
         d="M 0,109.938 H 109.938 V 0 H 0 Z"
         transform="translate(-40.372201,-34.782398)"
         id="path76" />
    </clipPath>
    <clipPath
       clipPathUnits="userSpaceOnUse"
       id="clipPath78">
      <path
         d="M 0,109.938 H 109.938 V 0 H 0 Z"
         transform="translate(-14.9484,-22.360103)"
         id="path78" />
    </clipPath>
    <clipPath
       clipPathUnits="userSpaceOnUse"
       id="clipPath80">
      <path
         d="M 0,109.938 H 109.938 V 0 H 0 Z"
         transform="translate(-27.950301,-22.360103)"
         id="path80" />
    </clipPath>
    <clipPath
       clipPathUnits="userSpaceOnUse"
       id="clipPath82">
      <path
         d="M 0,109.938 H 109.938 V 0 H 0 Z"
         transform="translate(-40.372201,-22.360103)"
         id="path82" />
    </clipPath>
    <clipPath
       clipPathUnits="userSpaceOnUse"
       id="clipPath84">
      <path
         d="M 0,109.938 H 109.938 V 0 H 0 Z"
         transform="translate(-53.416201,-47.825901)"
         id="path84" />
    </clipPath>
    <clipPath
       clipPathUnits="userSpaceOnUse"
       id="clipPath86">
      <path
         d="M 0,109.938 H 109.938 V 0 H 0 Z"
         transform="translate(-53.416201,-34.782398)"
         id="path86" />
    </clipPath>
    <clipPath
       clipPathUnits="userSpaceOnUse"
       id="clipPath88">
      <path
         d="M 0,109.938 H 109.938 V 0 H 0 Z"
         transform="translate(-53.416201,-22.360103)"
         id="path88" />
    </clipPath>
    <clipPath
       clipPathUnits="userSpaceOnUse"
       id="clipPath90">
      <path
         d="M 0,109.938 H 109.938 V 0 H 0 Z"
         transform="translate(-14.9484,-9.5588027)"
         id="path90" />
    </clipPath>
    <clipPath
       clipPathUnits="userSpaceOnUse"
       id="clipPath92">
      <path
         d="M 0,109.938 H 109.938 V 0 H 0 Z"
         transform="translate(-27.950301,-9.5588027)"
         id="path92" />
    </clipPath>
    <clipPath
       clipPathUnits="userSpaceOnUse"
       id="clipPath94">
      <path
         d="M 0,109.938 H 109.938 V 0 H 0 Z"
         transform="translate(-40.372201,-9.5588027)"
         id="path94" />
    </clipPath>
    <clipPath
       clipPathUnits="userSpaceOnUse"
       id="clipPath96">
      <path
         d="M 0,109.938 H 109.938 V 0 H 0 Z"
         transform="translate(-53.416201,-9.5588027)"
         id="path96" />
    </clipPath>
    <clipPath
       clipPathUnits="userSpaceOnUse"
       id="clipPath98">
      <path
         d="M 0,109.938 H 109.938 V 0 H 0 Z"
         transform="translate(-67.122202,-47.825901)"
         id="path98" />
    </clipPath>
    <clipPath
       clipPathUnits="userSpaceOnUse"
       id="clipPath100">
      <path
         d="M 0,109.938 H 109.938 V 0 H 0 Z"
         transform="translate(-80.124205,-47.825901)"
         id="path100" />
    </clipPath>
    <clipPath
       clipPathUnits="userSpaceOnUse"
       id="clipPath102">
      <path
         d="M 0,109.938 H 109.938 V 0 H 0 Z"
         transform="translate(-67.122202,-34.782398)"
         id="path102" />
    </clipPath>
    <clipPath
       clipPathUnits="userSpaceOnUse"
       id="clipPath104">
      <path
         d="M 0,109.938 H 109.938 V 0 H 0 Z"
         transform="translate(-80.124205,-34.782398)"
         id="path104" />
    </clipPath>
    <clipPath
       clipPathUnits="userSpaceOnUse"
       id="clipPath106">
      <path
         d="M 0,109.938 H 109.938 V 0 H 0 Z"
         transform="translate(-92.547002,-47.825901)"
         id="path106" />
    </clipPath>
    <clipPath
       clipPathUnits="userSpaceOnUse"
       id="clipPath108">
      <path
         d="M 0,109.938 H 109.938 V 0 H 0 Z"
         transform="translate(-92.547002,-34.782398)"
         id="path108" />
    </clipPath>
    <clipPath
       clipPathUnits="userSpaceOnUse"
       id="clipPath110">
      <path
         d="M 0,109.938 H 109.938 V 0 H 0 Z"
         transform="translate(-67.122202,-22.360103)"
         id="path110" />
    </clipPath>
    <clipPath
       clipPathUnits="userSpaceOnUse"
       id="clipPath112">
      <path
         d="M 0,109.938 H 109.938 V 0 H 0 Z"
         transform="translate(-80.124205,-22.360103)"
         id="path112" />
    </clipPath>
    <clipPath
       clipPathUnits="userSpaceOnUse"
       id="clipPath114">
      <path
         d="M 0,109.938 H 109.938 V 0 H 0 Z"
         transform="translate(-92.547002,-22.360103)"
         id="path114" />
    </clipPath>
    <clipPath
       clipPathUnits="userSpaceOnUse"
       id="clipPath116">
      <path
         d="M 0,109.938 H 109.938 V 0 H 0 Z"
         transform="translate(-105.59001,-47.825901)"
         id="path116" />
    </clipPath>
    <clipPath
       clipPathUnits="userSpaceOnUse"
       id="clipPath118">
      <path
         d="M 0,109.938 H 109.938 V 0 H 0 Z"
         transform="translate(-105.59001,-34.782398)"
         id="path118" />
    </clipPath>
    <clipPath
       clipPathUnits="userSpaceOnUse"
       id="clipPath120">
      <path
         d="M 0,109.938 H 109.938 V 0 H 0 Z"
         transform="translate(-105.59001,-22.360103)"
         id="path120" />
    </clipPath>
    <clipPath
       clipPathUnits="userSpaceOnUse"
       id="clipPath122">
      <path
         d="M 0,109.938 H 109.938 V 0 H 0 Z"
         transform="translate(-67.122202,-9.5588027)"
         id="path122" />
    </clipPath>
    <clipPath
       clipPathUnits="userSpaceOnUse"
       id="clipPath124">
      <path
         d="M 0,109.938 H 109.938 V 0 H 0 Z"
         transform="translate(-80.124205,-9.5588027)"
         id="path124" />
    </clipPath>
    <clipPath
       clipPathUnits="userSpaceOnUse"
       id="clipPath126">
      <path
         d="M 0,109.938 H 109.938 V 0 H 0 Z"
         transform="translate(-92.547002,-9.5588027)"
         id="path126" />
    </clipPath>
    <clipPath
       clipPathUnits="userSpaceOnUse"
       id="clipPath128">
      <path
         d="M 0,109.938 H 109.938 V 0 H 0 Z"
         transform="translate(-105.59001,-9.5588027)"
         id="path128" />
    </clipPath>
  </defs>
  <sodipodi:namedview
     id="namedview1"
     pagecolor="#ffffff"
     bordercolor="#000000"
     borderopacity="0.25"
     inkscape:showpageshadow="2"
     inkscape:pageopacity="0.0"
     inkscape:pagecheckerboard="0"
     inkscape:deskcolor="#d1d1d1">
    <inkscape:page
       x="0"
       y="0"
       inkscape:label="1"
       id="page1"
       width="146.584"
       height="146.584"
       margin="6.2815599 5.1306667 6.7866669 7.6699066"
       bleed="0" />
  </sodipodi:namedview>
  <g
     id="layer-MC0"
     inkscape:groupmode="layer"
     inkscape:label="Layer 1">
    <path
       id="path1"
       d="m 0,0 c 0,-2.401 -1.947,-4.348 -4.348,-4.348 -2.401,0 -4.348,1.947 -4.348,4.348 0,2.401 1.947,4.348 4.348,4.348 C -1.947,4.348 0,2.401 0,0"
       style="fill:#231f20;fill-opacity:1;fill-rule:nonzero;stroke:#231f20;stroke-width:1;stroke-linecap:butt;stroke-linejoin:miter;stroke-miterlimit:10;stroke-dasharray:none;stroke-opacity:1"
       transform="matrix(1.3333333,0,0,-1.3333333,19.9312,13.2504)"
       clip-path="url(#clipPath2)" />
    <path
       id="path3"
       d="m 0,0 c 0,-2.401 -1.946,-4.348 -4.348,-4.348 -2.401,0 -4.347,1.947 -4.347,4.348 0,2.401 1.946,4.348 4.347,4.348 C -1.946,4.348 0,2.401 0,0"
       style="fill:#231f20;fill-opacity:1;fill-rule:nonzero;stroke:#231f20;stroke-width:1;stroke-linecap:butt;stroke-linejoin:miter;stroke-miterlimit:10;stroke-dasharray:none;stroke-opacity:1"
       transform="matrix(1.3333333,0,0,-1.3333333,37.267067,13.2504)"
       clip-path="url(#clipPath4)" />
    <path
       id="path5"
       d="m 0,0 c 0,-2.401 -1.947,-4.348 -4.348,-4.348 -2.401,0 -4.348,1.947 -4.348,4.348 0,2.401 1.947,4.348 4.348,4.348 C -1.947,4.348 0,2.401 0,0"
       style="fill:#231f20;fill-opacity:1;fill-rule:nonzero;stroke:#231f20;stroke-width:1;stroke-linecap:butt;stroke-linejoin:miter;stroke-miterlimit:10;stroke-dasharray:none;stroke-opacity:1"
       transform="matrix(1.3333333,0,0,-1.3333333,19.9312,30.641733)"
       clip-path="url(#clipPath6)" />
    <path
       id="path7"
       d="m 0,0 c 0,-2.401 -1.946,-4.348 -4.348,-4.348 -2.401,0 -4.347,1.947 -4.347,4.348 0,2.401 1.946,4.348 4.347,4.348 C -1.946,4.348 0,2.401 0,0"
       style="fill:#231f20;fill-opacity:1;fill-rule:nonzero;stroke:#231f20;stroke-width:1;stroke-linecap:butt;stroke-linejoin:miter;stroke-miterlimit:10;stroke-dasharray:none;stroke-opacity:1"
       transform="matrix(1.3333333,0,0,-1.3333333,37.267067,30.641733)"
       clip-path="url(#clipPath8)" />
    <path
       id="path9"
       d="m 0,0 c 0,-2.401 -1.946,-4.348 -4.348,-4.348 -2.401,0 -4.347,1.947 -4.347,4.348 0,2.401 1.946,4.348 4.347,4.348 C -1.946,4.348 0,2.401 0,0"
       style="fill:#231f20;fill-opacity:1;fill-rule:nonzero;stroke:#231f20;stroke-width:1;stroke-linecap:butt;stroke-linejoin:miter;stroke-miterlimit:10;stroke-dasharray:none;stroke-opacity:1"
       transform="matrix(1.3333333,0,0,-1.3333333,53.8296,13.2504)"
       clip-path="url(#clipPath10)" />
    <path
       id="path11"
       d="m 0,0 c 0,-2.401 -1.946,-4.348 -4.348,-4.348 -2.401,0 -4.347,1.947 -4.347,4.348 0,2.401 1.946,4.348 4.347,4.348 C -1.946,4.348 0,2.401 0,0"
       style="fill:#231f20;fill-opacity:1;fill-rule:nonzero;stroke:#231f20;stroke-width:1;stroke-linecap:butt;stroke-linejoin:miter;stroke-miterlimit:10;stroke-dasharray:none;stroke-opacity:1"
       transform="matrix(1.3333333,0,0,-1.3333333,53.8296,30.641733)"
       clip-path="url(#clipPath12)" />
    <path
       id="path13"
       d="m 0,0 c 0,-2.401 -1.947,-4.348 -4.348,-4.348 -2.401,0 -4.348,1.947 -4.348,4.348 0,2.401 1.947,4.348 4.348,4.348 C -1.947,4.348 0,2.401 0,0"
       style="fill:#231f20;fill-opacity:1;fill-rule:nonzero;stroke:#231f20;stroke-width:1;stroke-linecap:butt;stroke-linejoin:miter;stroke-miterlimit:10;stroke-dasharray:none;stroke-opacity:1"
       transform="matrix(1.3333333,0,0,-1.3333333,19.9312,47.2048)"
       clip-path="url(#clipPath14)" />
    <path
       id="path15"
       d="m 0,0 c 0,-2.401 -1.946,-4.348 -4.348,-4.348 -2.401,0 -4.347,1.947 -4.347,4.348 0,2.401 1.946,4.348 4.347,4.348 C -1.946,4.348 0,2.401 0,0"
       style="fill:#231f20;fill-opacity:1;fill-rule:nonzero;stroke:#231f20;stroke-width:1;stroke-linecap:butt;stroke-linejoin:miter;stroke-miterlimit:10;stroke-dasharray:none;stroke-opacity:1"
       transform="matrix(1.3333333,0,0,-1.3333333,37.267067,47.2048)"
       clip-path="url(#clipPath16)" />
    <path
       id="path17"
       d="m 0,0 c 0,-2.401 -1.946,-4.348 -4.348,-4.348 -2.401,0 -4.347,1.947 -4.347,4.348 0,2.401 1.946,4.348 4.347,4.348 C -1.946,4.348 0,2.401 0,0"
       style="fill:#231f20;fill-opacity:1;fill-rule:nonzero;stroke:#231f20;stroke-width:1;stroke-linecap:butt;stroke-linejoin:miter;stroke-miterlimit:10;stroke-dasharray:none;stroke-opacity:1"
       transform="matrix(1.3333333,0,0,-1.3333333,53.8296,47.2048)"
       clip-path="url(#clipPath18)" />
    <path
       id="path19"
       d="m 0,0 c 0,-2.401 -1.946,-4.348 -4.348,-4.348 -2.401,0 -4.347,1.947 -4.347,4.348 0,2.401 1.946,4.348 4.347,4.348 C -1.946,4.348 0,2.401 0,0"
       style="fill:#231f20;fill-opacity:1;fill-rule:nonzero;stroke:#231f20;stroke-width:1;stroke-linecap:butt;stroke-linejoin:miter;stroke-miterlimit:10;stroke-dasharray:none;stroke-opacity:1"
       transform="matrix(1.3333333,0,0,-1.3333333,71.2216,13.2504)"
       clip-path="url(#clipPath20)" />
    <path
       id="path21"
       d="m 0,0 c 0,-2.401 -1.946,-4.348 -4.348,-4.348 -2.401,0 -4.347,1.947 -4.347,4.348 0,2.401 1.946,4.348 4.347,4.348 C -1.946,4.348 0,2.401 0,0"
       style="fill:#231f20;fill-opacity:1;fill-rule:nonzero;stroke:#231f20;stroke-width:1;stroke-linecap:butt;stroke-linejoin:miter;stroke-miterlimit:10;stroke-dasharray:none;stroke-opacity:1"
       transform="matrix(1.3333333,0,0,-1.3333333,71.2216,30.641733)"
       clip-path="url(#clipPath22)" />
    <path
       id="path23"
       d="m 0,0 c 0,-2.401 -1.946,-4.348 -4.348,-4.348 -2.401,0 -4.347,1.947 -4.347,4.348 0,2.401 1.946,4.348 4.347,4.348 C -1.946,4.348 0,2.401 0,0"
       style="fill:#231f20;fill-opacity:1;fill-rule:nonzero;stroke:#231f20;stroke-width:1;stroke-linecap:butt;stroke-linejoin:miter;stroke-miterlimit:10;stroke-dasharray:none;stroke-opacity:1"
       transform="matrix(1.3333333,0,0,-1.3333333,71.2216,47.2048)"
       clip-path="url(#clipPath24)" />
    <path
       id="path25"
       d="m 0,0 c 0,-2.401 -1.947,-4.348 -4.348,-4.348 -2.401,0 -4.348,1.947 -4.348,4.348 0,2.401 1.947,4.348 4.348,4.348 C -1.947,4.348 0,2.401 0,0"
       style="fill:#ffffff;fill-opacity:1;fill-rule:nonzero;stroke:#231f20;stroke-width:1;stroke-linecap:butt;stroke-linejoin:miter;stroke-miterlimit:10;stroke-dasharray:none;stroke-opacity:1"
       transform="matrix(1.3333333,0,0,-1.3333333,19.9312,64.2732)"
       clip-path="url(#clipPath26)" />
    <path
       id="path27"
       d="m 0,0 c 0,-2.401 -1.946,-4.348 -4.348,-4.348 -2.401,0 -4.347,1.947 -4.347,4.348 0,2.401 1.946,4.348 4.347,4.348 C -1.946,4.348 0,2.401 0,0"
       style="fill:#231f20;fill-opacity:1;fill-rule:nonzero;stroke:#231f20;stroke-width:1;stroke-linecap:butt;stroke-linejoin:miter;stroke-miterlimit:10;stroke-dasharray:none;stroke-opacity:1"
       transform="matrix(1.3333333,0,0,-1.3333333,37.267067,64.2732)"
       clip-path="url(#clipPath28)" />
    <path
       id="path29"
       d="m 0,0 c 0,-2.401 -1.946,-4.348 -4.348,-4.348 -2.401,0 -4.347,1.947 -4.347,4.348 0,2.401 1.946,4.348 4.347,4.348 C -1.946,4.348 0,2.401 0,0"
       style="fill:#231f20;fill-opacity:1;fill-rule:nonzero;stroke:#231f20;stroke-width:1;stroke-linecap:butt;stroke-linejoin:miter;stroke-miterlimit:10;stroke-dasharray:none;stroke-opacity:1"
       transform="matrix(1.3333333,0,0,-1.3333333,53.8296,64.2732)"
       clip-path="url(#clipPath30)" />
    <path
       id="path31"
       d="m 0,0 c 0,-2.401 -1.946,-4.348 -4.348,-4.348 -2.401,0 -4.347,1.947 -4.347,4.348 0,2.401 1.946,4.348 4.347,4.348 C -1.946,4.348 0,2.401 0,0"
       style="fill:#231f20;fill-opacity:1;fill-rule:nonzero;stroke:#231f20;stroke-width:1;stroke-linecap:butt;stroke-linejoin:miter;stroke-miterlimit:10;stroke-dasharray:none;stroke-opacity:1"
       transform="matrix(1.3333333,0,0,-1.3333333,71.2216,64.2732)"
       clip-path="url(#clipPath32)" />
    <path
       id="path33"
       d="m 0,0 c 0,-2.401 -1.947,-4.348 -4.348,-4.348 -2.401,0 -4.348,1.947 -4.348,4.348 0,2.401 1.947,4.348 4.348,4.348 C -1.947,4.348 0,2.401 0,0"
       style="fill:#231f20;fill-opacity:1;fill-rule:nonzero;stroke:#231f20;stroke-width:1;stroke-linecap:butt;stroke-linejoin:miter;stroke-miterlimit:10;stroke-dasharray:none;stroke-opacity:1"
       transform="matrix(1.3333333,0,0,-1.3333333,89.496267,13.2504)"
       clip-path="url(#clipPath34)" />
    <path
       id="path35"
       d="m 0,0 c 0,-2.401 -1.946,-4.348 -4.348,-4.348 -2.401,0 -4.347,1.947 -4.347,4.348 0,2.401 1.946,4.348 4.347,4.348 C -1.946,4.348 0,2.401 0,0"
       style="fill:#231f20;fill-opacity:1;fill-rule:nonzero;stroke:#231f20;stroke-width:1;stroke-linecap:butt;stroke-linejoin:miter;stroke-miterlimit:10;stroke-dasharray:none;stroke-opacity:1"
       transform="matrix(1.3333333,0,0,-1.3333333,106.83227,13.2504)"
       clip-path="url(#clipPath36)" />
    <path
       id="path37"
       d="m 0,0 c 0,-2.401 -1.947,-4.348 -4.348,-4.348 -2.401,0 -4.348,1.947 -4.348,4.348 0,2.401 1.947,4.348 4.348,4.348 C -1.947,4.348 0,2.401 0,0"
       style="fill:#231f20;fill-opacity:1;fill-rule:nonzero;stroke:#231f20;stroke-width:1;stroke-linecap:butt;stroke-linejoin:miter;stroke-miterlimit:10;stroke-dasharray:none;stroke-opacity:1"
       transform="matrix(1.3333333,0,0,-1.3333333,89.496267,30.641733)"
       clip-path="url(#clipPath38)" />
    <path
       id="path39"
       d="m 0,0 c 0,-2.401 -1.946,-4.348 -4.348,-4.348 -2.401,0 -4.347,1.947 -4.347,4.348 0,2.401 1.946,4.348 4.347,4.348 C -1.946,4.348 0,2.401 0,0"
       style="fill:#231f20;fill-opacity:1;fill-rule:nonzero;stroke:#231f20;stroke-width:1;stroke-linecap:butt;stroke-linejoin:miter;stroke-miterlimit:10;stroke-dasharray:none;stroke-opacity:1"
       transform="matrix(1.3333333,0,0,-1.3333333,106.83227,30.641733)"
       clip-path="url(#clipPath40)" />
    <path
       id="path41"
       d="m 0,0 c 0,-2.401 -1.947,-4.348 -4.349,-4.348 -2.4,0 -4.347,1.947 -4.347,4.348 0,2.401 1.947,4.348 4.347,4.348 C -1.947,4.348 0,2.401 0,0"
       style="fill:#231f20;fill-opacity:1;fill-rule:nonzero;stroke:#231f20;stroke-width:1;stroke-linecap:butt;stroke-linejoin:miter;stroke-miterlimit:10;stroke-dasharray:none;stroke-opacity:1"
       transform="matrix(1.3333333,0,0,-1.3333333,123.396,13.2504)"
       clip-path="url(#clipPath42)" />
    <path
       id="path43"
       d="m 0,0 c 0,-2.401 -1.947,-4.348 -4.349,-4.348 -2.4,0 -4.347,1.947 -4.347,4.348 0,2.401 1.947,4.348 4.347,4.348 C -1.947,4.348 0,2.401 0,0"
       style="fill:#231f20;fill-opacity:1;fill-rule:nonzero;stroke:#231f20;stroke-width:1;stroke-linecap:butt;stroke-linejoin:miter;stroke-miterlimit:10;stroke-dasharray:none;stroke-opacity:1"
       transform="matrix(1.3333333,0,0,-1.3333333,123.396,30.641733)"
       clip-path="url(#clipPath44)" />
    <path
       id="path45"
       d="m 0,0 c 0,-2.401 -1.947,-4.348 -4.348,-4.348 -2.401,0 -4.348,1.947 -4.348,4.348 0,2.401 1.947,4.348 4.348,4.348 C -1.947,4.348 0,2.401 0,0"
       style="fill:#231f20;fill-opacity:1;fill-rule:nonzero;stroke:#231f20;stroke-width:1;stroke-linecap:butt;stroke-linejoin:miter;stroke-miterlimit:10;stroke-dasharray:none;stroke-opacity:1"
       transform="matrix(1.3333333,0,0,-1.3333333,89.496267,47.2048)"
       clip-path="url(#clipPath46)" />
    <path
       id="path47"
       d="m 0,0 c 0,-2.401 -1.946,-4.348 -4.348,-4.348 -2.401,0 -4.347,1.947 -4.347,4.348 0,2.401 1.946,4.348 4.347,4.348 C -1.946,4.348 0,2.401 0,0"
       style="fill:#231f20;fill-opacity:1;fill-rule:nonzero;stroke:#231f20;stroke-width:1;stroke-linecap:butt;stroke-linejoin:miter;stroke-miterlimit:10;stroke-dasharray:none;stroke-opacity:1"
       transform="matrix(1.3333333,0,0,-1.3333333,106.83227,47.2048)"
       clip-path="url(#clipPath48)" />
    <path
       id="path49"
       d="m 0,0 c 0,-2.401 -1.947,-4.348 -4.349,-4.348 -2.4,0 -4.347,1.947 -4.347,4.348 0,2.401 1.947,4.348 4.347,4.348 C -1.947,4.348 0,2.401 0,0"
       style="fill:#231f20;fill-opacity:1;fill-rule:nonzero;stroke:#231f20;stroke-width:1;stroke-linecap:butt;stroke-linejoin:miter;stroke-miterlimit:10;stroke-dasharray:none;stroke-opacity:1"
       transform="matrix(1.3333333,0,0,-1.3333333,123.396,47.2048)"
       clip-path="url(#clipPath50)" />
    <path
       id="path51"
       d="m 0,0 c 0,-2.401 -1.946,-4.348 -4.348,-4.348 -2.401,0 -4.347,1.947 -4.347,4.348 0,2.401 1.946,4.348 4.347,4.348 C -1.946,4.348 0,2.401 0,0"
       style="fill:#231f20;fill-opacity:1;fill-rule:nonzero;stroke:#231f20;stroke-width:1;stroke-linecap:butt;stroke-linejoin:miter;stroke-miterlimit:10;stroke-dasharray:none;stroke-opacity:1"
       transform="matrix(1.3333333,0,0,-1.3333333,140.78667,13.2504)"
       clip-path="url(#clipPath52)" />
    <path
       id="path53"
       d="m 0,0 c 0,-2.401 -1.946,-4.348 -4.348,-4.348 -2.401,0 -4.347,1.947 -4.347,4.348 0,2.401 1.946,4.348 4.347,4.348 C -1.946,4.348 0,2.401 0,0"
       style="fill:#231f20;fill-opacity:1;fill-rule:nonzero;stroke:#231f20;stroke-width:1;stroke-linecap:butt;stroke-linejoin:miter;stroke-miterlimit:10;stroke-dasharray:none;stroke-opacity:1"
       transform="matrix(1.3333333,0,0,-1.3333333,140.78667,30.641733)"
       clip-path="url(#clipPath54)" />
    <path
       id="path55"
       d="m 0,0 c 0,-2.401 -1.946,-4.348 -4.348,-4.348 -2.401,0 -4.347,1.947 -4.347,4.348 0,2.401 1.946,4.348 4.347,4.348 C -1.946,4.348 0,2.401 0,0"
       style="fill:#231f20;fill-opacity:1;fill-rule:nonzero;stroke:#231f20;stroke-width:1;stroke-linecap:butt;stroke-linejoin:miter;stroke-miterlimit:10;stroke-dasharray:none;stroke-opacity:1"
       transform="matrix(1.3333333,0,0,-1.3333333,140.78667,47.2048)"
       clip-path="url(#clipPath56)" />
    <path
       id="path57"
       d="m 0,0 c 0,-2.401 -1.947,-4.348 -4.348,-4.348 -2.401,0 -4.348,1.947 -4.348,4.348 0,2.401 1.947,4.348 4.348,4.348 C -1.947,4.348 0,2.401 0,0"
       style="fill:#231f20;fill-opacity:1;fill-rule:nonzero;stroke:#231f20;stroke-width:1;stroke-linecap:butt;stroke-linejoin:miter;stroke-miterlimit:10;stroke-dasharray:none;stroke-opacity:1"
       transform="matrix(1.3333333,0,0,-1.3333333,89.496267,64.2732)"
       clip-path="url(#clipPath58)" />
    <path
       id="path59"
       d="m 0,0 c 0,-2.401 -1.946,-4.348 -4.348,-4.348 -2.401,0 -4.347,1.947 -4.347,4.348 0,2.401 1.946,4.348 4.347,4.348 C -1.946,4.348 0,2.401 0,0"
       style="fill:#231f20;fill-opacity:1;fill-rule:nonzero;stroke:#231f20;stroke-width:1;stroke-linecap:butt;stroke-linejoin:miter;stroke-miterlimit:10;stroke-dasharray:none;stroke-opacity:1"
       transform="matrix(1.3333333,0,0,-1.3333333,106.83227,64.2732)"
       clip-path="url(#clipPath60)" />
    <path
       id="path61"
       d="m 0,0 c 0,-2.401 -1.947,-4.348 -4.349,-4.348 -2.4,0 -4.347,1.947 -4.347,4.348 0,2.401 1.947,4.348 4.347,4.348 C -1.947,4.348 0,2.401 0,0"
       style="fill:#231f20;fill-opacity:1;fill-rule:nonzero;stroke:#231f20;stroke-width:1;stroke-linecap:butt;stroke-linejoin:miter;stroke-miterlimit:10;stroke-dasharray:none;stroke-opacity:1"
       transform="matrix(1.3333333,0,0,-1.3333333,123.396,64.2732)"
       clip-path="url(#clipPath62)" />
    <path
       id="path63"
       d="m 0,0 c 0,-2.401 -1.946,-4.348 -4.348,-4.348 -2.401,0 -4.347,1.947 -4.347,4.348 0,2.401 1.946,4.348 4.347,4.348 C -1.946,4.348 0,2.401 0,0"
       style="fill:#231f20;fill-opacity:1;fill-rule:nonzero;stroke:#231f20;stroke-width:1;stroke-linecap:butt;stroke-linejoin:miter;stroke-miterlimit:10;stroke-dasharray:none;stroke-opacity:1"
       transform="matrix(1.3333333,0,0,-1.3333333,140.78667,64.2732)"
       clip-path="url(#clipPath64)" />
    <path
       id="path65"
       d="m 0,0 c 0,-2.401 -1.947,-4.348 -4.348,-4.348 -2.401,0 -4.348,1.947 -4.348,4.348 0,2.401 1.947,4.348 4.348,4.348 C -1.947,4.348 0,2.401 0,0"
       style="fill:#ffffff;fill-opacity:1;fill-rule:nonzero;stroke:#231f20;stroke-width:1;stroke-linecap:butt;stroke-linejoin:miter;stroke-miterlimit:10;stroke-dasharray:none;stroke-opacity:1"
       transform="matrix(1.3333333,0,0,-1.3333333,19.9312,82.816133)"
       clip-path="url(#clipPath66)" />
    <path
       id="path67"
       d="m 0,0 c 0,-2.401 -1.946,-4.348 -4.348,-4.348 -2.401,0 -4.347,1.947 -4.347,4.348 0,2.401 1.946,4.348 4.347,4.348 C -1.946,4.348 0,2.401 0,0"
       style="fill:#ffffff;fill-opacity:1;fill-rule:nonzero;stroke:#231f20;stroke-width:1;stroke-linecap:butt;stroke-linejoin:miter;stroke-miterlimit:10;stroke-dasharray:none;stroke-opacity:1"
       transform="matrix(1.3333333,0,0,-1.3333333,37.267067,82.816133)"
       clip-path="url(#clipPath68)" />
    <path
       id="path69"
       d="m 0,0 c 0,-2.401 -1.947,-4.348 -4.348,-4.348 -2.401,0 -4.348,1.947 -4.348,4.348 0,2.401 1.947,4.348 4.348,4.348 C -1.947,4.348 0,2.401 0,0"
       style="fill:#ffffff;fill-opacity:1;fill-rule:nonzero;stroke:#231f20;stroke-width:1;stroke-linecap:butt;stroke-linejoin:miter;stroke-miterlimit:10;stroke-dasharray:none;stroke-opacity:1"
       transform="matrix(1.3333333,0,0,-1.3333333,19.9312,100.20747)"
       clip-path="url(#clipPath70)" />
    <path
       id="path71"
       d="m 0,0 c 0,-2.401 -1.946,-4.348 -4.348,-4.348 -2.401,0 -4.347,1.947 -4.347,4.348 0,2.401 1.946,4.348 4.347,4.348 C -1.946,4.348 0,2.401 0,0"
       style="fill:#ffffff;fill-opacity:1;fill-rule:nonzero;stroke:#231f20;stroke-width:1;stroke-linecap:butt;stroke-linejoin:miter;stroke-miterlimit:10;stroke-dasharray:none;stroke-opacity:1"
       transform="matrix(1.3333333,0,0,-1.3333333,37.267067,100.20747)"
       clip-path="url(#clipPath72)" />
    <path
       id="path73"
       d="m 0,0 c 0,-2.401 -1.946,-4.348 -4.348,-4.348 -2.401,0 -4.347,1.947 -4.347,4.348 0,2.401 1.946,4.348 4.347,4.348 C -1.946,4.348 0,2.401 0,0"
       style="fill:#231f20;fill-opacity:1;fill-rule:nonzero;stroke:#231f20;stroke-width:1;stroke-linecap:butt;stroke-linejoin:miter;stroke-miterlimit:10;stroke-dasharray:none;stroke-opacity:1"
       transform="matrix(1.3333333,0,0,-1.3333333,53.8296,82.816133)"
       clip-path="url(#clipPath74)" />
    <path
       id="path75"
       d="m 0,0 c 0,-2.401 -1.946,-4.348 -4.348,-4.348 -2.401,0 -4.347,1.947 -4.347,4.348 0,2.401 1.946,4.348 4.347,4.348 C -1.946,4.348 0,2.401 0,0"
       style="fill:#ffffff;fill-opacity:1;fill-rule:nonzero;stroke:#231f20;stroke-width:1;stroke-linecap:butt;stroke-linejoin:miter;stroke-miterlimit:10;stroke-dasharray:none;stroke-opacity:1"
       transform="matrix(1.3333333,0,0,-1.3333333,53.8296,100.20747)"
       clip-path="url(#clipPath76)" />
    <path
       id="path77"
       d="m 0,0 c 0,-2.401 -1.947,-4.348 -4.348,-4.348 -2.401,0 -4.348,1.947 -4.348,4.348 0,2.401 1.947,4.348 4.348,4.348 C -1.947,4.348 0,2.401 0,0"
       style="fill:#ffffff;fill-opacity:1;fill-rule:nonzero;stroke:#231f20;stroke-width:1;stroke-linecap:butt;stroke-linejoin:miter;stroke-miterlimit:10;stroke-dasharray:none;stroke-opacity:1"
       transform="matrix(1.3333333,0,0,-1.3333333,19.9312,116.77053)"
       clip-path="url(#clipPath78)" />
    <path
       id="path79"
       d="m 0,0 c 0,-2.401 -1.946,-4.348 -4.348,-4.348 -2.401,0 -4.347,1.947 -4.347,4.348 0,2.401 1.946,4.348 4.347,4.348 C -1.946,4.348 0,2.401 0,0"
       style="fill:#ffffff;fill-opacity:1;fill-rule:nonzero;stroke:#231f20;stroke-width:1;stroke-linecap:butt;stroke-linejoin:miter;stroke-miterlimit:10;stroke-dasharray:none;stroke-opacity:1"
       transform="matrix(1.3333333,0,0,-1.3333333,37.267067,116.77053)"
       clip-path="url(#clipPath80)" />
    <path
       id="path81"
       d="m 0,0 c 0,-2.401 -1.946,-4.348 -4.348,-4.348 -2.401,0 -4.347,1.947 -4.347,4.348 0,2.401 1.946,4.348 4.347,4.348 C -1.946,4.348 0,2.401 0,0"
       style="fill:#ffffff;fill-opacity:1;fill-rule:nonzero;stroke:#231f20;stroke-width:1;stroke-linecap:butt;stroke-linejoin:miter;stroke-miterlimit:10;stroke-dasharray:none;stroke-opacity:1"
       transform="matrix(1.3333333,0,0,-1.3333333,53.8296,116.77053)"
       clip-path="url(#clipPath82)" />
    <path
       id="path83"
       d="m 0,0 c 0,-2.401 -1.946,-4.348 -4.348,-4.348 -2.401,0 -4.347,1.947 -4.347,4.348 0,2.401 1.946,4.348 4.347,4.348 C -1.946,4.348 0,2.401 0,0"
       style="fill:#231f20;fill-opacity:1;fill-rule:nonzero;stroke:#231f20;stroke-width:1;stroke-linecap:butt;stroke-linejoin:miter;stroke-miterlimit:10;stroke-dasharray:none;stroke-opacity:1"
       transform="matrix(1.3333333,0,0,-1.3333333,71.2216,82.816133)"
       clip-path="url(#clipPath84)" />
    <path
       id="path85"
       d="m 0,0 c 0,-2.401 -1.946,-4.348 -4.348,-4.348 -2.401,0 -4.347,1.947 -4.347,4.348 0,2.401 1.946,4.348 4.347,4.348 C -1.946,4.348 0,2.401 0,0"
       style="fill:#231f20;fill-opacity:1;fill-rule:nonzero;stroke:#231f20;stroke-width:1;stroke-linecap:butt;stroke-linejoin:miter;stroke-miterlimit:10;stroke-dasharray:none;stroke-opacity:1"
       transform="matrix(1.3333333,0,0,-1.3333333,71.2216,100.20747)"
       clip-path="url(#clipPath86)" />
    <path
       id="path87"
       d="m 0,0 c 0,-2.401 -1.946,-4.348 -4.348,-4.348 -2.401,0 -4.347,1.947 -4.347,4.348 0,2.401 1.946,4.348 4.347,4.348 C -1.946,4.348 0,2.401 0,0"
       style="fill:#ffffff;fill-opacity:1;fill-rule:nonzero;stroke:#231f20;stroke-width:1;stroke-linecap:butt;stroke-linejoin:miter;stroke-miterlimit:10;stroke-dasharray:none;stroke-opacity:1"
       transform="matrix(1.3333333,0,0,-1.3333333,71.2216,116.77053)"
       clip-path="url(#clipPath88)" />
    <path
       id="path89"
       d="m 0,0 c 0,-2.401 -1.947,-4.348 -4.348,-4.348 -2.401,0 -4.348,1.947 -4.348,4.348 0,2.401 1.947,4.348 4.348,4.348 C -1.947,4.348 0,2.401 0,0"
       style="fill:#ffffff;fill-opacity:1;fill-rule:nonzero;stroke:#231f20;stroke-width:1;stroke-linecap:butt;stroke-linejoin:miter;stroke-miterlimit:10;stroke-dasharray:none;stroke-opacity:1"
       transform="matrix(1.3333333,0,0,-1.3333333,19.9312,133.83893)"
       clip-path="url(#clipPath90)" />
    <path
       id="path91"
       d="m 0,0 c 0,-2.401 -1.946,-4.348 -4.348,-4.348 -2.401,0 -4.347,1.947 -4.347,4.348 0,2.401 1.946,4.348 4.347,4.348 C -1.946,4.348 0,2.401 0,0"
       style="fill:#ffffff;fill-opacity:1;fill-rule:nonzero;stroke:#231f20;stroke-width:1;stroke-linecap:butt;stroke-linejoin:miter;stroke-miterlimit:10;stroke-dasharray:none;stroke-opacity:1"
       transform="matrix(1.3333333,0,0,-1.3333333,37.267067,133.83893)"
       clip-path="url(#clipPath92)" />
    <path
       id="path93"
       d="m 0,0 c 0,-2.401 -1.946,-4.348 -4.348,-4.348 -2.401,0 -4.347,1.947 -4.347,4.348 0,2.401 1.946,4.348 4.347,4.348 C -1.946,4.348 0,2.401 0,0"
       style="fill:#ffffff;fill-opacity:1;fill-rule:nonzero;stroke:#231f20;stroke-width:1;stroke-linecap:butt;stroke-linejoin:miter;stroke-miterlimit:10;stroke-dasharray:none;stroke-opacity:1"
       transform="matrix(1.3333333,0,0,-1.3333333,53.8296,133.83893)"
       clip-path="url(#clipPath94)" />
    <path
       id="path95"
       d="m 0,0 c 0,-2.401 -1.946,-4.348 -4.348,-4.348 -2.401,0 -4.347,1.947 -4.347,4.348 0,2.401 1.946,4.348 4.347,4.348 C -1.946,4.348 0,2.401 0,0"
       style="fill:#ffffff;fill-opacity:1;fill-rule:nonzero;stroke:#231f20;stroke-width:1;stroke-linecap:butt;stroke-linejoin:miter;stroke-miterlimit:10;stroke-dasharray:none;stroke-opacity:1"
       transform="matrix(1.3333333,0,0,-1.3333333,71.2216,133.83893)"
       clip-path="url(#clipPath96)" />
    <path
       id="path97"
       d="m 0,0 c 0,-2.401 -1.947,-4.348 -4.348,-4.348 -2.401,0 -4.348,1.947 -4.348,4.348 0,2.401 1.947,4.348 4.348,4.348 C -1.947,4.348 0,2.401 0,0"
       style="fill:#231f20;fill-opacity:1;fill-rule:nonzero;stroke:#231f20;stroke-width:1;stroke-linecap:butt;stroke-linejoin:miter;stroke-miterlimit:10;stroke-dasharray:none;stroke-opacity:1"
       transform="matrix(1.3333333,0,0,-1.3333333,89.496267,82.816133)"
       clip-path="url(#clipPath98)" />
    <path
       id="path99"
       d="m 0,0 c 0,-2.401 -1.946,-4.348 -4.348,-4.348 -2.401,0 -4.347,1.947 -4.347,4.348 0,2.401 1.946,4.348 4.347,4.348 C -1.946,4.348 0,2.401 0,0"
       style="fill:#231f20;fill-opacity:1;fill-rule:nonzero;stroke:#231f20;stroke-width:1;stroke-linecap:butt;stroke-linejoin:miter;stroke-miterlimit:10;stroke-dasharray:none;stroke-opacity:1"
       transform="matrix(1.3333333,0,0,-1.3333333,106.83227,82.816133)"
       clip-path="url(#clipPath100)" />
    <path
       id="path101"
       d="m 0,0 c 0,-2.401 -1.947,-4.348 -4.348,-4.348 -2.401,0 -4.348,1.947 -4.348,4.348 0,2.401 1.947,4.348 4.348,4.348 C -1.947,4.348 0,2.401 0,0"
       style="fill:#231f20;fill-opacity:1;fill-rule:nonzero;stroke:#231f20;stroke-width:1;stroke-linecap:butt;stroke-linejoin:miter;stroke-miterlimit:10;stroke-dasharray:none;stroke-opacity:1"
       transform="matrix(1.3333333,0,0,-1.3333333,89.496267,100.20747)"
       clip-path="url(#clipPath102)" />
    <path
       id="path103"
       d="m 0,0 c 0,-2.401 -1.946,-4.348 -4.348,-4.348 -2.401,0 -4.347,1.947 -4.347,4.348 0,2.401 1.946,4.348 4.347,4.348 C -1.946,4.348 0,2.401 0,0"
       style="fill:#231f20;fill-opacity:1;fill-rule:nonzero;stroke:#231f20;stroke-width:1;stroke-linecap:butt;stroke-linejoin:miter;stroke-miterlimit:10;stroke-dasharray:none;stroke-opacity:1"
       transform="matrix(1.3333333,0,0,-1.3333333,106.83227,100.20747)"
       clip-path="url(#clipPath104)" />
    <path
       id="path105"
       d="m 0,0 c 0,-2.401 -1.947,-4.348 -4.349,-4.348 -2.4,0 -4.347,1.947 -4.347,4.348 0,2.401 1.947,4.348 4.347,4.348 C -1.947,4.348 0,2.401 0,0"
       style="fill:#231f20;fill-opacity:1;fill-rule:nonzero;stroke:#231f20;stroke-width:1;stroke-linecap:butt;stroke-linejoin:miter;stroke-miterlimit:10;stroke-dasharray:none;stroke-opacity:1"
       transform="matrix(1.3333333,0,0,-1.3333333,123.396,82.816133)"
       clip-path="url(#clipPath106)" />
    <path
       id="path107"
       d="m 0,0 c 0,-2.401 -1.947,-4.348 -4.349,-4.348 -2.4,0 -4.347,1.947 -4.347,4.348 0,2.401 1.947,4.348 4.347,4.348 C -1.947,4.348 0,2.401 0,0"
       style="fill:#231f20;fill-opacity:1;fill-rule:nonzero;stroke:#231f20;stroke-width:1;stroke-linecap:butt;stroke-linejoin:miter;stroke-miterlimit:10;stroke-dasharray:none;stroke-opacity:1"
       transform="matrix(1.3333333,0,0,-1.3333333,123.396,100.20747)"
       clip-path="url(#clipPath108)" />
    <path
       id="path109"
       d="m 0,0 c 0,-2.401 -1.947,-4.348 -4.348,-4.348 -2.401,0 -4.348,1.947 -4.348,4.348 0,2.401 1.947,4.348 4.348,4.348 C -1.947,4.348 0,2.401 0,0"
       style="fill:#231f20;fill-opacity:1;fill-rule:nonzero;stroke:#231f20;stroke-width:1;stroke-linecap:butt;stroke-linejoin:miter;stroke-miterlimit:10;stroke-dasharray:none;stroke-opacity:1"
       transform="matrix(1.3333333,0,0,-1.3333333,89.496267,116.77053)"
       clip-path="url(#clipPath110)" />
    <path
       id="path111"
       d="m 0,0 c 0,-2.401 -1.946,-4.348 -4.348,-4.348 -2.401,0 -4.347,1.947 -4.347,4.348 0,2.401 1.946,4.348 4.347,4.348 C -1.946,4.348 0,2.401 0,0"
       style="fill:#231f20;fill-opacity:1;fill-rule:nonzero;stroke:#231f20;stroke-width:1;stroke-linecap:butt;stroke-linejoin:miter;stroke-miterlimit:10;stroke-dasharray:none;stroke-opacity:1"
       transform="matrix(1.3333333,0,0,-1.3333333,106.83227,116.77053)"
       clip-path="url(#clipPath112)" />
    <path
       id="path113"
       d="m 0,0 c 0,-2.401 -1.947,-4.348 -4.349,-4.348 -2.4,0 -4.347,1.947 -4.347,4.348 0,2.401 1.947,4.348 4.347,4.348 C -1.947,4.348 0,2.401 0,0"
       style="fill:#231f20;fill-opacity:1;fill-rule:nonzero;stroke:#231f20;stroke-width:1;stroke-linecap:butt;stroke-linejoin:miter;stroke-miterlimit:10;stroke-dasharray:none;stroke-opacity:1"
       transform="matrix(1.3333333,0,0,-1.3333333,123.396,116.77053)"
       clip-path="url(#clipPath114)" />
    <path
       id="path115"
       d="m 0,0 c 0,-2.401 -1.946,-4.348 -4.348,-4.348 -2.401,0 -4.347,1.947 -4.347,4.348 0,2.401 1.946,4.348 4.347,4.348 C -1.946,4.348 0,2.401 0,0"
       style="fill:#231f20;fill-opacity:1;fill-rule:nonzero;stroke:#231f20;stroke-width:1;stroke-linecap:butt;stroke-linejoin:miter;stroke-miterlimit:10;stroke-dasharray:none;stroke-opacity:1"
       transform="matrix(1.3333333,0,0,-1.3333333,140.78667,82.816133)"
       clip-path="url(#clipPath116)" />
    <path
       id="path117"
       d="m 0,0 c 0,-2.401 -1.946,-4.348 -4.348,-4.348 -2.401,0 -4.347,1.947 -4.347,4.348 0,2.401 1.946,4.348 4.347,4.348 C -1.946,4.348 0,2.401 0,0"
       style="fill:#231f20;fill-opacity:1;fill-rule:nonzero;stroke:#231f20;stroke-width:1;stroke-linecap:butt;stroke-linejoin:miter;stroke-miterlimit:10;stroke-dasharray:none;stroke-opacity:1"
       transform="matrix(1.3333333,0,0,-1.3333333,140.78667,100.20747)"
       clip-path="url(#clipPath118)" />
    <path
       id="path119"
       d="m 0,0 c 0,-2.401 -1.946,-4.348 -4.348,-4.348 -2.401,0 -4.347,1.947 -4.347,4.348 0,2.401 1.946,4.348 4.347,4.348 C -1.946,4.348 0,2.401 0,0"
       style="fill:#231f20;fill-opacity:1;fill-rule:nonzero;stroke:#231f20;stroke-width:1;stroke-linecap:butt;stroke-linejoin:miter;stroke-miterlimit:10;stroke-dasharray:none;stroke-opacity:1"
       transform="matrix(1.3333333,0,0,-1.3333333,140.78667,116.77053)"
       clip-path="url(#clipPath120)" />
    <path
       id="path121"
       d="m 0,0 c 0,-2.401 -1.947,-4.348 -4.348,-4.348 -2.401,0 -4.348,1.947 -4.348,4.348 0,2.401 1.947,4.348 4.348,4.348 C -1.947,4.348 0,2.401 0,0"
       style="fill:#ffffff;fill-opacity:1;fill-rule:nonzero;stroke:#231f20;stroke-width:1;stroke-linecap:butt;stroke-linejoin:miter;stroke-miterlimit:10;stroke-dasharray:none;stroke-opacity:1"
       transform="matrix(1.3333333,0,0,-1.3333333,89.496267,133.83893)"
       clip-path="url(#clipPath122)" />
    <path
       id="path123"
       d="m 0,0 c 0,-2.401 -1.946,-4.348 -4.348,-4.348 -2.401,0 -4.347,1.947 -4.347,4.348 0,2.401 1.946,4.348 4.347,4.348 C -1.946,4.348 0,2.401 0,0"
       style="fill:#231f20;fill-opacity:1;fill-rule:nonzero;stroke:#231f20;stroke-width:1;stroke-linecap:butt;stroke-linejoin:miter;stroke-miterlimit:10;stroke-dasharray:none;stroke-opacity:1"
       transform="matrix(1.3333333,0,0,-1.3333333,106.83227,133.83893)"
       clip-path="url(#clipPath124)" />
    <path
       id="path125"
       d="m 0,0 c 0,-2.401 -1.947,-4.348 -4.349,-4.348 -2.4,0 -4.347,1.947 -4.347,4.348 0,2.401 1.947,4.348 4.347,4.348 C -1.947,4.348 0,2.401 0,0"
       style="fill:#231f20;fill-opacity:1;fill-rule:nonzero;stroke:#231f20;stroke-width:1;stroke-linecap:butt;stroke-linejoin:miter;stroke-miterlimit:10;stroke-dasharray:none;stroke-opacity:1"
       transform="matrix(1.3333333,0,0,-1.3333333,123.396,133.83893)"
       clip-path="url(#clipPath126)" />
    <path
       id="path127"
       d="m 0,0 c 0,-2.401 -1.946,-4.348 -4.348,-4.348 -2.401,0 -4.347,1.947 -4.347,4.348 0,2.401 1.946,4.348 4.347,4.348 C -1.946,4.348 0,2.401 0,0"
       style="fill:#231f20;fill-opacity:1;fill-rule:nonzero;stroke:#231f20;stroke-width:1;stroke-linecap:butt;stroke-linejoin:miter;stroke-miterlimit:10;stroke-dasharray:none;stroke-opacity:1"
       transform="matrix(1.3333333,0,0,-1.3333333,140.78667,133.83893)"
       clip-path="url(#clipPath128)" />
  </g>
</svg>
