<?xml version="1.0" encoding="UTF-8" standalone="no"?>
<!-- Created with Inkscape (http://www.inkscape.org/) -->

<svg
   version="1.1"
   id="svg1"
   width="286.84793"
   height="84.530876"
   viewBox="0 0 286.84793 84.530876"
   sodipodi:docname="upload_thfxmkdwqkzuoqojqynrcksget.pdf"
   xmlns:inkscape="http://www.inkscape.org/namespaces/inkscape"
   xmlns:sodipodi="http://sodipodi.sourceforge.net/DTD/sodipodi-0.dtd"
   xmlns="http://www.w3.org/2000/svg"
   xmlns:svg="http://www.w3.org/2000/svg">
  <defs
     id="defs1" />
  <sodipodi:namedview
     id="namedview1"
     pagecolor="#ffffff"
     bordercolor="#000000"
     borderopacity="0.25"
     inkscape:showpageshadow="2"
     inkscape:pageopacity="0.0"
     inkscape:pagecheckerboard="0"
     inkscape:deskcolor="#d1d1d1">
    <inkscape:page
       x="0"
       y="0"
       inkscape:label="1"
       id="page1"
       width="286.84793"
       height="84.530876"
       margin="0"
       bleed="0" />
  </sodipodi:namedview>
  <g
     id="g1"
     inkscape:groupmode="layer"
     inkscape:label="1">
    <path
       id="path1"
       d="m 24.121,6.348 c 0,2.402 -1.949,4.347 -4.348,4.347 -2.402,0 -4.351,-1.945 -4.351,-4.347 0,-2.403 1.949,-4.348 4.351,-4.348 2.399,0 4.348,1.945 4.348,4.348"
       style="fill:#ffffff;fill-opacity:1;fill-rule:nonzero;stroke:none"
       transform="scale(1.3333333)" />
    <path
       id="path2"
       d="m 24.121,6.348 c 0,2.402 -1.949,4.347 -4.348,4.347 -2.402,0 -4.351,-1.945 -4.351,-4.347 0,-2.403 1.949,-4.348 4.351,-4.348 2.399,0 4.348,1.945 4.348,4.348 z"
       style="fill:none;stroke:#211e1e;stroke-width:1;stroke-linecap:butt;stroke-linejoin:miter;stroke-miterlimit:10;stroke-dasharray:none;stroke-opacity:1"
       transform="scale(1.3333333)" />
    <path
       id="path3"
       d="m 75.402,4.848 c 0,2.402 -1.945,4.347 -4.347,4.347 -2.403,0 -4.348,-1.945 -4.348,-4.347 0,-2.403 1.945,-4.348 4.348,-4.348 2.402,0 4.347,1.945 4.347,4.348"
       style="fill:#211e1e;fill-opacity:1;fill-rule:nonzero;stroke:none"
       transform="scale(1.3333333)" />
    <path
       id="path4"
       d="m 75.402,4.848 c 0,2.402 -1.945,4.347 -4.347,4.347 -2.403,0 -4.348,-1.945 -4.348,-4.347 0,-2.403 1.945,-4.348 4.348,-4.348 2.402,0 4.347,1.945 4.347,4.348 z"
       style="fill:none;stroke:#211e1e;stroke-width:1;stroke-linecap:butt;stroke-linejoin:miter;stroke-miterlimit:10;stroke-dasharray:none;stroke-opacity:1"
       transform="scale(1.3333333)" />
    <path
       id="path5"
       d="m 88.406,4.848 c 0,2.402 -1.949,4.347 -4.351,4.347 -2.399,0 -4.348,-1.945 -4.348,-4.347 0,-2.403 1.949,-4.348 4.348,-4.348 2.402,0 4.351,1.945 4.351,4.348"
       style="fill:#211e1e;fill-opacity:1;fill-rule:nonzero;stroke:none"
       transform="scale(1.3333333)" />
    <path
       id="path6"
       d="m 88.406,4.848 c 0,2.402 -1.949,4.347 -4.351,4.347 -2.399,0 -4.348,-1.945 -4.348,-4.347 0,-2.403 1.949,-4.348 4.348,-4.348 2.402,0 4.351,1.945 4.351,4.348 z"
       style="fill:none;stroke:#211e1e;stroke-width:1;stroke-linecap:butt;stroke-linejoin:miter;stroke-miterlimit:10;stroke-dasharray:none;stroke-opacity:1"
       transform="scale(1.3333333)" />
    <path
       id="path7"
       d="m 75.402,17.891 c 0,2.402 -1.945,4.347 -4.347,4.347 -2.403,0 -4.348,-1.945 -4.348,-4.347 0,-2.399 1.945,-4.348 4.348,-4.348 2.402,0 4.347,1.949 4.347,4.348"
       style="fill:#ffffff;fill-opacity:1;fill-rule:nonzero;stroke:none"
       transform="scale(1.3333333)" />
    <path
       id="path8"
       d="m 75.402,17.891 c 0,2.402 -1.945,4.347 -4.347,4.347 -2.403,0 -4.348,-1.945 -4.348,-4.347 0,-2.399 1.945,-4.348 4.348,-4.348 2.402,0 4.347,1.949 4.347,4.348 z"
       style="fill:none;stroke:#211e1e;stroke-width:1;stroke-linecap:butt;stroke-linejoin:miter;stroke-miterlimit:10;stroke-dasharray:none;stroke-opacity:1"
       transform="scale(1.3333333)" />
    <path
       id="path9"
       d="m 88.406,17.891 c 0,2.402 -1.949,4.347 -4.351,4.347 -2.399,0 -4.348,-1.945 -4.348,-4.347 0,-2.399 1.949,-4.348 4.348,-4.348 2.402,0 4.351,1.949 4.351,4.348"
       style="fill:#211e1e;fill-opacity:1;fill-rule:nonzero;stroke:none"
       transform="scale(1.3333333)" />
    <path
       id="path10"
       d="m 88.406,17.891 c 0,2.402 -1.949,4.347 -4.351,4.347 -2.399,0 -4.348,-1.945 -4.348,-4.347 0,-2.399 1.949,-4.348 4.348,-4.348 2.402,0 4.351,1.949 4.351,4.348 z"
       style="fill:none;stroke:#211e1e;stroke-width:1;stroke-linecap:butt;stroke-linejoin:miter;stroke-miterlimit:10;stroke-dasharray:none;stroke-opacity:1"
       transform="scale(1.3333333)" />
    <path
       id="path11"
       d="m 122.648,4.848 c 0,2.402 -1.945,4.347 -4.347,4.347 -2.403,0 -4.348,-1.945 -4.348,-4.347 0,-2.403 1.945,-4.348 4.348,-4.348 2.402,0 4.347,1.945 4.347,4.348"
       style="fill:#ffffff;fill-opacity:1;fill-rule:nonzero;stroke:none"
       transform="scale(1.3333333)" />
    <path
       id="path12"
       d="m 122.648,4.848 c 0,2.402 -1.945,4.347 -4.347,4.347 -2.403,0 -4.348,-1.945 -4.348,-4.347 0,-2.403 1.945,-4.348 4.348,-4.348 2.402,0 4.347,1.945 4.347,4.348 z"
       style="fill:none;stroke:#211e1e;stroke-width:1;stroke-linecap:butt;stroke-linejoin:miter;stroke-miterlimit:10;stroke-dasharray:none;stroke-opacity:1"
       transform="scale(1.3333333)" />
    <path
       id="path13"
       d="m 135.652,4.848 c 0,2.402 -1.949,4.347 -4.351,4.347 -2.399,0 -4.348,-1.945 -4.348,-4.347 0,-2.403 1.949,-4.348 4.348,-4.348 2.402,0 4.351,1.945 4.351,4.348"
       style="fill:#211e1e;fill-opacity:1;fill-rule:nonzero;stroke:none"
       transform="scale(1.3333333)" />
    <path
       id="path14"
       d="m 135.652,4.848 c 0,2.402 -1.949,4.347 -4.351,4.347 -2.399,0 -4.348,-1.945 -4.348,-4.347 0,-2.403 1.949,-4.348 4.348,-4.348 2.402,0 4.351,1.945 4.351,4.348 z"
       style="fill:none;stroke:#211e1e;stroke-width:1;stroke-linecap:butt;stroke-linejoin:miter;stroke-miterlimit:10;stroke-dasharray:none;stroke-opacity:1"
       transform="scale(1.3333333)" />
    <path
       id="path15"
       d="m 122.648,17.891 c 0,2.402 -1.945,4.347 -4.347,4.347 -2.403,0 -4.348,-1.945 -4.348,-4.347 0,-2.399 1.945,-4.348 4.348,-4.348 2.402,0 4.347,1.949 4.347,4.348"
       style="fill:#ffffff;fill-opacity:1;fill-rule:nonzero;stroke:none"
       transform="scale(1.3333333)" />
    <path
       id="path16"
       d="m 122.648,17.891 c 0,2.402 -1.945,4.347 -4.347,4.347 -2.403,0 -4.348,-1.945 -4.348,-4.347 0,-2.399 1.945,-4.348 4.348,-4.348 2.402,0 4.347,1.949 4.347,4.348 z"
       style="fill:none;stroke:#211e1e;stroke-width:1;stroke-linecap:butt;stroke-linejoin:miter;stroke-miterlimit:10;stroke-dasharray:none;stroke-opacity:1"
       transform="scale(1.3333333)" />
    <path
       id="path17"
       d="m 135.652,17.891 c 0,2.402 -1.949,4.347 -4.351,4.347 -2.399,0 -4.348,-1.945 -4.348,-4.347 0,-2.399 1.949,-4.348 4.348,-4.348 2.402,0 4.351,1.949 4.351,4.348"
       style="fill:#ffffff;fill-opacity:1;fill-rule:nonzero;stroke:none"
       transform="scale(1.3333333)" />
    <path
       id="path18"
       d="m 135.652,17.891 c 0,2.402 -1.949,4.347 -4.351,4.347 -2.399,0 -4.348,-1.945 -4.348,-4.347 0,-2.399 1.949,-4.348 4.348,-4.348 2.402,0 4.351,1.949 4.351,4.348 z"
       style="fill:none;stroke:#211e1e;stroke-width:1;stroke-linecap:butt;stroke-linejoin:miter;stroke-miterlimit:10;stroke-dasharray:none;stroke-opacity:1"
       transform="scale(1.3333333)" />
    <path
       id="path19"
       d="m 148.074,4.848 c 0,2.402 -1.949,4.347 -4.347,4.347 -2.403,0 -4.352,-1.945 -4.352,-4.347 0,-2.403 1.949,-4.348 4.352,-4.348 2.398,0 4.347,1.945 4.347,4.348"
       style="fill:#211e1e;fill-opacity:1;fill-rule:nonzero;stroke:none"
       transform="scale(1.3333333)" />
    <path
       id="path20"
       d="m 148.074,4.848 c 0,2.402 -1.949,4.347 -4.347,4.347 -2.403,0 -4.352,-1.945 -4.352,-4.347 0,-2.403 1.949,-4.348 4.352,-4.348 2.398,0 4.347,1.945 4.347,4.348 z"
       style="fill:none;stroke:#211e1e;stroke-width:1;stroke-linecap:butt;stroke-linejoin:miter;stroke-miterlimit:10;stroke-dasharray:none;stroke-opacity:1"
       transform="scale(1.3333333)" />
    <path
       id="path21"
       d="m 148.074,17.891 c 0,2.402 -1.949,4.347 -4.347,4.347 -2.403,0 -4.352,-1.945 -4.352,-4.347 0,-2.399 1.949,-4.348 4.352,-4.348 2.398,0 4.347,1.949 4.347,4.348"
       style="fill:#211e1e;fill-opacity:1;fill-rule:nonzero;stroke:none"
       transform="scale(1.3333333)" />
    <path
       id="path22"
       d="m 148.074,17.891 c 0,2.402 -1.949,4.347 -4.347,4.347 -2.403,0 -4.352,-1.945 -4.352,-4.347 0,-2.399 1.949,-4.348 4.352,-4.348 2.398,0 4.347,1.949 4.347,4.348 z"
       style="fill:none;stroke:#211e1e;stroke-width:1;stroke-linecap:butt;stroke-linejoin:miter;stroke-miterlimit:10;stroke-dasharray:none;stroke-opacity:1"
       transform="scale(1.3333333)" />
    <path
       id="path23"
       d="m 122.648,30.313 c 0,2.402 -1.945,4.347 -4.347,4.347 -2.403,0 -4.348,-1.945 -4.348,-4.347 0,-2.399 1.945,-4.348 4.348,-4.348 2.402,0 4.347,1.949 4.347,4.348"
       style="fill:#ffffff;fill-opacity:1;fill-rule:nonzero;stroke:none"
       transform="scale(1.3333333)" />
    <path
       id="path24"
       d="m 122.648,30.313 c 0,2.402 -1.945,4.347 -4.347,4.347 -2.403,0 -4.348,-1.945 -4.348,-4.347 0,-2.399 1.945,-4.348 4.348,-4.348 2.402,0 4.347,1.949 4.347,4.348 z"
       style="fill:none;stroke:#211e1e;stroke-width:1;stroke-linecap:butt;stroke-linejoin:miter;stroke-miterlimit:10;stroke-dasharray:none;stroke-opacity:1"
       transform="scale(1.3333333)" />
    <path
       id="path25"
       d="m 135.652,30.313 c 0,2.402 -1.949,4.347 -4.351,4.347 -2.399,0 -4.348,-1.945 -4.348,-4.347 0,-2.399 1.949,-4.348 4.348,-4.348 2.402,0 4.351,1.949 4.351,4.348"
       style="fill:#ffffff;fill-opacity:1;fill-rule:nonzero;stroke:none"
       transform="scale(1.3333333)" />
    <path
       id="path26"
       d="m 135.652,30.313 c 0,2.402 -1.949,4.347 -4.351,4.347 -2.399,0 -4.348,-1.945 -4.348,-4.347 0,-2.399 1.949,-4.348 4.348,-4.348 2.402,0 4.351,1.949 4.351,4.348 z"
       style="fill:none;stroke:#211e1e;stroke-width:1;stroke-linecap:butt;stroke-linejoin:miter;stroke-miterlimit:10;stroke-dasharray:none;stroke-opacity:1"
       transform="scale(1.3333333)" />
    <path
       id="path27"
       d="m 148.074,30.313 c 0,2.402 -1.949,4.347 -4.347,4.347 -2.403,0 -4.352,-1.945 -4.352,-4.347 0,-2.399 1.949,-4.348 4.352,-4.348 2.398,0 4.347,1.949 4.347,4.348"
       style="fill:#ffffff;fill-opacity:1;fill-rule:nonzero;stroke:none"
       transform="scale(1.3333333)" />
    <path
       id="path28"
       d="m 148.074,30.313 c 0,2.402 -1.949,4.347 -4.347,4.347 -2.403,0 -4.352,-1.945 -4.352,-4.347 0,-2.399 1.949,-4.348 4.352,-4.348 2.398,0 4.347,1.949 4.347,4.348 z"
       style="fill:none;stroke:#211e1e;stroke-width:1;stroke-linecap:butt;stroke-linejoin:miter;stroke-miterlimit:10;stroke-dasharray:none;stroke-opacity:1"
       transform="scale(1.3333333)" />
    <path
       id="path29"
       d="m 176.172,4.848 c 0,2.402 -1.949,4.347 -4.352,4.347 -2.398,0 -4.347,-1.945 -4.347,-4.347 0,-2.403 1.949,-4.348 4.347,-4.348 2.403,0 4.352,1.945 4.352,4.348"
       style="fill:#211e1e;fill-opacity:1;fill-rule:nonzero;stroke:none"
       transform="scale(1.3333333)" />
    <path
       id="path30"
       d="m 176.172,4.848 c 0,2.402 -1.949,4.347 -4.352,4.347 -2.398,0 -4.347,-1.945 -4.347,-4.347 0,-2.403 1.949,-4.348 4.347,-4.348 2.403,0 4.352,1.945 4.352,4.348 z"
       style="fill:none;stroke:#211e1e;stroke-width:1;stroke-linecap:butt;stroke-linejoin:miter;stroke-miterlimit:10;stroke-dasharray:none;stroke-opacity:1"
       transform="scale(1.3333333)" />
    <path
       id="path31"
       d="m 189.172,4.848 c 0,2.402 -1.945,4.347 -4.348,4.347 -2.402,0 -4.347,-1.945 -4.347,-4.347 0,-2.403 1.945,-4.348 4.347,-4.348 2.403,0 4.348,1.945 4.348,4.348"
       style="fill:#211e1e;fill-opacity:1;fill-rule:nonzero;stroke:none"
       transform="scale(1.3333333)" />
    <path
       id="path32"
       d="m 189.172,4.848 c 0,2.402 -1.945,4.347 -4.348,4.347 -2.402,0 -4.347,-1.945 -4.347,-4.347 0,-2.403 1.945,-4.348 4.347,-4.348 2.403,0 4.348,1.945 4.348,4.348 z"
       style="fill:none;stroke:#211e1e;stroke-width:1;stroke-linecap:butt;stroke-linejoin:miter;stroke-miterlimit:10;stroke-dasharray:none;stroke-opacity:1"
       transform="scale(1.3333333)" />
    <path
       id="path33"
       d="m 176.172,17.891 c 0,2.402 -1.949,4.347 -4.352,4.347 -2.398,0 -4.347,-1.945 -4.347,-4.347 0,-2.399 1.949,-4.348 4.347,-4.348 2.403,0 4.352,1.949 4.352,4.348"
       style="fill:#ffffff;fill-opacity:1;fill-rule:nonzero;stroke:none"
       transform="scale(1.3333333)" />
    <path
       id="path34"
       d="m 176.172,17.891 c 0,2.402 -1.949,4.347 -4.352,4.347 -2.398,0 -4.347,-1.945 -4.347,-4.347 0,-2.399 1.949,-4.348 4.347,-4.348 2.403,0 4.352,1.949 4.352,4.348 z"
       style="fill:none;stroke:#211e1e;stroke-width:1;stroke-linecap:butt;stroke-linejoin:miter;stroke-miterlimit:10;stroke-dasharray:none;stroke-opacity:1"
       transform="scale(1.3333333)" />
    <path
       id="path35"
       d="m 189.172,17.891 c 0,2.402 -1.945,4.347 -4.348,4.347 -2.402,0 -4.347,-1.945 -4.347,-4.347 0,-2.399 1.945,-4.348 4.347,-4.348 2.403,0 4.348,1.949 4.348,4.348"
       style="fill:#211e1e;fill-opacity:1;fill-rule:nonzero;stroke:none"
       transform="scale(1.3333333)" />
    <path
       id="path36"
       d="m 189.172,17.891 c 0,2.402 -1.945,4.347 -4.348,4.347 -2.402,0 -4.347,-1.945 -4.347,-4.347 0,-2.399 1.945,-4.348 4.347,-4.348 2.403,0 4.348,1.949 4.348,4.348 z"
       style="fill:none;stroke:#211e1e;stroke-width:1;stroke-linecap:butt;stroke-linejoin:miter;stroke-miterlimit:10;stroke-dasharray:none;stroke-opacity:1"
       transform="scale(1.3333333)" />
    <path
       id="path37"
       d="m 201.594,4.848 c 0,2.402 -1.946,4.347 -4.348,4.347 -2.398,0 -4.348,-1.945 -4.348,-4.347 0,-2.403 1.95,-4.348 4.348,-4.348 2.402,0 4.348,1.945 4.348,4.348"
       style="fill:#211e1e;fill-opacity:1;fill-rule:nonzero;stroke:none"
       transform="scale(1.3333333)" />
    <path
       id="path38"
       d="m 201.594,4.848 c 0,2.402 -1.946,4.347 -4.348,4.347 -2.398,0 -4.348,-1.945 -4.348,-4.347 0,-2.403 1.95,-4.348 4.348,-4.348 2.402,0 4.348,1.945 4.348,4.348 z"
       style="fill:none;stroke:#211e1e;stroke-width:1;stroke-linecap:butt;stroke-linejoin:miter;stroke-miterlimit:10;stroke-dasharray:none;stroke-opacity:1"
       transform="scale(1.3333333)" />
    <path
       id="path39"
       d="m 201.594,17.891 c 0,2.402 -1.946,4.347 -4.348,4.347 -2.398,0 -4.348,-1.945 -4.348,-4.347 0,-2.399 1.95,-4.348 4.348,-4.348 2.402,0 4.348,1.949 4.348,4.348"
       style="fill:#211e1e;fill-opacity:1;fill-rule:nonzero;stroke:none"
       transform="scale(1.3333333)" />
    <path
       id="path40"
       d="m 201.594,17.891 c 0,2.402 -1.946,4.347 -4.348,4.347 -2.398,0 -4.348,-1.945 -4.348,-4.347 0,-2.399 1.95,-4.348 4.348,-4.348 2.402,0 4.348,1.949 4.348,4.348 z"
       style="fill:none;stroke:#211e1e;stroke-width:1;stroke-linecap:butt;stroke-linejoin:miter;stroke-miterlimit:10;stroke-dasharray:none;stroke-opacity:1"
       transform="scale(1.3333333)" />
    <path
       id="path41"
       d="m 176.172,30.313 c 0,2.402 -1.949,4.347 -4.352,4.347 -2.398,0 -4.347,-1.945 -4.347,-4.347 0,-2.399 1.949,-4.348 4.347,-4.348 2.403,0 4.352,1.949 4.352,4.348"
       style="fill:#ffffff;fill-opacity:1;fill-rule:nonzero;stroke:none"
       transform="scale(1.3333333)" />
    <path
       id="path42"
       d="m 176.172,30.313 c 0,2.402 -1.949,4.347 -4.352,4.347 -2.398,0 -4.347,-1.945 -4.347,-4.347 0,-2.399 1.949,-4.348 4.347,-4.348 2.403,0 4.352,1.949 4.352,4.348 z"
       style="fill:none;stroke:#211e1e;stroke-width:1;stroke-linecap:butt;stroke-linejoin:miter;stroke-miterlimit:10;stroke-dasharray:none;stroke-opacity:1"
       transform="scale(1.3333333)" />
    <path
       id="path43"
       d="m 189.172,30.313 c 0,2.402 -1.945,4.347 -4.348,4.347 -2.402,0 -4.347,-1.945 -4.347,-4.347 0,-2.399 1.945,-4.348 4.347,-4.348 2.403,0 4.348,1.949 4.348,4.348"
       style="fill:#ffffff;fill-opacity:1;fill-rule:nonzero;stroke:none"
       transform="scale(1.3333333)" />
    <path
       id="path44"
       d="m 189.172,30.313 c 0,2.402 -1.945,4.347 -4.348,4.347 -2.402,0 -4.347,-1.945 -4.347,-4.347 0,-2.399 1.945,-4.348 4.347,-4.348 2.403,0 4.348,1.949 4.348,4.348 z"
       style="fill:none;stroke:#211e1e;stroke-width:1;stroke-linecap:butt;stroke-linejoin:miter;stroke-miterlimit:10;stroke-dasharray:none;stroke-opacity:1"
       transform="scale(1.3333333)" />
    <path
       id="path45"
       d="m 201.594,30.313 c 0,2.402 -1.946,4.347 -4.348,4.347 -2.398,0 -4.348,-1.945 -4.348,-4.347 0,-2.399 1.95,-4.348 4.348,-4.348 2.402,0 4.348,1.949 4.348,4.348"
       style="fill:#211e1e;fill-opacity:1;fill-rule:nonzero;stroke:none"
       transform="scale(1.3333333)" />
    <path
       id="path46"
       d="m 201.594,30.313 c 0,2.402 -1.946,4.347 -4.348,4.347 -2.398,0 -4.348,-1.945 -4.348,-4.347 0,-2.399 1.95,-4.348 4.348,-4.348 2.402,0 4.348,1.949 4.348,4.348 z"
       style="fill:none;stroke:#211e1e;stroke-width:1;stroke-linecap:butt;stroke-linejoin:miter;stroke-miterlimit:10;stroke-dasharray:none;stroke-opacity:1"
       transform="scale(1.3333333)" />
    <path
       id="path47"
       d="m 214.637,4.848 c 0,2.402 -1.946,4.347 -4.348,4.347 -2.398,0 -4.348,-1.945 -4.348,-4.347 0,-2.403 1.95,-4.348 4.348,-4.348 2.402,0 4.348,1.945 4.348,4.348"
       style="fill:#211e1e;fill-opacity:1;fill-rule:nonzero;stroke:none"
       transform="scale(1.3333333)" />
    <path
       id="path48"
       d="m 214.637,4.848 c 0,2.402 -1.946,4.347 -4.348,4.347 -2.398,0 -4.348,-1.945 -4.348,-4.347 0,-2.403 1.95,-4.348 4.348,-4.348 2.402,0 4.348,1.945 4.348,4.348 z"
       style="fill:none;stroke:#211e1e;stroke-width:1;stroke-linecap:butt;stroke-linejoin:miter;stroke-miterlimit:10;stroke-dasharray:none;stroke-opacity:1"
       transform="scale(1.3333333)" />
    <path
       id="path49"
       d="m 214.637,17.891 c 0,2.402 -1.946,4.347 -4.348,4.347 -2.398,0 -4.348,-1.945 -4.348,-4.347 0,-2.399 1.95,-4.348 4.348,-4.348 2.402,0 4.348,1.949 4.348,4.348"
       style="fill:#211e1e;fill-opacity:1;fill-rule:nonzero;stroke:none"
       transform="scale(1.3333333)" />
    <path
       id="path50"
       d="m 214.637,17.891 c 0,2.402 -1.946,4.347 -4.348,4.347 -2.398,0 -4.348,-1.945 -4.348,-4.347 0,-2.399 1.95,-4.348 4.348,-4.348 2.402,0 4.348,1.949 4.348,4.348 z"
       style="fill:none;stroke:#211e1e;stroke-width:1;stroke-linecap:butt;stroke-linejoin:miter;stroke-miterlimit:10;stroke-dasharray:none;stroke-opacity:1"
       transform="scale(1.3333333)" />
    <path
       id="path51"
       d="m 214.637,30.313 c 0,2.402 -1.946,4.347 -4.348,4.347 -2.398,0 -4.348,-1.945 -4.348,-4.347 0,-2.399 1.95,-4.348 4.348,-4.348 2.402,0 4.348,1.949 4.348,4.348"
       style="fill:#211e1e;fill-opacity:1;fill-rule:nonzero;stroke:none"
       transform="scale(1.3333333)" />
    <path
       id="path52"
       d="m 214.637,30.313 c 0,2.402 -1.946,4.347 -4.348,4.347 -2.398,0 -4.348,-1.945 -4.348,-4.347 0,-2.399 1.95,-4.348 4.348,-4.348 2.402,0 4.348,1.949 4.348,4.348 z"
       style="fill:none;stroke:#211e1e;stroke-width:1;stroke-linecap:butt;stroke-linejoin:miter;stroke-miterlimit:10;stroke-dasharray:none;stroke-opacity:1"
       transform="scale(1.3333333)" />
    <path
       id="path53"
       d="m 176.172,43.113 c 0,2.403 -1.949,4.352 -4.352,4.352 -2.398,0 -4.347,-1.949 -4.347,-4.352 0,-2.398 1.949,-4.347 4.347,-4.347 2.403,0 4.352,1.949 4.352,4.347"
       style="fill:#ffffff;fill-opacity:1;fill-rule:nonzero;stroke:none"
       transform="scale(1.3333333)" />
    <path
       id="path54"
       d="m 176.172,43.113 c 0,2.403 -1.949,4.352 -4.352,4.352 -2.398,0 -4.347,-1.949 -4.347,-4.352 0,-2.398 1.949,-4.347 4.347,-4.347 2.403,0 4.352,1.949 4.352,4.347 z"
       style="fill:none;stroke:#211e1e;stroke-width:1;stroke-linecap:butt;stroke-linejoin:miter;stroke-miterlimit:10;stroke-dasharray:none;stroke-opacity:1"
       transform="scale(1.3333333)" />
    <path
       id="path55"
       d="m 189.172,43.113 c 0,2.403 -1.945,4.352 -4.348,4.352 -2.402,0 -4.347,-1.949 -4.347,-4.352 0,-2.398 1.945,-4.347 4.347,-4.347 2.403,0 4.348,1.949 4.348,4.347"
       style="fill:#ffffff;fill-opacity:1;fill-rule:nonzero;stroke:none"
       transform="scale(1.3333333)" />
    <path
       id="path56"
       d="m 189.172,43.113 c 0,2.403 -1.945,4.352 -4.348,4.352 -2.402,0 -4.347,-1.949 -4.347,-4.352 0,-2.398 1.945,-4.347 4.347,-4.347 2.403,0 4.348,1.949 4.348,4.347 z"
       style="fill:none;stroke:#211e1e;stroke-width:1;stroke-linecap:butt;stroke-linejoin:miter;stroke-miterlimit:10;stroke-dasharray:none;stroke-opacity:1"
       transform="scale(1.3333333)" />
    <path
       id="path57"
       d="m 201.594,43.113 c 0,2.403 -1.946,4.352 -4.348,4.352 -2.398,0 -4.348,-1.949 -4.348,-4.352 0,-2.398 1.95,-4.347 4.348,-4.347 2.402,0 4.348,1.949 4.348,4.347"
       style="fill:#ffffff;fill-opacity:1;fill-rule:nonzero;stroke:none"
       transform="scale(1.3333333)" />
    <path
       id="path58"
       d="m 201.594,43.113 c 0,2.403 -1.946,4.352 -4.348,4.352 -2.398,0 -4.348,-1.949 -4.348,-4.352 0,-2.398 1.95,-4.347 4.348,-4.347 2.402,0 4.348,1.949 4.348,4.347 z"
       style="fill:none;stroke:#211e1e;stroke-width:1;stroke-linecap:butt;stroke-linejoin:miter;stroke-miterlimit:10;stroke-dasharray:none;stroke-opacity:1"
       transform="scale(1.3333333)" />
    <path
       id="path59"
       d="m 214.637,43.113 c 0,2.403 -1.946,4.352 -4.348,4.352 -2.398,0 -4.348,-1.949 -4.348,-4.352 0,-2.398 1.95,-4.347 4.348,-4.347 2.402,0 4.348,1.949 4.348,4.347"
       style="fill:#211e1e;fill-opacity:1;fill-rule:nonzero;stroke:none"
       transform="scale(1.3333333)" />
    <path
       id="path60"
       d="m 214.637,43.113 c 0,2.403 -1.946,4.352 -4.348,4.352 -2.398,0 -4.348,-1.949 -4.348,-4.352 0,-2.398 1.95,-4.347 4.348,-4.347 2.402,0 4.348,1.949 4.348,4.347 z"
       style="fill:none;stroke:#211e1e;stroke-width:1;stroke-linecap:butt;stroke-linejoin:miter;stroke-miterlimit:10;stroke-dasharray:none;stroke-opacity:1"
       transform="scale(1.3333333)" />
    <text
       id="text60"
       xml:space="preserve"
       transform="matrix(1.3333333,0,0,1.3333333,-1.337396,81.696392)"><tspan
         id="tspan60"
         style="font-variant:normal;font-weight:normal;font-size:10.2201px;font-family:'DejaVu Sans';writing-mode:lr-tb;fill:#000000;fill-opacity:1;fill-rule:nonzero;stroke:none"
         x="0"
         dx="0 -0.74606735 0 0 0 0 0 0 15.892257 -0.74606735 0 0 0 0 0 0 13.15327 -0.73584729 0 0 0 0 0 0 18.488163 -0.74606735"
         y="0">Figura 1Figura 2Figura 3Figura 4</tspan></text>
  </g>
</svg>
