<?xml version="1.0" encoding="UTF-8" standalone="no"?>
<!-- Created with Inkscape (http://www.inkscape.org/) -->

<svg
   version="1.1"
   id="svg1"
   width="626.28662"
   height="461.84689"
   viewBox="0 0 626.28662 461.84689"
   sodipodi:docname="upload_krfdlgztalc5lnsnirnwryvi7d.pdf"
   xmlns:inkscape="http://www.inkscape.org/namespaces/inkscape"
   xmlns:sodipodi="http://sodipodi.sourceforge.net/DTD/sodipodi-0.dtd"
   xmlns="http://www.w3.org/2000/svg"
   xmlns:svg="http://www.w3.org/2000/svg">
  <defs
     id="defs1" />
  <sodipodi:namedview
     id="namedview1"
     pagecolor="#ffffff"
     bordercolor="#000000"
     borderopacity="0.25"
     inkscape:showpageshadow="2"
     inkscape:pageopacity="0.0"
     inkscape:pagecheckerboard="0"
     inkscape:deskcolor="#d1d1d1">
    <inkscape:page
       x="0"
       y="0"
       inkscape:label="1"
       id="page1"
       width="626.28662"
       height="461.84689"
       margin="0"
       bleed="0" />
  </sodipodi:namedview>
  <g
     id="g1"
     inkscape:groupmode="layer"
     inkscape:label="1">
    <path
       id="path1"
       d="M 1.602,53.27 C -0.699,27.051 18.68,3.926 44.898,1.605 71.117,-0.715 94.254,18.652 96.59,44.867 98.926,71.086 79.574,94.234 53.359,96.586 27.141,98.938 3.98,79.602 1.613,53.387"
       style="fill:#ffffff;fill-opacity:1;fill-rule:nonzero;stroke:#000000;stroke-width:2.83465;stroke-linecap:butt;stroke-linejoin:miter;stroke-miterlimit:4;stroke-dasharray:none;stroke-opacity:1"
       transform="scale(1.3333333)" />
    <path
       id="path2"
       d="M 127.762,53.27 C 125.461,27.051 144.84,3.926 171.059,1.605 c 26.218,-2.32 49.355,17.047 51.691,43.262 2.336,26.219 -17.016,49.367 -43.23,51.719 -26.215,2.352 -49.379,-16.984 -51.747,-43.199"
       style="fill:#ffffff;fill-opacity:1;fill-rule:nonzero;stroke:#000000;stroke-width:2.83465;stroke-linecap:butt;stroke-linejoin:miter;stroke-miterlimit:4;stroke-dasharray:none;stroke-opacity:1"
       transform="scale(1.3333333)" />
    <path
       id="path3"
       d="m 373.121,53.27 c -2.305,-26.219 17.074,-49.344 43.293,-51.665 26.219,-2.32 49.359,17.047 51.691,43.262 2.336,26.219 -17.015,49.367 -43.23,51.719 C 398.66,98.938 375.5,79.602 373.133,53.387"
       style="fill:#ffffff;fill-opacity:1;fill-rule:nonzero;stroke:#000000;stroke-width:2.83465;stroke-linecap:butt;stroke-linejoin:miter;stroke-miterlimit:4;stroke-dasharray:none;stroke-opacity:1"
       transform="scale(1.3333333)" />
    <path
       id="path4"
       d="M 1.602,177.824 C -0.699,151.605 18.68,128.48 44.898,126.16 c 26.219,-2.32 49.356,17.043 51.692,43.262 2.336,26.219 -17.016,49.367 -43.231,51.719 -26.218,2.351 -49.379,-16.985 -51.746,-43.2"
       style="fill:#ffffff;fill-opacity:1;fill-rule:nonzero;stroke:#000000;stroke-width:2.83465;stroke-linecap:butt;stroke-linejoin:miter;stroke-miterlimit:4;stroke-dasharray:none;stroke-opacity:1"
       transform="scale(1.3333333)" />
    <path
       id="path5"
       d="m 127.762,177.824 c -2.301,-26.219 17.078,-49.344 43.297,-51.664 26.218,-2.32 49.355,17.043 51.691,43.262 2.336,26.219 -17.016,49.367 -43.23,51.719 -26.215,2.351 -49.379,-16.985 -51.747,-43.2"
       style="fill:#ffffff;fill-opacity:1;fill-rule:nonzero;stroke:#000000;stroke-width:2.83465;stroke-linecap:butt;stroke-linejoin:miter;stroke-miterlimit:4;stroke-dasharray:none;stroke-opacity:1"
       transform="scale(1.3333333)" />
    <path
       id="path6"
       d="m 373.121,177.824 c -2.305,-26.219 17.074,-49.344 43.293,-51.664 26.219,-2.32 49.359,17.043 51.691,43.262 2.336,26.219 -17.015,49.367 -43.23,51.719 -26.215,2.351 -49.375,-16.985 -51.742,-43.2"
       style="fill:#ffffff;fill-opacity:1;fill-rule:nonzero;stroke:#000000;stroke-width:2.83465;stroke-linecap:butt;stroke-linejoin:miter;stroke-miterlimit:4;stroke-dasharray:none;stroke-opacity:1"
       transform="scale(1.3333333)" />
    <path
       id="path7"
       d="M 1.602,299.969 C -0.699,273.746 18.68,250.621 44.898,248.301 71.117,245.98 94.254,265.348 96.59,291.566 98.926,317.781 79.574,340.93 53.359,343.281 27.141,345.633 3.98,326.297 1.613,300.082"
       style="fill:#ffffff;fill-opacity:1;fill-rule:nonzero;stroke:#000000;stroke-width:2.83465;stroke-linecap:butt;stroke-linejoin:miter;stroke-miterlimit:4;stroke-dasharray:none;stroke-opacity:1"
       transform="scale(1.3333333)" />
    <path
       id="path8"
       d="m 127.762,299.969 c -2.301,-26.223 17.078,-49.348 43.297,-51.668 26.218,-2.321 49.355,17.047 51.691,43.265 2.336,26.215 -17.016,49.364 -43.23,51.715 -26.215,2.352 -49.379,-16.984 -51.747,-43.199"
       style="fill:#ffffff;fill-opacity:1;fill-rule:nonzero;stroke:#000000;stroke-width:2.83465;stroke-linecap:butt;stroke-linejoin:miter;stroke-miterlimit:4;stroke-dasharray:none;stroke-opacity:1"
       transform="scale(1.3333333)" />
    <path
       id="path9"
       d="m 373.121,299.969 c -2.305,-26.223 17.074,-49.348 43.293,-51.668 26.219,-2.321 49.359,17.047 51.691,43.265 2.336,26.215 -17.015,49.364 -43.23,51.715 -26.215,2.352 -49.375,-16.984 -51.742,-43.199"
       style="fill:#ffffff;fill-opacity:1;fill-rule:nonzero;stroke:#000000;stroke-width:2.83465;stroke-linecap:butt;stroke-linejoin:miter;stroke-miterlimit:4;stroke-dasharray:none;stroke-opacity:1"
       transform="scale(1.3333333)" />
    <path
       id="path10"
       d="m 31.816,38.586 c -0.257,-2.945 1.918,-5.547 4.864,-5.805 2.945,-0.261 5.547,1.914 5.808,4.86 0.262,2.945 -1.91,5.547 -4.859,5.812 -2.945,0.262 -5.547,-1.91 -5.813,-4.855"
       style="fill:#000000;fill-opacity:1;fill-rule:nonzero;stroke:#000000;stroke-width:2.83465;stroke-linecap:butt;stroke-linejoin:miter;stroke-miterlimit:4;stroke-dasharray:none;stroke-opacity:1"
       transform="scale(1.3333333)" />
    <path
       id="path11"
       d="m 56.887,38.586 c -0.258,-2.945 1.918,-5.547 4.863,-5.805 2.949,-0.261 5.547,1.914 5.809,4.86 0.261,2.945 -1.911,5.547 -4.856,5.812 -2.945,0.262 -5.551,-1.91 -5.816,-4.855"
       style="fill:#000000;fill-opacity:1;fill-rule:nonzero;stroke:#000000;stroke-width:2.83465;stroke-linecap:butt;stroke-linejoin:miter;stroke-miterlimit:4;stroke-dasharray:none;stroke-opacity:1"
       transform="scale(1.3333333)" />
    <path
       id="path12"
       d="m 169.922,61.941 c -0.258,-2.945 1.918,-5.543 4.867,-5.804 2.945,-0.262 5.543,1.914 5.805,4.863 0.265,2.945 -1.91,5.547 -4.856,5.809 -2.945,0.265 -5.547,-1.907 -5.816,-4.852"
       style="fill:#000000;fill-opacity:1;fill-rule:nonzero;stroke:#000000;stroke-width:2.83465;stroke-linecap:butt;stroke-linejoin:miter;stroke-miterlimit:4;stroke-dasharray:none;stroke-opacity:1"
       transform="scale(1.3333333)" />
    <path
       id="path13"
       d="m 403.387,36.227 c -0.258,-2.946 1.918,-5.543 4.863,-5.805 2.949,-0.258 5.547,1.918 5.809,4.863 0.261,2.945 -1.911,5.547 -4.856,5.809 -2.945,0.265 -5.551,-1.906 -5.816,-4.852"
       style="fill:#000000;fill-opacity:1;fill-rule:nonzero;stroke:#000000;stroke-width:2.83465;stroke-linecap:butt;stroke-linejoin:miter;stroke-miterlimit:4;stroke-dasharray:none;stroke-opacity:1"
       transform="scale(1.3333333)" />
    <path
       id="path14"
       d="m 427.387,35.801 c -0.258,-2.949 1.918,-5.547 4.863,-5.805 2.949,-0.262 5.547,1.914 5.809,4.859 0.261,2.946 -1.911,5.547 -4.856,5.813 -2.945,0.262 -5.551,-1.91 -5.816,-4.855"
       style="fill:#000000;fill-opacity:1;fill-rule:nonzero;stroke:#000000;stroke-width:2.83465;stroke-linecap:butt;stroke-linejoin:miter;stroke-miterlimit:4;stroke-dasharray:none;stroke-opacity:1"
       transform="scale(1.3333333)" />
    <path
       id="path15"
       d="m 416.672,62.586 c -0.258,-2.945 1.918,-5.547 4.863,-5.805 2.949,-0.261 5.547,1.914 5.809,4.86 0.265,2.945 -1.91,5.547 -4.856,5.812 -2.945,0.262 -5.547,-1.91 -5.816,-4.855"
       style="fill:#000000;fill-opacity:1;fill-rule:nonzero;stroke:#000000;stroke-width:2.83465;stroke-linecap:butt;stroke-linejoin:miter;stroke-miterlimit:4;stroke-dasharray:none;stroke-opacity:1"
       transform="scale(1.3333333)" />
    <path
       id="path16"
       d="m 31.492,160.727 c -0.258,-2.946 1.922,-5.543 4.867,-5.805 2.946,-0.258 5.543,1.918 5.809,4.863 0.262,2.945 -1.914,5.547 -4.859,5.809 -2.946,0.265 -5.547,-1.906 -5.813,-4.852"
       style="fill:#000000;fill-opacity:1;fill-rule:nonzero;stroke:#000000;stroke-width:2.83465;stroke-linecap:butt;stroke-linejoin:miter;stroke-miterlimit:4;stroke-dasharray:none;stroke-opacity:1"
       transform="scale(1.3333333)" />
    <path
       id="path17"
       d="m 31.492,188.586 c -0.258,-2.945 1.922,-5.547 4.867,-5.805 2.946,-0.261 5.543,1.914 5.809,4.86 0.262,2.945 -1.914,5.547 -4.859,5.812 -2.946,0.262 -5.547,-1.91 -5.813,-4.855"
       style="fill:#000000;fill-opacity:1;fill-rule:nonzero;stroke:#000000;stroke-width:2.83465;stroke-linecap:butt;stroke-linejoin:miter;stroke-miterlimit:4;stroke-dasharray:none;stroke-opacity:1"
       transform="scale(1.3333333)" />
    <path
       id="path18"
       d="m 56.566,188.586 c -0.257,-2.945 1.918,-5.547 4.864,-5.805 2.945,-0.261 5.547,1.914 5.808,4.86 0.262,2.945 -1.91,5.547 -4.859,5.812 -2.945,0.262 -5.547,-1.91 -5.813,-4.855"
       style="fill:#000000;fill-opacity:1;fill-rule:nonzero;stroke:#000000;stroke-width:2.83465;stroke-linecap:butt;stroke-linejoin:miter;stroke-miterlimit:4;stroke-dasharray:none;stroke-opacity:1"
       transform="scale(1.3333333)" />
    <path
       id="path19"
       d="m 403.281,159.656 c -0.261,-2.945 1.918,-5.543 4.864,-5.804 2.945,-0.262 5.546,1.914 5.808,4.859 0.262,2.949 -1.914,5.547 -4.859,5.812 -2.946,0.266 -5.547,-1.91 -5.813,-4.855"
       style="fill:#000000;fill-opacity:1;fill-rule:nonzero;stroke:#000000;stroke-width:2.83465;stroke-linecap:butt;stroke-linejoin:miter;stroke-miterlimit:4;stroke-dasharray:none;stroke-opacity:1"
       transform="scale(1.3333333)" />
    <path
       id="path20"
       d="m 428.352,159.656 c -0.258,-2.945 1.918,-5.543 4.863,-5.804 2.945,-0.262 5.547,1.914 5.808,4.859 0.262,2.949 -1.91,5.547 -4.855,5.812 -2.945,0.266 -5.551,-1.91 -5.816,-4.855"
       style="fill:#000000;fill-opacity:1;fill-rule:nonzero;stroke:#000000;stroke-width:2.83465;stroke-linecap:butt;stroke-linejoin:miter;stroke-miterlimit:4;stroke-dasharray:none;stroke-opacity:1"
       transform="scale(1.3333333)" />
    <path
       id="path21"
       d="m 403.281,187.516 c -0.261,-2.95 1.918,-5.547 4.864,-5.809 2.945,-0.258 5.546,1.918 5.808,4.863 0.262,2.946 -1.914,5.547 -4.859,5.809 -2.946,0.266 -5.547,-1.906 -5.813,-4.852"
       style="fill:#000000;fill-opacity:1;fill-rule:nonzero;stroke:#000000;stroke-width:2.83465;stroke-linecap:butt;stroke-linejoin:miter;stroke-miterlimit:4;stroke-dasharray:none;stroke-opacity:1"
       transform="scale(1.3333333)" />
    <path
       id="path22"
       d="m 428.352,187.516 c -0.258,-2.95 1.918,-5.547 4.863,-5.809 2.945,-0.258 5.547,1.918 5.808,4.863 0.262,2.946 -1.91,5.547 -4.855,5.809 -2.945,0.266 -5.551,-1.906 -5.816,-4.852"
       style="fill:#000000;fill-opacity:1;fill-rule:nonzero;stroke:#000000;stroke-width:2.83465;stroke-linecap:butt;stroke-linejoin:miter;stroke-miterlimit:4;stroke-dasharray:none;stroke-opacity:1"
       transform="scale(1.3333333)" />
    <path
       id="path23"
       d="m 402.742,281.801 c -0.258,-2.949 1.922,-5.547 4.867,-5.805 2.946,-0.262 5.547,1.914 5.809,4.859 0.262,2.946 -1.914,5.547 -4.859,5.813 -2.946,0.262 -5.547,-1.91 -5.813,-4.855"
       style="fill:#000000;fill-opacity:1;fill-rule:nonzero;stroke:#000000;stroke-width:2.83465;stroke-linecap:butt;stroke-linejoin:miter;stroke-miterlimit:4;stroke-dasharray:none;stroke-opacity:1"
       transform="scale(1.3333333)" />
    <path
       id="path24"
       d="m 426.742,281.371 c -0.258,-2.945 1.922,-5.543 4.867,-5.805 2.946,-0.261 5.543,1.914 5.809,4.86 0.262,2.945 -1.914,5.547 -4.859,5.812 -2.946,0.266 -5.547,-1.91 -5.813,-4.855"
       style="fill:#000000;fill-opacity:1;fill-rule:nonzero;stroke:#000000;stroke-width:2.83465;stroke-linecap:butt;stroke-linejoin:miter;stroke-miterlimit:4;stroke-dasharray:none;stroke-opacity:1"
       transform="scale(1.3333333)" />
    <path
       id="path25"
       d="m 426.531,309.656 c -0.261,-2.945 1.918,-5.543 4.864,-5.804 2.945,-0.262 5.546,1.914 5.808,4.859 0.262,2.949 -1.914,5.547 -4.859,5.812 -2.946,0.266 -5.547,-1.91 -5.813,-4.855"
       style="fill:#000000;fill-opacity:1;fill-rule:nonzero;stroke:#000000;stroke-width:2.83465;stroke-linecap:butt;stroke-linejoin:miter;stroke-miterlimit:4;stroke-dasharray:none;stroke-opacity:1"
       transform="scale(1.3333333)" />
    <path
       id="path26"
       d="m 156.316,279.656 c -0.261,-2.945 1.918,-5.543 4.864,-5.804 2.945,-0.262 5.547,1.914 5.808,4.859 0.262,2.949 -1.91,5.547 -4.859,5.812 -2.945,0.266 -5.547,-1.91 -5.813,-4.855"
       style="fill:#000000;fill-opacity:1;fill-rule:nonzero;stroke:#000000;stroke-width:2.83465;stroke-linecap:butt;stroke-linejoin:miter;stroke-miterlimit:4;stroke-dasharray:none;stroke-opacity:1"
       transform="scale(1.3333333)" />
    <path
       id="path27"
       d="m 179.031,310.086 c -0.261,-2.945 1.918,-5.547 4.864,-5.805 2.945,-0.261 5.546,1.914 5.808,4.86 0.262,2.945 -1.914,5.547 -4.859,5.812 -2.946,0.262 -5.547,-1.91 -5.813,-4.855"
       style="fill:#000000;fill-opacity:1;fill-rule:nonzero;stroke:#000000;stroke-width:2.83465;stroke-linecap:butt;stroke-linejoin:miter;stroke-miterlimit:4;stroke-dasharray:none;stroke-opacity:1"
       transform="scale(1.3333333)" />
    <path
       id="path28"
       d="M 241.371,4.668 H 351.578 V 341.852 H 241.371 Z"
       style="fill:#ffffff;fill-opacity:1;fill-rule:nonzero;stroke:#000000;stroke-width:3.06332;stroke-linecap:butt;stroke-linejoin:miter;stroke-miterlimit:4;stroke-dasharray:none;stroke-opacity:1"
       transform="scale(1.3333333)" />
  </g>
</svg>
