<?xml version="1.0" encoding="UTF-8" standalone="no"?>
<!-- Created with Inkscape (http://www.inkscape.org/) -->

<svg
   version="1.1"
   id="svg1"
   width="130.92944"
   height="459.85803"
   viewBox="0 0 130.92944 459.85803"
   sodipodi:docname="upload_pitcsknfew3jw4fvgcyohegv5p.pdf"
   xmlns:inkscape="http://www.inkscape.org/namespaces/inkscape"
   xmlns:sodipodi="http://sodipodi.sourceforge.net/DTD/sodipodi-0.dtd"
   xmlns="http://www.w3.org/2000/svg"
   xmlns:svg="http://www.w3.org/2000/svg">
  <defs
     id="defs1" />
  <sodipodi:namedview
     id="namedview1"
     pagecolor="#ffffff"
     bordercolor="#000000"
     borderopacity="0.25"
     inkscape:showpageshadow="2"
     inkscape:pageopacity="0.0"
     inkscape:pagecheckerboard="0"
     inkscape:deskcolor="#d1d1d1">
    <inkscape:page
       x="0"
       y="0"
       inkscape:label="1"
       id="page1"
       width="130.92944"
       height="459.85803"
       margin="0"
       bleed="0" />
  </sodipodi:namedview>
  <g
     id="g1"
     inkscape:groupmode="layer"
     inkscape:label="1">
    <path
       id="path1"
       d="M 1.602,53.27 C -0.699,27.051 18.68,3.926 44.898,1.605 71.117,-0.715 94.254,18.652 96.59,44.867 98.926,71.086 79.574,94.234 53.359,96.586 27.141,98.938 3.98,79.602 1.613,53.387"
       style="fill:#ffffff;fill-opacity:1;fill-rule:nonzero;stroke:#000000;stroke-width:2.83465;stroke-linecap:butt;stroke-linejoin:miter;stroke-miterlimit:4;stroke-dasharray:none;stroke-opacity:1"
       transform="scale(1.3333333)" />
    <path
       id="path2"
       d="M 1.602,177.824 C -0.699,151.605 18.68,128.48 44.898,126.16 c 26.219,-2.32 49.356,17.043 51.692,43.262 2.336,26.219 -17.016,49.367 -43.231,51.719 -26.218,2.351 -49.379,-16.985 -51.746,-43.2"
       style="fill:#ffffff;fill-opacity:1;fill-rule:nonzero;stroke:#000000;stroke-width:2.83465;stroke-linecap:butt;stroke-linejoin:miter;stroke-miterlimit:4;stroke-dasharray:none;stroke-opacity:1"
       transform="scale(1.3333333)" />
    <path
       id="path3"
       d="M 1.602,299.969 C -0.699,273.746 18.68,250.621 44.898,248.301 71.117,245.98 94.254,265.348 96.59,291.566 98.926,317.781 79.574,340.93 53.359,343.281 27.141,345.633 3.98,326.297 1.613,300.082"
       style="fill:#ffffff;fill-opacity:1;fill-rule:nonzero;stroke:#000000;stroke-width:2.83465;stroke-linecap:butt;stroke-linejoin:miter;stroke-miterlimit:4;stroke-dasharray:none;stroke-opacity:1"
       transform="scale(1.3333333)" />
    <path
       id="path4"
       d="m 58.227,279.656 c -0.258,-2.945 1.918,-5.543 4.863,-5.804 2.945,-0.262 5.547,1.914 5.808,4.859 0.262,2.949 -1.91,5.547 -4.855,5.812 -2.945,0.266 -5.551,-1.91 -5.816,-4.855"
       style="fill:#000000;fill-opacity:1;fill-rule:nonzero;stroke:#000000;stroke-width:2.83465;stroke-linecap:butt;stroke-linejoin:miter;stroke-miterlimit:4;stroke-dasharray:none;stroke-opacity:1"
       transform="scale(1.3333333)" />
    <path
       id="path5"
       d="m 33.582,306.441 c -0.258,-2.945 1.922,-5.543 4.867,-5.804 2.946,-0.262 5.543,1.914 5.809,4.863 0.262,2.945 -1.914,5.547 -4.86,5.809 -2.945,0.265 -5.546,-1.907 -5.812,-4.852"
       style="fill:#000000;fill-opacity:1;fill-rule:nonzero;stroke:#000000;stroke-width:2.83465;stroke-linecap:butt;stroke-linejoin:miter;stroke-miterlimit:4;stroke-dasharray:none;stroke-opacity:1"
       transform="scale(1.3333333)" />
    <path
       id="path6"
       d="m 43.762,49.566 c -0.258,-2.945 1.918,-5.543 4.863,-5.804 2.949,-0.262 5.547,1.914 5.809,4.863 0.261,2.945 -1.911,5.547 -4.856,5.809 -2.945,0.265 -5.551,-1.907 -5.816,-4.852"
       style="fill:#000000;fill-opacity:1;fill-rule:nonzero;stroke:#000000;stroke-width:2.83465;stroke-linecap:butt;stroke-linejoin:miter;stroke-miterlimit:4;stroke-dasharray:none;stroke-opacity:1"
       transform="scale(1.3333333)" />
  </g>
</svg>
