<?xml version="1.0" encoding="UTF-8" standalone="no"?>
<!-- Created with Inkscape (http://www.inkscape.org/) -->

<svg
   version="1.1"
   id="svg1"
   width="326.92612"
   height="650.39447"
   viewBox="0 0 326.92612 650.39447"
   sodipodi:docname="upload_snax2hd6u5kl2zw2yklrxnadb2.pdf"
   xmlns:inkscape="http://www.inkscape.org/namespaces/inkscape"
   xmlns:sodipodi="http://sodipodi.sourceforge.net/DTD/sodipodi-0.dtd"
   xmlns="http://www.w3.org/2000/svg"
   xmlns:svg="http://www.w3.org/2000/svg">
  <defs
     id="defs1">
    <radialGradient
       fx="18.896875"
       fy="91.63839"
       cx="18.896875"
       cy="91.63839"
       r="16.007055"
       gradientUnits="userSpaceOnUse"
       gradientTransform="matrix(2.491571,3.379934,-4.076552,3.005094,352.95817,-284.42392)"
       spreadMethod="pad"
       id="radialGradient7">
      <stop
         style="stop-opacity:1;stop-color:#070707"
         offset="0"
         id="stop6" />
      <stop
         style="stop-opacity:0;stop-color:#e6dbdc"
         offset="1"
         id="stop7" />
    </radialGradient>
    <linearGradient
       x1="11.18654"
       y1="88.010849"
       x2="19.005087"
       y2="98.167091"
       gradientUnits="userSpaceOnUse"
       gradientTransform="matrix(2.834646,0,0,2.834646,-30.191523,226.88579)"
       spreadMethod="pad"
       id="linearGradient11">
      <stop
         style="stop-opacity:1;stop-color:#999999"
         offset="0"
         id="stop10" />
      <stop
         style="stop-opacity:0;stop-color:#999999"
         offset="1"
         id="stop11" />
    </linearGradient>
    <linearGradient
       x1="11.18654"
       y1="88.010849"
       x2="19.005087"
       y2="98.167091"
       gradientUnits="userSpaceOnUse"
       gradientTransform="matrix(2.834646,0,0,2.834646,-30.457678,-216.96708)"
       spreadMethod="pad"
       id="linearGradient15">
      <stop
         style="stop-opacity:1;stop-color:#999999"
         offset="0"
         id="stop14" />
      <stop
         style="stop-opacity:0;stop-color:#999999"
         offset="1"
         id="stop15" />
    </linearGradient>
    <radialGradient
       fx="18.896875"
       fy="91.63839"
       cx="18.896875"
       cy="91.63839"
       r="16.007055"
       gradientUnits="userSpaceOnUse"
       gradientTransform="matrix(2.491571,3.379934,-4.076552,3.005094,352.9582,-194.26639)"
       spreadMethod="pad"
       id="radialGradient19">
      <stop
         style="stop-opacity:1;stop-color:#070707"
         offset="0"
         id="stop18" />
      <stop
         style="stop-opacity:0;stop-color:#e6dbdc"
         offset="1"
         id="stop19" />
    </radialGradient>
    <radialGradient
       fx="18.896875"
       fy="91.63839"
       cx="18.896875"
       cy="91.63839"
       r="16.007055"
       gradientUnits="userSpaceOnUse"
       gradientTransform="matrix(2.491571,3.379934,-4.076552,3.005094,352.95805,-103.59035)"
       spreadMethod="pad"
       id="radialGradient23">
      <stop
         style="stop-opacity:1;stop-color:#070707"
         offset="0"
         id="stop22" />
      <stop
         style="stop-opacity:0;stop-color:#e6dbdc"
         offset="1"
         id="stop23" />
    </radialGradient>
    <radialGradient
       fx="18.896875"
       fy="91.63839"
       cx="18.896875"
       cy="91.63839"
       r="16.007055"
       gradientUnits="userSpaceOnUse"
       gradientTransform="matrix(2.491571,3.379934,-4.076552,3.005094,352.95803,-13.009694)"
       spreadMethod="pad"
       id="radialGradient27">
      <stop
         style="stop-opacity:1;stop-color:#070707"
         offset="0"
         id="stop26" />
      <stop
         style="stop-opacity:0;stop-color:#e6dbdc"
         offset="1"
         id="stop27" />
    </radialGradient>
    <radialGradient
       fx="18.896875"
       fy="91.63839"
       cx="18.896875"
       cy="91.63839"
       r="16.007055"
       gradientUnits="userSpaceOnUse"
       gradientTransform="matrix(2.491571,3.379934,-4.076552,3.005094,352.95803,77.146424)"
       spreadMethod="pad"
       id="radialGradient31">
      <stop
         style="stop-opacity:1;stop-color:#070707"
         offset="0"
         id="stop30" />
      <stop
         style="stop-opacity:0;stop-color:#e6dbdc"
         offset="1"
         id="stop31" />
    </radialGradient>
  </defs>
  <sodipodi:namedview
     id="namedview1"
     pagecolor="#ffffff"
     bordercolor="#000000"
     borderopacity="0.25"
     inkscape:showpageshadow="2"
     inkscape:pageopacity="0.0"
     inkscape:pagecheckerboard="0"
     inkscape:deskcolor="#d1d1d1">
    <inkscape:page
       x="0"
       y="0"
       inkscape:label="1"
       id="page1"
       width="326.92612"
       height="650.39447"
       margin="0"
       bleed="0" />
  </sodipodi:namedview>
  <g
     id="g1"
     inkscape:groupmode="layer"
     inkscape:label="1">
    <path
       id="path1"
       d="m 18.797,448.043 c -19.149,-3.465 -22.156,-9.754 -6.719,-14.051 15.438,-4.297 43.485,-4.976 62.676,-1.523 19.187,3.453 22.266,9.742 6.875,14.047 -15.387,4.304 -43.426,5.004 -62.656,1.558"
       style="fill:#cccccc;fill-opacity:1;fill-rule:evenodd;stroke:#000000;stroke-width:0.761332;stroke-linecap:butt;stroke-linejoin:miter;stroke-miterlimit:4;stroke-dasharray:none;stroke-opacity:1"
       transform="scale(1.3333333)" />
    <path
       id="path2"
       d="m 18.418,353.719 c -19.148,-3.465 -22.156,-9.754 -6.719,-14.051 15.438,-4.297 43.485,-4.977 62.676,-1.523 19.188,3.457 22.266,9.742 6.875,14.046 -15.387,4.305 -43.426,5.004 -62.652,1.559"
       style="fill:#cccccc;fill-opacity:1;fill-rule:evenodd;stroke:#000000;stroke-width:0.761332;stroke-linecap:butt;stroke-linejoin:miter;stroke-miterlimit:4;stroke-dasharray:none;stroke-opacity:1"
       transform="scale(1.3333333)" />
    <path
       id="path3"
       d="m 18.797,261.289 c -19.149,-3.465 -22.156,-9.754 -6.719,-14.047 15.438,-4.297 43.485,-4.98 62.676,-1.523 19.187,3.453 22.266,9.738 6.875,14.043 -15.387,4.304 -43.426,5.004 -62.656,1.558"
       style="fill:#cccccc;fill-opacity:1;fill-rule:evenodd;stroke:#000000;stroke-width:0.761332;stroke-linecap:butt;stroke-linejoin:miter;stroke-miterlimit:4;stroke-dasharray:none;stroke-opacity:1"
       transform="scale(1.3333333)" />
    <path
       id="path4"
       d="m 19.176,171.133 c -19.149,-3.465 -22.156,-9.754 -6.719,-14.047 15.438,-4.297 43.484,-4.981 62.676,-1.523 19.187,3.453 22.265,9.738 6.875,14.042 -15.387,4.305 -43.426,5.004 -62.656,1.559"
       style="fill:#cccccc;fill-opacity:1;fill-rule:evenodd;stroke:#000000;stroke-width:0.761332;stroke-linecap:butt;stroke-linejoin:miter;stroke-miterlimit:4;stroke-dasharray:none;stroke-opacity:1"
       transform="scale(1.3333333)" />
    <path
       d="M 18.277,108.402 C -1.039,92.801 -4.074,64.504 11.5,45.164 27.078,25.824 55.371,22.758 74.73,38.305 c 19.36,15.55 22.465,43.843 6.938,63.222 -15.523,19.375 -43.813,22.52 -63.211,7.02"
       transform="scale(1.3333333)"
       style="fill:url(#radialGradient7);fill-rule:evenodd;stroke:#000000;stroke-width:0.749999;stroke-linecap:butt;stroke-linejoin:miter;stroke-miterlimit:4;stroke-dasharray:none;stroke-opacity:1"
       opacity="1"
       id="path7" />
    <path
       id="path8"
       d="M 18.391,80.824 C -0.758,77.355 -3.762,71.07 11.676,66.773 27.113,62.477 55.16,61.797 74.348,65.25 93.539,68.703 96.617,74.988 81.227,79.297 65.84,83.602 37.801,84.301 18.57,80.855"
       style="fill:#cccccc;fill-opacity:1;fill-rule:evenodd;stroke:#000000;stroke-width:0.761332;stroke-linecap:butt;stroke-linejoin:miter;stroke-miterlimit:4;stroke-dasharray:none;stroke-opacity:1"
       transform="scale(1.3333333)" />
    <path
       d="m 18.48,484.137 c -19.148,-3.465 -22.156,-9.75 -6.718,-14.047 15.437,-4.297 43.484,-4.981 62.676,-1.524 19.187,3.454 22.265,9.739 6.878,14.043 -15.39,4.309 -43.429,5.004 -62.656,1.563"
       transform="scale(1.3333333)"
       style="fill:url(#linearGradient11);fill-rule:evenodd;stroke:#000000;stroke-width:2.83465;stroke-linecap:butt;stroke-linejoin:miter;stroke-miterlimit:4;stroke-dasharray:none;stroke-opacity:1"
       opacity="1"
       id="path11" />
    <path
       d="M 18.215,40.289 C -0.934,36.824 -3.941,30.539 11.496,26.242 26.934,21.945 54.98,21.262 74.172,24.719 93.359,28.172 96.438,34.457 81.047,38.762 65.66,43.07 37.621,43.766 18.391,40.324"
       transform="scale(1.3333333)"
       style="fill:url(#linearGradient15);fill-rule:evenodd;stroke:#000000;stroke-width:2.83465;stroke-linecap:butt;stroke-linejoin:miter;stroke-miterlimit:4;stroke-dasharray:none;stroke-opacity:1"
       opacity="1"
       id="path15" />
    <path
       d="M 18.277,198.559 C -1.039,182.961 -4.074,154.66 11.5,135.32 c 15.578,-19.336 43.871,-22.406 63.23,-6.855 19.36,15.547 22.465,43.84 6.938,63.219 -15.523,19.379 -43.813,22.519 -63.211,7.019"
       transform="scale(1.3333333)"
       style="fill:url(#radialGradient19);fill-rule:evenodd;stroke:#000000;stroke-width:0.749999;stroke-linecap:butt;stroke-linejoin:miter;stroke-miterlimit:4;stroke-dasharray:none;stroke-opacity:1"
       opacity="1"
       id="path19" />
    <path
       d="M 18.277,289.234 C -1.039,273.637 -4.074,245.336 11.5,225.996 27.078,206.66 55.371,203.59 74.73,219.141 c 19.36,15.547 22.465,43.839 6.938,63.218 -15.523,19.379 -43.813,22.52 -63.211,7.02"
       transform="scale(1.3333333)"
       style="fill:url(#radialGradient23);fill-rule:evenodd;stroke:#000000;stroke-width:0.749999;stroke-linecap:butt;stroke-linejoin:miter;stroke-miterlimit:4;stroke-dasharray:none;stroke-opacity:1"
       opacity="1"
       id="path23" />
    <path
       d="M 18.277,379.816 C -1.039,364.215 -4.074,335.918 11.5,316.578 c 15.578,-19.34 43.871,-22.406 63.23,-6.859 19.36,15.551 22.465,43.844 6.938,63.222 -15.523,19.375 -43.813,22.52 -63.211,7.02"
       transform="scale(1.3333333)"
       style="fill:url(#radialGradient27);fill-rule:evenodd;stroke:#000000;stroke-width:0.749999;stroke-linecap:butt;stroke-linejoin:miter;stroke-miterlimit:4;stroke-dasharray:none;stroke-opacity:1"
       opacity="1"
       id="path27" />
    <path
       d="M 18.277,469.973 C -1.039,454.371 -4.074,426.074 11.5,406.734 c 15.578,-19.339 43.871,-22.406 63.23,-6.859 19.36,15.551 22.465,43.844 6.938,63.219 -15.523,19.379 -43.813,22.523 -63.211,7.023"
       transform="scale(1.3333333)"
       style="fill:url(#radialGradient31);fill-rule:evenodd;stroke:#000000;stroke-width:0.749999;stroke-linecap:butt;stroke-linejoin:miter;stroke-miterlimit:4;stroke-dasharray:none;stroke-opacity:1"
       opacity="1"
       id="path31" />
    <path
       id="path32"
       d="M 1.418,33.211 V 475.492"
       style="fill:none;stroke:#000000;stroke-width:2.83465;stroke-linecap:butt;stroke-linejoin:miter;stroke-miterlimit:4;stroke-dasharray:none;stroke-opacity:1"
       transform="scale(1.3333333)" />
    <path
       id="path33"
       d="M 91.52,32.355 V 474.637"
       style="fill:none;stroke:#000000;stroke-width:2.83465;stroke-linecap:butt;stroke-linejoin:miter;stroke-miterlimit:4;stroke-dasharray:none;stroke-opacity:1"
       transform="scale(1.3333333)" />
    <path
       id="path34"
       d="m 46.441,72.063 43.563,1.894"
       style="fill:none;stroke:#000000;stroke-width:0.749999;stroke-linecap:butt;stroke-linejoin:miter;stroke-miterlimit:4;stroke-dasharray:none;stroke-opacity:1"
       transform="scale(1.3333333)" />
    <path
       id="path35"
       d="M 47.957,30.461 91.52,32.355"
       style="fill:none;stroke:#000000;stroke-width:0.749999;stroke-linecap:butt;stroke-linejoin:miter;stroke-miterlimit:4;stroke-dasharray:none;stroke-opacity:1"
       transform="scale(1.3333333)" />
    <path
       id="path36"
       d="m 49.281,164.301 43.563,1.894"
       style="fill:none;stroke:#000000;stroke-width:0.749999;stroke-linecap:butt;stroke-linejoin:miter;stroke-miterlimit:4;stroke-dasharray:none;stroke-opacity:1"
       transform="scale(1.3333333)" />
    <path
       id="path37"
       d="m 48.523,253.699 43.563,1.895"
       style="fill:none;stroke:#000000;stroke-width:0.749999;stroke-linecap:butt;stroke-linejoin:miter;stroke-miterlimit:4;stroke-dasharray:none;stroke-opacity:1"
       transform="scale(1.3333333)" />
    <path
       id="path38"
       d="m 47.766,346.887 43.562,1.894"
       style="fill:none;stroke:#000000;stroke-width:0.749999;stroke-linecap:butt;stroke-linejoin:miter;stroke-miterlimit:4;stroke-dasharray:none;stroke-opacity:1"
       transform="scale(1.3333333)" />
    <path
       id="path39"
       d="m 48.145,439.695 43.562,1.895"
       style="fill:none;stroke:#000000;stroke-width:0.749999;stroke-linecap:butt;stroke-linejoin:miter;stroke-miterlimit:4;stroke-dasharray:none;stroke-opacity:1"
       transform="scale(1.3333333)" />
    <path
       id="path40"
       d="m 54.098,12.094 c -0.063,0.312 -0.188,0.781 -0.188,0.875 0,0.344 0.281,0.531 0.594,0.531 0.25,0 0.594,-0.156 0.75,-0.562 0.031,-0.063 0.687,-2.782 0.781,-3.157 C 56.191,9.125 56.566,7.75 56.66,7.188 56.754,6.938 57.316,6 57.785,5.563 c 0.156,-0.125 0.75,-0.657 1.594,-0.657 0.531,0 0.812,0.25 0.844,0.25 -0.594,0.094 -1.032,0.563 -1.032,1.094 0,0.313 0.219,0.688 0.75,0.688 0.532,0 1.094,-0.469 1.094,-1.188 0,-0.687 -0.625,-1.281 -1.656,-1.281 -1.281,0 -2.156,0.969 -2.531,1.531 -0.188,-0.906 -0.907,-1.531 -1.844,-1.531 -0.906,0 -1.281,0.781 -1.469,1.125 -0.344,0.687 -0.594,1.875 -0.594,1.937 0,0.219 0.188,0.219 0.219,0.219 0.219,0 0.219,-0.031 0.344,-0.469 0.344,-1.406 0.75,-2.375 1.469,-2.375 0.312,0 0.593,0.157 0.593,0.907 0,0.437 -0.062,0.656 -0.312,1.687 z"
       style="fill:#000000;fill-opacity:1;fill-rule:nonzero;stroke:none"
       transform="scale(1.3333333)" />
    <path
       id="path41"
       d="m 81.113,6.75 c 0.313,0 0.688,0 0.688,-0.375 0,-0.406 -0.375,-0.406 -0.656,-0.406 H 69.207 c -0.281,0 -0.656,0 -0.656,0.406 0,0.375 0.375,0.375 0.656,0.375 z m 0.032,3.875 c 0.281,0 0.656,0 0.656,-0.406 0,-0.375 -0.375,-0.375 -0.688,-0.375 H 69.207 c -0.281,0 -0.656,0 -0.656,0.375 0,0.406 0.375,0.406 0.656,0.406 z"
       style="fill:#000000;fill-opacity:1;fill-rule:nonzero;stroke:none"
       transform="scale(1.3333333)" />
    <path
       id="path42"
       d="m 94.246,6.25 c 1.625,-0.531 2.781,-1.906 2.781,-3.5 0,-1.625 -1.75,-2.75 -3.656,-2.75 -2,0 -3.531,1.188 -3.531,2.719 0,0.656 0.437,1.031 1.031,1.031 0.594,0 1,-0.437 1,-1.031 0,-0.969 -0.937,-0.969 -1.219,-0.969 0.594,-1 1.907,-1.25 2.625,-1.25 0.844,0 1.938,0.438 1.938,2.219 0,0.25 -0.063,1.406 -0.563,2.281 -0.593,0.969 -1.281,1.031 -1.781,1.031 -0.156,0.032 -0.625,0.063 -0.781,0.063 -0.156,0.031 -0.281,0.062 -0.281,0.25 0,0.219 0.125,0.219 0.468,0.219 h 0.875 c 1.625,0 2.375,1.343 2.375,3.312 0,2.719 -1.375,3.281 -2.25,3.281 -0.875,0 -2.375,-0.343 -3.062,-1.5 0.687,0.094 1.312,-0.343 1.312,-1.093 0,-0.719 -0.531,-1.125 -1.093,-1.125 -0.5,0 -1.125,0.281 -1.125,1.156 0,1.812 1.843,3.125 4.031,3.125 2.437,0 4.25,-1.813 4.25,-3.844 0,-1.625 -1.281,-3.187 -3.344,-3.625 z"
       style="fill:#000000;fill-opacity:1;fill-rule:nonzero;stroke:none"
       transform="scale(1.3333333)" />
    <path
       id="path43"
       d="m 107.402,8.938 c 0,-3.25 1.625,-4.094 2.688,-4.094 0.187,0 1.437,0.031 2.125,0.75 -0.813,0.062 -0.938,0.656 -0.938,0.906 0,0.531 0.375,0.906 0.907,0.906 0.531,0 0.937,-0.312 0.937,-0.937 0,-1.344 -1.531,-2.125 -3.062,-2.125 -2.5,0 -4.313,2.156 -4.313,4.625 0,2.562 1.969,4.531 4.281,4.531 2.657,0 3.313,-2.406 3.313,-2.594 0,-0.187 -0.219,-0.187 -0.281,-0.187 -0.157,0 -0.219,0.062 -0.25,0.187 -0.563,1.844 -1.875,2.094 -2.594,2.094 -1.063,0 -2.813,-0.844 -2.813,-4.062 z"
       style="fill:#000000;fill-opacity:1;fill-rule:nonzero;stroke:none"
       transform="scale(1.3333333)" />
    <path
       id="path44"
       d="m 116.102,6.438 v 5.343 c 0,0.875 -0.219,0.875 -1.563,0.875 v 0.625 c 0.719,-0.031 1.719,-0.062 2.281,-0.062 0.5,0 1.532,0.031 2.219,0.062 v -0.625 c -1.344,0 -1.562,0 -1.562,-0.875 V 8.094 c 0,-2.063 1.437,-3.188 2.687,-3.188 1.281,0 1.5,1.063 1.5,2.219 v 4.656 c 0,0.875 -0.219,0.875 -1.562,0.875 v 0.625 c 0.687,-0.031 1.718,-0.062 2.25,-0.062 0.5,0 1.562,0.031 2.218,0.062 v -0.625 c -1.312,0 -1.531,0 -1.531,-0.875 V 8.094 c 0,-2.063 1.406,-3.188 2.688,-3.188 1.25,0 1.468,1.063 1.468,2.219 v 4.656 c 0,0.875 -0.218,0.875 -1.562,0.875 v 0.625 c 0.687,-0.031 1.719,-0.062 2.25,-0.062 0.531,0 1.562,0.031 2.25,0.062 v -0.625 c -1.031,0 -1.531,0 -1.563,-0.593 V 8.25 c 0,-1.719 0,-2.312 -0.625,-3.031 -0.281,-0.344 -0.937,-0.75 -2.093,-0.75 -1.657,0 -2.563,1.187 -2.875,1.969 -0.282,-1.75 -1.75,-1.969 -2.657,-1.969 -1.468,0 -2.406,0.844 -2.968,2.094 V 4.469 l -2.813,0.219 v 0.625 c 1.406,0 1.563,0.125 1.563,1.125 z"
       style="fill:#000000;fill-opacity:1;fill-rule:nonzero;stroke:none"
       transform="scale(1.3333333)" />
    <path
       id="path45"
       d="m 161.227,242.59 c 0,0 0,-0.219 -0.25,-0.219 -0.469,0 -1.907,0.156 -2.438,0.219 -0.156,0 -0.375,0.031 -0.375,0.375 0,0.25 0.188,0.25 0.469,0.25 0.969,0 1,0.125 1,0.344 l -0.063,0.406 -2.875,11.473 c -0.093,0.281 -0.093,0.312 -0.093,0.437 0,0.469 0.406,0.563 0.593,0.563 0.313,0 0.625,-0.25 0.719,-0.532 l 0.375,-1.504 0.438,-1.781 c 0.125,-0.469 0.25,-0.906 0.343,-1.344 0.032,-0.125 0.219,-0.781 0.219,-0.906 0.063,-0.187 0.688,-1.281 1.375,-1.844 0.438,-0.312 1.031,-0.687 1.906,-0.687 0.844,0 1.063,0.687 1.063,1.406 0,1.063 -0.75,3.25 -1.219,4.469 -0.156,0.437 -0.281,0.687 -0.281,1.098 0,0.937 0.719,1.625 1.656,1.625 1.875,0 2.594,-2.911 2.594,-3.067 0,-0.219 -0.156,-0.219 -0.219,-0.219 -0.219,0 -0.219,0.063 -0.312,0.375 -0.282,1.067 -0.938,2.473 -2.032,2.473 -0.343,0 -0.468,-0.187 -0.468,-0.656 0,-0.5 0.156,-0.973 0.343,-1.41 0.313,-0.875 1.219,-3.25 1.219,-4.407 0,-1.281 -0.781,-2.125 -2.281,-2.125 -1.25,0 -2.219,0.625 -2.969,1.532 z"
       style="fill:#000000;fill-opacity:1;fill-rule:nonzero;stroke:none"
       transform="scale(1.3333333)" />
    <path
       id="path46"
       d="m 186.211,249.684 c 0.312,0 0.687,0 0.687,-0.375 0,-0.407 -0.375,-0.407 -0.656,-0.407 h -11.937 c -0.282,0 -0.657,0 -0.657,0.407 0,0.375 0.375,0.375 0.657,0.375 z m 0.031,3.875 c 0.281,0 0.656,0 0.656,-0.407 0,-0.375 -0.375,-0.375 -0.687,-0.375 h -11.906 c -0.282,0 -0.657,0 -0.657,0.375 0,0.407 0.375,0.407 0.657,0.407 z"
       style="fill:#000000;fill-opacity:1;fill-rule:nonzero;stroke:none"
       transform="scale(1.3333333)" />
    <path
       id="path47"
       d="m 199.344,249.184 c 1.625,-0.532 2.781,-1.907 2.781,-3.5 0,-1.625 -1.75,-2.75 -3.656,-2.75 -2,0 -3.531,1.187 -3.531,2.718 0,0.657 0.437,1.032 1.031,1.032 0.594,0 1,-0.438 1,-1.032 0,-0.968 -0.938,-0.968 -1.219,-0.968 0.594,-1 1.906,-1.25 2.625,-1.25 0.844,0 1.938,0.437 1.938,2.218 0,0.25 -0.063,1.407 -0.563,2.282 -0.594,0.968 -1.281,1.031 -1.781,1.031 -0.156,0.031 -0.625,0.062 -0.781,0.062 -0.157,0.032 -0.282,0.063 -0.282,0.25 0,0.219 0.125,0.219 0.469,0.219 h 0.875 c 1.625,0 2.375,1.344 2.375,3.313 0,2.722 -1.375,3.285 -2.25,3.285 -0.875,0 -2.375,-0.344 -3.062,-1.5 0.687,0.094 1.312,-0.348 1.312,-1.098 0,-0.719 -0.531,-1.125 -1.094,-1.125 -0.5,0 -1.125,0.281 -1.125,1.156 0,1.817 1.844,3.129 4.032,3.129 2.437,0 4.25,-1.812 4.25,-3.847 0,-1.625 -1.282,-3.188 -3.344,-3.625 z"
       style="fill:#000000;fill-opacity:1;fill-rule:nonzero;stroke:none"
       transform="scale(1.3333333)" />
    <path
       id="path48"
       d="m 212.68,249.84 c 0,-1.594 -0.094,-3.188 -0.782,-4.656 -0.906,-1.938 -2.562,-2.25 -3.375,-2.25 -1.218,0 -2.656,0.531 -3.5,2.375 -0.625,1.375 -0.718,2.937 -0.718,4.531 0,1.5 0.062,3.281 0.906,4.816 0.844,1.594 2.312,2 3.281,2 1.063,0 2.594,-0.406 3.469,-2.316 0.625,-1.375 0.719,-2.938 0.719,-4.5 z m -4.188,6.379 c -0.781,0 -1.969,-0.5 -2.312,-2.41 -0.219,-1.188 -0.219,-3.032 -0.219,-4.219 0,-1.281 0,-2.594 0.156,-3.656 0.375,-2.375 1.875,-2.563 2.375,-2.563 0.656,0 1.969,0.375 2.344,2.344 0.219,1.125 0.219,2.625 0.219,3.875 0,1.5 0,2.844 -0.219,4.125 -0.313,1.91 -1.438,2.504 -2.344,2.504 z"
       style="fill:#000000;fill-opacity:1;fill-rule:nonzero;stroke:none"
       transform="scale(1.3333333)" />
    <path
       id="path49"
       d="m 222.465,251.871 c 0,-3.25 1.625,-4.094 2.687,-4.094 0.188,0 1.438,0.032 2.125,0.75 -0.812,0.063 -0.937,0.657 -0.937,0.907 0,0.531 0.375,0.906 0.906,0.906 0.531,0 0.938,-0.313 0.938,-0.938 0,-1.343 -1.532,-2.125 -3.063,-2.125 -2.5,0 -4.312,2.157 -4.312,4.625 0,2.567 1.968,4.536 4.281,4.536 2.656,0 3.312,-2.411 3.312,-2.598 0,-0.188 -0.218,-0.188 -0.281,-0.188 -0.156,0 -0.219,0.063 -0.25,0.188 -0.562,1.848 -1.875,2.098 -2.594,2.098 -1.062,0 -2.812,-0.844 -2.812,-4.067 z"
       style="fill:#000000;fill-opacity:1;fill-rule:nonzero;stroke:none"
       transform="scale(1.3333333)" />
    <path
       id="path50"
       d="m 231.164,249.371 v 5.348 c 0,0.875 -0.219,0.875 -1.562,0.875 v 0.625 c 0.718,-0.031 1.718,-0.063 2.281,-0.063 0.5,0 1.531,0.032 2.219,0.063 v -0.625 c -1.344,0 -1.563,0 -1.563,-0.875 v -3.692 c 0,-2.062 1.438,-3.187 2.688,-3.187 1.281,0 1.5,1.062 1.5,2.219 v 4.66 c 0,0.875 -0.219,0.875 -1.563,0.875 v 0.625 c 0.688,-0.031 1.719,-0.063 2.25,-0.063 0.5,0 1.563,0.032 2.219,0.063 v -0.625 c -1.313,0 -1.531,0 -1.531,-0.875 v -3.692 c 0,-2.062 1.406,-3.187 2.687,-3.187 1.25,0 1.469,1.062 1.469,2.219 v 4.66 c 0,0.875 -0.219,0.875 -1.563,0.875 v 0.625 c 0.688,-0.031 1.719,-0.063 2.25,-0.063 0.532,0 1.563,0.032 2.25,0.063 v -0.625 c -1.031,0 -1.531,0 -1.562,-0.594 v -3.816 c 0,-1.719 0,-2.313 -0.625,-3.032 -0.281,-0.343 -0.938,-0.75 -2.094,-0.75 -1.656,0 -2.562,1.188 -2.875,1.969 -0.281,-1.75 -1.75,-1.969 -2.656,-1.969 -1.469,0 -2.406,0.844 -2.969,2.094 v -2.094 l -2.812,0.219 v 0.625 c 1.406,0 1.562,0.125 1.562,1.125 z"
       style="fill:#000000;fill-opacity:1;fill-rule:nonzero;stroke:none"
       transform="scale(1.3333333)" />
    <path
       id="path51"
       d="m 102.02,28.797 c 34.632,17.812 -13.227,213.101 40.402,223.672"
       style="fill:none;stroke:#000000;stroke-width:2.83464;stroke-linecap:butt;stroke-linejoin:miter;stroke-miterlimit:4;stroke-dasharray:none;stroke-opacity:1"
       transform="scale(1.3333333)" />
    <path
       id="path52"
       d="m 142.422,252.469 c -59.121,-1.801 3.047,224.886 -40.402,223.668"
       style="fill:none;stroke:#000000;stroke-width:2.83464;stroke-linecap:butt;stroke-linejoin:miter;stroke-miterlimit:4;stroke-dasharray:none;stroke-opacity:1"
       transform="scale(1.3333333)" />
  </g>
</svg>
