<?xml version="1.0" encoding="UTF-8" standalone="no"?>
<!-- Created with Inkscape (http://www.inkscape.org/) -->

<svg
   version="1.1"
   id="svg1"
   width="136.63667"
   height="136.63667"
   viewBox="0 0 136.63667 136.63667"
   sodipodi:docname="upload_5hhkfex3wwt772xfhk5lpk5gf5.pdf"
   xmlns:inkscape="http://www.inkscape.org/namespaces/inkscape"
   xmlns:sodipodi="http://sodipodi.sourceforge.net/DTD/sodipodi-0.dtd"
   xmlns="http://www.w3.org/2000/svg"
   xmlns:svg="http://www.w3.org/2000/svg">
  <defs
     id="defs1">
    <clipPath
       clipPathUnits="userSpaceOnUse"
       id="clipPath5">
      <path
         d="M 0,0 H 3007 V 518 H 0 Z"
         id="path5" />
    </clipPath>
    <pattern
       patternTransform="matrix(0,0.0283465,0.0283465,0,-117.25809,-86.707669)"
       patternUnits="userSpaceOnUse"
       x="0"
       y="0"
       width="3007"
       height="518"
       id="pattern6">
      <g
         id="g6">
        <path
           d="M 759.699,6.102 C 507.898,-18.699 265.602,30.199 -1,178.801 l 0,127.301 C 277.301,143.102 517.301,105.199 747.199,128 977,150.801 1196.898,236.102 1425.301,321.801 1882,493.102 2380.398,667.602 3006.602,306.102 l -0.403,-127.301 C 2362.199,549.699 1924.602,377 1469.102,206.102 1241.301,120.699 1011.5,31.102 759.699,6.102 Z"
           style="fill:#000000;fill-opacity:1;fill-rule:nonzero;stroke:none"
           clip-path="url(#clipPath5)"
           id="path6" />
      </g>
    </pattern>
  </defs>
  <sodipodi:namedview
     id="namedview1"
     pagecolor="#ffffff"
     bordercolor="#000000"
     borderopacity="0.25"
     inkscape:showpageshadow="2"
     inkscape:pageopacity="0.0"
     inkscape:pagecheckerboard="0"
     inkscape:deskcolor="#d1d1d1">
    <inkscape:page
       x="0"
       y="0"
       inkscape:label="1"
       id="page1"
       width="136.63667"
       height="136.63667"
       margin="0"
       bleed="0" />
  </sodipodi:namedview>
  <g
     id="g1"
     inkscape:groupmode="layer"
     inkscape:label="1">
    <path
       id="path1"
       d="m 101.059,51.238 c 0,27.516 -22.305,49.821 -49.821,49.821 -27.515,0 -49.82,-22.305 -49.82,-49.821 0,-27.515 22.305,-49.82 49.82,-49.82 27.516,0 49.821,22.305 49.821,49.82 z"
       style="fill:none;stroke:#000000;stroke-width:2.83465;stroke-linecap:butt;stroke-linejoin:miter;stroke-miterlimit:4;stroke-dasharray:none;stroke-opacity:1"
       transform="scale(1.3333333)" />
    <path
       id="path2"
       d="M 101.242,51.238 H 1.234"
       style="fill:none;stroke:#000000;stroke-width:0.75;stroke-linecap:butt;stroke-linejoin:miter;stroke-miterlimit:4;stroke-dasharray:none;stroke-opacity:1"
       transform="scale(1.3333333)" />
    <path
       id="path3"
       d="M 51.238,101.242 V 1.234"
       style="fill:none;stroke:#000000;stroke-width:0.75;stroke-linecap:butt;stroke-linejoin:miter;stroke-miterlimit:4;stroke-dasharray:none;stroke-opacity:1"
       transform="scale(1.3333333)" />
    <path
       id="path4"
       d="M 101.242,51.238 H 51.41 V 1.953 C 76.332,3.387 98.316,20.5 101.242,51.238 Z"
       style="fill:url(#pattern6);fill-opacity:1;fill-rule:nonzero;stroke:#000000;stroke-width:0.75;stroke-linecap:butt;stroke-linejoin:miter;stroke-miterlimit:4;stroke-dasharray:none;stroke-opacity:1"
       transform="scale(1.3333333)" />
    <path
       id="path7"
       d="M 50.555,101.242 100.559,51.238 H 51.41 Z"
       style="fill:#000000;fill-opacity:1;fill-rule:nonzero;stroke:#000000;stroke-width:0.75;stroke-linecap:butt;stroke-linejoin:miter;stroke-miterlimit:4;stroke-dasharray:none;stroke-opacity:1"
       transform="scale(1.3333333)" />
  </g>
</svg>
