<?xml version="1.0" encoding="UTF-8" standalone="no"?>
<!-- Created with Inkscape (http://www.inkscape.org/) -->

<svg
   version="1.1"
   id="svg1"
   width="632.66479"
   height="544.3158"
   viewBox="0 0 632.66479 544.3158"
   sodipodi:docname="upload_ca2eeaob66q2njchooauyigxfm.pdf"
   xmlns:inkscape="http://www.inkscape.org/namespaces/inkscape"
   xmlns:sodipodi="http://sodipodi.sourceforge.net/DTD/sodipodi-0.dtd"
   xmlns="http://www.w3.org/2000/svg"
   xmlns:svg="http://www.w3.org/2000/svg">
  <defs
     id="defs1">
    <clipPath
       clipPathUnits="userSpaceOnUse"
       id="clipPath13">
      <path
         d="M 0,0 H 3007 V 518 H 0 Z"
         id="path13" />
    </clipPath>
    <pattern
       patternTransform="matrix(0,0.0283465,0.0283465,0,-115.84127,219.05165)"
       patternUnits="userSpaceOnUse"
       x="0"
       y="0"
       width="3007"
       height="518"
       id="pattern14">
      <g
         id="g14">
        <path
           d="M 759.699,6.102 C 507.898,-18.699 265.602,30.199 -1,178.801 l 0,127.301 C 277.301,143.102 517.301,105.199 747.199,128 977,150.801 1196.898,236.102 1425.301,321.801 1882,493.102 2380.398,667.602 3006.602,306.102 l -0.403,-127.301 C 2362.199,549.699 1924.602,377 1469.102,206.102 1241.301,120.699 1011.5,31.102 759.699,6.102 Z"
           style="fill:#000000;fill-opacity:1;fill-rule:nonzero;stroke:none"
           clip-path="url(#clipPath13)"
           id="path14" />
      </g>
    </pattern>
    <clipPath
       clipPathUnits="userSpaceOnUse"
       id="clipPath16">
      <path
         d="M 0,0 H 3007 V 518 H 0 Z"
         id="path16" />
    </clipPath>
    <pattern
       patternTransform="matrix(0,-0.0283465,-0.0283465,0,345.39213,494.94451)"
       patternUnits="userSpaceOnUse"
       x="0"
       y="0"
       width="3007"
       height="518"
       id="pattern17">
      <g
         id="g17">
        <path
           d="M 759.699,6.102 C 507.898,-18.699 265.602,30.199 -1,178.801 l 0,127.301 C 277.301,143.102 517.301,105.199 747.199,128 977,150.801 1196.898,236.102 1425.301,321.801 1882,493.102 2380.398,667.602 3006.602,306.102 l -0.403,-127.301 C 2362.199,549.699 1924.602,377 1469.102,206.102 1241.301,120.699 1011.5,31.102 759.699,6.102 Z"
           style="fill:#000000;fill-opacity:1;fill-rule:nonzero;stroke:none"
           clip-path="url(#clipPath16)"
           id="path17" />
      </g>
    </pattern>
    <clipPath
       clipPathUnits="userSpaceOnUse"
       id="clipPath19">
      <path
         d="M 0,0 H 3007 V 518 H 0 Z"
         id="path19" />
    </clipPath>
    <pattern
       patternTransform="matrix(0,0.0283465,0.0283465,0,130.00549,219.05166)"
       patternUnits="userSpaceOnUse"
       x="0"
       y="0"
       width="3007"
       height="518"
       id="pattern20">
      <g
         id="g20">
        <path
           d="M 759.699,6.102 C 507.898,-18.699 265.602,30.199 -1,178.801 l 0,127.301 C 277.301,143.102 517.301,105.199 747.199,128 977,150.801 1196.898,236.102 1425.301,321.801 1882,493.102 2380.398,667.602 3006.602,306.102 l -0.403,-127.301 C 2362.199,549.699 1924.602,377 1469.102,206.102 1241.301,120.699 1011.5,31.102 759.699,6.102 Z"
           style="fill:#000000;fill-opacity:1;fill-rule:nonzero;stroke:none"
           clip-path="url(#clipPath19)"
           id="path20" />
      </g>
    </pattern>
    <clipPath
       clipPathUnits="userSpaceOnUse"
       id="clipPath26">
      <path
         d="M 0,0 H 3007 V 518 H 0 Z"
         id="path26" />
    </clipPath>
    <pattern
       patternTransform="matrix(0,0.0283465,0.0283465,0,252.6596,217.63433)"
       patternUnits="userSpaceOnUse"
       x="0"
       y="0"
       width="3007"
       height="518"
       id="pattern27">
      <g
         id="g27">
        <path
           d="M 759.699,6.102 C 507.898,-18.699 265.602,30.199 -1,178.801 l 0,127.301 C 277.301,143.102 517.301,105.199 747.199,128 977,150.801 1196.898,236.102 1425.301,321.801 1882,493.102 2380.398,667.602 3006.602,306.102 l -0.403,-127.301 C 2362.199,549.699 1924.602,377 1469.102,206.102 1241.301,120.699 1011.5,31.102 759.699,6.102 Z"
           style="fill:#000000;fill-opacity:1;fill-rule:nonzero;stroke:none"
           clip-path="url(#clipPath26)"
           id="path27" />
      </g>
    </pattern>
    <clipPath
       clipPathUnits="userSpaceOnUse"
       id="clipPath43">
      <path
         d="M 0,0 H 3007 V 518 H 0 Z"
         id="path43" />
    </clipPath>
    <pattern
       patternTransform="matrix(0,0.0283465,0.0283465,0,-113.73777,73.261717)"
       patternUnits="userSpaceOnUse"
       x="0"
       y="0"
       width="3007"
       height="518"
       id="pattern44">
      <g
         id="g44">
        <path
           d="M 759.699,6.102 C 507.898,-18.699 265.602,30.199 -1,178.801 l 0,127.301 C 277.301,143.102 517.301,105.199 747.199,128 977,150.801 1196.898,236.102 1425.301,321.801 1882,493.102 2380.398,667.602 3006.602,306.102 l -0.403,-127.301 C 2362.199,549.699 1924.602,377 1469.102,206.102 1241.301,120.699 1011.5,31.102 759.699,6.102 Z"
           style="fill:#000000;fill-opacity:1;fill-rule:nonzero;stroke:none"
           clip-path="url(#clipPath43)"
           id="path44" />
      </g>
    </pattern>
    <clipPath
       clipPathUnits="userSpaceOnUse"
       id="clipPath46">
      <path
         d="M 0,0 H 3007 V 518 H 0 Z"
         id="path46" />
    </clipPath>
    <pattern
       patternTransform="matrix(0,-0.0283465,-0.0283465,0,347.49563,349.15458)"
       patternUnits="userSpaceOnUse"
       x="0"
       y="0"
       width="3007"
       height="518"
       id="pattern47">
      <g
         id="g47">
        <path
           d="M 759.699,6.102 C 507.898,-18.699 265.602,30.199 -1,178.801 l 0,127.301 C 277.301,143.102 517.301,105.199 747.199,128 977,150.801 1196.898,236.102 1425.301,321.801 1882,493.102 2380.398,667.602 3006.602,306.102 l -0.403,-127.301 C 2362.199,549.699 1924.602,377 1469.102,206.102 1241.301,120.699 1011.5,31.102 759.699,6.102 Z"
           style="fill:#000000;fill-opacity:1;fill-rule:nonzero;stroke:none"
           clip-path="url(#clipPath46)"
           id="path47" />
      </g>
    </pattern>
    <clipPath
       clipPathUnits="userSpaceOnUse"
       id="clipPath49">
      <path
         d="M 0,0 H 3007 V 518 H 0 Z"
         id="path49" />
    </clipPath>
    <pattern
       patternTransform="matrix(0,0.0283465,0.0283465,0,132.10899,73.261723)"
       patternUnits="userSpaceOnUse"
       x="0"
       y="0"
       width="3007"
       height="518"
       id="pattern50">
      <g
         id="g50">
        <path
           d="M 759.699,6.102 C 507.898,-18.699 265.602,30.199 -1,178.801 l 0,127.301 C 277.301,143.102 517.301,105.199 747.199,128 977,150.801 1196.898,236.102 1425.301,321.801 1882,493.102 2380.398,667.602 3006.602,306.102 l -0.403,-127.301 C 2362.199,549.699 1924.602,377 1469.102,206.102 1241.301,120.699 1011.5,31.102 759.699,6.102 Z"
           style="fill:#000000;fill-opacity:1;fill-rule:nonzero;stroke:none"
           clip-path="url(#clipPath49)"
           id="path50" />
      </g>
    </pattern>
    <clipPath
       clipPathUnits="userSpaceOnUse"
       id="clipPath56">
      <path
         d="M 0,0 H 3007 V 518 H 0 Z"
         id="path56" />
    </clipPath>
    <pattern
       patternTransform="matrix(0,0.0283465,0.0283465,0,254.76303,71.844468)"
       patternUnits="userSpaceOnUse"
       x="0"
       y="0"
       width="3007"
       height="518"
       id="pattern57">
      <g
         id="g57">
        <path
           d="M 759.699,6.102 C 507.898,-18.699 265.602,30.199 -1,178.801 l 0,127.301 C 277.301,143.102 517.301,105.199 747.199,128 977,150.801 1196.898,236.102 1425.301,321.801 1882,493.102 2380.398,667.602 3006.602,306.102 l -0.403,-127.301 C 2362.199,549.699 1924.602,377 1469.102,206.102 1241.301,120.699 1011.5,31.102 759.699,6.102 Z"
           style="fill:#000000;fill-opacity:1;fill-rule:nonzero;stroke:none"
           clip-path="url(#clipPath56)"
           id="path57" />
      </g>
    </pattern>
    <clipPath
       clipPathUnits="userSpaceOnUse"
       id="clipPath71">
      <path
         d="M 0,0 H 3007 V 518 H 0 Z"
         id="path71" />
    </clipPath>
    <pattern
       patternTransform="matrix(0,0.0283465,0.0283465,0,-118.28345,-63.866493)"
       patternUnits="userSpaceOnUse"
       x="0"
       y="0"
       width="3007"
       height="518"
       id="pattern72">
      <g
         id="g72">
        <path
           d="M 759.699,6.102 C 507.898,-18.699 265.602,30.199 -1,178.801 l 0,127.301 C 277.301,143.102 517.301,105.199 747.199,128 977,150.801 1196.898,236.102 1425.301,321.801 1882,493.102 2380.398,667.602 3006.602,306.102 l -0.403,-127.301 C 2362.199,549.699 1924.602,377 1469.102,206.102 1241.301,120.699 1011.5,31.102 759.699,6.102 Z"
           style="fill:#000000;fill-opacity:1;fill-rule:nonzero;stroke:none"
           clip-path="url(#clipPath71)"
           id="path72" />
      </g>
    </pattern>
    <clipPath
       clipPathUnits="userSpaceOnUse"
       id="clipPath74">
      <path
         d="M 0,0 H 3007 V 518 H 0 Z"
         id="path74" />
    </clipPath>
    <pattern
       patternTransform="matrix(0,-0.0283465,-0.0283465,0,342.94994,212.02637)"
       patternUnits="userSpaceOnUse"
       x="0"
       y="0"
       width="3007"
       height="518"
       id="pattern75">
      <g
         id="g75">
        <path
           d="M 759.699,6.102 C 507.898,-18.699 265.602,30.199 -1,178.801 l 0,127.301 C 277.301,143.102 517.301,105.199 747.199,128 977,150.801 1196.898,236.102 1425.301,321.801 1882,493.102 2380.398,667.602 3006.602,306.102 l -0.403,-127.301 C 2362.199,549.699 1924.602,377 1469.102,206.102 1241.301,120.699 1011.5,31.102 759.699,6.102 Z"
           style="fill:#000000;fill-opacity:1;fill-rule:nonzero;stroke:none"
           clip-path="url(#clipPath74)"
           id="path75" />
      </g>
    </pattern>
    <clipPath
       clipPathUnits="userSpaceOnUse"
       id="clipPath77">
      <path
         d="M 0,0 H 3007 V 518 H 0 Z"
         id="path77" />
    </clipPath>
    <pattern
       patternTransform="matrix(0,0.0283465,0.0283465,0,127.56332,-63.866498)"
       patternUnits="userSpaceOnUse"
       x="0"
       y="0"
       width="3007"
       height="518"
       id="pattern78">
      <g
         id="g78">
        <path
           d="M 759.699,6.102 C 507.898,-18.699 265.602,30.199 -1,178.801 l 0,127.301 C 277.301,143.102 517.301,105.199 747.199,128 977,150.801 1196.898,236.102 1425.301,321.801 1882,493.102 2380.398,667.602 3006.602,306.102 l -0.403,-127.301 C 2362.199,549.699 1924.602,377 1469.102,206.102 1241.301,120.699 1011.5,31.102 759.699,6.102 Z"
           style="fill:#000000;fill-opacity:1;fill-rule:nonzero;stroke:none"
           clip-path="url(#clipPath77)"
           id="path78" />
      </g>
    </pattern>
    <clipPath
       clipPathUnits="userSpaceOnUse"
       id="clipPath84">
      <path
         d="M 0,0 H 3007 V 518 H 0 Z"
         id="path84" />
    </clipPath>
    <pattern
       patternTransform="matrix(0,0.0283465,0.0283465,0,250.21736,-65.283759)"
       patternUnits="userSpaceOnUse"
       x="0"
       y="0"
       width="3007"
       height="518"
       id="pattern85">
      <g
         id="g85">
        <path
           d="M 759.699,6.102 C 507.898,-18.699 265.602,30.199 -1,178.801 l 0,127.301 C 277.301,143.102 517.301,105.199 747.199,128 977,150.801 1196.898,236.102 1425.301,321.801 1882,493.102 2380.398,667.602 3006.602,306.102 l -0.403,-127.301 C 2362.199,549.699 1924.602,377 1469.102,206.102 1241.301,120.699 1011.5,31.102 759.699,6.102 Z"
           style="fill:#000000;fill-opacity:1;fill-rule:nonzero;stroke:none"
           clip-path="url(#clipPath84)"
           id="path85" />
      </g>
    </pattern>
  </defs>
  <sodipodi:namedview
     id="namedview1"
     pagecolor="#ffffff"
     bordercolor="#000000"
     borderopacity="0.25"
     inkscape:showpageshadow="2"
     inkscape:pageopacity="0.0"
     inkscape:pagecheckerboard="0"
     inkscape:deskcolor="#d1d1d1">
    <inkscape:page
       x="0"
       y="0"
       inkscape:label="1"
       id="page1"
       width="632.66479"
       height="544.3158"
       margin="0"
       bleed="0" />
  </sodipodi:namedview>
  <g
     id="g1"
     inkscape:groupmode="layer"
     inkscape:label="1">
    <path
       id="path1"
       d="m 103.504,51.238 c 0,27.516 -22.309,49.821 -49.824,49.821 -27.516,0 -49.821,-22.305 -49.821,-49.821 0,-27.515 22.305,-49.82 49.821,-49.82 27.515,0 49.824,22.305 49.824,49.82 z"
       style="fill:none;stroke:#000000;stroke-width:2.83465;stroke-linecap:butt;stroke-linejoin:miter;stroke-miterlimit:4;stroke-dasharray:none;stroke-opacity:1"
       transform="scale(1.3333333)" />
    <path
       id="path2"
       d="M 103.684,51.238 H 3.68"
       style="fill:none;stroke:#000000;stroke-width:0.749999;stroke-linecap:butt;stroke-linejoin:miter;stroke-miterlimit:4;stroke-dasharray:none;stroke-opacity:1"
       transform="scale(1.3333333)" />
    <path
       id="path3"
       d="M 53.68,101.242 V 1.234"
       style="fill:none;stroke:#000000;stroke-width:0.749999;stroke-linecap:butt;stroke-linejoin:miter;stroke-miterlimit:4;stroke-dasharray:none;stroke-opacity:1"
       transform="scale(1.3333333)" />
    <path
       id="path4"
       d="m 53.68,1.234 -50,50.004 h 49.144 z"
       style="fill:#000000;fill-opacity:1;fill-rule:nonzero;stroke:#000000;stroke-width:0.749999;stroke-linecap:butt;stroke-linejoin:miter;stroke-miterlimit:4;stroke-dasharray:none;stroke-opacity:1"
       transform="scale(1.3333333)" />
    <path
       id="path5"
       d="m 226.715,51.238 c 0,27.516 -22.305,49.821 -49.82,49.821 -27.516,0 -49.821,-22.305 -49.821,-49.821 0,-27.515 22.305,-49.82 49.821,-49.82 27.515,0 49.82,22.305 49.82,49.82 z"
       style="fill:none;stroke:#000000;stroke-width:2.83465;stroke-linecap:butt;stroke-linejoin:miter;stroke-miterlimit:4;stroke-dasharray:none;stroke-opacity:1"
       transform="scale(1.3333333)" />
    <path
       id="path6"
       d="M 226.898,51.238 H 126.895"
       style="fill:none;stroke:#000000;stroke-width:0.749999;stroke-linecap:butt;stroke-linejoin:miter;stroke-miterlimit:4;stroke-dasharray:none;stroke-opacity:1"
       transform="scale(1.3333333)" />
    <path
       id="path7"
       d="M 176.895,101.242 V 1.234"
       style="fill:none;stroke:#000000;stroke-width:0.749999;stroke-linecap:butt;stroke-linejoin:miter;stroke-miterlimit:4;stroke-dasharray:none;stroke-opacity:1"
       transform="scale(1.3333333)" />
    <path
       id="path8"
       d="M 226.898,51.238 176.895,1.234 v 49.149 z"
       style="fill:#000000;fill-opacity:1;fill-rule:nonzero;stroke:#000000;stroke-width:0.749999;stroke-linecap:butt;stroke-linejoin:miter;stroke-miterlimit:4;stroke-dasharray:none;stroke-opacity:1"
       transform="scale(1.3333333)" />
    <path
       id="path9"
       d="m 348.324,51.238 c 0,27.516 -22.304,49.821 -49.82,49.821 -27.516,0 -49.824,-22.305 -49.824,-49.821 0,-27.515 22.308,-49.82 49.824,-49.82 27.516,0 49.82,22.305 49.82,49.82 z"
       style="fill:none;stroke:#000000;stroke-width:2.83465;stroke-linecap:butt;stroke-linejoin:miter;stroke-miterlimit:4;stroke-dasharray:none;stroke-opacity:1"
       transform="scale(1.3333333)" />
    <path
       id="path10"
       d="M 348.504,51.238 H 248.5"
       style="fill:none;stroke:#000000;stroke-width:0.749999;stroke-linecap:butt;stroke-linejoin:miter;stroke-miterlimit:4;stroke-dasharray:none;stroke-opacity:1"
       transform="scale(1.3333333)" />
    <path
       id="path11"
       d="M 298.504,101.242 V 1.234"
       style="fill:none;stroke:#000000;stroke-width:0.749999;stroke-linecap:butt;stroke-linejoin:miter;stroke-miterlimit:4;stroke-dasharray:none;stroke-opacity:1"
       transform="scale(1.3333333)" />
    <path
       id="path12"
       d="M 102.656,51.238 H 52.824 V 1.953 C 77.746,3.387 99.73,20.5 102.656,51.238 Z"
       style="fill:url(#pattern14);fill-opacity:1;fill-rule:nonzero;stroke:#000000;stroke-width:0.749999;stroke-linecap:butt;stroke-linejoin:miter;stroke-miterlimit:4;stroke-dasharray:none;stroke-opacity:1"
       transform="scale(1.3333333)" />
    <path
       id="path15"
       d="m 126.895,51.238 h 49.832 v 49.285 C 151.805,99.09 129.82,81.977 126.895,51.238 Z"
       style="fill:url(#pattern17);fill-opacity:1;fill-rule:nonzero;stroke:#000000;stroke-width:0.749999;stroke-linecap:butt;stroke-linejoin:miter;stroke-miterlimit:4;stroke-dasharray:none;stroke-opacity:1"
       transform="scale(1.3333333)" />
    <path
       id="path18"
       d="M 348.504,51.238 H 298.672 V 1.953 c 24.922,1.434 46.906,18.547 49.832,49.285 z"
       style="fill:url(#pattern20);fill-opacity:1;fill-rule:nonzero;stroke:#000000;stroke-width:0.749999;stroke-linecap:butt;stroke-linejoin:miter;stroke-miterlimit:4;stroke-dasharray:none;stroke-opacity:1"
       transform="scale(1.3333333)" />
    <path
       id="path21"
       d="M 297.816,101.242 347.82,51.238 h -49.148 z"
       style="fill:#000000;fill-opacity:1;fill-rule:nonzero;stroke:#000000;stroke-width:0.749999;stroke-linecap:butt;stroke-linejoin:miter;stroke-miterlimit:4;stroke-dasharray:none;stroke-opacity:1"
       transform="scale(1.3333333)" />
    <path
       id="path22"
       d="m 470.977,52.656 c 0,27.516 -22.305,49.821 -49.821,49.821 -27.515,0 -49.82,-22.305 -49.82,-49.821 0,-27.515 22.305,-49.82 49.82,-49.82 27.516,0 49.821,22.305 49.821,49.82 z"
       style="fill:none;stroke:#000000;stroke-width:2.83465;stroke-linecap:butt;stroke-linejoin:miter;stroke-miterlimit:4;stroke-dasharray:none;stroke-opacity:1"
       transform="scale(1.3333333)" />
    <path
       id="path23"
       d="M 471.16,52.656 H 371.152"
       style="fill:none;stroke:#000000;stroke-width:0.749999;stroke-linecap:butt;stroke-linejoin:miter;stroke-miterlimit:4;stroke-dasharray:none;stroke-opacity:1"
       transform="scale(1.3333333)" />
    <path
       id="path24"
       d="M 421.156,102.66 V 2.652"
       style="fill:none;stroke:#000000;stroke-width:0.749999;stroke-linecap:butt;stroke-linejoin:miter;stroke-miterlimit:4;stroke-dasharray:none;stroke-opacity:1"
       transform="scale(1.3333333)" />
    <path
       id="path25"
       d="M 471.16,52.656 H 421.328 V 3.371 c 24.922,1.434 46.906,18.547 49.832,49.285 z"
       style="fill:url(#pattern27);fill-opacity:1;fill-rule:nonzero;stroke:#000000;stroke-width:0.749999;stroke-linecap:butt;stroke-linejoin:miter;stroke-miterlimit:4;stroke-dasharray:none;stroke-opacity:1"
       transform="scale(1.3333333)" />
    <path
       id="path28"
       d="m 371.324,51.801 50.004,50.004 V 52.656 Z"
       style="fill:#000000;fill-opacity:1;fill-rule:nonzero;stroke:#000000;stroke-width:0.749999;stroke-linecap:butt;stroke-linejoin:miter;stroke-miterlimit:4;stroke-dasharray:none;stroke-opacity:1"
       transform="scale(1.3333333)" />
    <text
       id="text28"
       xml:space="preserve"
       transform="matrix(1.3333333,0,0,1.3333333,19.230817,157.86757)"><tspan
         id="tspan28"
         style="font-variant:normal;font-weight:normal;font-size:18.9278px;font-family:Verdana;writing-mode:lr-tb;fill:#000000;fill-opacity:1;fill-rule:nonzero;stroke:none"
         x="0"
         dx="0 0 0 0 0 -0.34070054"
         y="0">Figura 1</tspan></text>
    <text
       id="text29"
       xml:space="preserve"
       transform="matrix(1.3333333,0,0,1.3333333,189.51621,157.53607)"><tspan
         id="tspan29"
         style="font-variant:normal;font-weight:normal;font-size:18.5204px;font-family:Verdana;writing-mode:lr-tb;fill:#000000;fill-opacity:1;fill-rule:nonzero;stroke:none"
         x="0"
         dx="0 0 0 0 0 -0.33336741"
         y="0">Figura 2</tspan></text>
    <text
       id="text30"
       xml:space="preserve"
       transform="matrix(1.3333333,0,0,1.3333333,354.42889,158.77969)"><tspan
         id="tspan30"
         style="font-variant:normal;font-weight:normal;font-size:19.1873px;font-family:Verdana;writing-mode:lr-tb;fill:#000000;fill-opacity:1;fill-rule:nonzero;stroke:none"
         x="0"
         dx="0 0 0 0 0 -0.34537226"
         y="0">Figura 3</tspan></text>
    <text
       id="text31"
       xml:space="preserve"
       transform="matrix(1.3333333,0,0,1.3333333,515.61272,158.15252)"><tspan
         id="tspan31"
         style="font-variant:normal;font-weight:normal;font-size:18.8732px;font-family:Verdana;writing-mode:lr-tb;fill:#000000;fill-opacity:1;fill-rule:nonzero;stroke:none"
         x="0"
         dx="0 0 0 0 0 -0.3397173"
         y="0">Figura 4</tspan></text>
    <path
       id="path31"
       d="m 105.605,197.027 c 0,27.516 -22.304,49.825 -49.82,49.825 -27.515,0 -49.82,-22.309 -49.82,-49.825 0,-27.515 22.305,-49.82 49.82,-49.82 27.516,0 49.82,22.305 49.82,49.82 z"
       style="fill:none;stroke:#000000;stroke-width:2.83465;stroke-linecap:butt;stroke-linejoin:miter;stroke-miterlimit:4;stroke-dasharray:none;stroke-opacity:1"
       transform="scale(1.3333333)" />
    <path
       id="path32"
       d="M 105.785,197.027 H 5.781"
       style="fill:none;stroke:#000000;stroke-width:0.749999;stroke-linecap:butt;stroke-linejoin:miter;stroke-miterlimit:4;stroke-dasharray:none;stroke-opacity:1"
       transform="scale(1.3333333)" />
    <path
       id="path33"
       d="M 55.785,247.031 V 147.027"
       style="fill:none;stroke:#000000;stroke-width:0.749999;stroke-linecap:butt;stroke-linejoin:miter;stroke-miterlimit:4;stroke-dasharray:none;stroke-opacity:1"
       transform="scale(1.3333333)" />
    <path
       id="path34"
       d="m 55.785,147.027 -50.004,50 H 54.93 Z"
       style="fill:#000000;fill-opacity:1;fill-rule:nonzero;stroke:#000000;stroke-width:0.749999;stroke-linecap:butt;stroke-linejoin:miter;stroke-miterlimit:4;stroke-dasharray:none;stroke-opacity:1"
       transform="scale(1.3333333)" />
    <path
       id="path35"
       d="m 228.82,197.027 c 0,27.516 -22.304,49.825 -49.82,49.825 -27.516,0 -49.824,-22.309 -49.824,-49.825 0,-27.515 22.308,-49.82 49.824,-49.82 27.516,0 49.82,22.305 49.82,49.82 z"
       style="fill:none;stroke:#000000;stroke-width:2.83465;stroke-linecap:butt;stroke-linejoin:miter;stroke-miterlimit:4;stroke-dasharray:none;stroke-opacity:1"
       transform="scale(1.3333333)" />
    <path
       id="path36"
       d="M 229,197.027 H 128.996"
       style="fill:none;stroke:#000000;stroke-width:0.749999;stroke-linecap:butt;stroke-linejoin:miter;stroke-miterlimit:4;stroke-dasharray:none;stroke-opacity:1"
       transform="scale(1.3333333)" />
    <path
       id="path37"
       d="M 179,247.031 V 147.027"
       style="fill:none;stroke:#000000;stroke-width:0.749999;stroke-linecap:butt;stroke-linejoin:miter;stroke-miterlimit:4;stroke-dasharray:none;stroke-opacity:1"
       transform="scale(1.3333333)" />
    <path
       id="path38"
       d="m 229,197.027 -50,-50 v 49.145 z"
       style="fill:#000000;fill-opacity:1;fill-rule:nonzero;stroke:#000000;stroke-width:0.749999;stroke-linecap:butt;stroke-linejoin:miter;stroke-miterlimit:4;stroke-dasharray:none;stroke-opacity:1"
       transform="scale(1.3333333)" />
    <path
       id="path39"
       d="m 350.426,197.027 c 0,27.516 -22.305,49.825 -49.821,49.825 -27.515,0 -49.82,-22.309 -49.82,-49.825 0,-27.515 22.305,-49.82 49.82,-49.82 27.516,0 49.821,22.305 49.821,49.82 z"
       style="fill:none;stroke:#000000;stroke-width:2.83465;stroke-linecap:butt;stroke-linejoin:miter;stroke-miterlimit:4;stroke-dasharray:none;stroke-opacity:1"
       transform="scale(1.3333333)" />
    <path
       id="path40"
       d="M 350.609,197.027 H 250.602"
       style="fill:none;stroke:#000000;stroke-width:0.749999;stroke-linecap:butt;stroke-linejoin:miter;stroke-miterlimit:4;stroke-dasharray:none;stroke-opacity:1"
       transform="scale(1.3333333)" />
    <path
       id="path41"
       d="M 300.605,247.031 V 147.027"
       style="fill:none;stroke:#000000;stroke-width:0.749999;stroke-linecap:butt;stroke-linejoin:miter;stroke-miterlimit:4;stroke-dasharray:none;stroke-opacity:1"
       transform="scale(1.3333333)" />
    <path
       id="path42"
       d="M 104.762,197.027 H 54.93 v -49.285 c 24.922,1.434 46.906,18.547 49.832,49.285 z"
       style="fill:url(#pattern44);fill-opacity:1;fill-rule:nonzero;stroke:#000000;stroke-width:0.749999;stroke-linecap:butt;stroke-linejoin:miter;stroke-miterlimit:4;stroke-dasharray:none;stroke-opacity:1"
       transform="scale(1.3333333)" />
    <path
       id="path45"
       d="m 128.996,197.027 h 49.832 v 49.286 c -24.922,-1.434 -46.906,-18.547 -49.832,-49.286 z"
       style="fill:url(#pattern47);fill-opacity:1;fill-rule:nonzero;stroke:#000000;stroke-width:0.749999;stroke-linecap:butt;stroke-linejoin:miter;stroke-miterlimit:4;stroke-dasharray:none;stroke-opacity:1"
       transform="scale(1.3333333)" />
    <path
       id="path48"
       d="m 350.609,197.027 h -49.832 v -49.285 c 24.922,1.434 46.907,18.547 49.832,49.285 z"
       style="fill:url(#pattern50);fill-opacity:1;fill-rule:nonzero;stroke:#000000;stroke-width:0.749999;stroke-linecap:butt;stroke-linejoin:miter;stroke-miterlimit:4;stroke-dasharray:none;stroke-opacity:1"
       transform="scale(1.3333333)" />
    <path
       id="path51"
       d="m 299.922,247.031 50.004,-50.004 h -49.149 z"
       style="fill:#000000;fill-opacity:1;fill-rule:nonzero;stroke:#000000;stroke-width:0.749999;stroke-linecap:butt;stroke-linejoin:miter;stroke-miterlimit:4;stroke-dasharray:none;stroke-opacity:1"
       transform="scale(1.3333333)" />
    <path
       id="path52"
       d="m 473.082,198.445 c 0,27.516 -22.305,49.821 -49.82,49.821 -27.516,0 -49.824,-22.305 -49.824,-49.821 0,-27.515 22.308,-49.82 49.824,-49.82 27.515,0 49.82,22.305 49.82,49.82 z"
       style="fill:none;stroke:#000000;stroke-width:2.83465;stroke-linecap:butt;stroke-linejoin:miter;stroke-miterlimit:4;stroke-dasharray:none;stroke-opacity:1"
       transform="scale(1.3333333)" />
    <path
       id="path53"
       d="M 473.262,198.445 H 373.258"
       style="fill:none;stroke:#000000;stroke-width:0.749999;stroke-linecap:butt;stroke-linejoin:miter;stroke-miterlimit:4;stroke-dasharray:none;stroke-opacity:1"
       transform="scale(1.3333333)" />
    <path
       id="path54"
       d="M 423.262,248.449 V 148.445"
       style="fill:none;stroke:#000000;stroke-width:0.749999;stroke-linecap:butt;stroke-linejoin:miter;stroke-miterlimit:4;stroke-dasharray:none;stroke-opacity:1"
       transform="scale(1.3333333)" />
    <path
       id="path55"
       d="M 473.262,198.445 H 423.43 V 149.16 c 24.922,1.434 46.906,18.547 49.832,49.285 z"
       style="fill:url(#pattern57);fill-opacity:1;fill-rule:nonzero;stroke:#000000;stroke-width:0.749999;stroke-linecap:butt;stroke-linejoin:miter;stroke-miterlimit:4;stroke-dasharray:none;stroke-opacity:1"
       transform="scale(1.3333333)" />
    <path
       id="path58"
       d="m 373.43,197.59 50,50.004 v -49.149 z"
       style="fill:#000000;fill-opacity:1;fill-rule:nonzero;stroke:#000000;stroke-width:0.749999;stroke-linecap:butt;stroke-linejoin:miter;stroke-miterlimit:4;stroke-dasharray:none;stroke-opacity:1"
       transform="scale(1.3333333)" />
    <path
       id="path59"
       d="m 101.059,334.156 c 0,27.516 -22.305,49.821 -49.821,49.821 -27.515,0 -49.82,-22.305 -49.82,-49.821 0,-27.515 22.305,-49.82 49.82,-49.82 27.516,0 49.821,22.305 49.821,49.82 z"
       style="fill:none;stroke:#000000;stroke-width:2.83465;stroke-linecap:butt;stroke-linejoin:miter;stroke-miterlimit:4;stroke-dasharray:none;stroke-opacity:1"
       transform="scale(1.3333333)" />
    <path
       id="path60"
       d="M 101.242,334.156 H 1.234"
       style="fill:none;stroke:#000000;stroke-width:0.749999;stroke-linecap:butt;stroke-linejoin:miter;stroke-miterlimit:4;stroke-dasharray:none;stroke-opacity:1"
       transform="scale(1.3333333)" />
    <path
       id="path61"
       d="M 51.238,384.16 V 284.156"
       style="fill:none;stroke:#000000;stroke-width:0.749999;stroke-linecap:butt;stroke-linejoin:miter;stroke-miterlimit:4;stroke-dasharray:none;stroke-opacity:1"
       transform="scale(1.3333333)" />
    <path
       id="path62"
       d="m 51.238,284.156 -50.004,50 h 49.149 z"
       style="fill:#000000;fill-opacity:1;fill-rule:nonzero;stroke:#000000;stroke-width:0.749999;stroke-linecap:butt;stroke-linejoin:miter;stroke-miterlimit:4;stroke-dasharray:none;stroke-opacity:1"
       transform="scale(1.3333333)" />
    <path
       id="path63"
       d="m 224.273,334.156 c 0,27.516 -22.304,49.821 -49.82,49.821 -27.515,0 -49.82,-22.305 -49.82,-49.821 0,-27.515 22.305,-49.82 49.82,-49.82 27.516,0 49.82,22.305 49.82,49.82 z"
       style="fill:none;stroke:#000000;stroke-width:2.83465;stroke-linecap:butt;stroke-linejoin:miter;stroke-miterlimit:4;stroke-dasharray:none;stroke-opacity:1"
       transform="scale(1.3333333)" />
    <path
       id="path64"
       d="M 224.457,334.156 H 124.449"
       style="fill:none;stroke:#000000;stroke-width:0.749999;stroke-linecap:butt;stroke-linejoin:miter;stroke-miterlimit:4;stroke-dasharray:none;stroke-opacity:1"
       transform="scale(1.3333333)" />
    <path
       id="path65"
       d="M 174.453,384.16 V 284.156"
       style="fill:none;stroke:#000000;stroke-width:0.749999;stroke-linecap:butt;stroke-linejoin:miter;stroke-miterlimit:4;stroke-dasharray:none;stroke-opacity:1"
       transform="scale(1.3333333)" />
    <path
       id="path66"
       d="m 224.457,334.156 -50.004,-50 v 49.145 z"
       style="fill:#000000;fill-opacity:1;fill-rule:nonzero;stroke:#000000;stroke-width:0.749999;stroke-linecap:butt;stroke-linejoin:miter;stroke-miterlimit:4;stroke-dasharray:none;stroke-opacity:1"
       transform="scale(1.3333333)" />
    <path
       id="path67"
       d="m 345.883,334.156 c 0,27.516 -22.309,49.821 -49.824,49.821 -27.516,0 -49.821,-22.305 -49.821,-49.821 0,-27.515 22.305,-49.82 49.821,-49.82 27.515,0 49.824,22.305 49.824,49.82 z"
       style="fill:none;stroke:#000000;stroke-width:2.83465;stroke-linecap:butt;stroke-linejoin:miter;stroke-miterlimit:4;stroke-dasharray:none;stroke-opacity:1"
       transform="scale(1.3333333)" />
    <path
       id="path68"
       d="M 346.063,334.156 H 246.059"
       style="fill:none;stroke:#000000;stroke-width:0.749999;stroke-linecap:butt;stroke-linejoin:miter;stroke-miterlimit:4;stroke-dasharray:none;stroke-opacity:1"
       transform="scale(1.3333333)" />
    <path
       id="path69"
       d="M 296.059,384.16 V 284.156"
       style="fill:none;stroke:#000000;stroke-width:0.749999;stroke-linecap:butt;stroke-linejoin:miter;stroke-miterlimit:4;stroke-dasharray:none;stroke-opacity:1"
       transform="scale(1.3333333)" />
    <path
       id="path70"
       d="M 100.215,334.156 H 50.383 v -49.285 c 24.922,1.434 46.906,18.547 49.832,49.285 z"
       style="fill:url(#pattern72);fill-opacity:1;fill-rule:nonzero;stroke:#000000;stroke-width:0.749999;stroke-linecap:butt;stroke-linejoin:miter;stroke-miterlimit:4;stroke-dasharray:none;stroke-opacity:1"
       transform="scale(1.3333333)" />
    <path
       id="path73"
       d="m 124.449,334.156 h 49.832 v 49.285 c -24.922,-1.433 -46.902,-18.546 -49.832,-49.285 z"
       style="fill:url(#pattern75);fill-opacity:1;fill-rule:nonzero;stroke:#000000;stroke-width:0.749999;stroke-linecap:butt;stroke-linejoin:miter;stroke-miterlimit:4;stroke-dasharray:none;stroke-opacity:1"
       transform="scale(1.3333333)" />
    <path
       id="path76"
       d="M 346.063,334.156 H 296.23 v -49.285 c 24.922,1.434 46.907,18.547 49.833,49.285 z"
       style="fill:url(#pattern78);fill-opacity:1;fill-rule:nonzero;stroke:#000000;stroke-width:0.749999;stroke-linecap:butt;stroke-linejoin:miter;stroke-miterlimit:4;stroke-dasharray:none;stroke-opacity:1"
       transform="scale(1.3333333)" />
    <path
       id="path79"
       d="m 295.375,384.16 50.004,-50.004 H 296.23 Z"
       style="fill:#000000;fill-opacity:1;fill-rule:nonzero;stroke:#000000;stroke-width:0.749999;stroke-linecap:butt;stroke-linejoin:miter;stroke-miterlimit:4;stroke-dasharray:none;stroke-opacity:1"
       transform="scale(1.3333333)" />
    <path
       id="path80"
       d="m 468.535,335.574 c 0,27.516 -22.305,49.821 -49.82,49.821 -27.516,0 -49.82,-22.305 -49.82,-49.821 0,-27.515 22.304,-49.82 49.82,-49.82 27.515,0 49.82,22.305 49.82,49.82 z"
       style="fill:none;stroke:#000000;stroke-width:2.83465;stroke-linecap:butt;stroke-linejoin:miter;stroke-miterlimit:4;stroke-dasharray:none;stroke-opacity:1"
       transform="scale(1.3333333)" />
    <path
       id="path81"
       d="M 468.719,335.574 H 368.711"
       style="fill:none;stroke:#000000;stroke-width:0.749999;stroke-linecap:butt;stroke-linejoin:miter;stroke-miterlimit:4;stroke-dasharray:none;stroke-opacity:1"
       transform="scale(1.3333333)" />
    <path
       id="path82"
       d="M 418.715,385.578 V 285.57"
       style="fill:none;stroke:#000000;stroke-width:0.749999;stroke-linecap:butt;stroke-linejoin:miter;stroke-miterlimit:4;stroke-dasharray:none;stroke-opacity:1"
       transform="scale(1.3333333)" />
    <path
       id="path83"
       d="m 468.719,335.574 h -49.832 v -49.285 c 24.918,1.434 46.902,18.547 49.832,49.285 z"
       style="fill:url(#pattern85);fill-opacity:1;fill-rule:nonzero;stroke:#000000;stroke-width:0.749999;stroke-linecap:butt;stroke-linejoin:miter;stroke-miterlimit:4;stroke-dasharray:none;stroke-opacity:1"
       transform="scale(1.3333333)" />
    <path
       id="path86"
       d="m 368.883,334.719 50.004,50.004 v -49.149 z"
       style="fill:#000000;fill-opacity:1;fill-rule:nonzero;stroke:#000000;stroke-width:0.749999;stroke-linecap:butt;stroke-linejoin:miter;stroke-miterlimit:4;stroke-dasharray:none;stroke-opacity:1"
       transform="scale(1.3333333)" />
    <text
       id="text86"
       xml:space="preserve"
       transform="matrix(1.3333333,0,0,1.3333333,18.437681,357.16276)"><tspan
         id="tspan86"
         style="font-variant:normal;font-weight:normal;font-size:18.9278px;font-family:Verdana;writing-mode:lr-tb;fill:#000000;fill-opacity:1;fill-rule:nonzero;stroke:none"
         x="0"
         dx="0 0 0 0 0 -0.34070104"
         y="0">Figura 5</tspan><tspan
         id="tspan87"
         style="font-variant:normal;font-weight:normal;font-size:18.9278px;font-family:Verdana;writing-mode:lr-tb;fill:#000000;fill-opacity:1;fill-rule:nonzero;stroke:none"
         x="127.88456"
         dx="0 0 0 0 0 -0.34070104"
         y="-2.2652457">Figura 6</tspan><tspan
         id="tspan88"
         style="font-variant:normal;font-weight:normal;font-size:18.9278px;font-family:Verdana;writing-mode:lr-tb;fill:#000000;fill-opacity:1;fill-rule:nonzero;stroke:none"
         x="252.16379"
         dx="0 0 0 0 0 -0.34070104 0 0 43.670929 0 0 0 0 -0.34070104"
         y="-4.538157">Figura 7Figura 8</tspan><tspan
         id="tspan89"
         style="font-variant:normal;font-weight:normal;font-size:18.9278px;font-family:Verdana;writing-mode:lr-tb;fill:#000000;fill-opacity:1;fill-rule:nonzero;stroke:none"
         x="-0.12181955"
         dx="0 0 0 0 0 -0.34070104 0 0 38.413361 0 0 0 0 -0.34070104 0 0 0 37.396236 0 0 0 0 -0.34070104 0 0 0 29.199348 0 0 0 0 -0.34070104"
         y="134.24138"
         dy="0 0 0 0 0 0 0 0 0.65221536 0 0 0 0 0 0 0 0 0.75844598 0 0 0 0 0 0 0 0 0.80334282">Figura 9Figura 10Figura 11Figura 12</tspan></text>
  </g>
</svg>
