<?xml version="1.0" encoding="UTF-8" standalone="no"?>
<!-- Created with Inkscape (http://www.inkscape.org/) -->

<svg
   version="1.1"
   id="svg1"
   width="790.03241"
   height="178.1012"
   viewBox="0 0 790.03241 178.1012"
   sodipodi:docname="upload_q3sn6wmbz3vf6w6y3gg4h3oqpp.pdf"
   xmlns:inkscape="http://www.inkscape.org/namespaces/inkscape"
   xmlns:sodipodi="http://sodipodi.sourceforge.net/DTD/sodipodi-0.dtd"
   xmlns="http://www.w3.org/2000/svg"
   xmlns:svg="http://www.w3.org/2000/svg">
  <defs
     id="defs1">
    <clipPath
       clipPathUnits="userSpaceOnUse"
       id="clipPath13">
      <path
         d="M 0,0 H 3007 V 518 H 0 Z"
         id="path13" />
    </clipPath>
    <pattern
       patternTransform="matrix(0,0.0283465,0.0283465,0,-118.28345,-55.609296)"
       patternUnits="userSpaceOnUse"
       x="0"
       y="0"
       width="3007"
       height="518"
       id="pattern14">
      <g
         id="g14">
        <path
           d="M 759.699,6.102 C 507.898,-18.699 265.602,30.199 -1,178.801 l 0,127.301 C 277.301,143.102 517.301,105.199 747.199,128 977,150.801 1196.898,236.102 1425.301,321.801 1882,493.102 2380.398,667.602 3006.602,306.102 l -0.403,-127.301 C 2362.199,549.699 1924.602,377 1469.102,206.102 1241.301,120.699 1011.5,31.102 759.699,6.102 Z"
           style="fill:#000000;fill-opacity:1;fill-rule:nonzero;stroke:none"
           clip-path="url(#clipPath13)"
           id="path14" />
      </g>
    </pattern>
    <clipPath
       clipPathUnits="userSpaceOnUse"
       id="clipPath16">
      <path
         d="M 0,0 H 3007 V 518 H 0 Z"
         id="path16" />
    </clipPath>
    <pattern
       patternTransform="matrix(0,-0.0283465,-0.0283465,0,345.94995,220.28356)"
       patternUnits="userSpaceOnUse"
       x="0"
       y="0"
       width="3007"
       height="518"
       id="pattern17">
      <g
         id="g17">
        <path
           d="M 759.699,6.102 C 507.898,-18.699 265.602,30.199 -1,178.801 l 0,127.301 C 277.301,143.102 517.301,105.199 747.199,128 977,150.801 1196.898,236.102 1425.301,321.801 1882,493.102 2380.398,667.602 3006.602,306.102 l -0.403,-127.301 C 2362.199,549.699 1924.602,377 1469.102,206.102 1241.301,120.699 1011.5,31.102 759.699,6.102 Z"
           style="fill:#000000;fill-opacity:1;fill-rule:nonzero;stroke:none"
           clip-path="url(#clipPath16)"
           id="path17" />
      </g>
    </pattern>
    <clipPath
       clipPathUnits="userSpaceOnUse"
       id="clipPath19">
      <path
         d="M 0,0 H 3007 V 518 H 0 Z"
         id="path19" />
    </clipPath>
    <pattern
       patternTransform="matrix(0,0.0283465,0.0283465,0,130.56331,-55.609293)"
       patternUnits="userSpaceOnUse"
       x="0"
       y="0"
       width="3007"
       height="518"
       id="pattern20">
      <g
         id="g20">
        <path
           d="M 759.699,6.102 C 507.898,-18.699 265.602,30.199 -1,178.801 l 0,127.301 C 277.301,143.102 517.301,105.199 747.199,128 977,150.801 1196.898,236.102 1425.301,321.801 1882,493.102 2380.398,667.602 3006.602,306.102 l -0.403,-127.301 C 2362.199,549.699 1924.602,377 1469.102,206.102 1241.301,120.699 1011.5,31.102 759.699,6.102 Z"
           style="fill:#000000;fill-opacity:1;fill-rule:nonzero;stroke:none"
           clip-path="url(#clipPath19)"
           id="path20" />
      </g>
    </pattern>
    <clipPath
       clipPathUnits="userSpaceOnUse"
       id="clipPath26">
      <path
         d="M 0,0 H 3007 V 518 H 0 Z"
         id="path26" />
    </clipPath>
    <pattern
       patternTransform="matrix(0,0.0283465,0.0283465,0,253.21742,-57.026616)"
       patternUnits="userSpaceOnUse"
       x="0"
       y="0"
       width="3007"
       height="518"
       id="pattern27">
      <g
         id="g27">
        <path
           d="M 759.699,6.102 C 507.898,-18.699 265.602,30.199 -1,178.801 l 0,127.301 C 277.301,143.102 517.301,105.199 747.199,128 977,150.801 1196.898,236.102 1425.301,321.801 1882,493.102 2380.398,667.602 3006.602,306.102 l -0.403,-127.301 C 2362.199,549.699 1924.602,377 1469.102,206.102 1241.301,120.699 1011.5,31.102 759.699,6.102 Z"
           style="fill:#000000;fill-opacity:1;fill-rule:nonzero;stroke:none"
           clip-path="url(#clipPath26)"
           id="path27" />
      </g>
    </pattern>
    <clipPath
       clipPathUnits="userSpaceOnUse"
       id="clipPath34">
      <path
         d="M 0,0 H 3007 V 518 H 0 Z"
         id="path34" />
    </clipPath>
    <pattern
       patternTransform="matrix(0,0.0283465,0.0283465,0,371.76342,-56.490839)"
       patternUnits="userSpaceOnUse"
       x="0"
       y="0"
       width="3007"
       height="518"
       id="pattern35">
      <g
         id="g35">
        <path
           d="M 759.699,6.102 C 507.898,-18.699 265.602,30.199 -1,178.801 l 0,127.301 C 277.301,143.102 517.301,105.199 747.199,128 977,150.801 1196.898,236.102 1425.301,321.801 1882,493.102 2380.398,667.602 3006.602,306.102 l -0.403,-127.301 C 2362.199,549.699 1924.602,377 1469.102,206.102 1241.301,120.699 1011.5,31.102 759.699,6.102 Z"
           style="fill:#000000;fill-opacity:1;fill-rule:nonzero;stroke:none"
           clip-path="url(#clipPath34)"
           id="path35" />
      </g>
    </pattern>
  </defs>
  <sodipodi:namedview
     id="namedview1"
     pagecolor="#ffffff"
     bordercolor="#000000"
     borderopacity="0.25"
     inkscape:showpageshadow="2"
     inkscape:pageopacity="0.0"
     inkscape:pagecheckerboard="0"
     inkscape:deskcolor="#d1d1d1">
    <inkscape:page
       x="0"
       y="0"
       inkscape:label="1"
       id="page1"
       width="790.03241"
       height="178.1012"
       margin="0"
       bleed="0" />
  </sodipodi:namedview>
  <g
     id="g1"
     inkscape:groupmode="layer"
     inkscape:label="1">
    <path
       id="path1"
       d="m 101.059,51.238 c 0,27.516 -22.305,49.821 -49.821,49.821 -27.515,0 -49.82,-22.305 -49.82,-49.821 0,-27.515 22.305,-49.82 49.82,-49.82 27.516,0 49.821,22.305 49.821,49.82 z"
       style="fill:none;stroke:#000000;stroke-width:2.83465;stroke-linecap:butt;stroke-linejoin:miter;stroke-miterlimit:4;stroke-dasharray:none;stroke-opacity:1"
       transform="scale(1.3333333)" />
    <path
       id="path2"
       d="M 101.242,51.238 H 1.234"
       style="fill:none;stroke:#000000;stroke-width:0.749999;stroke-linecap:butt;stroke-linejoin:miter;stroke-miterlimit:4;stroke-dasharray:none;stroke-opacity:1"
       transform="scale(1.3333333)" />
    <path
       id="path3"
       d="M 51.238,101.242 V 1.234"
       style="fill:none;stroke:#000000;stroke-width:0.749999;stroke-linecap:butt;stroke-linejoin:miter;stroke-miterlimit:4;stroke-dasharray:none;stroke-opacity:1"
       transform="scale(1.3333333)" />
    <path
       id="path4"
       d="M 51.238,1.234 1.234,51.238 h 49.149 z"
       style="fill:#000000;fill-opacity:1;fill-rule:nonzero;stroke:#000000;stroke-width:0.749999;stroke-linecap:butt;stroke-linejoin:miter;stroke-miterlimit:4;stroke-dasharray:none;stroke-opacity:1"
       transform="scale(1.3333333)" />
    <path
       id="path5"
       d="m 227.273,51.238 c 0,27.516 -22.304,49.821 -49.82,49.821 -27.515,0 -49.82,-22.305 -49.82,-49.821 0,-27.515 22.305,-49.82 49.82,-49.82 27.516,0 49.82,22.305 49.82,49.82 z"
       style="fill:none;stroke:#000000;stroke-width:2.83465;stroke-linecap:butt;stroke-linejoin:miter;stroke-miterlimit:4;stroke-dasharray:none;stroke-opacity:1"
       transform="scale(1.3333333)" />
    <path
       id="path6"
       d="M 227.457,51.238 H 127.449"
       style="fill:none;stroke:#000000;stroke-width:0.749999;stroke-linecap:butt;stroke-linejoin:miter;stroke-miterlimit:4;stroke-dasharray:none;stroke-opacity:1"
       transform="scale(1.3333333)" />
    <path
       id="path7"
       d="M 177.453,101.242 V 1.234"
       style="fill:none;stroke:#000000;stroke-width:0.749999;stroke-linecap:butt;stroke-linejoin:miter;stroke-miterlimit:4;stroke-dasharray:none;stroke-opacity:1"
       transform="scale(1.3333333)" />
    <path
       id="path8"
       d="M 227.457,51.238 177.453,1.234 v 49.149 z"
       style="fill:#000000;fill-opacity:1;fill-rule:nonzero;stroke:#000000;stroke-width:0.749999;stroke-linecap:butt;stroke-linejoin:miter;stroke-miterlimit:4;stroke-dasharray:none;stroke-opacity:1"
       transform="scale(1.3333333)" />
    <path
       id="path9"
       d="m 348.883,51.238 c 0,27.516 -22.309,49.821 -49.824,49.821 -27.516,0 -49.821,-22.305 -49.821,-49.821 0,-27.515 22.305,-49.82 49.821,-49.82 27.515,0 49.824,22.305 49.824,49.82 z"
       style="fill:none;stroke:#000000;stroke-width:2.83465;stroke-linecap:butt;stroke-linejoin:miter;stroke-miterlimit:4;stroke-dasharray:none;stroke-opacity:1"
       transform="scale(1.3333333)" />
    <path
       id="path10"
       d="M 349.063,51.238 H 249.059"
       style="fill:none;stroke:#000000;stroke-width:0.749999;stroke-linecap:butt;stroke-linejoin:miter;stroke-miterlimit:4;stroke-dasharray:none;stroke-opacity:1"
       transform="scale(1.3333333)" />
    <path
       id="path11"
       d="M 299.059,101.242 V 1.234"
       style="fill:none;stroke:#000000;stroke-width:0.749999;stroke-linecap:butt;stroke-linejoin:miter;stroke-miterlimit:4;stroke-dasharray:none;stroke-opacity:1"
       transform="scale(1.3333333)" />
    <path
       id="path12"
       d="M 100.215,51.238 H 50.383 V 1.953 C 75.305,3.387 97.289,20.5 100.215,51.238 Z"
       style="fill:url(#pattern14);fill-opacity:1;fill-rule:nonzero;stroke:#000000;stroke-width:0.749999;stroke-linecap:butt;stroke-linejoin:miter;stroke-miterlimit:4;stroke-dasharray:none;stroke-opacity:1"
       transform="scale(1.3333333)" />
    <path
       id="path15"
       d="m 127.449,51.238 h 49.832 v 49.285 C 152.359,99.09 130.379,81.977 127.449,51.238 Z"
       style="fill:url(#pattern17);fill-opacity:1;fill-rule:nonzero;stroke:#000000;stroke-width:0.749999;stroke-linecap:butt;stroke-linejoin:miter;stroke-miterlimit:4;stroke-dasharray:none;stroke-opacity:1"
       transform="scale(1.3333333)" />
    <path
       id="path18"
       d="M 349.063,51.238 H 299.23 V 1.953 c 24.922,1.434 46.907,18.547 49.833,49.285 z"
       style="fill:url(#pattern20);fill-opacity:1;fill-rule:nonzero;stroke:#000000;stroke-width:0.749999;stroke-linecap:butt;stroke-linejoin:miter;stroke-miterlimit:4;stroke-dasharray:none;stroke-opacity:1"
       transform="scale(1.3333333)" />
    <path
       id="path21"
       d="M 298.375,101.242 348.379,51.238 H 299.23 Z"
       style="fill:#000000;fill-opacity:1;fill-rule:nonzero;stroke:#000000;stroke-width:0.749999;stroke-linecap:butt;stroke-linejoin:miter;stroke-miterlimit:4;stroke-dasharray:none;stroke-opacity:1"
       transform="scale(1.3333333)" />
    <path
       id="path22"
       d="m 471.535,52.656 c 0,27.516 -22.305,49.821 -49.82,49.821 -27.516,0 -49.82,-22.305 -49.82,-49.821 0,-27.515 22.304,-49.82 49.82,-49.82 27.515,0 49.82,22.305 49.82,49.82 z"
       style="fill:none;stroke:#000000;stroke-width:2.83465;stroke-linecap:butt;stroke-linejoin:miter;stroke-miterlimit:4;stroke-dasharray:none;stroke-opacity:1"
       transform="scale(1.3333333)" />
    <path
       id="path23"
       d="M 471.719,52.656 H 371.711"
       style="fill:none;stroke:#000000;stroke-width:0.749999;stroke-linecap:butt;stroke-linejoin:miter;stroke-miterlimit:4;stroke-dasharray:none;stroke-opacity:1"
       transform="scale(1.3333333)" />
    <path
       id="path24"
       d="M 421.715,102.66 V 2.652"
       style="fill:none;stroke:#000000;stroke-width:0.749999;stroke-linecap:butt;stroke-linejoin:miter;stroke-miterlimit:4;stroke-dasharray:none;stroke-opacity:1"
       transform="scale(1.3333333)" />
    <path
       id="path25"
       d="M 471.719,52.656 H 421.887 V 3.371 c 24.918,1.434 46.902,18.547 49.832,49.285 z"
       style="fill:url(#pattern27);fill-opacity:1;fill-rule:nonzero;stroke:#000000;stroke-width:0.749999;stroke-linecap:butt;stroke-linejoin:miter;stroke-miterlimit:4;stroke-dasharray:none;stroke-opacity:1"
       transform="scale(1.3333333)" />
    <path
       id="path28"
       d="m 371.883,51.801 50.004,50.004 V 52.656 Z"
       style="fill:#000000;fill-opacity:1;fill-rule:nonzero;stroke:#000000;stroke-width:0.749999;stroke-linecap:butt;stroke-linejoin:miter;stroke-miterlimit:4;stroke-dasharray:none;stroke-opacity:1"
       transform="scale(1.3333333)" />
    <path
       id="path29"
       d="m 591.105,52.121 c 0,27.516 -22.304,49.82 -49.82,49.82 -27.515,0 -49.82,-22.304 -49.82,-49.82 0,-27.516 22.305,-49.82 49.82,-49.82 27.516,0 49.82,22.304 49.82,49.82 z"
       style="fill:none;stroke:#000000;stroke-width:2.83465;stroke-linecap:butt;stroke-linejoin:miter;stroke-miterlimit:4;stroke-dasharray:none;stroke-opacity:1"
       transform="scale(1.3333333)" />
    <path
       id="path30"
       d="M 591.289,52.121 H 491.285"
       style="fill:none;stroke:#000000;stroke-width:0.749999;stroke-linecap:butt;stroke-linejoin:miter;stroke-miterlimit:4;stroke-dasharray:none;stroke-opacity:1"
       transform="scale(1.3333333)" />
    <path
       id="path31"
       d="M 541.285,102.121 V 2.117"
       style="fill:none;stroke:#000000;stroke-width:0.749999;stroke-linecap:butt;stroke-linejoin:miter;stroke-miterlimit:4;stroke-dasharray:none;stroke-opacity:1"
       transform="scale(1.3333333)" />
    <path
       id="path32"
       d="m 541.285,2.117 -50,50.004 h 49.145 z"
       style="fill:#000000;fill-opacity:1;fill-rule:nonzero;stroke:#000000;stroke-width:0.749999;stroke-linecap:butt;stroke-linejoin:miter;stroke-miterlimit:4;stroke-dasharray:none;stroke-opacity:1"
       transform="scale(1.3333333)" />
    <path
       id="path33"
       d="M 590.262,52.121 H 540.43 V 2.836 c 24.922,1.434 46.906,18.547 49.832,49.285 z"
       style="fill:url(#pattern35);fill-opacity:1;fill-rule:nonzero;stroke:#000000;stroke-width:0.749999;stroke-linecap:butt;stroke-linejoin:miter;stroke-miterlimit:4;stroke-dasharray:none;stroke-opacity:1"
       transform="scale(1.3333333)" />
    <text
       id="text35"
       xml:space="preserve"
       transform="matrix(1.3333333,0,0,1.3333333,23.974577,171.86758)"><tspan
         id="tspan35"
         style="font-variant:normal;font-weight:normal;font-size:18.9278px;font-family:'DejaVu Sans';writing-mode:lr-tb;fill:#000000;fill-opacity:1;fill-rule:nonzero;stroke:none"
         x="0"
         dx="0 -1.38173"
         y="0">Figura 1</tspan></text>
    <text
       id="text36"
       xml:space="preserve"
       transform="matrix(1.3333333,0,0,1.3333333,194.25997,171.53609)"><tspan
         id="tspan36"
         style="font-variant:normal;font-weight:normal;font-size:18.5204px;font-family:'DejaVu Sans';writing-mode:lr-tb;fill:#000000;fill-opacity:1;fill-rule:nonzero;stroke:none"
         x="0"
         dx="0 -1.3519901"
         y="0">Figura 2</tspan></text>
    <text
       id="text37"
       xml:space="preserve"
       transform="matrix(1.3333333,0,0,1.3333333,351.17265,172.77971)"><tspan
         id="tspan37"
         style="font-variant:normal;font-weight:normal;font-size:19.1873px;font-family:'DejaVu Sans';writing-mode:lr-tb;fill:#000000;fill-opacity:1;fill-rule:nonzero;stroke:none"
         x="0"
         dx="0 -1.4006764"
         y="0">Figura 3</tspan></text>
    <text
       id="text38"
       xml:space="preserve"
       transform="matrix(1.3333333,0,0,1.3333333,518.3565,170.15253)"><tspan
         id="tspan38"
         style="font-variant:normal;font-weight:normal;font-size:18.8732px;font-family:'DejaVu Sans';writing-mode:lr-tb;fill:#000000;fill-opacity:1;fill-rule:nonzero;stroke:none"
         x="0"
         dx="0 -1.3777424 0 0 0 0 0 0 43.748646 -1.3777424"
         y="0">Figura 4Figura 5</tspan></text>
  </g>
</svg>
