<?xml version="1.0" encoding="UTF-8" standalone="no"?>
<!-- Created with Inkscape (http://www.inkscape.org/) -->

<svg
   version="1.1"
   id="svg1"
   width="669.69128"
   height="201.71075"
   viewBox="0 0 669.69128 201.71075"
   sodipodi:docname="upload_afop35hbozp7fdi6gy3l4iqhc2.pdf"
   xmlns:inkscape="http://www.inkscape.org/namespaces/inkscape"
   xmlns:sodipodi="http://sodipodi.sourceforge.net/DTD/sodipodi-0.dtd"
   xmlns="http://www.w3.org/2000/svg"
   xmlns:svg="http://www.w3.org/2000/svg">
  <defs
     id="defs1" />
  <sodipodi:namedview
     id="namedview1"
     pagecolor="#ffffff"
     bordercolor="#000000"
     borderopacity="0.25"
     inkscape:showpageshadow="2"
     inkscape:pageopacity="0.0"
     inkscape:pagecheckerboard="0"
     inkscape:deskcolor="#d1d1d1">
    <inkscape:page
       x="0"
       y="0"
       inkscape:label="1"
       id="page1"
       width="669.69128"
       height="201.71075"
       margin="0"
       bleed="0" />
  </sodipodi:namedview>
  <g
     id="g1"
     inkscape:groupmode="layer"
     inkscape:label="1">
    <path
       id="path1"
       d="m 56.288,127.735 -60.073,-3.644 3.643,-60.07 60.069,3.644 z"
       style="fill:#ffffff;fill-opacity:1;fill-rule:nonzero;stroke:#000000;stroke-width:1.41398;stroke-linecap:butt;stroke-linejoin:miter;stroke-miterlimit:4;stroke-dasharray:none;stroke-opacity:1"
       transform="matrix(1.3333333,-0.09179467,0.09179467,1.3333333,0,0)" />
    <text
       id="text1"
       xml:space="preserve"
       transform="matrix(1.3333333,0,0,1.3333333,-2.413624,196.47924)"><tspan
         id="tspan1"
         style="font-variant:normal;font-weight:normal;font-size:18.5366px;font-family:Verdana;writing-mode:lr-tb;fill:#000000;fill-opacity:1;fill-rule:nonzero;stroke:none"
         x="0"
         dx="0 0 0 0 0 -0.31512269 0 0 32.755444 0 0 0 0 -0.31512269 0 0 34.366909 0 0 0 0 -0.29658604 0 0 32.635624 0 0 0 0 -0.31512269"
         y="0"
         dy="0 0 0 0 0 0 0 0 0.095027469 0 0 0 0 0 0 0 0 0 0 0 0 0 0 0 -0.095027469">Figura 1Figura 2Figura 3Figura 4</tspan></text>
    <path
       id="path2"
       d="M 59.927,67.665 -0.142,64.021 3.497,3.952 63.567,7.591 Z"
       style="fill:#ffffff;fill-opacity:1;fill-rule:nonzero;stroke:#000000;stroke-width:1.41398;stroke-linecap:butt;stroke-linejoin:miter;stroke-miterlimit:4;stroke-dasharray:none;stroke-opacity:1"
       transform="matrix(1.3333333,-0.09179467,0.09179467,1.3333333,0,0)" />
    <path
       id="path3"
       d="m 163.84,134.135 -60.07,-3.639 3.639,-60.07 60.074,3.64 z"
       style="fill:#ffffff;fill-opacity:1;fill-rule:nonzero;stroke:#000000;stroke-width:1.41398;stroke-linecap:butt;stroke-linejoin:miter;stroke-miterlimit:4;stroke-dasharray:none;stroke-opacity:1"
       transform="matrix(1.3333333,-0.09179467,0.09179467,1.3333333,0,0)" />
    <path
       id="path4"
       d="m 167.483,74.066 -60.074,-3.64 3.644,-60.07 60.069,3.64 z"
       style="fill:#ffffff;fill-opacity:1;fill-rule:nonzero;stroke:#000000;stroke-width:1.41398;stroke-linecap:butt;stroke-linejoin:miter;stroke-miterlimit:4;stroke-dasharray:none;stroke-opacity:1"
       transform="matrix(1.3333333,-0.09179467,0.09179467,1.3333333,0,0)" />
    <path
       id="path5"
       d="m 274.316,141.741 -60.07,-3.639 3.64,-60.07 60.073,3.64 z"
       style="fill:#ffffff;fill-opacity:1;fill-rule:nonzero;stroke:#000000;stroke-width:1.41398;stroke-linecap:butt;stroke-linejoin:miter;stroke-miterlimit:4;stroke-dasharray:none;stroke-opacity:1"
       transform="matrix(1.3333333,-0.09179467,0.09179467,1.3333333,0,0)" />
    <path
       id="path6"
       d="m 277.959,81.672 -60.073,-3.64 3.643,-60.07 60.07,3.64 z"
       style="fill:#ffffff;fill-opacity:1;fill-rule:nonzero;stroke:#000000;stroke-width:1.41398;stroke-linecap:butt;stroke-linejoin:miter;stroke-miterlimit:4;stroke-dasharray:none;stroke-opacity:1"
       transform="matrix(1.3333333,-0.09179467,0.09179467,1.3333333,0,0)" />
    <path
       id="path7"
       d="m 381.806,149.141 -60.069,-3.639 3.639,-60.07 60.074,3.64 z"
       style="fill:#ffffff;fill-opacity:1;fill-rule:nonzero;stroke:#000000;stroke-width:1.41398;stroke-linecap:butt;stroke-linejoin:miter;stroke-miterlimit:4;stroke-dasharray:none;stroke-opacity:1"
       transform="matrix(1.3333333,-0.09179467,0.09179467,1.3333333,0,0)" />
    <path
       id="path8"
       d="m 385.45,89.072 -60.074,-3.64 3.644,-60.069 60.069,3.639 z"
       style="fill:#ffffff;fill-opacity:1;fill-rule:nonzero;stroke:#000000;stroke-width:1.41398;stroke-linecap:butt;stroke-linejoin:miter;stroke-miterlimit:4;stroke-dasharray:none;stroke-opacity:1"
       transform="matrix(1.3333333,-0.09179467,0.09179467,1.3333333,0,0)" />
    <path
       id="path9"
       d="m 130.313,44.406 c 0,1.926 -1.559,3.485 -3.481,3.485 -1.926,0 -3.484,-1.559 -3.484,-3.485 0,-1.922 1.558,-3.48 3.484,-3.48 1.922,0 3.481,1.558 3.481,3.48 z"
       style="fill:#000000;fill-opacity:1;fill-rule:nonzero;stroke:#000000;stroke-width:1.41732;stroke-linecap:butt;stroke-linejoin:miter;stroke-miterlimit:4;stroke-dasharray:none;stroke-opacity:1"
       transform="scale(1.3333333)" />
    <path
       id="path10"
       d="m 21.938,17.141 c 0,1.922 -1.559,3.48 -3.481,3.48 -1.926,0 -3.484,-1.558 -3.484,-3.48 0,-1.922 1.558,-3.485 3.484,-3.485 1.922,0 3.481,1.563 3.481,3.485 z"
       style="fill:#000000;fill-opacity:1;fill-rule:nonzero;stroke:#000000;stroke-width:1.41732;stroke-linecap:butt;stroke-linejoin:miter;stroke-miterlimit:4;stroke-dasharray:none;stroke-opacity:1"
       transform="scale(1.3333333)" />
    <path
       id="path11"
       d="m 53.438,17.141 c 0,1.922 -1.559,3.48 -3.481,3.48 -1.926,0 -3.484,-1.558 -3.484,-3.48 0,-1.922 1.558,-3.485 3.484,-3.485 1.922,0 3.481,1.563 3.481,3.485 z"
       style="fill:#000000;fill-opacity:1;fill-rule:nonzero;stroke:#000000;stroke-width:1.41732;stroke-linecap:butt;stroke-linejoin:miter;stroke-miterlimit:4;stroke-dasharray:none;stroke-opacity:1"
       transform="scale(1.3333333)" />
    <path
       id="path12"
       d="m 36.938,33.641 c 0,1.922 -1.559,3.48 -3.481,3.48 -1.926,0 -3.484,-1.558 -3.484,-3.48 0,-1.922 1.558,-3.485 3.484,-3.485 1.922,0 3.481,1.563 3.481,3.485 z"
       style="fill:#000000;fill-opacity:1;fill-rule:nonzero;stroke:#000000;stroke-width:1.41732;stroke-linecap:butt;stroke-linejoin:miter;stroke-miterlimit:4;stroke-dasharray:none;stroke-opacity:1"
       transform="scale(1.3333333)" />
    <path
       id="path13"
       d="m 21.938,51.641 c 0,1.922 -1.559,3.48 -3.481,3.48 -1.926,0 -3.484,-1.558 -3.484,-3.48 0,-1.922 1.558,-3.485 3.484,-3.485 1.922,0 3.481,1.563 3.481,3.485 z"
       style="fill:#000000;fill-opacity:1;fill-rule:nonzero;stroke:#000000;stroke-width:1.41732;stroke-linecap:butt;stroke-linejoin:miter;stroke-miterlimit:4;stroke-dasharray:none;stroke-opacity:1"
       transform="scale(1.3333333)" />
    <path
       id="path14"
       d="m 53.438,51.641 c 0,1.922 -1.559,3.48 -3.481,3.48 -1.926,0 -3.484,-1.558 -3.484,-3.48 0,-1.922 1.558,-3.485 3.484,-3.485 1.922,0 3.481,1.563 3.481,3.485 z"
       style="fill:#000000;fill-opacity:1;fill-rule:nonzero;stroke:#000000;stroke-width:1.41732;stroke-linecap:butt;stroke-linejoin:miter;stroke-miterlimit:4;stroke-dasharray:none;stroke-opacity:1"
       transform="scale(1.3333333)" />
    <path
       id="path15"
       d="m 26.438,84.641 c 0,1.922 -1.559,3.48 -3.481,3.48 -1.926,0 -3.484,-1.558 -3.484,-3.48 0,-1.922 1.558,-3.485 3.484,-3.485 1.922,0 3.481,1.563 3.481,3.485 z"
       style="fill:#000000;fill-opacity:1;fill-rule:nonzero;stroke:#000000;stroke-width:1.41732;stroke-linecap:butt;stroke-linejoin:miter;stroke-miterlimit:4;stroke-dasharray:none;stroke-opacity:1"
       transform="scale(1.3333333)" />
    <path
       id="path16"
       d="m 48.938,84.641 c 0,1.922 -1.559,3.48 -3.481,3.48 -1.926,0 -3.484,-1.558 -3.484,-3.48 0,-1.922 1.558,-3.485 3.484,-3.485 1.922,0 3.481,1.563 3.481,3.485 z"
       style="fill:#000000;fill-opacity:1;fill-rule:nonzero;stroke:#000000;stroke-width:1.41732;stroke-linecap:butt;stroke-linejoin:miter;stroke-miterlimit:4;stroke-dasharray:none;stroke-opacity:1"
       transform="scale(1.3333333)" />
    <path
       id="path17"
       d="m 26.438,105.641 c 0,1.922 -1.559,3.48 -3.481,3.48 -1.926,0 -3.484,-1.558 -3.484,-3.48 0,-1.922 1.558,-3.485 3.484,-3.485 1.922,0 3.481,1.563 3.481,3.485 z"
       style="fill:#000000;fill-opacity:1;fill-rule:nonzero;stroke:#000000;stroke-width:1.41732;stroke-linecap:butt;stroke-linejoin:miter;stroke-miterlimit:4;stroke-dasharray:none;stroke-opacity:1"
       transform="scale(1.3333333)" />
    <path
       id="path18"
       d="m 48.938,105.641 c 0,1.922 -1.559,3.48 -3.481,3.48 -1.926,0 -3.484,-1.558 -3.484,-3.48 0,-1.922 1.558,-3.485 3.484,-3.485 1.922,0 3.481,1.563 3.481,3.485 z"
       style="fill:#000000;fill-opacity:1;fill-rule:nonzero;stroke:#000000;stroke-width:1.41732;stroke-linecap:butt;stroke-linejoin:miter;stroke-miterlimit:4;stroke-dasharray:none;stroke-opacity:1"
       transform="scale(1.3333333)" />
    <path
       id="path19"
       d="m 145.941,28.605 c 0,1.922 -1.558,3.481 -3.48,3.481 -1.922,0 -3.481,-1.559 -3.481,-3.481 0,-1.925 1.559,-3.484 3.481,-3.484 1.922,0 3.48,1.559 3.48,3.484 z"
       style="fill:#000000;fill-opacity:1;fill-rule:nonzero;stroke:#000000;stroke-width:1.41732;stroke-linecap:butt;stroke-linejoin:miter;stroke-miterlimit:4;stroke-dasharray:none;stroke-opacity:1"
       transform="scale(1.3333333)" />
    <path
       id="path20"
       d="m 162.551,13.605 c 0,1.922 -1.559,3.481 -3.485,3.481 -1.921,0 -3.48,-1.559 -3.48,-3.481 0,-1.925 1.559,-3.484 3.48,-3.484 1.926,0 3.485,1.559 3.485,3.484 z"
       style="fill:#000000;fill-opacity:1;fill-rule:nonzero;stroke:#000000;stroke-width:1.41732;stroke-linecap:butt;stroke-linejoin:miter;stroke-miterlimit:4;stroke-dasharray:none;stroke-opacity:1"
       transform="scale(1.3333333)" />
    <path
       id="path21"
       d="m 133.621,82.391 c 0,1.922 -1.558,3.48 -3.48,3.48 -1.926,0 -3.485,-1.558 -3.485,-3.48 0,-1.922 1.559,-3.485 3.485,-3.485 1.922,0 3.48,1.563 3.48,3.485 z"
       style="fill:#000000;fill-opacity:1;fill-rule:nonzero;stroke:#000000;stroke-width:1.41732;stroke-linecap:butt;stroke-linejoin:miter;stroke-miterlimit:4;stroke-dasharray:none;stroke-opacity:1"
       transform="scale(1.3333333)" />
    <path
       id="path22"
       d="m 156.121,82.391 c 0,1.922 -1.558,3.48 -3.48,3.48 -1.926,0 -3.485,-1.558 -3.485,-3.48 0,-1.922 1.559,-3.485 3.485,-3.485 1.922,0 3.48,1.563 3.48,3.485 z"
       style="fill:#000000;fill-opacity:1;fill-rule:nonzero;stroke:#000000;stroke-width:1.41732;stroke-linecap:butt;stroke-linejoin:miter;stroke-miterlimit:4;stroke-dasharray:none;stroke-opacity:1"
       transform="scale(1.3333333)" />
    <path
       id="path23"
       d="m 133.621,103.391 c 0,1.922 -1.558,3.48 -3.48,3.48 -1.926,0 -3.485,-1.558 -3.485,-3.48 0,-1.922 1.559,-3.485 3.485,-3.485 1.922,0 3.48,1.563 3.48,3.485 z"
       style="fill:#000000;fill-opacity:1;fill-rule:nonzero;stroke:#000000;stroke-width:1.41732;stroke-linecap:butt;stroke-linejoin:miter;stroke-miterlimit:4;stroke-dasharray:none;stroke-opacity:1"
       transform="scale(1.3333333)" />
    <path
       id="path24"
       d="m 156.121,103.391 c 0,1.922 -1.558,3.48 -3.48,3.48 -1.926,0 -3.485,-1.558 -3.485,-3.48 0,-1.922 1.559,-3.485 3.485,-3.485 1.922,0 3.48,1.563 3.48,3.485 z"
       style="fill:#000000;fill-opacity:1;fill-rule:nonzero;stroke:#000000;stroke-width:1.41732;stroke-linecap:butt;stroke-linejoin:miter;stroke-miterlimit:4;stroke-dasharray:none;stroke-opacity:1"
       transform="scale(1.3333333)" />
    <path
       id="path25"
       d="m 256.836,93.426 c 0,1.922 -1.559,3.48 -3.481,3.48 -1.925,0 -3.484,-1.558 -3.484,-3.48 0,-1.922 1.559,-3.481 3.484,-3.481 1.922,0 3.481,1.559 3.481,3.481 z"
       style="fill:#000000;fill-opacity:1;fill-rule:nonzero;stroke:#000000;stroke-width:1.41732;stroke-linecap:butt;stroke-linejoin:miter;stroke-miterlimit:4;stroke-dasharray:none;stroke-opacity:1"
       transform="scale(1.3333333)" />
    <path
       id="path26"
       d="m 357.551,42.531 c 0,1.926 -1.559,3.485 -3.485,3.485 -1.921,0 -3.48,-1.559 -3.48,-3.485 0,-1.922 1.559,-3.48 3.48,-3.48 1.926,0 3.485,1.558 3.485,3.48 z"
       style="fill:#000000;fill-opacity:1;fill-rule:nonzero;stroke:#000000;stroke-width:1.41732;stroke-linecap:butt;stroke-linejoin:miter;stroke-miterlimit:4;stroke-dasharray:none;stroke-opacity:1"
       transform="scale(1.3333333)" />
    <path
       id="path27"
       d="m 374.156,21.105 c 0,1.922 -1.558,3.481 -3.48,3.481 -1.922,0 -3.485,-1.559 -3.485,-3.481 0,-1.925 1.563,-3.484 3.485,-3.484 1.922,0 3.48,1.559 3.48,3.484 z"
       style="fill:#000000;fill-opacity:1;fill-rule:nonzero;stroke:#000000;stroke-width:1.41732;stroke-linecap:butt;stroke-linejoin:miter;stroke-miterlimit:4;stroke-dasharray:none;stroke-opacity:1"
       transform="scale(1.3333333)" />
    <path
       id="path28"
       d="m 486.029,154.817 -60.07,-3.64 3.64,-60.07 60.069,3.64 z"
       style="fill:#ffffff;fill-opacity:1;fill-rule:nonzero;stroke:#000000;stroke-width:1.41398;stroke-linecap:butt;stroke-linejoin:miter;stroke-miterlimit:4;stroke-dasharray:none;stroke-opacity:1"
       transform="matrix(1.3333333,-0.09179467,0.09179467,1.3333333,0,0)" />
    <path
       id="path29"
       d="m 489.668,94.747 -60.069,-3.64 3.639,-60.069 60.074,3.639 z"
       style="fill:#ffffff;fill-opacity:1;fill-rule:nonzero;stroke:#000000;stroke-width:1.41398;stroke-linecap:butt;stroke-linejoin:miter;stroke-miterlimit:4;stroke-dasharray:none;stroke-opacity:1"
       transform="matrix(1.3333333,-0.09179467,0.09179467,1.3333333,0,0)" />
    <path
       id="path30"
       d="m 457,46.336 c 0,1.926 -1.559,3.484 -3.484,3.484 -1.922,0 -3.481,-1.558 -3.481,-3.484 0,-1.922 1.559,-3.481 3.481,-3.481 1.925,0 3.484,1.559 3.484,3.481 z"
       style="fill:#000000;fill-opacity:1;fill-rule:nonzero;stroke:#000000;stroke-width:1.41732;stroke-linecap:butt;stroke-linejoin:miter;stroke-miterlimit:4;stroke-dasharray:none;stroke-opacity:1"
       transform="scale(1.3333333)" />
    <path
       id="path31"
       d="m 457,29.73 c 0,1.922 -1.559,3.481 -3.484,3.481 -1.922,0 -3.481,-1.559 -3.481,-3.481 0,-1.925 1.559,-3.484 3.481,-3.484 1.925,0 3.484,1.559 3.484,3.484 z"
       style="fill:#000000;fill-opacity:1;fill-rule:nonzero;stroke:#000000;stroke-width:1.41732;stroke-linecap:butt;stroke-linejoin:miter;stroke-miterlimit:4;stroke-dasharray:none;stroke-opacity:1"
       transform="scale(1.3333333)" />
    <path
       id="path32"
       d="m 453.23,74.57 c 0,1.922 -1.562,3.481 -3.484,3.481 -1.922,0 -3.48,-1.559 -3.48,-3.481 0,-1.925 1.558,-3.484 3.48,-3.484 1.922,0 3.484,1.559 3.484,3.484 z"
       style="fill:#000000;fill-opacity:1;fill-rule:nonzero;stroke:#000000;stroke-width:1.41732;stroke-linecap:butt;stroke-linejoin:miter;stroke-miterlimit:4;stroke-dasharray:none;stroke-opacity:1"
       transform="scale(1.3333333)" />
    <path
       id="path33"
       d="m 484.73,74.57 c 0,1.922 -1.562,3.481 -3.484,3.481 -1.922,0 -3.48,-1.559 -3.48,-3.481 0,-1.925 1.558,-3.484 3.48,-3.484 1.922,0 3.484,1.559 3.484,3.484 z"
       style="fill:#000000;fill-opacity:1;fill-rule:nonzero;stroke:#000000;stroke-width:1.41732;stroke-linecap:butt;stroke-linejoin:miter;stroke-miterlimit:4;stroke-dasharray:none;stroke-opacity:1"
       transform="scale(1.3333333)" />
    <path
       id="path34"
       d="m 468.23,91.07 c 0,1.922 -1.562,3.481 -3.484,3.481 -1.922,0 -3.48,-1.559 -3.48,-3.481 0,-1.925 1.558,-3.484 3.48,-3.484 1.922,0 3.484,1.559 3.484,3.484 z"
       style="fill:#000000;fill-opacity:1;fill-rule:nonzero;stroke:#000000;stroke-width:1.41732;stroke-linecap:butt;stroke-linejoin:miter;stroke-miterlimit:4;stroke-dasharray:none;stroke-opacity:1"
       transform="scale(1.3333333)" />
    <path
       id="path35"
       d="m 453.23,109.07 c 0,1.922 -1.562,3.481 -3.484,3.481 -1.922,0 -3.48,-1.559 -3.48,-3.481 0,-1.925 1.558,-3.484 3.48,-3.484 1.922,0 3.484,1.559 3.484,3.484 z"
       style="fill:#000000;fill-opacity:1;fill-rule:nonzero;stroke:#000000;stroke-width:1.41732;stroke-linecap:butt;stroke-linejoin:miter;stroke-miterlimit:4;stroke-dasharray:none;stroke-opacity:1"
       transform="scale(1.3333333)" />
    <path
       id="path36"
       d="m 484.73,109.07 c 0,1.922 -1.562,3.481 -3.484,3.481 -1.922,0 -3.48,-1.559 -3.48,-3.481 0,-1.925 1.558,-3.484 3.48,-3.484 1.922,0 3.484,1.559 3.484,3.484 z"
       style="fill:#000000;fill-opacity:1;fill-rule:nonzero;stroke:#000000;stroke-width:1.41732;stroke-linecap:butt;stroke-linejoin:miter;stroke-miterlimit:4;stroke-dasharray:none;stroke-opacity:1"
       transform="scale(1.3333333)" />
    <path
       id="path37"
       d="m 457,12.266 c 0,1.922 -1.559,3.48 -3.484,3.48 -1.922,0 -3.481,-1.558 -3.481,-3.48 0,-1.922 1.559,-3.485 3.481,-3.485 1.925,0 3.484,1.563 3.484,3.485 z"
       style="fill:#000000;fill-opacity:1;fill-rule:nonzero;stroke:#000000;stroke-width:1.41732;stroke-linecap:butt;stroke-linejoin:miter;stroke-miterlimit:4;stroke-dasharray:none;stroke-opacity:1"
       transform="scale(1.3333333)" />
    <path
       id="path38"
       d="m 480.598,46.336 c 0,1.926 -1.563,3.484 -3.485,3.484 -1.922,0 -3.48,-1.558 -3.48,-3.484 0,-1.922 1.558,-3.481 3.48,-3.481 1.922,0 3.485,1.559 3.485,3.481 z"
       style="fill:#000000;fill-opacity:1;fill-rule:nonzero;stroke:#000000;stroke-width:1.41732;stroke-linecap:butt;stroke-linejoin:miter;stroke-miterlimit:4;stroke-dasharray:none;stroke-opacity:1"
       transform="scale(1.3333333)" />
    <path
       id="path39"
       d="m 480.598,29.73 c 0,1.922 -1.563,3.481 -3.485,3.481 -1.922,0 -3.48,-1.559 -3.48,-3.481 0,-1.925 1.558,-3.484 3.48,-3.484 1.922,0 3.485,1.559 3.485,3.484 z"
       style="fill:#000000;fill-opacity:1;fill-rule:nonzero;stroke:#000000;stroke-width:1.41732;stroke-linecap:butt;stroke-linejoin:miter;stroke-miterlimit:4;stroke-dasharray:none;stroke-opacity:1"
       transform="scale(1.3333333)" />
    <path
       id="path40"
       d="m 480.598,12.266 c 0,1.922 -1.563,3.48 -3.485,3.48 -1.922,0 -3.48,-1.558 -3.48,-3.48 0,-1.922 1.558,-3.485 3.48,-3.485 1.922,0 3.485,1.563 3.485,3.485 z"
       style="fill:#000000;fill-opacity:1;fill-rule:nonzero;stroke:#000000;stroke-width:1.41732;stroke-linecap:butt;stroke-linejoin:miter;stroke-miterlimit:4;stroke-dasharray:none;stroke-opacity:1"
       transform="scale(1.3333333)" />
    <text
       id="text40"
       xml:space="preserve"
       transform="matrix(1.3333333,0,0,1.3333333,570.09311,193.91767)"><tspan
         id="tspan40"
         style="font-variant:normal;font-weight:normal;font-size:18.5366px;font-family:Verdana;writing-mode:lr-tb;fill:#000000;fill-opacity:1;fill-rule:nonzero;stroke:none"
         x="0"
         dx="0 0 0 0 0 -0.31512269"
         y="0">Figura 5</tspan></text>
  </g>
</svg>
