<?xml version="1.0" encoding="UTF-8" standalone="no"?>
<!-- Created with Inkscape (http://www.inkscape.org/) -->

<svg
   version="1.1"
   id="svg1"
   width="214.66667"
   height="212"
   viewBox="0 0 214.66667 212"
   sodipodi:docname="upload_mfohogp6cmkdhtm7j7bogfejt2.pdf"
   xmlns:inkscape="http://www.inkscape.org/namespaces/inkscape"
   xmlns:sodipodi="http://sodipodi.sourceforge.net/DTD/sodipodi-0.dtd"
   xmlns="http://www.w3.org/2000/svg"
   xmlns:svg="http://www.w3.org/2000/svg">
  <defs
     id="defs1" />
  <sodipodi:namedview
     id="namedview1"
     pagecolor="#ffffff"
     bordercolor="#000000"
     borderopacity="0.25"
     inkscape:showpageshadow="2"
     inkscape:pageopacity="0.0"
     inkscape:pagecheckerboard="0"
     inkscape:deskcolor="#d1d1d1">
    <inkscape:page
       x="0"
       y="0"
       inkscape:label="1"
       id="page1"
       width="214.66667"
       height="212"
       margin="0"
       bleed="0" />
  </sodipodi:namedview>
  <g
     id="g1"
     inkscape:groupmode="layer"
     inkscape:label="1">
    <path
       id="path1"
       d="m 10.824,-55.055 h 94.055 v -94.047 H 10.824 Z"
       style="fill:#ffffff;fill-opacity:1;fill-rule:nonzero;stroke:#231f20;stroke-width:2;stroke-linecap:round;stroke-linejoin:round;stroke-miterlimit:10;stroke-dasharray:none;stroke-opacity:1"
       transform="scale(1.3333333,-1.3333333)" />
    <path
       id="path2"
       d="M 104.688,-55.078 H 10.641 l 48.527,45.98 h 94.047 z"
       style="fill:#ffffff;fill-opacity:1;fill-rule:nonzero;stroke:#231f20;stroke-width:2;stroke-linecap:round;stroke-linejoin:round;stroke-miterlimit:10;stroke-dasharray:none;stroke-opacity:1"
       transform="scale(1.3333333,-1.3333333)" />
    <path
       id="path3"
       d="m 153.121,-103.297 -48.238,-45.801 v 94.047 l 48.238,45.805 z"
       style="fill:#ffffff;fill-opacity:1;fill-rule:nonzero;stroke:#231f20;stroke-width:2;stroke-linecap:round;stroke-linejoin:round;stroke-miterlimit:10;stroke-dasharray:none;stroke-opacity:1"
       transform="scale(1.3333333,-1.3333333)" />
    <path
       id="path4"
       d="M 79,59.5 C 79,48.73 70.27,40 59.5,40 48.73,40 40,48.73 40,59.5 40,70.27 48.73,79 59.5,79 70.27,79 79,70.27 79,59.5"
       style="fill:#ffffff;fill-opacity:1;fill-rule:nonzero;stroke:none"
       transform="matrix(1.3333333,0,0,-1.3333333,0,212)" />
    <path
       id="path5"
       d="M 79,-99.5 C 79,-110.27 70.27,-119 59.5,-119 48.73,-119 40,-110.27 40,-99.5 40,-88.73 48.73,-80 59.5,-80 70.27,-80 79,-88.73 79,-99.5 Z"
       style="fill:none;stroke:#231f20;stroke-width:2;stroke-linecap:round;stroke-linejoin:round;stroke-miterlimit:10;stroke-dasharray:none;stroke-opacity:1"
       transform="scale(1.3333333,-1.3333333)" />
    <path
       id="path6"
       d="m 129,91.598 c 0,0 -1.777,11.09 -10.305,5.613 -8.523,-5.481 -8.109,-17.449 -8.109,-17.449 0.648,-18.758 19.523,-20.262 19.523,-20.262 0,0 17.793,29.758 17.305,43.93 0,0 -0.414,11.968 -8.941,6.488 C 129.949,104.441 129,91.598 129,91.598"
       style="fill:#231f20;fill-opacity:1;fill-rule:nonzero;stroke:none"
       transform="matrix(1.3333333,0,0,-1.3333333,0,212)" />
    <path
       id="path7"
       d="m 129,-67.402 c 0,0 -1.777,11.089 -10.305,5.613 -8.523,-5.481 -8.109,-17.449 -8.109,-17.449 0.648,-18.758 19.523,-20.262 19.523,-20.262 0,0 17.793,29.758 17.305,43.93 0,0 -0.414,11.968 -8.941,6.488 -8.524,-5.477 -9.473,-18.32 -9.473,-18.32 z"
       style="fill:none;stroke:#231f20;stroke-width:2;stroke-linecap:round;stroke-linejoin:round;stroke-miterlimit:10;stroke-dasharray:none;stroke-opacity:1"
       transform="scale(1.3333333,-1.3333333)" />
    <path
       id="path8"
       d="M 92.57,-15.383 51.332,-42.691 h 46.02 z"
       style="fill:#231f20;fill-opacity:1;fill-rule:nonzero;stroke:#231f20;stroke-width:2;stroke-linecap:round;stroke-linejoin:round;stroke-miterlimit:10;stroke-dasharray:none;stroke-opacity:1"
       transform="scale(1.3333333,-1.3333333)" />
  </g>
</svg>
