<?xml version="1.0" encoding="UTF-8" standalone="no"?>
<!-- Created with Inkscape (http://www.inkscape.org/) -->

<svg
   version="1.1"
   id="svg1"
   width="662"
   height="302"
   viewBox="0 0 662 302"
   sodipodi:docname="upload_jnpmpcnvi273onrf3r4vt7ljfd.pdf"
   xmlns:inkscape="http://www.inkscape.org/namespaces/inkscape"
   xmlns:sodipodi="http://sodipodi.sourceforge.net/DTD/sodipodi-0.dtd"
   xmlns="http://www.w3.org/2000/svg"
   xmlns:svg="http://www.w3.org/2000/svg">
  <defs
     id="defs1">
    <clipPath
       clipPathUnits="userSpaceOnUse"
       id="clipPath2">
      <path
         d="M 0,0 H 662 V 302 H 0 Z"
         id="path2" />
    </clipPath>
    <clipPath
       clipPathUnits="userSpaceOnUse"
       id="clipPath4">
      <path
         d="M 0,0 H 662 V 302 H 0 Z"
         id="path4" />
    </clipPath>
    <clipPath
       clipPathUnits="userSpaceOnUse"
       id="clipPath6">
      <path
         d="M 0,0 H 662 V 302 H 0 Z"
         id="path6" />
    </clipPath>
    <clipPath
       clipPathUnits="userSpaceOnUse"
       id="clipPath8">
      <path
         d="M 0,0 H 662 V 302 H 0 Z"
         id="path8" />
    </clipPath>
    <clipPath
       clipPathUnits="userSpaceOnUse"
       id="clipPath10">
      <path
         d="M 0,0 H 662 V 302 H 0 Z"
         id="path10" />
    </clipPath>
    <clipPath
       clipPathUnits="userSpaceOnUse"
       id="clipPath12">
      <path
         d="M 0,0 H 662 V 302 H 0 Z"
         id="path12" />
    </clipPath>
    <clipPath
       clipPathUnits="userSpaceOnUse"
       id="clipPath14">
      <path
         d="M 0,0 H 662 V 302 H 0 Z"
         id="path14" />
    </clipPath>
    <clipPath
       clipPathUnits="userSpaceOnUse"
       id="clipPath16">
      <path
         d="M 0,0 H 662 V 302 H 0 Z"
         id="path16" />
    </clipPath>
    <clipPath
       clipPathUnits="userSpaceOnUse"
       id="clipPath18">
      <path
         d="M 0,0 H 662 V 302 H 0 Z"
         id="path18" />
    </clipPath>
    <clipPath
       clipPathUnits="userSpaceOnUse"
       id="clipPath20">
      <path
         d="M 0,0 H 662 V 302 H 0 Z"
         id="path20" />
    </clipPath>
    <clipPath
       clipPathUnits="userSpaceOnUse"
       id="clipPath22">
      <path
         d="M 0,0 H 662 V 302 H 0 Z"
         transform="rotate(-179.49,110.21741,63.991802)"
         id="path22" />
    </clipPath>
    <clipPath
       clipPathUnits="userSpaceOnUse"
       id="clipPath24">
      <path
         d="M 0,0 H 662 V 302 H 0 Z"
         id="path24" />
    </clipPath>
    <clipPath
       clipPathUnits="userSpaceOnUse"
       id="clipPath26">
      <path
         d="M 0,0 H 662 V 302 H 0 Z"
         id="path26" />
    </clipPath>
    <clipPath
       clipPathUnits="userSpaceOnUse"
       id="clipPath28">
      <path
         d="M 0,0 H 662 V 302 H 0 Z"
         id="path28" />
    </clipPath>
    <clipPath
       clipPathUnits="userSpaceOnUse"
       id="clipPath30">
      <path
         d="M 0,0 H 662 V 302 H 0 Z"
         id="path30" />
    </clipPath>
    <clipPath
       clipPathUnits="userSpaceOnUse"
       id="clipPath32">
      <path
         d="M 0,0 H 662 V 302 H 0 Z"
         id="path32" />
    </clipPath>
    <clipPath
       clipPathUnits="userSpaceOnUse"
       id="clipPath34">
      <path
         d="M 0,0 H 662 V 302 H 0 Z"
         id="path34" />
    </clipPath>
    <clipPath
       clipPathUnits="userSpaceOnUse"
       id="clipPath36">
      <path
         d="M 0,0 H 662 V 302 H 0 Z"
         id="path36" />
    </clipPath>
    <clipPath
       clipPathUnits="userSpaceOnUse"
       id="clipPath38">
      <path
         d="M 0,0 H 662 V 302 H 0 Z"
         id="path38" />
    </clipPath>
    <clipPath
       clipPathUnits="userSpaceOnUse"
       id="clipPath40">
      <path
         d="M 0,0 H 662 V 302 H 0 Z"
         id="path40" />
    </clipPath>
    <clipPath
       clipPathUnits="userSpaceOnUse"
       id="clipPath42">
      <path
         d="M 0,0 H 662 V 302 H 0 Z"
         id="path42" />
    </clipPath>
    <clipPath
       clipPathUnits="userSpaceOnUse"
       id="clipPath44">
      <path
         d="M 0,0 H 662 V 302 H 0 Z"
         id="path44" />
    </clipPath>
    <clipPath
       clipPathUnits="userSpaceOnUse"
       id="clipPath46">
      <path
         d="M 0,0 H 662 V 302 H 0 Z"
         id="path46" />
    </clipPath>
    <clipPath
       clipPathUnits="userSpaceOnUse"
       id="clipPath48">
      <path
         d="M 0,0 H 662 V 302 H 0 Z"
         id="path48" />
    </clipPath>
    <clipPath
       clipPathUnits="userSpaceOnUse"
       id="clipPath50">
      <path
         d="M 0,0 H 662 V 302 H 0 Z"
         id="path50" />
    </clipPath>
    <clipPath
       clipPathUnits="userSpaceOnUse"
       id="clipPath52">
      <path
         d="M 0,0 H 662 V 302 H 0 Z"
         id="path52" />
    </clipPath>
    <clipPath
       clipPathUnits="userSpaceOnUse"
       id="clipPath54">
      <path
         d="M 0,0 H 662 V 302 H 0 Z"
         id="path54" />
    </clipPath>
    <clipPath
       clipPathUnits="userSpaceOnUse"
       id="clipPath56">
      <path
         d="M 0,0 H 662 V 302 H 0 Z"
         id="path56" />
    </clipPath>
    <clipPath
       clipPathUnits="userSpaceOnUse"
       id="clipPath58">
      <path
         d="M 0,0 H 660 V 300 H 0 Z"
         transform="translate(-308,-75.76575)"
         id="path58" />
    </clipPath>
    <clipPath
       clipPathUnits="userSpaceOnUse"
       id="clipPath60">
      <path
         d="M 0,0 H 660 V 300 H 0 Z"
         transform="translate(-316.664,-75.76575)"
         id="path60" />
    </clipPath>
    <clipPath
       clipPathUnits="userSpaceOnUse"
       id="clipPath62">
      <path
         d="M 0,0 H 660 V 300 H 0 Z"
         transform="translate(-323.336,-75.76575)"
         id="path62" />
    </clipPath>
    <clipPath
       clipPathUnits="userSpaceOnUse"
       id="clipPath64">
      <path
         d="M 0,0 H 660 V 300 H 0 Z"
         transform="translate(-330.008,-75.76575)"
         id="path64" />
    </clipPath>
    <clipPath
       clipPathUnits="userSpaceOnUse"
       id="clipPath66">
      <path
         d="M 0,0 H 660 V 300 H 0 Z"
         transform="translate(-336.68,-75.76575)"
         id="path66" />
    </clipPath>
    <clipPath
       clipPathUnits="userSpaceOnUse"
       id="clipPath68">
      <path
         d="M 0,0 H 660 V 300 H 0 Z"
         transform="translate(-339.344,-75.76575)"
         id="path68" />
    </clipPath>
    <clipPath
       clipPathUnits="userSpaceOnUse"
       id="clipPath70">
      <path
         d="M 0,0 H 660 V 300 H 0 Z"
         transform="translate(-349.352,-75.76575)"
         id="path70" />
    </clipPath>
    <clipPath
       clipPathUnits="userSpaceOnUse"
       id="clipPath72">
      <path
         d="M 0,0 H 660 V 300 H 0 Z"
         transform="translate(-356.024,-75.76575)"
         id="path72" />
    </clipPath>
    <clipPath
       clipPathUnits="userSpaceOnUse"
       id="clipPath74">
      <path
         d="M 0,0 H 660 V 300 H 0 Z"
         transform="translate(-308,-92.562625)"
         id="path74" />
    </clipPath>
    <clipPath
       clipPathUnits="userSpaceOnUse"
       id="clipPath76">
      <path
         d="M 0,0 H 660 V 300 H 0 Z"
         transform="translate(-310.664,-92.562625)"
         id="path76" />
    </clipPath>
    <clipPath
       clipPathUnits="userSpaceOnUse"
       id="clipPath78">
      <path
         d="M 0,0 H 660 V 300 H 0 Z"
         transform="translate(-317.336,-92.562625)"
         id="path78" />
    </clipPath>
    <clipPath
       clipPathUnits="userSpaceOnUse"
       id="clipPath80">
      <path
         d="M 0,0 H 660 V 300 H 0 Z"
         transform="translate(-324.008,-92.562625)"
         id="path80" />
    </clipPath>
    <clipPath
       clipPathUnits="userSpaceOnUse"
       id="clipPath82">
      <path
         d="M 0,0 H 660 V 300 H 0 Z"
         transform="translate(-330.68,-92.562625)"
         id="path82" />
    </clipPath>
    <clipPath
       clipPathUnits="userSpaceOnUse"
       id="clipPath84">
      <path
         d="M 0,0 H 660 V 300 H 0 Z"
         transform="translate(-334.016,-92.562625)"
         id="path84" />
    </clipPath>
    <clipPath
       clipPathUnits="userSpaceOnUse"
       id="clipPath86">
      <path
         d="M 0,0 H 660 V 300 H 0 Z"
         transform="translate(-336.68,-92.562625)"
         id="path86" />
    </clipPath>
    <clipPath
       clipPathUnits="userSpaceOnUse"
       id="clipPath88">
      <path
         d="M 0,0 H 660 V 300 H 0 Z"
         transform="translate(-343.352,-92.562625)"
         id="path88" />
    </clipPath>
    <clipPath
       clipPathUnits="userSpaceOnUse"
       id="clipPath90">
      <path
         d="M 0,0 H 660 V 300 H 0 Z"
         transform="translate(-350.024,-92.562625)"
         id="path90" />
    </clipPath>
    <clipPath
       clipPathUnits="userSpaceOnUse"
       id="clipPath92">
      <path
         d="M 0,0 H 660 V 300 H 0 Z"
         transform="translate(-311,-153.7755)"
         id="path92" />
    </clipPath>
    <clipPath
       clipPathUnits="userSpaceOnUse"
       id="clipPath94">
      <path
         d="M 0,0 H 660 V 300 H 0 Z"
         transform="translate(-318.581,-153.7755)"
         id="path94" />
    </clipPath>
    <clipPath
       clipPathUnits="userSpaceOnUse"
       id="clipPath96">
      <path
         d="M 0,0 H 660 V 300 H 0 Z"
         transform="translate(-324.419,-153.7755)"
         id="path96" />
    </clipPath>
    <clipPath
       clipPathUnits="userSpaceOnUse"
       id="clipPath98">
      <path
         d="M 0,0 H 660 V 300 H 0 Z"
         transform="translate(-333.1655,-153.7755)"
         id="path98" />
    </clipPath>
    <clipPath
       clipPathUnits="userSpaceOnUse"
       id="clipPath100">
      <path
         d="M 0,0 H 660 V 300 H 0 Z"
         transform="translate(-339.0035,-153.7755)"
         id="path100" />
    </clipPath>
    <clipPath
       clipPathUnits="userSpaceOnUse"
       id="clipPath102">
      <path
         d="M 0,0 H 660 V 300 H 0 Z"
         transform="translate(-342.5,-153.7755)"
         id="path102" />
    </clipPath>
    <clipPath
       clipPathUnits="userSpaceOnUse"
       id="clipPath104">
      <path
         d="M 0,0 H 660 V 300 H 0 Z"
         transform="translate(-348.338,-153.7755)"
         id="path104" />
    </clipPath>
    <clipPath
       clipPathUnits="userSpaceOnUse"
       id="clipPath106">
      <path
         d="M 0,0 H 660 V 300 H 0 Z"
         transform="translate(-353.651,-153.7755)"
         id="path106" />
    </clipPath>
    <clipPath
       clipPathUnits="userSpaceOnUse"
       id="clipPath108">
      <path
         d="M 0,0 H 660 V 300 H 0 Z"
         transform="translate(-358.691,-153.7755)"
         id="path108" />
    </clipPath>
    <clipPath
       clipPathUnits="userSpaceOnUse"
       id="clipPath110">
      <path
         d="M 0,0 H 660 V 300 H 0 Z"
         transform="translate(-364.529,-153.7755)"
         id="path110" />
    </clipPath>
    <clipPath
       clipPathUnits="userSpaceOnUse"
       id="clipPath112">
      <path
         d="M 0,0 H 660 V 300 H 0 Z"
         transform="translate(-370.367,-153.7755)"
         id="path112" />
    </clipPath>
    <clipPath
       clipPathUnits="userSpaceOnUse"
       id="clipPath114">
      <path
         d="M 0,0 H 660 V 300 H 0 Z"
         transform="translate(-311,-168.463)"
         id="path114" />
    </clipPath>
    <clipPath
       clipPathUnits="userSpaceOnUse"
       id="clipPath116">
      <path
         d="M 0,0 H 660 V 300 H 0 Z"
         transform="translate(-318.0035,-168.463)"
         id="path116" />
    </clipPath>
    <clipPath
       clipPathUnits="userSpaceOnUse"
       id="clipPath118">
      <path
         d="M 0,0 H 660 V 300 H 0 Z"
         transform="translate(-323.8415,-168.463)"
         id="path118" />
    </clipPath>
    <clipPath
       clipPathUnits="userSpaceOnUse"
       id="clipPath120">
      <path
         d="M 0,0 H 660 V 300 H 0 Z"
         transform="translate(-329.6795,-168.463)"
         id="path120" />
    </clipPath>
    <clipPath
       clipPathUnits="userSpaceOnUse"
       id="clipPath122">
      <path
         d="M 0,0 H 660 V 300 H 0 Z"
         transform="translate(-332.0105,-168.463)"
         id="path122" />
    </clipPath>
    <clipPath
       clipPathUnits="userSpaceOnUse"
       id="clipPath124">
      <path
         d="M 0,0 H 660 V 300 H 0 Z"
         transform="translate(-334.3415,-168.463)"
         id="path124" />
    </clipPath>
    <clipPath
       clipPathUnits="userSpaceOnUse"
       id="clipPath126">
      <path
         d="M 0,0 H 660 V 300 H 0 Z"
         transform="translate(-336.6725,-168.463)"
         id="path126" />
    </clipPath>
    <clipPath
       clipPathUnits="userSpaceOnUse"
       id="clipPath128">
      <path
         d="M 0,0 H 660 V 300 H 0 Z"
         transform="translate(-342.5105,-168.463)"
         id="path128" />
    </clipPath>
    <clipPath
       clipPathUnits="userSpaceOnUse"
       id="clipPath130">
      <path
         d="M 0,0 H 660 V 300 H 0 Z"
         transform="translate(-348.3485,-168.463)"
         id="path130" />
    </clipPath>
    <clipPath
       clipPathUnits="userSpaceOnUse"
       id="clipPath132">
      <path
         d="M 0,0 H 660 V 300 H 0 Z"
         transform="translate(-353.5985,-168.463)"
         id="path132" />
    </clipPath>
    <clipPath
       clipPathUnits="userSpaceOnUse"
       id="clipPath134">
      <path
         d="M 0,0 H 660 V 300 H 0 Z"
         transform="translate(-358.9115,-168.463)"
         id="path134" />
    </clipPath>
    <clipPath
       clipPathUnits="userSpaceOnUse"
       id="clipPath136">
      <path
         d="M 0,0 H 660 V 300 H 0 Z"
         transform="translate(-367.658,-168.463)"
         id="path136" />
    </clipPath>
    <clipPath
       clipPathUnits="userSpaceOnUse"
       id="clipPath138">
      <path
         d="M 0,0 H 660 V 300 H 0 Z"
         transform="translate(-373.496,-168.463)"
         id="path138" />
    </clipPath>
    <clipPath
       clipPathUnits="userSpaceOnUse"
       id="clipPath140">
      <path
         d="M 0,0 H 660 V 300 H 0 Z"
         transform="translate(-376.8875,-168.463)"
         id="path140" />
    </clipPath>
    <clipPath
       clipPathUnits="userSpaceOnUse"
       id="clipPath142">
      <path
         d="M 0,0 H 660 V 300 H 0 Z"
         transform="translate(-385.6445,-168.463)"
         id="path142" />
    </clipPath>
    <clipPath
       clipPathUnits="userSpaceOnUse"
       id="clipPath144">
      <path
         d="M 0,0 H 660 V 300 H 0 Z"
         transform="translate(-392.123,-168.463)"
         id="path144" />
    </clipPath>
    <clipPath
       clipPathUnits="userSpaceOnUse"
       id="clipPath146">
      <path
         d="M 0,0 H 660 V 300 H 0 Z"
         transform="translate(-397.961,-168.463)"
         id="path146" />
    </clipPath>
    <clipPath
       clipPathUnits="userSpaceOnUse"
       id="clipPath148">
      <path
         d="M 0,0 H 660 V 300 H 0 Z"
         transform="translate(-401.4575,-168.463)"
         id="path148" />
    </clipPath>
    <clipPath
       clipPathUnits="userSpaceOnUse"
       id="clipPath150">
      <path
         d="M 0,0 H 660 V 300 H 0 Z"
         transform="translate(-404.849,-168.463)"
         id="path150" />
    </clipPath>
    <clipPath
       clipPathUnits="userSpaceOnUse"
       id="clipPath152">
      <path
         d="M 0,0 H 660 V 300 H 0 Z"
         transform="translate(-410.687,-168.463)"
         id="path152" />
    </clipPath>
  </defs>
  <sodipodi:namedview
     id="namedview1"
     pagecolor="#ffffff"
     bordercolor="#000000"
     borderopacity="0.25"
     inkscape:showpageshadow="2"
     inkscape:pageopacity="0.0"
     inkscape:pagecheckerboard="0"
     inkscape:deskcolor="#d1d1d1">
    <inkscape:page
       x="0"
       y="0"
       inkscape:label="1"
       id="page1"
       width="662"
       height="302"
       margin="0"
       bleed="0" />
  </sodipodi:namedview>
  <g
     id="g1"
     inkscape:groupmode="layer"
     inkscape:label="1">
    <path
       id="path1"
       d="M 34,67 C 34,54.85 43.4,45 55,45 66.6,45 76,54.85 76,67 76,79.15 66.6,89 55,89 43.4,89 34,79.15 34,67 Z"
       style="fill:none;stroke:#000000;stroke-width:4;stroke-linecap:butt;stroke-linejoin:miter;stroke-miterlimit:4;stroke-dasharray:none;stroke-opacity:1"
       clip-path="url(#clipPath2)" />
    <path
       id="path3"
       d="m 45.76,59.52 c 0,-1.22 0.94,-2.2 2.1,-2.2 1.16,0 2.1,0.98 2.1,2.2 0,1.22 -0.94,2.2 -2.1,2.2 -1.16,0 -2.1,-0.98 -2.1,-2.2 z"
       style="fill:none;stroke:#000000;stroke-width:4;stroke-linecap:butt;stroke-linejoin:miter;stroke-miterlimit:4;stroke-dasharray:none;stroke-opacity:1"
       clip-path="url(#clipPath4)" />
    <path
       id="path5"
       d="m 60.04,59.52 c 0,-1.22 0.94,-2.2 2.1,-2.2 1.16,0 2.1,0.98 2.1,2.2 0,1.22 -0.94,2.2 -2.1,2.2 -1.16,0 -2.1,-0.98 -2.1,-2.2 z"
       style="fill:none;stroke:#000000;stroke-width:4;stroke-linecap:butt;stroke-linejoin:miter;stroke-miterlimit:4;stroke-dasharray:none;stroke-opacity:1"
       clip-path="url(#clipPath6)" />
    <path
       id="path7"
       d="m 44.5,75.8 c 7,5.87 14,5.87 21,0"
       style="fill:none;stroke:#000000;stroke-width:4;stroke-linecap:butt;stroke-linejoin:miter;stroke-miterlimit:4;stroke-dasharray:none;stroke-opacity:1"
       clip-path="url(#clipPath8)" />
    <path
       id="path9"
       d="m 56,89 v 95"
       style="fill:none;stroke:#000000;stroke-width:4;stroke-linecap:butt;stroke-linejoin:miter;stroke-miterlimit:4;stroke-dasharray:none;stroke-opacity:1"
       clip-path="url(#clipPath10)" />
    <path
       id="path11"
       d="m 57,124 c 16,5 26,1 27,-26"
       style="fill:none;stroke:#000000;stroke-width:4;stroke-linecap:butt;stroke-linejoin:miter;stroke-miterlimit:4;stroke-dasharray:none;stroke-opacity:1"
       clip-path="url(#clipPath12)" />
    <path
       id="path13"
       d="M 57,124 39,156"
       style="fill:none;stroke:#000000;stroke-width:4;stroke-linecap:butt;stroke-linejoin:miter;stroke-miterlimit:4;stroke-dasharray:none;stroke-opacity:1"
       clip-path="url(#clipPath14)" />
    <path
       id="path15"
       d="M 56,184 38,216"
       style="fill:none;stroke:#000000;stroke-width:4;stroke-linecap:butt;stroke-linejoin:miter;stroke-miterlimit:4;stroke-dasharray:none;stroke-opacity:1"
       clip-path="url(#clipPath16)" />
    <path
       id="path17"
       d="M 75,215 56,184"
       style="fill:none;stroke:#000000;stroke-width:4;stroke-linecap:butt;stroke-linejoin:miter;stroke-miterlimit:4;stroke-dasharray:none;stroke-opacity:1"
       clip-path="url(#clipPath18)" />
    <path
       id="path19"
       d="m 109,128 11.03,-0.1 92.97,-0.83"
       style="fill:none;stroke:#000000;stroke-width:6;stroke-linecap:butt;stroke-linejoin:miter;stroke-miterlimit:4;stroke-dasharray:none;stroke-opacity:1"
       clip-path="url(#clipPath20)" />
    <path
       id="path21"
       d="M 24.11,-11.58 0,0 24.11,11.58 Z"
       style="fill:#000000;fill-opacity:1;fill-rule:nonzero;stroke:none"
       transform="rotate(179.49,110.21741,63.991802)"
       clip-path="url(#clipPath22)" />
    <path
       id="path23"
       d="M 264,82.6 C 264,68.46 275.46,57 289.6,57 h 158.8 c 14.14,0 25.6,11.46 25.6,25.6 v 76.8 c 0,14.14 -11.46,25.6 -25.6,25.6 H 289.6 C 275.46,185 264,173.54 264,159.4 Z"
       style="fill:none;stroke:#000000;stroke-width:1;stroke-linecap:butt;stroke-linejoin:miter;stroke-miterlimit:4;stroke-dasharray:none;stroke-opacity:1"
       clip-path="url(#clipPath24)" />
    <path
       id="path25"
       d="m 382,73 h 70 v 54 h -70 z"
       style="fill:none;stroke:#000000;stroke-width:1;stroke-linecap:butt;stroke-linejoin:miter;stroke-miterlimit:4;stroke-dasharray:none;stroke-opacity:1"
       clip-path="url(#clipPath26)" />
    <path
       id="path27"
       d="m 397,99.5 c 0,-10.77 8.51,-19.5 19,-19.5 10.49,0 19,8.73 19,19.5 0,10.77 -8.51,19.5 -19,19.5 -10.49,0 -19,-8.73 -19,-19.5 z"
       style="fill:none;stroke:#000000;stroke-width:1;stroke-linecap:butt;stroke-linejoin:miter;stroke-miterlimit:4;stroke-dasharray:none;stroke-opacity:1"
       clip-path="url(#clipPath28)" />
    <path
       id="path29"
       d="m 407.64,92.87 c 0,-1.08 0.85,-1.95 1.9,-1.95 1.05,0 1.9,0.87 1.9,1.95 0,1.08 -0.85,1.95 -1.9,1.95 -1.05,0 -1.9,-0.87 -1.9,-1.95 z"
       style="fill:none;stroke:#000000;stroke-width:1;stroke-linecap:butt;stroke-linejoin:miter;stroke-miterlimit:4;stroke-dasharray:none;stroke-opacity:1"
       clip-path="url(#clipPath30)" />
    <path
       id="path31"
       d="m 420.56,92.87 c 0,-1.08 0.85,-1.95 1.9,-1.95 1.05,0 1.9,0.87 1.9,1.95 0,1.08 -0.85,1.95 -1.9,1.95 -1.05,0 -1.9,-0.87 -1.9,-1.95 z"
       style="fill:none;stroke:#000000;stroke-width:1;stroke-linecap:butt;stroke-linejoin:miter;stroke-miterlimit:4;stroke-dasharray:none;stroke-opacity:1"
       clip-path="url(#clipPath32)" />
    <path
       id="path33"
       d="m 406.5,107.3 c 6.33,5.2 12.67,5.2 19,0"
       style="fill:none;stroke:#000000;stroke-width:1;stroke-linecap:butt;stroke-linejoin:miter;stroke-miterlimit:4;stroke-dasharray:none;stroke-opacity:1"
       clip-path="url(#clipPath34)" />
    <path
       id="path35"
       d="m 416,119 v 8"
       style="fill:none;stroke:#000000;stroke-width:1;stroke-linecap:butt;stroke-linejoin:miter;stroke-miterlimit:4;stroke-dasharray:none;stroke-opacity:1"
       clip-path="url(#clipPath36)" />
    <path
       id="path37"
       d="m 276,69 h 29 v 19 h -29 z"
       style="fill:none;stroke:#000000;stroke-width:1;stroke-linecap:butt;stroke-linejoin:miter;stroke-miterlimit:4;stroke-dasharray:none;stroke-opacity:1"
       clip-path="url(#clipPath38)" />
    <path
       id="path39"
       d="m 276,69 h 29 v 2.85 h -29 z"
       style="fill:none;stroke:#000000;stroke-width:1;stroke-linecap:butt;stroke-linejoin:miter;stroke-miterlimit:4;stroke-dasharray:none;stroke-opacity:1"
       clip-path="url(#clipPath40)" />
    <path
       id="path41"
       d="m 276,71.85 h 29 v 2.85 h -29 z"
       style="fill:none;stroke:#000000;stroke-width:1;stroke-linecap:butt;stroke-linejoin:miter;stroke-miterlimit:4;stroke-dasharray:none;stroke-opacity:1"
       clip-path="url(#clipPath42)" />
    <path
       id="path43"
       d="m 276,85.15 h 29 V 88 h -29 z"
       style="fill:none;stroke:#000000;stroke-width:1;stroke-linecap:butt;stroke-linejoin:miter;stroke-miterlimit:4;stroke-dasharray:none;stroke-opacity:1"
       clip-path="url(#clipPath44)" />
    <path
       id="path45"
       d="m 276,82.3 h 29 v 2.85 h -29 z"
       style="fill:none;stroke:#000000;stroke-width:1;stroke-linecap:butt;stroke-linejoin:miter;stroke-miterlimit:4;stroke-dasharray:none;stroke-opacity:1"
       clip-path="url(#clipPath46)" />
    <path
       id="path47"
       d="m 438,154 h 17 v 12 h -17 z"
       style="fill:none;stroke:#000000;stroke-width:1;stroke-linecap:butt;stroke-linejoin:miter;stroke-miterlimit:4;stroke-dasharray:none;stroke-opacity:1"
       clip-path="url(#clipPath48)" />
    <path
       id="path49"
       d="m 438,154 h 17 v 1.8 h -17 z"
       style="fill:none;stroke:#000000;stroke-width:1;stroke-linecap:butt;stroke-linejoin:miter;stroke-miterlimit:4;stroke-dasharray:none;stroke-opacity:1"
       clip-path="url(#clipPath50)" />
    <path
       id="path51"
       d="m 438,155.8 h 17 v 1.8 h -17 z"
       style="fill:none;stroke:#000000;stroke-width:1;stroke-linecap:butt;stroke-linejoin:miter;stroke-miterlimit:4;stroke-dasharray:none;stroke-opacity:1"
       clip-path="url(#clipPath52)" />
    <path
       id="path53"
       d="m 438,164.2 h 17 v 1.8 h -17 z"
       style="fill:none;stroke:#000000;stroke-width:1;stroke-linecap:butt;stroke-linejoin:miter;stroke-miterlimit:4;stroke-dasharray:none;stroke-opacity:1"
       clip-path="url(#clipPath54)" />
    <path
       id="path55"
       d="m 438,162.4 h 17 v 1.8 h -17 z"
       style="fill:none;stroke:#000000;stroke-width:1;stroke-linecap:butt;stroke-linejoin:miter;stroke-miterlimit:4;stroke-dasharray:none;stroke-opacity:1"
       clip-path="url(#clipPath56)" />
    <path
       id="path57"
       d="M 7.9375,-6.031375 C 7.59375,-7.95325 6.484375,-8.89075 4.578125,-8.89075 c -1.1875,0 -2.125,0.375 -2.78125,1.09375 -0.78125,0.859375 -1.21875,2.109375 -1.21875,3.53125 0,1.4375 0.4375,2.671875 1.265625,3.515625 0.671875,0.703125 1.546875,1.03125 2.6875,1.03125 2.125,0 3.328125,-1.15625 3.59375,-3.46875 H 6.96875 c -0.09375,0.59375 -0.21875,1 -0.390625,1.34375 C 6.21875,-1.1095 5.46875,-0.70325 4.53125,-0.70325 c -1.734375,0 -2.84375,-1.390625 -2.84375,-3.578125 0,-2.25 1.046875,-3.625 2.75,-3.625 0.703125,0 1.375,0.203125 1.734375,0.546875 0.3125,0.296875 0.5,0.65625 0.625,1.328125 z m 0,0"
       style="fill:#000000;fill-opacity:1;fill-rule:nonzero;stroke:none"
       aria-label="C"
       transform="translate(308,75.76575)"
       clip-path="url(#clipPath58)" />
    <path
       id="path59"
       d="m 6.1563125,-2.812625 c 0,-0.953125 -0.078125,-1.53125 -0.25,-2 -0.40625,-1.03125 -1.375,-1.65625 -2.546875,-1.65625 -1.75,0 -2.875,1.328125 -2.875,3.40625 0,2.078125 1.078125,3.34375 2.859375,3.34375 1.4375,0 2.421875,-0.828125 2.6875,-2.1875 h -1.015625 c -0.28125,0.828125 -0.84375,1.265625 -1.640625,1.265625 -0.640625,0 -1.171875,-0.296875 -1.515625,-0.828125 -0.234375,-0.359375 -0.328125,-0.71875 -0.328125,-1.34375 z m -4.609375,-0.8125 c 0.078125,-1.15625 0.796875,-1.921875 1.796875,-1.921875 1.03125,0 1.734375,0.796875 1.734375,1.921875 z m 2.15625,-5.25 -1.15625,1.765625 h 0.71875 l 1.78125,-1.765625 z m 0,0"
       style="fill:#000000;fill-opacity:1;fill-rule:nonzero;stroke:none"
       aria-label="é"
       transform="translate(316.664,75.76575)"
       clip-path="url(#clipPath60)" />
    <path
       id="path61"
       d="m 5.9374375,-8.750125 h -1 v 3.25 c -0.40625,-0.625 -1.078125,-0.96875 -1.921875,-0.96875 -1.640625,0 -2.703125,1.3125 -2.703125,3.3125 0,2.125 1.03125,3.4375 2.734375,3.4375 0.859375,0 1.46875,-0.328125 2,-1.109375 v 0.828125 h 0.890625 z m -2.75,3.21875 c 1.078125,0 1.75,0.953125 1.75,2.453125 0,1.453125 -0.6875,2.421875 -1.75,2.421875 -1.09375,0 -1.828125,-0.96875 -1.828125,-2.4375 0,-1.46875 0.734375,-2.4375 1.828125,-2.4375 z m 0,0"
       style="fill:#000000;fill-opacity:1;fill-rule:nonzero;stroke:none"
       aria-label="d"
       transform="translate(323.336,75.76575)"
       clip-path="url(#clipPath62)" />
    <path
       id="path63"
       d="m 5.7810625,-1.25e-4 v -6.28125 h -1 v 3.5625 c 0,1.28125 -0.671875,2.125 -1.703125,2.125 -0.796875,0 -1.296875,-0.484375 -1.296875,-1.25 v -4.4375 h -1 v 4.84375 c 0,1.046875 0.78125,1.71875 2,1.71875 0.921875,0 1.515625,-0.328125 2.109375,-1.15625 v 0.875 z m 0,0"
       style="fill:#000000;fill-opacity:1;fill-rule:nonzero;stroke:none"
       aria-label="u"
       transform="translate(330.008,75.76575)"
       clip-path="url(#clipPath64)" />
    <path
       id="path65"
       d="m 1.8278125,-8.750125 h -1.015625 v 8.75 h 1.015625 z m 0,0"
       style="fill:#000000;fill-opacity:1;fill-rule:nonzero;stroke:none"
       aria-label="l"
       transform="translate(336.68,75.76575)"
       clip-path="url(#clipPath66)" />
    <path
       id="path67"
       d="m 6.421625,-0.593875 c -0.109375,0.03125 -0.15625,0.03125 -0.21875,0.03125 -0.34375,0 -0.546875,-0.1875 -0.546875,-0.5 v -3.6875 c 0,-1.125 -0.8125,-1.71875 -2.359375,-1.71875 -0.921875,0 -1.65625,0.265625 -2.078125,0.734375 C 0.921625,-5.406375 0.796625,-5.047 0.781,-4.422 h 1 c 0.09375,-0.78125 0.546875,-1.125 1.484375,-1.125 0.90625,0 1.40625,0.34375 1.40625,0.9375 v 0.265625 C 4.656,-3.906375 4.43725,-3.750125 3.62475,-3.64075 2.202875,-3.468875 1.984125,-3.422 1.609125,-3.26575 0.87475,-2.95325 0.49975,-2.406375 0.49975,-1.57825 c 0,1.140625 0.796875,1.859375 2.0625,1.859375 0.796875,0 1.4375,-0.28125 2.140625,-0.921875 0.078125,0.640625 0.390625,0.921875 1.03125,0.921875 0.21875,0 0.34375,-0.03125 0.6875,-0.109375 z m -1.75,-1.390625 c 0,0.34375 -0.09375,0.546875 -0.40625,0.828125 -0.40625,0.359375 -0.890625,0.5625 -1.484375,0.5625 -0.78125,0 -1.234375,-0.375 -1.234375,-1.015625 0,-0.65625 0.4375,-1 1.515625,-1.15625 1.0625,-0.140625 1.265625,-0.1875 1.609375,-0.34375 z m 0,0"
       style="fill:#000000;fill-opacity:1;fill-rule:nonzero;stroke:none"
       aria-label="a"
       transform="translate(339.344,75.76575)"
       clip-path="url(#clipPath68)" />
    <path
       id="path69"
       d="m 5.9370625,-8.750125 h -1 v 3.25 c -0.40625,-0.625 -1.078125,-0.96875 -1.921875,-0.96875 -1.640625,0 -2.703125,1.3125 -2.703125,3.3125 0,2.125 1.03125,3.4375 2.734375,3.4375 0.859375,0 1.46875,-0.328125 2,-1.109375 v 0.828125 h 0.890625 z m -2.75,3.21875 c 1.078125,0 1.75,0.953125 1.75,2.453125 0,1.453125 -0.6875,2.421875 -1.75,2.421875 -1.09375,0 -1.828125,-0.96875 -1.828125,-2.4375 0,-1.46875 0.734375,-2.4375 1.828125,-2.4375 z m 0,0"
       style="fill:#000000;fill-opacity:1;fill-rule:nonzero;stroke:none"
       aria-label=" d"
       transform="translate(349.352,75.76575)"
       clip-path="url(#clipPath70)" />
    <path
       id="path71"
       d="m 6.1556875,-2.812625 c 0,-0.953125 -0.078125,-1.53125 -0.25,-2 -0.40625,-1.03125 -1.375,-1.65625 -2.546875,-1.65625 -1.75,0 -2.875,1.328125 -2.875,3.40625 0,2.078125 1.078125,3.34375 2.859375,3.34375 1.4375,0 2.421875,-0.828125 2.6875,-2.1875 h -1.015625 c -0.28125,0.828125 -0.84375,1.265625 -1.640625,1.265625 -0.640625,0 -1.171875,-0.296875 -1.515625,-0.828125 -0.234375,-0.359375 -0.328125,-0.71875 -0.328125,-1.34375 z m -4.609375,-0.8125 c 0.078125,-1.15625 0.796875,-1.921875 1.796875,-1.921875 1.03125,0 1.734375,0.796875 1.734375,1.921875 z m 0,0"
       style="fill:#000000;fill-opacity:1;fill-rule:nonzero;stroke:none"
       aria-label="e"
       transform="translate(356.024,75.76575)"
       clip-path="url(#clipPath72)" />
    <path
       id="path73"
       d="m 1.796875,-6.281375 h -1 v 6.28125 h 1 z m 0,-2.46875 h -1 V -7.4845 h 1 z m 0,0"
       style="fill:#000000;fill-opacity:1;fill-rule:nonzero;stroke:none"
       aria-label="i"
       transform="translate(308,92.562625)"
       clip-path="url(#clipPath74)" />
    <path
       id="path75"
       d="m 5.9375625,-8.750125 h -1 v 3.25 c -0.40625,-0.625 -1.078125,-0.96875 -1.921875,-0.96875 -1.640625,0 -2.703125,1.3125 -2.703125,3.3125 0,2.125 1.03125,3.4375 2.734375,3.4375 0.859375,0 1.46875,-0.328125 2,-1.109375 v 0.828125 h 0.890625 z m -2.75,3.21875 c 1.078125,0 1.75,0.953125 1.75,2.453125 0,1.453125 -0.6875,2.421875 -1.75,2.421875 -1.09375,0 -1.828125,-0.96875 -1.828125,-2.4375 0,-1.46875 0.734375,-2.4375 1.828125,-2.4375 z m 0,0"
       style="fill:#000000;fill-opacity:1;fill-rule:nonzero;stroke:none"
       aria-label="d"
       transform="translate(310.664,92.562625)"
       clip-path="url(#clipPath76)" />
    <path
       id="path77"
       d="m 6.1561875,-2.812625 c 0,-0.953125 -0.078125,-1.53125 -0.25,-2 -0.40625,-1.03125 -1.375,-1.65625 -2.546875,-1.65625 -1.75,0 -2.875,1.328125 -2.875,3.40625 0,2.078125 1.078125,3.34375 2.859375,3.34375 1.4375,0 2.421875,-0.828125 2.6875,-2.1875 h -1.015625 c -0.28125,0.828125 -0.84375,1.265625 -1.640625,1.265625 -0.640625,0 -1.171875,-0.296875 -1.515625,-0.828125 -0.234375,-0.359375 -0.328125,-0.71875 -0.328125,-1.34375 z m -4.609375,-0.8125 c 0.078125,-1.15625 0.796875,-1.921875 1.796875,-1.921875 1.03125,0 1.734375,0.796875 1.734375,1.921875 z m 0,0"
       style="fill:#000000;fill-opacity:1;fill-rule:nonzero;stroke:none"
       aria-label="e"
       transform="translate(317.336,92.562625)"
       clip-path="url(#clipPath78)" />
    <path
       id="path79"
       d="m 0.8435625,-6.281375 v 6.28125 h 1 v -3.46875 c 0,-1.28125 0.671875,-2.125 1.703125,-2.125 0.796875,0 1.296875,0.484375 1.296875,1.234375 v 4.359375 h 1 v -4.75 c 0,-1.046875 -0.78125,-1.71875 -1.984375,-1.71875 -0.9375,0 -1.546875,0.359375 -2.09375,1.234375 v -1.046875 z m 0,0"
       style="fill:#000000;fill-opacity:1;fill-rule:nonzero;stroke:none"
       aria-label="n"
       transform="translate(324.008,92.562625)"
       clip-path="url(#clipPath80)" />
    <path
       id="path81"
       d="m 3.0465625,-6.281375 h -1.03125 V -8.01575 h -1 v 1.734375 h -0.84375 v 0.8125 h 0.84375 v 4.75 c 0,0.640625 0.4375,1 1.21875,1 0.265625,0 0.484375,-0.03125 0.8125,-0.09375 V -0.64075 c -0.140625,0.03125 -0.28125,0.046875 -0.484375,0.046875 -0.421875,0 -0.546875,-0.125 -0.546875,-0.5625 v -4.3125 h 1.03125 z m 0,0"
       style="fill:#000000;fill-opacity:1;fill-rule:nonzero;stroke:none"
       aria-label="t"
       transform="translate(330.68,92.562625)"
       clip-path="url(#clipPath82)" />
    <path
       id="path83"
       d="m 1.7965,-6.281375 h -1 v 6.28125 h 1 z m 0,-2.46875 h -1 V -7.4845 h 1 z m 0,0"
       style="fill:#000000;fill-opacity:1;fill-rule:nonzero;stroke:none"
       aria-label="i"
       transform="translate(334.016,92.562625)"
       clip-path="url(#clipPath84)" />
    <path
       id="path85"
       d="m 5.9371875,-8.750125 h -1 v 3.25 c -0.40625,-0.625 -1.078125,-0.96875 -1.921875,-0.96875 -1.640625,0 -2.703125,1.3125 -2.703125,3.3125 0,2.125 1.03125,3.4375 2.734375,3.4375 0.859375,0 1.46875,-0.328125 2,-1.109375 v 0.828125 h 0.890625 z m -2.75,3.21875 c 1.078125,0 1.75,0.953125 1.75,2.453125 0,1.453125 -0.6875,2.421875 -1.75,2.421875 -1.09375,0 -1.828125,-0.96875 -1.828125,-2.4375 0,-1.46875 0.734375,-2.4375 1.828125,-2.4375 z m 0,0"
       style="fill:#000000;fill-opacity:1;fill-rule:nonzero;stroke:none"
       aria-label="d"
       transform="translate(336.68,92.562625)"
       clip-path="url(#clipPath86)" />
    <path
       id="path87"
       d="m 6.4214375,-0.593875 c -0.109375,0.03125 -0.15625,0.03125 -0.21875,0.03125 -0.34375,0 -0.546875,-0.1875 -0.546875,-0.5 v -3.6875 c 0,-1.125 -0.8125,-1.71875 -2.359375,-1.71875 -0.921875,0 -1.65625,0.265625 -2.078125,0.734375 -0.296875,0.328125 -0.421875,0.6875 -0.4375,1.3125 h 1 c 0.09375,-0.78125 0.546875,-1.125 1.484375,-1.125 0.90625,0 1.40625,0.34375 1.40625,0.9375 v 0.265625 c -0.015625,0.4375 -0.234375,0.59375 -1.046875,0.703125 -1.421875,0.171875 -1.640625,0.21875 -2.015625,0.375 -0.734375,0.3125 -1.109375,0.859375 -1.109375,1.6875 0,1.140625 0.796875,1.859375 2.0625,1.859375 0.796875,0 1.4375,-0.28125 2.140625,-0.921875 0.078125,0.640625 0.390625,0.921875 1.03125,0.921875 0.21875,0 0.34375,-0.03125 0.6875,-0.109375 z m -1.75,-1.390625 c 0,0.34375 -0.09375,0.546875 -0.40625,0.828125 -0.40625,0.359375 -0.890625,0.5625 -1.484375,0.5625 -0.78125,0 -1.234375,-0.375 -1.234375,-1.015625 0,-0.65625 0.4375,-1 1.515625,-1.15625 1.0625,-0.140625 1.265625,-0.1875 1.609375,-0.34375 z m 0,0"
       style="fill:#000000;fill-opacity:1;fill-rule:nonzero;stroke:none"
       aria-label="a"
       transform="translate(343.352,92.562625)"
       clip-path="url(#clipPath88)" />
    <path
       id="path89"
       d="m 5.9369375,-8.750125 h -1 v 3.25 c -0.40625,-0.625 -1.078125,-0.96875 -1.921875,-0.96875 -1.640625,0 -2.703125,1.3125 -2.703125,3.3125 0,2.125 1.03125,3.4375 2.734375,3.4375 0.859375,0 1.46875,-0.328125 2,-1.109375 v 0.828125 h 0.890625 z m -2.75,3.21875 c 1.078125,0 1.75,0.953125 1.75,2.453125 0,1.453125 -0.6875,2.421875 -1.75,2.421875 -1.09375,0 -1.828125,-0.96875 -1.828125,-2.4375 0,-1.46875 0.734375,-2.4375 1.828125,-2.4375 z m 0,0"
       style="fill:#000000;fill-opacity:1;fill-rule:nonzero;stroke:none"
       aria-label="d"
       transform="translate(350.024,92.562625)"
       clip-path="url(#clipPath90)" />
    <path
       id="path91"
       d="M 6.78125,-7.6544062 H 5.859375 v 6.265625 l -4,-6.265625 h -1.0625 V 0.00184375 H 1.71875 V -6.2012812 L 5.6875,0.00184375 h 1.09375 z m 0,0"
       style="fill:#000000;fill-opacity:1;fill-rule:nonzero;stroke:none"
       aria-label="N"
       transform="translate(311,153.7755)"
       clip-path="url(#clipPath92)" />
    <path
       id="path93"
       d="m 2.8604063,-5.6544062 c -1.5625,0 -2.48437505,1.09375 -2.48437505,2.953125 0,1.85937495 0.92187505,2.93749995 2.48437505,2.93749995 1.5625,0 2.5,-1.09375 2.5,-2.90624995 0,-1.90625 -0.90625,-2.984375 -2.5,-2.984375 z m 0,0.8125 c 1,0 1.578125,0.796875 1.578125,2.171875 0,1.296875 -0.609375,2.10937495 -1.578125,2.10937495 -0.96875,0 -1.5625,-0.81249995 -1.5625,-2.14062495 0,-1.34375 0.59375,-2.140625 1.5625,-2.140625 z m 0,0"
       style="fill:#000000;fill-opacity:1;fill-rule:nonzero;stroke:none"
       aria-label="o"
       transform="translate(318.581,153.7755)"
       clip-path="url(#clipPath94)" />
    <path
       id="path95"
       d="M 0.73334375,-5.4981562 V 0.00184375 H 1.6083438 V -3.4512812 c 0,-0.796875 0.578125,-1.4375 1.296875,-1.4375 0.65625,0 1.015625,0.390625 1.015625,1.09375 v 3.79687495 h 0.890625 V -3.4512812 c 0,-0.796875 0.578125,-1.4375 1.28125,-1.4375 0.640625,0 1.03125,0.40625 1.03125,1.09375 v 3.79687495 h 0.875 V -4.1231562 c 0,-0.984375 -0.5625,-1.53125 -1.59375,-1.53125 -0.734375,0 -1.171875,0.21875 -1.6875,0.84375 -0.328125,-0.59375 -0.765625,-0.84375 -1.484375,-0.84375 -0.734375,0 -1.234375,0.265625 -1.6875,0.9375 v -0.78125 z m 0,0"
       style="fill:#000000;fill-opacity:1;fill-rule:nonzero;stroke:none"
       aria-label="m"
       transform="translate(324.419,153.7755)"
       clip-path="url(#clipPath96)" />
    <path
       id="path97"
       d="m 0.5610625,-7.6544062 v 7.65624995 h 0.796875 v -0.703125 c 0.421875,0.640625 0.96875,0.9375 1.734375,0.9375 1.453125,0 2.390625,-1.171875 2.390625,-2.99999995 0,-1.796875 -0.890625,-2.890625 -2.34375,-2.890625 -0.75,0 -1.296875,0.28125 -1.703125,0.90625 v -2.90625 z m 2.40625,2.8125 c 0.984375,0 1.609375,0.859375 1.609375,2.171875 0,1.25 -0.65625,2.09374995 -1.609375,2.09374995 -0.9375,0 -1.53125,-0.84374995 -1.53125,-2.12499995 0,-1.296875 0.59375,-2.140625 1.53125,-2.140625 z m 0,0"
       style="fill:#000000;fill-opacity:1;fill-rule:nonzero;stroke:none"
       aria-label="b"
       transform="translate(333.1655,153.7755)"
       clip-path="url(#clipPath98)" />
    <path
       id="path99"
       d="M 0.71915625,-5.4981562 V 0.00184375 H 1.6097813 V -2.8575312 c 0,-1.3125 0.546875,-1.90625 1.765625,-1.875 v -0.890625 c -0.15625,-0.03125 -0.234375,-0.03125 -0.34375,-0.03125 -0.5625,0 -1,0.328125 -1.5,1.15625 v -1 z m 0,0"
       style="fill:#000000;fill-opacity:1;fill-rule:nonzero;stroke:none"
       aria-label="r"
       transform="translate(339.0035,153.7755)"
       clip-path="url(#clipPath100)" />
    <path
       id="path101"
       d="m 5.390625,-2.4512812 c 0,-0.84375 -0.0625,-1.34375 -0.21875,-1.75 -0.359375,-0.90625 -1.203125,-1.453125 -2.234375,-1.453125 -1.53125,0 -2.515625,1.15625 -2.515625,2.984375 0,1.81249995 0.9375,2.90624995 2.5,2.90624995 1.25,0 2.125,-0.703125 2.34375,-1.90624995 h -0.875 c -0.25,0.73437495 -0.734375,1.10937495 -1.4375,1.10937495 -0.5625,0 -1.03125,-0.25 -1.328125,-0.71874995 -0.203125,-0.3125 -0.28125,-0.625 -0.296875,-1.171875 z m -4.03125,-0.71875 c 0.0625,-1.015625 0.6875,-1.671875 1.5625,-1.671875 0.90625,0 1.515625,0.6875 1.515625,1.671875 z m 0,0"
       style="fill:#000000;fill-opacity:1;fill-rule:nonzero;stroke:none"
       aria-label="e"
       transform="translate(342.5,153.7755)"
       clip-path="url(#clipPath102)" />
    <path
       id="path103"
       d="m 2.2518438,-1.0919062 h -1.09375 v 1.09374995 h 1.09375 z m 0,-4.40625 h -1.09375 v 1.09375 h 1.09375 z m 0,0"
       style="fill:#000000;fill-opacity:1;fill-rule:nonzero;stroke:none"
       aria-label=":"
       transform="translate(348.338,153.7755)"
       clip-path="url(#clipPath104)" />
    <path
       id="path105"
       d="m 3.5013437,-7.6544062 v 5.390625 c 0,0.609375 -0.0625,0.953125 -0.25,1.21875 -0.1875,0.29687495 -0.546875,0.46874995 -0.921875,0.46874995 -0.75,0 -1.15625,-0.49999995 -1.15625,-1.39062495 v -0.484375 H 0.17321875 v 0.671875 c 0,1.23437495 0.82812495,2.01562495 2.14062495,2.01562495 1.328125,0 2.15625,-0.828125 2.15625,-2.14062495 v -5.75 z m 0,0"
       style="fill:#000000;fill-opacity:1;fill-rule:nonzero;stroke:none"
       aria-label=" J"
       transform="translate(353.651,153.7755)"
       clip-path="url(#clipPath106)" />
    <path
       id="path107"
       d="M 5.0629063,0.00184375 V -5.4981562 h -0.875 v 3.109375 c 0,1.125 -0.59375,1.85937495 -1.5,1.85937495 -0.6875,0 -1.140625,-0.40625 -1.140625,-1.07812495 v -3.890625 H 0.68790625 v 4.234375 c 0,0.92187495 0.67187505,1.49999995 1.75000005,1.49999995 0.8125,0 1.328125,-0.28125 1.84375,-1 v 0.765625 z m 0,0"
       style="fill:#000000;fill-opacity:1;fill-rule:nonzero;stroke:none"
       aria-label="u"
       transform="translate(358.691,153.7755)"
       clip-path="url(#clipPath108)" />
    <path
       id="path109"
       d="m 5.6233438,-0.51378125 c -0.109375,0.015625 -0.140625,0.015625 -0.203125,0.015625 -0.296875,0 -0.46875,-0.15625 -0.46875,-0.421875 V -4.1544062 c 0,-0.984375 -0.71875,-1.5 -2.0625,-1.5 -0.8125,0 -1.453125,0.234375 -1.828125,0.640625 -0.25000005,0.28125 -0.35937505,0.59375 -0.37500005,1.140625 H 1.5608438 c 0.078125,-0.671875 0.46875,-0.96875 1.296875,-0.96875 0.796875,0 1.21875,0.28125 1.21875,0.8125 v 0.234375 c 0,0.375 -0.1875,0.515625 -0.90625,0.609375 -1.234375,0.15625 -1.421875,0.1875 -1.765625,0.328125 -0.64062505,0.28125 -0.96875005,0.765625 -0.96875005,1.46875 0,0.99999995 0.70312505,1.62499995 1.81250005,1.62499995 0.6875,0 1.25,-0.234375 1.859375,-0.796875 0.0625,0.5625 0.34375,0.796875 0.90625,0.796875 0.1875,0 0.3125,-0.015625 0.609375,-0.09375 z M 4.0764688,-1.7325312 c 0,0.296875 -0.078125,0.46875 -0.34375,0.71875 -0.359375,0.32812495 -0.78125,0.48437495 -1.296875,0.48437495 -0.6875,0 -1.078125,-0.3125 -1.078125,-0.87499995 0,-0.578125 0.375,-0.875 1.3125,-1.015625 0.9375,-0.125 1.125,-0.15625 1.40625,-0.296875 z m 0,0"
       style="fill:#000000;fill-opacity:1;fill-rule:nonzero;stroke:none"
       aria-label="a"
       transform="translate(364.529,153.7755)"
       clip-path="url(#clipPath110)" />
    <path
       id="path111"
       d="m 0.7345625,-5.4981562 v 5.49999995 h 0.875 V -3.0294062 c 0,-1.125 0.59375,-1.859375 1.5,-1.859375 0.6875,0 1.125,0.421875 1.125,1.078125 v 3.81249995 h 0.875 V -4.1544062 c 0,-0.921875 -0.671875,-1.5 -1.734375,-1.5 -0.828125,0 -1.34375,0.3125 -1.828125,1.078125 v -0.921875 z m 0,0"
       style="fill:#000000;fill-opacity:1;fill-rule:nonzero;stroke:none"
       aria-label="n"
       transform="translate(370.367,153.7755)"
       clip-path="url(#clipPath112)" />
    <path
       id="path113"
       d="m 4.984375,-2.2950312 0.78125,2.29687495 h 1.09375 L 4.171875,-7.6544062 H 2.90625 L 0.171875,0.00184375 H 1.21875 l 0.8125,-2.29687495 z m -0.28125,-0.828125 h -2.4375 l 1.265625,-3.484375 z m 0,0"
       style="fill:#000000;fill-opacity:1;fill-rule:nonzero;stroke:none"
       aria-label="A"
       transform="translate(311,168.463)"
       clip-path="url(#clipPath114)" />
    <path
       id="path115"
       d="M 0.56290625,2.2830938 H 1.4535313 v -2.85937505 c 0.453125,0.5625 0.96875,0.8125 1.6875,0.8125 1.421875,0 2.34375,-1.140625 2.34375,-2.89062495 0,-1.84375 -0.890625,-3 -2.359375,-3 -0.734375,0 -1.34375,0.328125 -1.75,0.984375 v -0.828125 H 0.56290625 Z m 2.42187505,-7.125 c 0.96875,0 1.59375,0.859375 1.59375,2.171875 0,1.25 -0.640625,2.09374995 -1.59375,2.09374995 -0.9375,0 -1.53125,-0.84374995 -1.53125,-2.12499995 0,-1.296875 0.59375,-2.140625 1.53125,-2.140625 z m 0,0"
       style="fill:#000000;fill-opacity:1;fill-rule:nonzero;stroke:none"
       aria-label="p"
       transform="translate(318.0035,168.463)"
       clip-path="url(#clipPath116)" />
    <path
       id="path117"
       d="m 5.3889688,-2.4512812 c 0,-0.84375 -0.0625,-1.34375 -0.21875,-1.75 -0.359375,-0.90625 -1.203125,-1.453125 -2.234375,-1.453125 -1.53125,0 -2.51562505,1.15625 -2.51562505,2.984375 0,1.81249995 0.93750005,2.90624995 2.50000005,2.90624995 1.25,0 2.125,-0.703125 2.34375,-1.90624995 h -0.875 c -0.25,0.73437495 -0.734375,1.10937495 -1.4375,1.10937495 -0.5625,0 -1.03125,-0.25 -1.328125,-0.71874995 -0.203125,-0.3125 -0.28125,-0.625 -0.296875,-1.171875 z m -4.03125,-0.71875 c 0.0625,-1.015625 0.6875,-1.671875 1.5625,-1.671875 0.90625,0 1.515625,0.6875 1.515625,1.671875 z m 0,0"
       style="fill:#000000;fill-opacity:1;fill-rule:nonzero;stroke:none"
       aria-label="e"
       transform="translate(323.8415,168.463)"
       clip-path="url(#clipPath118)" />
    <path
       id="path119"
       d="m 1.5939375,-7.6544062 h -0.875 v 7.65624995 h 0.875 z m 0,0"
       style="fill:#000000;fill-opacity:1;fill-rule:nonzero;stroke:none"
       aria-label="l"
       transform="translate(329.6795,168.463)"
       clip-path="url(#clipPath120)" />
    <path
       id="path121"
       d="M 1.5949688,-7.6544062 H 0.71996875 V 0.00184375 H 1.5949688 Z m 0,0"
       style="fill:#000000;fill-opacity:1;fill-rule:nonzero;stroke:none"
       aria-label="l"
       transform="translate(332.0105,168.463)"
       clip-path="url(#clipPath122)" />
    <path
       id="path123"
       d="M 1.5764688,-5.4981562 H 0.70146875 V 0.00184375 H 1.5764688 Z m 0,-2.15625 H 0.68584375 v 1.109375 H 1.5764688 Z m 0,0"
       style="fill:#000000;fill-opacity:1;fill-rule:nonzero;stroke:none"
       aria-label="i"
       transform="translate(334.3415,168.463)"
       clip-path="url(#clipPath124)" />
    <path
       id="path125"
       d="m 5.2025,-7.6544062 h -0.875 v 2.84375 c -0.375,-0.546875 -0.953125,-0.84375 -1.6875,-0.84375 -1.4375,0 -2.375,1.140625 -2.375,2.890625 0,1.85937495 0.90625,2.99999995 2.40625,2.99999995 0.75,0 1.28125,-0.28125 1.75,-0.953125 v 0.71875 H 5.2025 Z m -2.421875,2.8125 c 0.953125,0 1.546875,0.828125 1.546875,2.15625 0,1.265625 -0.609375,2.10937495 -1.53125,2.10937495 -0.96875,0 -1.609375,-0.84374995 -1.609375,-2.12499995 0,-1.28125 0.640625,-2.140625 1.59375,-2.140625 z m 0,0"
       style="fill:#000000;fill-opacity:1;fill-rule:nonzero;stroke:none"
       aria-label="d"
       transform="translate(336.6725,168.463)"
       clip-path="url(#clipPath126)" />
    <path
       id="path127"
       d="m 2.8605938,-5.6544062 c -1.5625,0 -2.48437505,1.09375 -2.48437505,2.953125 0,1.85937495 0.92187505,2.93749995 2.48437505,2.93749995 1.5625,0 2.5,-1.09375 2.5,-2.90624995 0,-1.90625 -0.90625,-2.984375 -2.5,-2.984375 z m 0,0.8125 c 1,0 1.578125,0.796875 1.578125,2.171875 0,1.296875 -0.609375,2.10937495 -1.578125,2.10937495 -0.96875,0 -1.5625,-0.81249995 -1.5625,-2.14062495 0,-1.34375 0.59375,-2.140625 1.5625,-2.140625 z m 0,0"
       style="fill:#000000;fill-opacity:1;fill-rule:nonzero;stroke:none"
       aria-label="o"
       transform="translate(342.5105,168.463)"
       clip-path="url(#clipPath128)" />
    <path
       id="path129"
       d="m 4.5929062,-3.9669062 c 0,-1.078125 -0.71875,-1.6875 -1.984375,-1.6875 -1.28125,0 -2.10937495,0.65625 -2.10937495,1.671875 0,0.859375 0.4375,1.28125 1.73437495,1.59375 l 0.828125,0.203125 c 0.609375,0.140625 0.84375,0.359375 0.84375,0.75 0,0.53124995 -0.515625,0.87499995 -1.28125,0.87499995 -0.46875,0 -0.875,-0.140625 -1.09375,-0.375 -0.140625,-0.15624995 -0.203125,-0.31249995 -0.25,-0.70312495 H 0.35853125 c 0.046875,1.26562495 0.74999995,1.87499995 2.18749995,1.87499995 1.390625,0 2.265625,-0.671875 2.265625,-1.73437495 0,-0.828125 -0.453125,-1.265625 -1.546875,-1.53125 l -0.84375,-0.203125 c -0.703125,-0.171875 -1.015625,-0.40625 -1.015625,-0.78125 0,-0.515625 0.453125,-0.828125 1.171875,-0.828125 0.703125,0 1.078125,0.296875 1.09375,0.875 z m 0,0"
       style="fill:#000000;fill-opacity:1;fill-rule:nonzero;stroke:none"
       aria-label="s"
       transform="translate(348.3485,168.463)"
       clip-path="url(#clipPath130)" />
    <path
       id="path131"
       d="m 2.2491563,-1.0919062 h -1.09375 v 1.09374995 h 1.09375 z m 0,-4.40625 h -1.09375 v 1.09375 h 1.09375 z m 0,0"
       style="fill:#000000;fill-opacity:1;fill-rule:nonzero;stroke:none"
       aria-label=":"
       transform="translate(353.5985,168.463)"
       clip-path="url(#clipPath132)" />
    <path
       id="path133"
       d="m 4.9049063,0.00184375 2.15625,-6.42187495 v 6.42187495 h 0.921875 V -7.6544062 h -1.34375 L 4.4049063,-0.98253125 2.1392813,-7.6544062 H 0.77990625 V 0.00184375 H 1.7174063 V -6.4200312 l 2.171875,6.42187495 z m 0,0"
       style="fill:#000000;fill-opacity:1;fill-rule:nonzero;stroke:none"
       aria-label=" M"
       transform="translate(358.9115,168.463)"
       clip-path="url(#clipPath134)" />
    <path
       id="path135"
       d="m 2.857625,-5.6544062 c -1.5625,0 -2.484375,1.09375 -2.484375,2.953125 0,1.85937495 0.921875,2.93749995 2.484375,2.93749995 1.5625,0 2.5,-1.09375 2.5,-2.90624995 0,-1.90625 -0.90625,-2.984375 -2.5,-2.984375 z m 0,0.8125 c 1,0 1.578125,0.796875 1.578125,2.171875 0,1.296875 -0.609375,2.10937495 -1.578125,2.10937495 -0.96875,0 -1.5625,-0.81249995 -1.5625,-2.14062495 0,-1.34375 0.59375,-2.140625 1.5625,-2.140625 z m 0,0"
       style="fill:#000000;fill-opacity:1;fill-rule:nonzero;stroke:none"
       aria-label="o"
       transform="translate(367.658,168.463)"
       clip-path="url(#clipPath136)" />
    <path
       id="path137"
       d="M 0.71884375,-5.4981562 V 0.00184375 H 1.6094688 V -2.8575312 c 0,-1.3125 0.546875,-1.90625 1.765625,-1.875 v -0.890625 c -0.15625,-0.03125 -0.234375,-0.03125 -0.34375,-0.03125 -0.5625,0 -1,0.328125 -1.5,1.15625 v -1 z m 0,0"
       style="fill:#000000;fill-opacity:1;fill-rule:nonzero;stroke:none"
       aria-label="r"
       transform="translate(373.496,168.463)"
       clip-path="url(#clipPath138)" />
    <path
       id="path139"
       d="m 5.6242188,-0.51378125 c -0.109375,0.015625 -0.140625,0.015625 -0.203125,0.015625 -0.296875,0 -0.46875,-0.15625 -0.46875,-0.421875 V -4.1544062 c 0,-0.984375 -0.71875,-1.5 -2.0625,-1.5 -0.8125,0 -1.453125,0.234375 -1.828125,0.640625 -0.25000005,0.28125 -0.35937505,0.59375 -0.37500005,1.140625 H 1.5617188 c 0.078125,-0.671875 0.46875,-0.96875 1.296875,-0.96875 0.796875,0 1.21875,0.28125 1.21875,0.8125 v 0.234375 c 0,0.375 -0.1875,0.515625 -0.90625,0.609375 -1.234375,0.15625 -1.421875,0.1875 -1.765625,0.328125 -0.64062505,0.28125 -0.96875005,0.765625 -0.96875005,1.46875 0,0.99999995 0.70312505,1.62499995 1.81250005,1.62499995 0.6875,0 1.25,-0.234375 1.859375,-0.796875 0.0625,0.5625 0.34375,0.796875 0.90625,0.796875 0.1875,0 0.3125,-0.015625 0.609375,-0.09375 z M 4.0773438,-1.7325312 c 0,0.296875 -0.078125,0.46875 -0.34375,0.71875 -0.359375,0.32812495 -0.78125,0.48437495 -1.296875,0.48437495 -0.6875,0 -1.078125,-0.3125 -1.078125,-0.87499995 0,-0.578125 0.375,-0.875 1.3125,-1.015625 0.9375,-0.125 1.125,-0.15625 1.40625,-0.296875 z m 0,0"
       style="fill:#000000;fill-opacity:1;fill-rule:nonzero;stroke:none"
       aria-label="a"
       transform="translate(376.8875,168.463)"
       clip-path="url(#clipPath140)" />
    <path
       id="path141"
       d="m 1.9375312,-3.2481562 h 2.40625 c 0.59375,0 1.0625,-0.171875 1.46875,-0.546875 0.46875,-0.40625 0.671875,-0.90625 0.671875,-1.609375 0,-1.4375 -0.859375,-2.25 -2.375,-2.25 H 0.95315625 V 0.00184375 H 1.9375312 Z m 0,-0.859375 v -2.6875 h 2.03125 c 0.9375,0 1.484375,0.5 1.484375,1.34375 0,0.84375 -0.546875,1.34375 -1.484375,1.34375 z m 0,0"
       style="fill:#000000;fill-opacity:1;fill-rule:nonzero;stroke:none"
       aria-label=" P"
       transform="translate(385.6445,168.463)"
       clip-path="url(#clipPath142)" />
    <path
       id="path143"
       d="m 2.8574688,-5.6544062 c -1.5625,0 -2.48437505,1.09375 -2.48437505,2.953125 0,1.85937495 0.92187505,2.93749995 2.48437505,2.93749995 1.5625,0 2.5,-1.09375 2.5,-2.90624995 0,-1.90625 -0.90625,-2.984375 -2.5,-2.984375 z m 0,0.8125 c 1,0 1.578125,0.796875 1.578125,2.171875 0,1.296875 -0.609375,2.10937495 -1.578125,2.10937495 -0.96875,0 -1.5625,-0.81249995 -1.5625,-2.14062495 0,-1.34375 0.59375,-2.140625 1.5625,-2.140625 z m 0,0"
       style="fill:#000000;fill-opacity:1;fill-rule:nonzero;stroke:none"
       aria-label="o"
       transform="translate(392.123,168.463)"
       clip-path="url(#clipPath144)" />
    <path
       id="path145"
       d="m 0.7186875,-5.4981562 v 5.49999995 h 0.890625 V -2.8575312 c 0,-1.3125 0.546875,-1.90625 1.765625,-1.875 v -0.890625 c -0.15625,-0.03125 -0.234375,-0.03125 -0.34375,-0.03125 -0.5625,0 -1,0.328125 -1.5,1.15625 v -1 z m 0,0"
       style="fill:#000000;fill-opacity:1;fill-rule:nonzero;stroke:none"
       aria-label="r"
       transform="translate(397.961,168.463)"
       clip-path="url(#clipPath146)" />
    <path
       id="path147"
       d="M 0.71828125,-5.4981562 V 0.00184375 H 1.6089063 V -2.8575312 c 0,-1.3125 0.546875,-1.90625 1.765625,-1.875 v -0.890625 c -0.15625,-0.03125 -0.234375,-0.03125 -0.34375,-0.03125 -0.5625,0 -1,0.328125 -1.5,1.15625 v -1 z m 0,0"
       style="fill:#000000;fill-opacity:1;fill-rule:nonzero;stroke:none"
       aria-label="r"
       transform="translate(401.4575,168.463)"
       clip-path="url(#clipPath148)" />
    <path
       id="path149"
       d="m 5.6236562,-0.51378125 c -0.109375,0.015625 -0.140625,0.015625 -0.203125,0.015625 -0.296875,0 -0.46875,-0.15625 -0.46875,-0.421875 V -4.1544062 c 0,-0.984375 -0.71875,-1.5 -2.0625,-1.5 -0.8125,0 -1.453125,0.234375 -1.828125,0.640625 -0.24999995,0.28125 -0.35937495,0.59375 -0.37499995,1.140625 H 1.5611562 c 0.078125,-0.671875 0.46875,-0.96875 1.296875,-0.96875 0.796875,0 1.21875,0.28125 1.21875,0.8125 v 0.234375 c 0,0.375 -0.1875,0.515625 -0.90625,0.609375 -1.234375,0.15625 -1.421875,0.1875 -1.765625,0.328125 -0.64062495,0.28125 -0.96874995,0.765625 -0.96874995,1.46875 0,0.99999995 0.70312495,1.62499995 1.81249995,1.62499995 0.6875,0 1.25,-0.234375 1.859375,-0.796875 0.0625,0.5625 0.34375,0.796875 0.90625,0.796875 0.1875,0 0.3125,-0.015625 0.609375,-0.09375 z M 4.0767812,-1.7325312 c 0,0.296875 -0.078125,0.46875 -0.34375,0.71875 -0.359375,0.32812495 -0.78125,0.48437495 -1.296875,0.48437495 -0.6875,0 -1.078125,-0.3125 -1.078125,-0.87499995 0,-0.578125 0.375,-0.875 1.3125,-1.015625 0.9375,-0.125 1.125,-0.15625 1.40625,-0.296875 z m 0,0"
       style="fill:#000000;fill-opacity:1;fill-rule:nonzero;stroke:none"
       aria-label="a"
       transform="translate(404.849,168.463)"
       clip-path="url(#clipPath150)" />
    <path
       id="path151"
       d="m 4.59425,-3.9669062 c 0,-1.078125 -0.71875,-1.6875 -1.984375,-1.6875 -1.28125,0 -2.109375,0.65625 -2.109375,1.671875 0,0.859375 0.4375,1.28125 1.734375,1.59375 L 3.063,-2.1856562 c 0.609375,0.140625 0.84375,0.359375 0.84375,0.75 0,0.53124995 -0.515625,0.87499995 -1.28125,0.87499995 -0.46875,0 -0.875,-0.140625 -1.09375,-0.375 C 1.391125,-1.0919062 1.328625,-1.2481562 1.28175,-1.6387812 H 0.359875 c 0.046875,1.26562495 0.75,1.87499995 2.1875,1.87499995 1.390625,0 2.265625,-0.671875 2.265625,-1.73437495 0,-0.828125 -0.453125,-1.265625 -1.546875,-1.53125 l -0.84375,-0.203125 c -0.703125,-0.171875 -1.015625,-0.40625 -1.015625,-0.78125 0,-0.515625 0.453125,-0.828125 1.171875,-0.828125 0.703125,0 1.078125,0.296875 1.09375,0.875 z m 0,0"
       style="fill:#000000;fill-opacity:1;fill-rule:nonzero;stroke:none"
       aria-label="s"
       transform="translate(410.687,168.463)"
       clip-path="url(#clipPath152)" />
  </g>
</svg>
