<?xml version="1.0" encoding="UTF-8" standalone="no"?>
<!-- Created with Inkscape (http://www.inkscape.org/) -->

<svg
   version="1.1"
   id="svg1"
   width="695.51636"
   height="120.32313"
   viewBox="0 0 695.51636 120.32313"
   sodipodi:docname="upload_7333p5h7jyp6wynalzuwtnvlfd.pdf"
   xmlns:inkscape="http://www.inkscape.org/namespaces/inkscape"
   xmlns:sodipodi="http://sodipodi.sourceforge.net/DTD/sodipodi-0.dtd"
   xmlns="http://www.w3.org/2000/svg"
   xmlns:svg="http://www.w3.org/2000/svg">
  <defs
     id="defs1" />
  <sodipodi:namedview
     id="namedview1"
     pagecolor="#ffffff"
     bordercolor="#000000"
     borderopacity="0.25"
     inkscape:showpageshadow="2"
     inkscape:pageopacity="0.0"
     inkscape:pagecheckerboard="0"
     inkscape:deskcolor="#d1d1d1">
    <inkscape:page
       x="0"
       y="0"
       inkscape:label="1"
       id="page1"
       width="695.51636"
       height="120.32313"
       margin="0"
       bleed="0" />
  </sodipodi:namedview>
  <g
     id="g1"
     inkscape:groupmode="layer"
     inkscape:label="1">
    <path
       id="path1"
       d="M 56.379,67.598 35.297,55.555 13.719,66.68 18.66,42.91 1.414,25.824 25.547,23.18 36.465,1.496 46.438,23.629 70.434,27.313 52.465,43.641 Z"
       style="fill:#979797;fill-opacity:1;fill-rule:evenodd;stroke:#000000;stroke-width:1.28743;stroke-linecap:butt;stroke-linejoin:miter;stroke-miterlimit:4;stroke-dasharray:none;stroke-opacity:1"
       transform="scale(1.3333333)" />
    <path
       id="path2"
       d="M 144.957,67.598 123.875,55.555 102.297,66.68 107.238,42.91 89.988,25.824 114.125,23.18 125.043,1.496 l 9.973,22.133 23.996,3.684 -17.969,16.328 z"
       style="fill:#ffffff;fill-opacity:1;fill-rule:evenodd;stroke:#000000;stroke-width:1.28743;stroke-linecap:butt;stroke-linejoin:miter;stroke-miterlimit:4;stroke-dasharray:none;stroke-opacity:1"
       transform="scale(1.3333333)" />
    <path
       id="path3"
       d="m 50.879,19.039 c -2.277,-1.836 -2.633,-5.172 -0.801,-7.453 1.836,-2.277 5.172,-2.641 7.453,-0.809 2.282,1.836 2.649,5.168 0.817,7.453 -1.828,2.282 -5.16,2.653 -7.45,0.829"
       style="fill:#000000;fill-opacity:1;fill-rule:evenodd;stroke:#000000;stroke-width:2.83465;stroke-linecap:butt;stroke-linejoin:miter;stroke-miterlimit:4;stroke-dasharray:none;stroke-opacity:1"
       transform="scale(1.3333333)" />
    <path
       id="path4"
       d="m 150.66,52.039 c -2.277,-1.836 -2.637,-5.172 -0.801,-7.453 1.836,-2.277 5.172,-2.641 7.454,-0.809 2.281,1.836 2.648,5.168 0.816,7.453 -1.828,2.282 -5.164,2.653 -7.449,0.829"
       style="fill:#000000;fill-opacity:1;fill-rule:evenodd;stroke:#000000;stroke-width:2.83465;stroke-linecap:butt;stroke-linejoin:miter;stroke-miterlimit:4;stroke-dasharray:none;stroke-opacity:1"
       transform="scale(1.3333333)" />
    <path
       id="path5"
       d="m 246.52,67.598 -21.079,-12.043 -21.578,11.125 4.942,-23.77 -17.25,-17.086 24.133,-2.644 10.917,-21.684 9.977,22.133 23.996,3.684 -17.969,16.328 z"
       style="fill:#979797;fill-opacity:1;fill-rule:evenodd;stroke:#000000;stroke-width:1.28743;stroke-linecap:butt;stroke-linejoin:miter;stroke-miterlimit:4;stroke-dasharray:none;stroke-opacity:1"
       transform="scale(1.3333333)" />
    <path
       id="path6"
       d="m 221.887,71.539 c -2.278,-1.836 -2.637,-5.172 -0.801,-7.453 1.836,-2.277 5.172,-2.641 7.453,-0.805 2.281,1.832 2.649,5.164 0.816,7.449 -1.828,2.282 -5.164,2.653 -7.449,0.829"
       style="fill:#000000;fill-opacity:1;fill-rule:evenodd;stroke:#000000;stroke-width:2.83465;stroke-linecap:butt;stroke-linejoin:miter;stroke-miterlimit:4;stroke-dasharray:none;stroke-opacity:1"
       transform="scale(1.3333333)" />
    <path
       id="path7"
       d="M 340.809,67.598 319.727,55.555 298.148,66.68 303.09,42.91 285.84,25.824 309.973,23.18 320.891,1.496 l 9.976,22.133 23.996,3.684 -17.968,16.328 z"
       style="fill:#ffffff;fill-opacity:1;fill-rule:evenodd;stroke:#000000;stroke-width:1.28743;stroke-linecap:butt;stroke-linejoin:miter;stroke-miterlimit:4;stroke-dasharray:none;stroke-opacity:1"
       transform="scale(1.3333333)" />
    <path
       id="path8"
       d="m 286.816,50.539 c -2.277,-1.836 -2.636,-5.172 -0.8,-7.453 1.836,-2.277 5.172,-2.641 7.453,-0.809 2.281,1.836 2.648,5.168 0.816,7.453 -1.828,2.282 -5.164,2.653 -7.449,0.829"
       style="fill:#000000;fill-opacity:1;fill-rule:evenodd;stroke:#000000;stroke-width:2.83465;stroke-linecap:butt;stroke-linejoin:miter;stroke-miterlimit:4;stroke-dasharray:none;stroke-opacity:1"
       transform="scale(1.3333333)" />
    <path
       id="path9"
       d="m 18.746,80.809 h -4.062 v 2.265 h 3.484 v 0.953 h -3.484 v 3.875 h -1.079 v -8.047 h 5.141 z"
       style="fill:#000000;fill-opacity:1;fill-rule:nonzero;stroke:none"
       transform="scale(1.3333333)" />
    <path
       id="path10"
       d="m 20.973,80.855 h -1.157 v -1.046 h 1.157 z m -0.063,7.047 h -1.015 v -6.031 h 1.015 z"
       style="fill:#000000;fill-opacity:1;fill-rule:nonzero;stroke:none"
       transform="scale(1.3333333)" />
    <path
       id="path11"
       d="m 27.801,87.215 c 0,1.019 -0.235,1.769 -0.703,2.25 -0.461,0.476 -1.172,0.719 -2.141,0.719 -0.312,0 -0.625,-0.024 -0.937,-0.063 -0.305,-0.043 -0.602,-0.105 -0.891,-0.187 v -1.047 h 0.047 c 0.164,0.062 0.426,0.14 0.781,0.234 0.363,0.102 0.727,0.156 1.094,0.156 0.344,0 0.629,-0.043 0.859,-0.125 0.227,-0.086 0.406,-0.199 0.531,-0.343 0.125,-0.149 0.211,-0.321 0.266,-0.516 0.051,-0.199 0.078,-0.414 0.078,-0.656 v -0.563 c -0.305,0.25 -0.594,0.438 -0.875,0.563 -0.281,0.117 -0.637,0.172 -1.062,0.172 -0.719,0 -1.293,-0.258 -1.719,-0.782 -0.43,-0.519 -0.641,-1.254 -0.641,-2.203 0,-0.508 0.071,-0.953 0.219,-1.328 0.145,-0.383 0.348,-0.711 0.609,-0.984 0.227,-0.258 0.508,-0.457 0.844,-0.594 0.332,-0.145 0.664,-0.219 1,-0.219 0.352,0 0.645,0.039 0.875,0.11 0.238,0.074 0.488,0.179 0.75,0.312 l 0.063,-0.25 h 0.953 z m -1.016,-0.969 v -3.297 c -0.273,-0.113 -0.523,-0.195 -0.75,-0.25 -0.23,-0.051 -0.461,-0.078 -0.687,-0.078 -0.563,0 -1.008,0.188 -1.328,0.563 -0.325,0.367 -0.485,0.906 -0.485,1.625 0,0.679 0.117,1.195 0.36,1.546 0.238,0.344 0.632,0.516 1.187,0.516 0.289,0 0.582,-0.055 0.875,-0.172 0.301,-0.113 0.578,-0.265 0.828,-0.453 z"
       style="fill:#000000;fill-opacity:1;fill-rule:nonzero;stroke:none"
       transform="scale(1.3333333)" />
    <path
       id="path12"
       d="M 34.805,87.902 H 33.789 V 87.23 c -0.344,0.274 -0.672,0.481 -0.984,0.625 -0.313,0.145 -0.657,0.219 -1.032,0.219 -0.636,0 -1.132,-0.191 -1.484,-0.578 -0.355,-0.394 -0.531,-0.969 -0.531,-1.719 v -3.906 h 1.015 v 3.438 c 0,0.304 0.016,0.562 0.047,0.781 0.032,0.219 0.094,0.406 0.188,0.562 0.094,0.157 0.219,0.274 0.375,0.344 0.156,0.074 0.379,0.109 0.672,0.109 0.258,0 0.547,-0.066 0.859,-0.203 0.313,-0.132 0.602,-0.312 0.875,-0.531 v -4.5 h 1.016 z"
       style="fill:#000000;fill-opacity:1;fill-rule:nonzero;stroke:none"
       transform="scale(1.3333333)" />
    <path
       id="path13"
       d="M 40.563,82.98 H 40.5 c -0.148,-0.039 -0.293,-0.066 -0.437,-0.078 -0.137,-0.019 -0.305,-0.031 -0.5,-0.031 -0.313,0 -0.618,0.074 -0.907,0.219 -0.293,0.137 -0.574,0.312 -0.843,0.531 v 4.281 h -1.016 v -6.031 h 1.016 v 0.891 c 0.406,-0.321 0.757,-0.551 1.062,-0.688 0.313,-0.133 0.629,-0.203 0.953,-0.203 0.164,0 0.289,0.008 0.375,0.016 0.082,0.011 0.203,0.027 0.36,0.047 z"
       style="fill:#000000;fill-opacity:1;fill-rule:nonzero;stroke:none"
       transform="scale(1.3333333)" />
    <path
       id="path14"
       d="M 45.996,87.902 H 44.98 v -0.64 c -0.085,0.062 -0.203,0.152 -0.359,0.265 -0.156,0.106 -0.305,0.188 -0.437,0.25 -0.18,0.086 -0.375,0.149 -0.594,0.203 -0.219,0.063 -0.477,0.094 -0.766,0.094 -0.543,0 -1.008,-0.176 -1.39,-0.531 -0.375,-0.363 -0.563,-0.828 -0.563,-1.391 0,-0.457 0.098,-0.828 0.297,-1.109 0.195,-0.281 0.477,-0.504 0.844,-0.672 0.363,-0.156 0.801,-0.258 1.312,-0.312 0.52,-0.063 1.071,-0.11 1.656,-0.141 v -0.156 c 0,-0.227 -0.042,-0.414 -0.125,-0.563 -0.074,-0.156 -0.187,-0.281 -0.343,-0.375 -0.149,-0.082 -0.321,-0.133 -0.516,-0.156 -0.199,-0.031 -0.406,-0.047 -0.625,-0.047 -0.273,0 -0.574,0.039 -0.906,0.109 -0.324,0.063 -0.656,0.165 -1,0.297 h -0.063 v -1.031 c 0.196,-0.051 0.485,-0.109 0.86,-0.172 0.375,-0.062 0.742,-0.094 1.109,-0.094 0.426,0 0.797,0.04 1.109,0.11 0.313,0.062 0.583,0.18 0.813,0.344 0.227,0.168 0.398,0.386 0.516,0.656 0.125,0.262 0.187,0.586 0.187,0.969 z M 44.98,86.418 V 84.73 c -0.304,0.024 -0.667,0.055 -1.093,0.094 -0.418,0.031 -0.746,0.086 -0.985,0.156 -0.293,0.086 -0.531,0.215 -0.718,0.391 -0.18,0.168 -0.266,0.402 -0.266,0.703 0,0.356 0.102,0.621 0.312,0.797 0.208,0.168 0.524,0.25 0.954,0.25 0.351,0 0.675,-0.066 0.968,-0.203 0.301,-0.133 0.578,-0.301 0.828,-0.5 z"
       style="fill:#000000;fill-opacity:1;fill-rule:nonzero;stroke:none"
       transform="scale(1.3333333)" />
    <path
       id="path15"
       d="m 56.691,87.902 h -4.359 v -0.828 h 1.672 v -5.39 h -1.672 v -0.735 c 0.227,0 0.473,-0.015 0.734,-0.047 0.258,-0.039 0.454,-0.097 0.579,-0.172 0.164,-0.082 0.296,-0.191 0.39,-0.328 0.102,-0.144 0.16,-0.332 0.172,-0.562 h 0.844 v 7.234 h 1.64 z"
       style="fill:#000000;fill-opacity:1;fill-rule:nonzero;stroke:none"
       transform="scale(1.3333333)" />
    <path
       id="path16"
       d="m 108.656,80.863 h -4.062 v 2.266 h 3.484 v 0.953 h -3.484 v 3.875 h -1.078 V 79.91 h 5.14 z"
       style="fill:#000000;fill-opacity:1;fill-rule:nonzero;stroke:none"
       transform="scale(1.3333333)" />
    <path
       id="path17"
       d="m 110.883,80.91 h -1.156 v -1.047 h 1.156 z m -0.063,7.047 h -1.015 v -6.031 h 1.015 z"
       style="fill:#000000;fill-opacity:1;fill-rule:nonzero;stroke:none"
       transform="scale(1.3333333)" />
    <path
       id="path18"
       d="m 117.711,87.27 c 0,1.019 -0.234,1.769 -0.703,2.25 -0.461,0.476 -1.172,0.718 -2.141,0.718 -0.312,0 -0.625,-0.023 -0.937,-0.062 -0.305,-0.043 -0.602,-0.106 -0.891,-0.188 v -1.047 h 0.047 c 0.164,0.063 0.426,0.141 0.781,0.235 0.363,0.101 0.727,0.156 1.094,0.156 0.344,0 0.629,-0.043 0.859,-0.125 0.227,-0.086 0.407,-0.199 0.532,-0.344 0.125,-0.148 0.211,-0.32 0.265,-0.515 0.051,-0.2 0.078,-0.414 0.078,-0.657 v -0.562 c -0.304,0.25 -0.593,0.437 -0.875,0.562 -0.281,0.118 -0.636,0.172 -1.062,0.172 -0.719,0 -1.293,-0.258 -1.719,-0.781 -0.43,-0.519 -0.641,-1.254 -0.641,-2.203 0,-0.508 0.071,-0.953 0.219,-1.328 0.145,-0.383 0.348,-0.711 0.61,-0.985 0.226,-0.257 0.507,-0.457 0.843,-0.593 0.332,-0.145 0.664,-0.219 1,-0.219 0.352,0 0.645,0.039 0.875,0.109 0.239,0.075 0.489,0.18 0.75,0.313 l 0.063,-0.25 h 0.953 z m -1.016,-0.969 v -3.297 c -0.273,-0.113 -0.523,-0.195 -0.75,-0.25 -0.23,-0.051 -0.461,-0.078 -0.687,-0.078 -0.563,0 -1.008,0.187 -1.328,0.562 -0.325,0.367 -0.485,0.907 -0.485,1.625 0,0.68 0.118,1.196 0.36,1.547 0.238,0.344 0.633,0.516 1.187,0.516 0.289,0 0.582,-0.055 0.875,-0.172 0.301,-0.113 0.578,-0.266 0.828,-0.453 z"
       style="fill:#000000;fill-opacity:1;fill-rule:nonzero;stroke:none"
       transform="scale(1.3333333)" />
    <path
       id="path19"
       d="m 124.711,87.957 h -1.016 v -0.672 c -0.343,0.274 -0.672,0.481 -0.984,0.625 -0.313,0.145 -0.656,0.219 -1.031,0.219 -0.637,0 -1.133,-0.191 -1.485,-0.578 -0.355,-0.395 -0.531,-0.969 -0.531,-1.719 v -3.906 h 1.016 v 3.437 c 0,0.305 0.015,0.563 0.047,0.782 0.031,0.218 0.093,0.406 0.187,0.562 0.094,0.156 0.219,0.273 0.375,0.344 0.156,0.074 0.379,0.109 0.672,0.109 0.258,0 0.547,-0.066 0.859,-0.203 0.313,-0.133 0.602,-0.312 0.875,-0.531 v -4.5 h 1.016 z"
       style="fill:#000000;fill-opacity:1;fill-rule:nonzero;stroke:none"
       transform="scale(1.3333333)" />
    <path
       id="path20"
       d="m 130.469,83.035 h -0.063 c -0.148,-0.039 -0.293,-0.066 -0.437,-0.078 -0.137,-0.019 -0.305,-0.031 -0.5,-0.031 -0.313,0 -0.617,0.074 -0.906,0.219 -0.293,0.136 -0.575,0.312 -0.844,0.531 v 4.281 h -1.016 v -6.031 h 1.016 v 0.89 c 0.406,-0.32 0.758,-0.55 1.062,-0.687 0.313,-0.133 0.629,-0.203 0.953,-0.203 0.164,0 0.289,0.008 0.375,0.015 0.082,0.012 0.204,0.028 0.36,0.047 z"
       style="fill:#000000;fill-opacity:1;fill-rule:nonzero;stroke:none"
       transform="scale(1.3333333)" />
    <path
       id="path21"
       d="m 135.906,87.957 h -1.015 v -0.641 c -0.086,0.063 -0.203,0.153 -0.36,0.266 -0.156,0.106 -0.304,0.188 -0.437,0.25 -0.18,0.086 -0.375,0.148 -0.594,0.203 -0.219,0.063 -0.477,0.094 -0.766,0.094 -0.543,0 -1.007,-0.176 -1.39,-0.531 -0.375,-0.364 -0.563,-0.828 -0.563,-1.391 0,-0.457 0.098,-0.828 0.297,-1.109 0.195,-0.282 0.477,-0.504 0.844,-0.672 0.363,-0.156 0.801,-0.258 1.312,-0.313 0.52,-0.062 1.071,-0.109 1.657,-0.14 v -0.157 c 0,-0.226 -0.043,-0.414 -0.125,-0.562 -0.075,-0.156 -0.188,-0.281 -0.344,-0.375 -0.149,-0.082 -0.32,-0.133 -0.516,-0.156 -0.199,-0.032 -0.406,-0.047 -0.625,-0.047 -0.273,0 -0.574,0.039 -0.906,0.109 -0.324,0.063 -0.656,0.164 -1,0.297 h -0.062 v -1.031 c 0.195,-0.051 0.484,-0.11 0.859,-0.172 0.375,-0.063 0.742,-0.094 1.109,-0.094 0.426,0 0.797,0.039 1.11,0.11 0.312,0.062 0.582,0.179 0.812,0.343 0.227,0.168 0.399,0.387 0.516,0.657 0.125,0.261 0.187,0.585 0.187,0.968 z m -1.015,-1.484 v -1.688 c -0.305,0.024 -0.668,0.055 -1.094,0.094 -0.418,0.031 -0.746,0.086 -0.984,0.156 -0.293,0.086 -0.532,0.215 -0.719,0.391 -0.18,0.168 -0.266,0.402 -0.266,0.703 0,0.355 0.102,0.621 0.313,0.797 0.207,0.168 0.523,0.25 0.953,0.25 0.351,0 0.676,-0.067 0.969,-0.203 0.3,-0.133 0.578,-0.301 0.828,-0.5 z"
       style="fill:#000000;fill-opacity:1;fill-rule:nonzero;stroke:none"
       transform="scale(1.3333333)" />
    <path
       id="path22"
       d="m 147.051,87.957 h -5.438 v -1.125 c 0.375,-0.32 0.75,-0.644 1.125,-0.969 0.383,-0.332 0.739,-0.656 1.063,-0.968 0.695,-0.676 1.172,-1.207 1.422,-1.594 0.257,-0.395 0.39,-0.821 0.39,-1.281 0,-0.415 -0.14,-0.743 -0.422,-0.985 -0.273,-0.238 -0.652,-0.359 -1.14,-0.359 -0.336,0 -0.696,0.058 -1.078,0.172 -0.375,0.117 -0.746,0.293 -1.11,0.531 h -0.062 v -1.125 c 0.258,-0.125 0.601,-0.238 1.031,-0.344 0.426,-0.101 0.836,-0.156 1.234,-0.156 0.821,0 1.469,0.199 1.938,0.594 0.469,0.398 0.703,0.933 0.703,1.609 0,0.313 -0.043,0.602 -0.125,0.859 -0.074,0.262 -0.184,0.512 -0.328,0.75 -0.149,0.231 -0.313,0.454 -0.5,0.672 -0.188,0.211 -0.418,0.446 -0.688,0.703 -0.386,0.387 -0.789,0.758 -1.203,1.11 -0.406,0.355 -0.789,0.683 -1.14,0.984 h 4.328 z"
       style="fill:#000000;fill-opacity:1;fill-rule:nonzero;stroke:none"
       transform="scale(1.3333333)" />
    <path
       id="path23"
       d="m 208.613,80.863 h -4.062 v 2.266 h 3.484 v 0.953 h -3.484 v 3.875 h -1.078 V 79.91 h 5.14 z"
       style="fill:#000000;fill-opacity:1;fill-rule:nonzero;stroke:none"
       transform="scale(1.3333333)" />
    <path
       id="path24"
       d="m 210.84,80.91 h -1.156 v -1.047 h 1.156 z m -0.063,7.047 h -1.015 v -6.031 h 1.015 z"
       style="fill:#000000;fill-opacity:1;fill-rule:nonzero;stroke:none"
       transform="scale(1.3333333)" />
    <path
       id="path25"
       d="m 217.668,87.27 c 0,1.019 -0.234,1.769 -0.703,2.25 -0.461,0.476 -1.172,0.718 -2.141,0.718 -0.312,0 -0.625,-0.023 -0.937,-0.062 -0.305,-0.043 -0.602,-0.106 -0.891,-0.188 v -1.047 h 0.047 c 0.164,0.063 0.426,0.141 0.781,0.235 0.364,0.101 0.727,0.156 1.094,0.156 0.344,0 0.629,-0.043 0.859,-0.125 0.227,-0.086 0.407,-0.199 0.532,-0.344 0.125,-0.148 0.211,-0.32 0.265,-0.515 0.051,-0.2 0.078,-0.414 0.078,-0.657 v -0.562 c -0.304,0.25 -0.593,0.437 -0.875,0.562 -0.281,0.118 -0.636,0.172 -1.062,0.172 -0.719,0 -1.293,-0.258 -1.719,-0.781 -0.43,-0.519 -0.641,-1.254 -0.641,-2.203 0,-0.508 0.071,-0.953 0.219,-1.328 0.145,-0.383 0.348,-0.711 0.61,-0.985 0.226,-0.257 0.507,-0.457 0.843,-0.593 0.332,-0.145 0.664,-0.219 1,-0.219 0.352,0 0.645,0.039 0.875,0.109 0.239,0.075 0.489,0.18 0.75,0.313 l 0.063,-0.25 h 0.953 z m -1.016,-0.969 v -3.297 c -0.273,-0.113 -0.523,-0.195 -0.75,-0.25 -0.23,-0.051 -0.461,-0.078 -0.687,-0.078 -0.563,0 -1.008,0.187 -1.328,0.562 -0.324,0.367 -0.485,0.907 -0.485,1.625 0,0.68 0.118,1.196 0.36,1.547 0.238,0.344 0.633,0.516 1.187,0.516 0.289,0 0.582,-0.055 0.875,-0.172 0.301,-0.113 0.578,-0.266 0.828,-0.453 z"
       style="fill:#000000;fill-opacity:1;fill-rule:nonzero;stroke:none"
       transform="scale(1.3333333)" />
    <path
       id="path26"
       d="m 224.668,87.957 h -1.016 v -0.672 c -0.343,0.274 -0.672,0.481 -0.984,0.625 -0.313,0.145 -0.656,0.219 -1.031,0.219 -0.637,0 -1.133,-0.191 -1.485,-0.578 -0.355,-0.395 -0.531,-0.969 -0.531,-1.719 v -3.906 h 1.016 v 3.437 c 0,0.305 0.015,0.563 0.047,0.782 0.031,0.218 0.093,0.406 0.187,0.562 0.094,0.156 0.219,0.273 0.375,0.344 0.156,0.074 0.379,0.109 0.672,0.109 0.258,0 0.547,-0.066 0.859,-0.203 0.313,-0.133 0.602,-0.312 0.875,-0.531 v -4.5 h 1.016 z"
       style="fill:#000000;fill-opacity:1;fill-rule:nonzero;stroke:none"
       transform="scale(1.3333333)" />
    <path
       id="path27"
       d="m 230.426,83.035 h -0.063 c -0.148,-0.039 -0.293,-0.066 -0.437,-0.078 -0.137,-0.019 -0.305,-0.031 -0.5,-0.031 -0.313,0 -0.617,0.074 -0.906,0.219 -0.293,0.136 -0.575,0.312 -0.844,0.531 v 4.281 h -1.016 v -6.031 h 1.016 v 0.89 c 0.406,-0.32 0.758,-0.55 1.062,-0.687 0.313,-0.133 0.629,-0.203 0.953,-0.203 0.164,0 0.289,0.008 0.375,0.015 0.082,0.012 0.204,0.028 0.36,0.047 z"
       style="fill:#000000;fill-opacity:1;fill-rule:nonzero;stroke:none"
       transform="scale(1.3333333)" />
    <path
       id="path28"
       d="m 235.863,87.957 h -1.015 v -0.641 c -0.086,0.063 -0.203,0.153 -0.36,0.266 -0.156,0.106 -0.304,0.188 -0.437,0.25 -0.18,0.086 -0.375,0.148 -0.594,0.203 -0.219,0.063 -0.477,0.094 -0.766,0.094 -0.543,0 -1.007,-0.176 -1.39,-0.531 -0.375,-0.364 -0.563,-0.828 -0.563,-1.391 0,-0.457 0.098,-0.828 0.297,-1.109 0.195,-0.282 0.477,-0.504 0.844,-0.672 0.363,-0.156 0.801,-0.258 1.312,-0.313 0.52,-0.062 1.071,-0.109 1.657,-0.14 v -0.157 c 0,-0.226 -0.043,-0.414 -0.125,-0.562 -0.075,-0.156 -0.188,-0.281 -0.344,-0.375 -0.149,-0.082 -0.32,-0.133 -0.516,-0.156 -0.199,-0.032 -0.406,-0.047 -0.625,-0.047 -0.273,0 -0.574,0.039 -0.906,0.109 -0.324,0.063 -0.656,0.164 -1,0.297 h -0.062 v -1.031 c 0.195,-0.051 0.484,-0.11 0.859,-0.172 0.375,-0.063 0.742,-0.094 1.109,-0.094 0.426,0 0.797,0.039 1.11,0.11 0.312,0.062 0.582,0.179 0.812,0.343 0.227,0.168 0.399,0.387 0.516,0.657 0.125,0.261 0.187,0.585 0.187,0.968 z m -1.015,-1.484 v -1.688 c -0.305,0.024 -0.668,0.055 -1.094,0.094 -0.418,0.031 -0.746,0.086 -0.984,0.156 -0.293,0.086 -0.532,0.215 -0.719,0.391 -0.18,0.168 -0.266,0.402 -0.266,0.703 0,0.355 0.102,0.621 0.313,0.797 0.207,0.168 0.523,0.25 0.953,0.25 0.351,0 0.676,-0.067 0.969,-0.203 0.3,-0.133 0.578,-0.301 0.828,-0.5 z"
       style="fill:#000000;fill-opacity:1;fill-rule:nonzero;stroke:none"
       transform="scale(1.3333333)" />
    <path
       id="path29"
       d="m 246.305,84.082 c 0.164,0.156 0.304,0.356 0.422,0.594 0.113,0.23 0.171,0.531 0.171,0.906 0,0.367 -0.07,0.703 -0.203,1.016 -0.136,0.304 -0.324,0.562 -0.562,0.781 -0.274,0.262 -0.59,0.453 -0.953,0.578 -0.367,0.113 -0.766,0.172 -1.203,0.172 -0.45,0 -0.891,-0.059 -1.329,-0.172 -0.429,-0.102 -0.777,-0.219 -1.046,-0.344 v -1.125 h 0.078 c 0.3,0.2 0.66,0.367 1.078,0.5 0.414,0.137 0.816,0.203 1.203,0.203 0.227,0 0.469,-0.035 0.719,-0.109 0.258,-0.082 0.468,-0.195 0.625,-0.344 0.164,-0.156 0.285,-0.328 0.359,-0.515 0.082,-0.196 0.125,-0.442 0.125,-0.735 0,-0.281 -0.047,-0.515 -0.141,-0.703 -0.085,-0.195 -0.21,-0.347 -0.375,-0.453 -0.156,-0.113 -0.355,-0.191 -0.593,-0.234 -0.231,-0.039 -0.477,-0.063 -0.735,-0.063 h -0.484 v -0.89 h 0.375 c 0.539,0 0.973,-0.114 1.297,-0.344 0.332,-0.227 0.5,-0.563 0.5,-1 0,-0.196 -0.043,-0.367 -0.125,-0.516 -0.086,-0.144 -0.199,-0.265 -0.344,-0.359 -0.156,-0.094 -0.324,-0.156 -0.5,-0.188 -0.18,-0.039 -0.375,-0.062 -0.594,-0.062 -0.343,0 -0.711,0.062 -1.093,0.187 -0.387,0.125 -0.75,0.297 -1.094,0.516 h -0.047 v -1.125 c 0.25,-0.125 0.586,-0.238 1.016,-0.344 0.425,-0.101 0.836,-0.156 1.234,-0.156 0.394,0 0.742,0.039 1.047,0.109 0.301,0.063 0.57,0.18 0.812,0.344 0.258,0.168 0.453,0.375 0.578,0.625 0.133,0.242 0.204,0.527 0.204,0.859 0,0.45 -0.157,0.84 -0.469,1.172 -0.313,0.325 -0.684,0.532 -1.11,0.625 v 0.078 c 0.165,0.024 0.36,0.079 0.579,0.172 0.226,0.094 0.421,0.211 0.578,0.344 z"
       style="fill:#000000;fill-opacity:1;fill-rule:nonzero;stroke:none"
       transform="scale(1.3333333)" />
    <path
       id="path30"
       d="m 304.27,80.809 h -4.063 v 2.265 h 3.484 v 0.953 h -3.484 v 3.875 h -1.078 v -8.047 h 5.141 z"
       style="fill:#000000;fill-opacity:1;fill-rule:nonzero;stroke:none"
       transform="scale(1.3333333)" />
    <path
       id="path31"
       d="m 306.496,80.855 h -1.156 v -1.046 h 1.156 z m -0.062,7.047 h -1.016 v -6.031 h 1.016 z"
       style="fill:#000000;fill-opacity:1;fill-rule:nonzero;stroke:none"
       transform="scale(1.3333333)" />
    <path
       id="path32"
       d="m 313.324,87.215 c 0,1.019 -0.234,1.769 -0.703,2.25 -0.461,0.476 -1.172,0.719 -2.141,0.719 -0.312,0 -0.625,-0.024 -0.937,-0.063 -0.305,-0.043 -0.602,-0.105 -0.891,-0.187 v -1.047 h 0.047 c 0.164,0.062 0.426,0.14 0.781,0.234 0.364,0.102 0.727,0.156 1.094,0.156 0.344,0 0.629,-0.043 0.86,-0.125 0.226,-0.086 0.406,-0.199 0.531,-0.343 0.125,-0.149 0.211,-0.321 0.265,-0.516 0.051,-0.199 0.079,-0.414 0.079,-0.656 v -0.563 c -0.305,0.25 -0.594,0.438 -0.875,0.563 -0.282,0.117 -0.637,0.172 -1.063,0.172 -0.719,0 -1.293,-0.258 -1.719,-0.782 -0.429,-0.519 -0.64,-1.254 -0.64,-2.203 0,-0.508 0.07,-0.953 0.218,-1.328 0.145,-0.383 0.348,-0.711 0.61,-0.984 0.226,-0.258 0.508,-0.457 0.844,-0.594 0.332,-0.145 0.664,-0.219 1,-0.219 0.351,0 0.644,0.039 0.875,0.11 0.238,0.074 0.488,0.179 0.75,0.312 l 0.062,-0.25 h 0.953 z m -1.015,-0.969 v -3.297 c -0.274,-0.113 -0.524,-0.195 -0.75,-0.25 -0.231,-0.051 -0.461,-0.078 -0.688,-0.078 -0.562,0 -1.008,0.188 -1.328,0.563 -0.324,0.367 -0.484,0.906 -0.484,1.625 0,0.679 0.117,1.195 0.359,1.546 0.238,0.344 0.633,0.516 1.187,0.516 0.29,0 0.583,-0.055 0.875,-0.172 0.301,-0.113 0.579,-0.265 0.829,-0.453 z"
       style="fill:#000000;fill-opacity:1;fill-rule:nonzero;stroke:none"
       transform="scale(1.3333333)" />
    <path
       id="path33"
       d="m 320.324,87.902 h -1.015 V 87.23 c -0.344,0.274 -0.672,0.481 -0.985,0.625 -0.312,0.145 -0.656,0.219 -1.031,0.219 -0.637,0 -1.133,-0.191 -1.484,-0.578 -0.356,-0.394 -0.532,-0.969 -0.532,-1.719 v -3.906 h 1.016 v 3.438 c 0,0.304 0.016,0.562 0.047,0.781 0.031,0.219 0.094,0.406 0.187,0.562 0.094,0.157 0.219,0.274 0.375,0.344 0.157,0.074 0.379,0.109 0.672,0.109 0.258,0 0.547,-0.066 0.86,-0.203 0.312,-0.132 0.601,-0.312 0.875,-0.531 v -4.5 h 1.015 z"
       style="fill:#000000;fill-opacity:1;fill-rule:nonzero;stroke:none"
       transform="scale(1.3333333)" />
    <path
       id="path34"
       d="m 326.082,82.98 h -0.062 c -0.149,-0.039 -0.293,-0.066 -0.438,-0.078 -0.137,-0.019 -0.305,-0.031 -0.5,-0.031 -0.312,0 -0.617,0.074 -0.906,0.219 -0.293,0.137 -0.574,0.312 -0.844,0.531 v 4.281 h -1.016 v -6.031 h 1.016 v 0.891 c 0.406,-0.321 0.758,-0.551 1.063,-0.688 0.312,-0.133 0.628,-0.203 0.953,-0.203 0.164,0 0.289,0.008 0.375,0.016 0.082,0.011 0.203,0.027 0.359,0.047 z"
       style="fill:#000000;fill-opacity:1;fill-rule:nonzero;stroke:none"
       transform="scale(1.3333333)" />
    <path
       id="path35"
       d="m 331.52,87.902 h -1.016 v -0.64 c -0.086,0.062 -0.203,0.152 -0.359,0.265 -0.157,0.106 -0.305,0.188 -0.438,0.25 -0.18,0.086 -0.375,0.149 -0.594,0.203 -0.218,0.063 -0.476,0.094 -0.765,0.094 -0.543,0 -1.008,-0.176 -1.391,-0.531 -0.375,-0.363 -0.562,-0.828 -0.562,-1.391 0,-0.457 0.097,-0.828 0.296,-1.109 0.196,-0.281 0.477,-0.504 0.844,-0.672 0.363,-0.156 0.801,-0.258 1.313,-0.312 0.519,-0.063 1.07,-0.11 1.656,-0.141 v -0.156 c 0,-0.227 -0.043,-0.414 -0.125,-0.563 -0.074,-0.156 -0.188,-0.281 -0.344,-0.375 -0.148,-0.082 -0.32,-0.133 -0.515,-0.156 -0.2,-0.031 -0.407,-0.047 -0.625,-0.047 -0.274,0 -0.575,0.039 -0.907,0.109 -0.324,0.063 -0.656,0.165 -1,0.297 h -0.062 v -1.031 c 0.195,-0.051 0.484,-0.109 0.859,-0.172 0.375,-0.062 0.742,-0.094 1.11,-0.094 0.425,0 0.796,0.04 1.109,0.11 0.312,0.062 0.582,0.18 0.812,0.344 0.227,0.168 0.399,0.386 0.516,0.656 0.125,0.262 0.188,0.586 0.188,0.969 z m -1.016,-1.484 V 84.73 c -0.305,0.024 -0.668,0.055 -1.094,0.094 -0.418,0.031 -0.746,0.086 -0.984,0.156 -0.293,0.086 -0.531,0.215 -0.719,0.391 -0.18,0.168 -0.266,0.402 -0.266,0.703 0,0.356 0.102,0.621 0.313,0.797 0.207,0.168 0.523,0.25 0.953,0.25 0.352,0 0.676,-0.066 0.969,-0.203 0.301,-0.133 0.578,-0.301 0.828,-0.5 z"
       style="fill:#000000;fill-opacity:1;fill-rule:nonzero;stroke:none"
       transform="scale(1.3333333)" />
    <path
       id="path36"
       d="m 342.852,85.637 h -1.204 v 2.265 h -1.031 v -2.265 h -3.844 v -1.235 l 3.891,-4.547 h 0.984 v 4.922 h 1.204 z m -2.235,-0.86 v -3.625 l -3.109,3.625 z"
       style="fill:#000000;fill-opacity:1;fill-rule:nonzero;stroke:none"
       transform="scale(1.3333333)" />
    <path
       id="path37"
       d="M 424.445,67.953 403.363,55.91 381.785,67.035 386.727,43.266 369.48,26.18 l 24.133,-2.645 10.918,-21.683 9.973,22.132 23.996,3.684 -17.969,16.324 z"
       style="fill:#979797;fill-opacity:1;fill-rule:evenodd;stroke:#000000;stroke-width:1.28743;stroke-linecap:butt;stroke-linejoin:miter;stroke-miterlimit:4;stroke-dasharray:none;stroke-opacity:1"
       transform="scale(1.3333333)" />
    <path
       id="path38"
       d="m 387.906,80.809 h -4.062 v 2.265 h 3.484 v 0.953 h -3.484 v 3.875 h -1.078 v -8.047 h 5.14 z"
       style="fill:#000000;fill-opacity:1;fill-rule:nonzero;stroke:none"
       transform="scale(1.3333333)" />
    <path
       id="path39"
       d="m 390.133,80.855 h -1.156 v -1.046 h 1.156 z m -0.063,7.047 h -1.015 v -6.031 h 1.015 z"
       style="fill:#000000;fill-opacity:1;fill-rule:nonzero;stroke:none"
       transform="scale(1.3333333)" />
    <path
       id="path40"
       d="m 396.961,87.215 c 0,1.019 -0.234,1.769 -0.703,2.25 -0.461,0.476 -1.172,0.719 -2.141,0.719 -0.312,0 -0.625,-0.024 -0.937,-0.063 -0.305,-0.043 -0.602,-0.105 -0.891,-0.187 v -1.047 h 0.047 c 0.164,0.062 0.426,0.14 0.781,0.234 0.363,0.102 0.727,0.156 1.094,0.156 0.344,0 0.629,-0.043 0.859,-0.125 0.227,-0.086 0.407,-0.199 0.532,-0.343 0.125,-0.149 0.211,-0.321 0.265,-0.516 0.051,-0.199 0.078,-0.414 0.078,-0.656 v -0.563 c -0.304,0.25 -0.593,0.438 -0.875,0.563 -0.281,0.117 -0.636,0.172 -1.062,0.172 -0.719,0 -1.293,-0.258 -1.719,-0.782 -0.43,-0.519 -0.641,-1.254 -0.641,-2.203 0,-0.508 0.071,-0.953 0.219,-1.328 0.145,-0.383 0.348,-0.711 0.61,-0.984 0.226,-0.258 0.507,-0.457 0.843,-0.594 0.332,-0.145 0.664,-0.219 1,-0.219 0.352,0 0.645,0.039 0.875,0.11 0.239,0.074 0.489,0.179 0.75,0.312 l 0.063,-0.25 h 0.953 z m -1.016,-0.969 v -3.297 c -0.273,-0.113 -0.523,-0.195 -0.75,-0.25 -0.23,-0.051 -0.461,-0.078 -0.687,-0.078 -0.563,0 -1.008,0.188 -1.328,0.563 -0.325,0.367 -0.485,0.906 -0.485,1.625 0,0.679 0.118,1.195 0.36,1.546 0.238,0.344 0.633,0.516 1.187,0.516 0.289,0 0.582,-0.055 0.875,-0.172 0.301,-0.113 0.578,-0.265 0.828,-0.453 z"
       style="fill:#000000;fill-opacity:1;fill-rule:nonzero;stroke:none"
       transform="scale(1.3333333)" />
    <path
       id="path41"
       d="m 403.961,87.902 h -1.016 V 87.23 c -0.343,0.274 -0.672,0.481 -0.984,0.625 -0.313,0.145 -0.656,0.219 -1.031,0.219 -0.637,0 -1.133,-0.191 -1.485,-0.578 -0.355,-0.394 -0.531,-0.969 -0.531,-1.719 v -3.906 h 1.016 v 3.438 c 0,0.304 0.015,0.562 0.047,0.781 0.031,0.219 0.093,0.406 0.187,0.562 0.094,0.157 0.219,0.274 0.375,0.344 0.156,0.074 0.379,0.109 0.672,0.109 0.258,0 0.547,-0.066 0.859,-0.203 0.313,-0.132 0.602,-0.312 0.875,-0.531 v -4.5 h 1.016 z"
       style="fill:#000000;fill-opacity:1;fill-rule:nonzero;stroke:none"
       transform="scale(1.3333333)" />
    <path
       id="path42"
       d="m 409.719,82.98 h -0.063 c -0.148,-0.039 -0.293,-0.066 -0.437,-0.078 -0.137,-0.019 -0.305,-0.031 -0.5,-0.031 -0.313,0 -0.617,0.074 -0.906,0.219 -0.293,0.137 -0.575,0.312 -0.844,0.531 v 4.281 h -1.016 v -6.031 h 1.016 v 0.891 c 0.406,-0.321 0.758,-0.551 1.062,-0.688 0.313,-0.133 0.629,-0.203 0.953,-0.203 0.164,0 0.289,0.008 0.375,0.016 0.082,0.011 0.204,0.027 0.36,0.047 z"
       style="fill:#000000;fill-opacity:1;fill-rule:nonzero;stroke:none"
       transform="scale(1.3333333)" />
    <path
       id="path43"
       d="m 415.156,87.902 h -1.015 v -0.64 c -0.086,0.062 -0.203,0.152 -0.36,0.265 -0.156,0.106 -0.304,0.188 -0.437,0.25 -0.18,0.086 -0.375,0.149 -0.594,0.203 -0.219,0.063 -0.477,0.094 -0.766,0.094 -0.543,0 -1.007,-0.176 -1.39,-0.531 -0.375,-0.363 -0.563,-0.828 -0.563,-1.391 0,-0.457 0.098,-0.828 0.297,-1.109 0.195,-0.281 0.477,-0.504 0.844,-0.672 0.363,-0.156 0.801,-0.258 1.312,-0.312 0.52,-0.063 1.071,-0.11 1.657,-0.141 v -0.156 c 0,-0.227 -0.043,-0.414 -0.125,-0.563 -0.075,-0.156 -0.188,-0.281 -0.344,-0.375 -0.149,-0.082 -0.32,-0.133 -0.516,-0.156 -0.199,-0.031 -0.406,-0.047 -0.625,-0.047 -0.273,0 -0.574,0.039 -0.906,0.109 -0.324,0.063 -0.656,0.165 -1,0.297 h -0.062 v -1.031 c 0.195,-0.051 0.484,-0.109 0.859,-0.172 0.375,-0.062 0.742,-0.094 1.109,-0.094 0.426,0 0.797,0.04 1.11,0.11 0.312,0.062 0.582,0.18 0.812,0.344 0.227,0.168 0.399,0.386 0.516,0.656 0.125,0.262 0.187,0.586 0.187,0.969 z m -1.015,-1.484 V 84.73 c -0.305,0.024 -0.668,0.055 -1.094,0.094 -0.418,0.031 -0.746,0.086 -0.984,0.156 -0.293,0.086 -0.532,0.215 -0.719,0.391 -0.18,0.168 -0.266,0.402 -0.266,0.703 0,0.356 0.102,0.621 0.313,0.797 0.207,0.168 0.523,0.25 0.953,0.25 0.351,0 0.676,-0.066 0.969,-0.203 0.3,-0.133 0.578,-0.301 0.828,-0.5 z"
       style="fill:#000000;fill-opacity:1;fill-rule:nonzero;stroke:none"
       transform="scale(1.3333333)" />
    <path
       id="path44"
       d="m 426.238,85.34 c 0,0.375 -0.07,0.734 -0.203,1.078 -0.137,0.344 -0.324,0.637 -0.562,0.875 -0.262,0.25 -0.575,0.445 -0.938,0.578 -0.355,0.133 -0.765,0.203 -1.234,0.203 -0.438,0 -0.86,-0.047 -1.266,-0.14 -0.406,-0.094 -0.75,-0.204 -1.031,-0.329 v -1.14 h 0.062 c 0.301,0.187 0.649,0.351 1.047,0.484 0.395,0.125 0.785,0.188 1.172,0.188 0.25,0 0.492,-0.035 0.735,-0.11 0.238,-0.07 0.453,-0.195 0.64,-0.375 0.156,-0.156 0.274,-0.343 0.36,-0.562 0.082,-0.219 0.125,-0.469 0.125,-0.75 0,-0.27 -0.055,-0.5 -0.157,-0.688 -0.093,-0.195 -0.226,-0.351 -0.39,-0.468 -0.188,-0.133 -0.418,-0.227 -0.688,-0.282 -0.262,-0.062 -0.558,-0.093 -0.89,-0.093 -0.313,0 -0.622,0.023 -0.922,0.062 -0.293,0.043 -0.543,0.086 -0.75,0.125 v -4.141 h 4.843 v 0.954 h -3.812 v 2.14 c 0.156,-0.019 0.312,-0.031 0.469,-0.031 0.164,-0.008 0.312,-0.016 0.437,-0.016 0.438,0 0.817,0.039 1.141,0.11 0.332,0.074 0.633,0.203 0.906,0.39 0.289,0.2 0.516,0.453 0.672,0.766 0.156,0.312 0.234,0.703 0.234,1.172 z"
       style="fill:#000000;fill-opacity:1;fill-rule:nonzero;stroke:none"
       transform="scale(1.3333333)" />
    <path
       id="path45"
       d="m 382.23,17.902 c -2.277,-1.836 -2.632,-5.172 -0.8,-7.449 1.836,-2.281 5.172,-2.64 7.453,-0.808 2.281,1.832 2.648,5.164 0.816,7.449 -1.828,2.285 -5.16,2.652 -7.449,0.828"
       style="fill:#000000;fill-opacity:1;fill-rule:evenodd;stroke:#000000;stroke-width:2.83465;stroke-linecap:butt;stroke-linejoin:miter;stroke-miterlimit:4;stroke-dasharray:none;stroke-opacity:1"
       transform="scale(1.3333333)" />
    <path
       id="path46"
       d="M 506.148,68.332 485.07,56.289 463.492,67.414 468.43,43.645 451.184,26.559 475.316,23.914 486.234,2.23 l 9.973,22.133 24,3.684 -17.969,16.324 z"
       style="fill:#ffffff;fill-opacity:1;fill-rule:evenodd;stroke:#000000;stroke-width:1.28743;stroke-linecap:butt;stroke-linejoin:miter;stroke-miterlimit:4;stroke-dasharray:none;stroke-opacity:1"
       transform="scale(1.3333333)" />
    <path
       id="path47"
       d="m 469.609,80.855 h -4.062 v 2.266 h 3.484 v 0.953 h -3.484 v 3.875 h -1.078 v -8.047 h 5.14 z"
       style="fill:#000000;fill-opacity:1;fill-rule:nonzero;stroke:none"
       transform="scale(1.3333333)" />
    <path
       id="path48"
       d="m 471.836,80.902 h -1.156 v -1.047 h 1.156 z m -0.063,7.047 h -1.015 v -6.031 h 1.015 z"
       style="fill:#000000;fill-opacity:1;fill-rule:nonzero;stroke:none"
       transform="scale(1.3333333)" />
    <path
       id="path49"
       d="m 478.664,87.262 c 0,1.019 -0.234,1.769 -0.703,2.25 -0.461,0.476 -1.172,0.718 -2.141,0.718 -0.312,0 -0.625,-0.023 -0.937,-0.062 -0.305,-0.043 -0.602,-0.105 -0.891,-0.188 v -1.046 h 0.047 c 0.164,0.062 0.426,0.14 0.781,0.234 0.364,0.102 0.727,0.156 1.094,0.156 0.344,0 0.629,-0.043 0.859,-0.125 0.227,-0.086 0.407,-0.199 0.532,-0.344 0.125,-0.148 0.211,-0.32 0.265,-0.515 0.051,-0.199 0.078,-0.414 0.078,-0.656 v -0.563 c -0.304,0.25 -0.593,0.438 -0.875,0.563 -0.281,0.117 -0.636,0.171 -1.062,0.171 -0.719,0 -1.293,-0.257 -1.719,-0.781 -0.429,-0.519 -0.64,-1.254 -0.64,-2.203 0,-0.508 0.07,-0.953 0.218,-1.328 0.145,-0.383 0.348,-0.711 0.61,-0.984 0.226,-0.258 0.508,-0.457 0.843,-0.594 0.332,-0.145 0.665,-0.219 1,-0.219 0.352,0 0.645,0.039 0.875,0.109 0.239,0.075 0.489,0.18 0.75,0.313 l 0.063,-0.25 h 0.953 z m -1.016,-0.969 v -3.297 c -0.273,-0.113 -0.523,-0.195 -0.75,-0.25 -0.23,-0.051 -0.46,-0.078 -0.687,-0.078 -0.563,0 -1.008,0.187 -1.328,0.562 -0.324,0.368 -0.485,0.907 -0.485,1.625 0,0.68 0.118,1.196 0.36,1.547 0.238,0.344 0.633,0.516 1.187,0.516 0.289,0 0.582,-0.055 0.875,-0.172 0.301,-0.113 0.578,-0.266 0.828,-0.453 z"
       style="fill:#000000;fill-opacity:1;fill-rule:nonzero;stroke:none"
       transform="scale(1.3333333)" />
    <path
       id="path50"
       d="m 485.668,87.949 h -1.016 v -0.672 c -0.343,0.274 -0.672,0.481 -0.984,0.625 -0.313,0.145 -0.656,0.219 -1.031,0.219 -0.637,0 -1.133,-0.191 -1.485,-0.578 -0.355,-0.395 -0.531,-0.969 -0.531,-1.719 v -3.906 h 1.016 v 3.437 c 0,0.305 0.015,0.563 0.047,0.782 0.031,0.218 0.093,0.406 0.187,0.562 0.094,0.156 0.219,0.274 0.375,0.344 0.156,0.074 0.379,0.109 0.672,0.109 0.258,0 0.547,-0.066 0.859,-0.203 0.313,-0.133 0.602,-0.312 0.875,-0.531 v -4.5 h 1.016 z"
       style="fill:#000000;fill-opacity:1;fill-rule:nonzero;stroke:none"
       transform="scale(1.3333333)" />
    <path
       id="path51"
       d="m 491.426,83.027 h -0.063 c -0.148,-0.039 -0.293,-0.066 -0.437,-0.078 -0.137,-0.019 -0.305,-0.031 -0.5,-0.031 -0.313,0 -0.617,0.074 -0.906,0.219 -0.293,0.136 -0.575,0.312 -0.844,0.531 v 4.281 h -1.016 v -6.031 h 1.016 v 0.891 c 0.406,-0.321 0.758,-0.551 1.062,-0.688 0.313,-0.133 0.629,-0.203 0.953,-0.203 0.164,0 0.289,0.008 0.375,0.016 0.082,0.011 0.204,0.027 0.36,0.046 z"
       style="fill:#000000;fill-opacity:1;fill-rule:nonzero;stroke:none"
       transform="scale(1.3333333)" />
    <path
       id="path52"
       d="m 496.859,87.949 h -1.015 v -0.64 c -0.086,0.062 -0.203,0.152 -0.36,0.265 -0.156,0.106 -0.304,0.188 -0.437,0.25 -0.18,0.086 -0.375,0.149 -0.594,0.203 -0.219,0.063 -0.476,0.094 -0.765,0.094 -0.543,0 -1.008,-0.176 -1.391,-0.531 -0.375,-0.363 -0.563,-0.828 -0.563,-1.391 0,-0.457 0.098,-0.828 0.297,-1.109 0.196,-0.281 0.477,-0.504 0.844,-0.672 0.363,-0.156 0.801,-0.258 1.313,-0.313 0.519,-0.062 1.07,-0.109 1.656,-0.14 v -0.156 c 0,-0.227 -0.043,-0.414 -0.125,-0.563 -0.074,-0.156 -0.188,-0.281 -0.344,-0.375 -0.148,-0.082 -0.32,-0.133 -0.516,-0.156 -0.199,-0.031 -0.406,-0.047 -0.625,-0.047 -0.273,0 -0.574,0.039 -0.906,0.109 -0.324,0.063 -0.656,0.164 -1,0.297 h -0.062 v -1.031 c 0.195,-0.051 0.484,-0.109 0.859,-0.172 0.375,-0.062 0.742,-0.094 1.109,-0.094 0.426,0 0.797,0.039 1.11,0.11 0.312,0.062 0.582,0.179 0.812,0.343 0.227,0.168 0.399,0.387 0.516,0.657 0.125,0.261 0.187,0.586 0.187,0.968 z m -1.015,-1.484 v -1.688 c -0.305,0.024 -0.668,0.055 -1.094,0.094 -0.418,0.031 -0.746,0.086 -0.984,0.156 -0.293,0.086 -0.532,0.215 -0.719,0.391 -0.18,0.168 -0.266,0.402 -0.266,0.703 0,0.356 0.102,0.621 0.313,0.797 0.207,0.168 0.523,0.25 0.953,0.25 0.351,0 0.676,-0.066 0.969,-0.203 0.3,-0.133 0.578,-0.301 0.828,-0.5 z"
       style="fill:#000000;fill-opacity:1;fill-rule:nonzero;stroke:none"
       transform="scale(1.3333333)" />
    <path
       id="path53"
       d="m 508.133,85.34 c 0,0.812 -0.274,1.48 -0.813,2 -0.543,0.523 -1.203,0.781 -1.984,0.781 -0.398,0 -0.758,-0.062 -1.078,-0.187 -0.324,-0.125 -0.61,-0.305 -0.86,-0.547 -0.304,-0.301 -0.543,-0.696 -0.718,-1.188 -0.168,-0.488 -0.25,-1.082 -0.25,-1.781 0,-0.719 0.078,-1.348 0.234,-1.891 0.156,-0.55 0.399,-1.039 0.734,-1.468 0.313,-0.414 0.719,-0.735 1.219,-0.954 0.5,-0.226 1.082,-0.343 1.75,-0.343 0.219,0 0.395,0.011 0.531,0.031 0.145,0.012 0.297,0.043 0.454,0.094 v 1.031 h -0.063 c -0.105,-0.063 -0.262,-0.113 -0.469,-0.156 -0.199,-0.051 -0.402,-0.078 -0.609,-0.078 -0.773,0 -1.391,0.246 -1.859,0.734 -0.461,0.48 -0.727,1.133 -0.797,1.953 0.3,-0.176 0.597,-0.312 0.89,-0.406 0.289,-0.102 0.629,-0.156 1.016,-0.156 0.344,0 0.644,0.031 0.906,0.093 0.258,0.063 0.531,0.196 0.813,0.391 0.312,0.219 0.547,0.496 0.703,0.828 0.164,0.336 0.25,0.742 0.25,1.219 z m -1.094,0.047 c 0,-0.332 -0.055,-0.61 -0.156,-0.828 -0.094,-0.227 -0.258,-0.422 -0.485,-0.579 -0.168,-0.113 -0.355,-0.187 -0.562,-0.218 -0.199,-0.039 -0.406,-0.063 -0.625,-0.063 -0.305,0 -0.59,0.039 -0.859,0.11 -0.262,0.074 -0.528,0.183 -0.797,0.328 -0.012,0.086 -0.024,0.164 -0.032,0.234 0,0.074 0,0.168 0,0.281 0,0.563 0.055,1.012 0.172,1.344 0.125,0.336 0.285,0.594 0.485,0.781 0.164,0.157 0.343,0.274 0.531,0.344 0.195,0.074 0.41,0.109 0.641,0.109 0.519,0 0.929,-0.156 1.234,-0.468 0.301,-0.321 0.453,-0.782 0.453,-1.375 z"
       style="fill:#000000;fill-opacity:1;fill-rule:nonzero;stroke:none"
       transform="scale(1.3333333)" />
    <path
       id="path54"
       d="m 502.574,17.527 c -2.277,-1.839 -2.636,-5.175 -0.801,-7.453 1.836,-2.281 5.172,-2.64 7.454,-0.808 2.281,1.832 2.644,5.164 0.816,7.449 -1.828,2.285 -5.164,2.656 -7.449,0.828"
       style="fill:#000000;fill-opacity:1;fill-rule:evenodd;stroke:#000000;stroke-width:2.83465;stroke-linecap:butt;stroke-linejoin:miter;stroke-miterlimit:4;stroke-dasharray:none;stroke-opacity:1"
       transform="scale(1.3333333)" />
  </g>
</svg>
