<?xml version="1.0" encoding="UTF-8" standalone="no"?>
<!-- Created with Inkscape (http://www.inkscape.org/) -->

<svg
   version="1.1"
   id="svg1"
   width="986.66669"
   height="284"
   viewBox="0 0 986.66669 284"
   sodipodi:docname="upload_7fi5zwq3ucdowjecmgbqs7pyqx.pdf"
   xmlns:inkscape="http://www.inkscape.org/namespaces/inkscape"
   xmlns:sodipodi="http://sodipodi.sourceforge.net/DTD/sodipodi-0.dtd"
   xmlns="http://www.w3.org/2000/svg"
   xmlns:svg="http://www.w3.org/2000/svg">
  <defs
     id="defs1" />
  <sodipodi:namedview
     id="namedview1"
     pagecolor="#ffffff"
     bordercolor="#000000"
     borderopacity="0.25"
     inkscape:showpageshadow="2"
     inkscape:pageopacity="0.0"
     inkscape:pagecheckerboard="0"
     inkscape:deskcolor="#d1d1d1">
    <inkscape:page
       x="0"
       y="0"
       inkscape:label="1"
       id="page1"
       width="986.66669"
       height="284"
       margin="5.3333335 22.952 16.793333 21.4596"
       bleed="0" />
  </sodipodi:namedview>
  <g
     id="layer-MC0"
     inkscape:groupmode="layer"
     inkscape:label="Layer 1">
    <path
       id="path1"
       d="M 77.849,123.79 H 17.059 V 63 h 60.79 z"
       style="fill:#ffffff;fill-opacity:1;fill-rule:nonzero;stroke:#000000;stroke-width:0.811;stroke-linecap:butt;stroke-linejoin:miter;stroke-miterlimit:10;stroke-dasharray:none;stroke-opacity:1"
       transform="matrix(1.3333333,0,0,-1.3333333,0,284)" />
    <path
       id="path2"
       d="M 92.71,123.79 H 153.5 V 63 H 92.71 Z"
       style="fill:#ffffff;fill-opacity:1;fill-rule:nonzero;stroke:#000000;stroke-width:0.811;stroke-linecap:butt;stroke-linejoin:miter;stroke-miterlimit:10;stroke-dasharray:none;stroke-opacity:1"
       transform="matrix(1.3333333,0,0,-1.3333333,0,284)" />
    <path
       id="path3"
       d="M 0,0 V 59.81 Z"
       style="fill:#ffffff;fill-opacity:1;fill-rule:nonzero;stroke:none"
       transform="matrix(1.3333333,0,0,-1.3333333,63.2724,200)" />
    <path
       id="path4"
       d="M 0,0 V 59.811"
       style="fill:none;stroke:#000000;stroke-width:0.811;stroke-linecap:butt;stroke-linejoin:miter;stroke-miterlimit:10;stroke-dasharray:none;stroke-opacity:1"
       transform="matrix(1.3333333,0,0,-1.3333333,63.272133,200)" />
    <path
       id="path5"
       d="m 93.59,138.888 h 60.79 v 60.79 H 93.59 Z"
       style="fill:#ffffff;fill-opacity:1;fill-rule:nonzero;stroke:#000000;stroke-width:0.811;stroke-linecap:butt;stroke-linejoin:miter;stroke-miterlimit:10;stroke-dasharray:none;stroke-opacity:1"
       transform="matrix(1.3333333,0,0,-1.3333333,0,284)" />
    <path
       id="path6"
       d="M 0,0 H 59.81 Z"
       style="fill:#ffffff;fill-opacity:1;fill-rule:nonzero;stroke:none"
       transform="matrix(1.3333333,0,0,-1.3333333,126.0936,58.2896)" />
    <path
       id="path7"
       d="M 0,0 H -59.81"
       style="fill:none;stroke:#000000;stroke-width:0.811;stroke-linecap:butt;stroke-linejoin:miter;stroke-miterlimit:10;stroke-dasharray:none;stroke-opacity:1"
       transform="matrix(1.3333333,0,0,-1.3333333,205.84053,58.289067)" />
    <path
       id="path8"
       d="M 0,0 -60.79,60.79"
       style="fill:#ffffff;fill-opacity:1;fill-rule:nonzero;stroke:#000000;stroke-width:0.811;stroke-linecap:butt;stroke-linejoin:miter;stroke-miterlimit:10;stroke-dasharray:none;stroke-opacity:1"
       transform="matrix(1.3333333,0,0,-1.3333333,204.66667,200)" />
    <path
       id="path9"
       d="M 77.29,200 H 16.5 v -60.79 h 60.79 z"
       style="fill:#ffffff;fill-opacity:1;fill-rule:nonzero;stroke:#000000;stroke-width:0.811;stroke-linecap:butt;stroke-linejoin:miter;stroke-miterlimit:10;stroke-dasharray:none;stroke-opacity:1"
       transform="matrix(1.3333333,0,0,-1.3333333,0,284)" />
    <path
       id="path10"
       d="M 0,0 60.79,60.79"
       style="fill:#ffffff;fill-opacity:1;fill-rule:nonzero;stroke:#000000;stroke-width:0.811;stroke-linecap:butt;stroke-linejoin:miter;stroke-miterlimit:10;stroke-dasharray:none;stroke-opacity:1"
       transform="matrix(1.3333333,0,0,-1.3333333,22,98.386667)" />
    <path
       id="path11"
       d="m 271.849,123.79 h -60.79 V 63 h 60.79 z"
       style="fill:#ffffff;fill-opacity:1;fill-rule:nonzero;stroke:#000000;stroke-width:0.811;stroke-linecap:butt;stroke-linejoin:miter;stroke-miterlimit:10;stroke-dasharray:none;stroke-opacity:1"
       transform="matrix(1.3333333,0,0,-1.3333333,0,284)" />
    <path
       id="path12"
       d="M 347.5,123.79 H 286.71 V 63 h 60.79 z"
       style="fill:#ffffff;fill-opacity:1;fill-rule:nonzero;stroke:#000000;stroke-width:0.811;stroke-linecap:butt;stroke-linejoin:miter;stroke-miterlimit:10;stroke-dasharray:none;stroke-opacity:1"
       transform="matrix(1.3333333,0,0,-1.3333333,0,284)" />
    <path
       id="path13"
       d="M 0,0 H 59.81 Z"
       style="fill:#ffffff;fill-opacity:1;fill-rule:nonzero;stroke:none"
       transform="matrix(1.3333333,0,0,-1.3333333,281.412,159.4736)" />
    <path
       id="path14"
       d="M 0,0 H 59.81"
       style="fill:none;stroke:#000000;stroke-width:0.811;stroke-linecap:butt;stroke-linejoin:miter;stroke-miterlimit:10;stroke-dasharray:none;stroke-opacity:1"
       transform="matrix(1.3333333,0,0,-1.3333333,281.41213,159.47333)" />
    <path
       id="path15"
       d="m 287.59,138.888 h 60.79 v 60.79 h -60.79 z"
       style="fill:#ffffff;fill-opacity:1;fill-rule:nonzero;stroke:#000000;stroke-width:0.811;stroke-linecap:butt;stroke-linejoin:miter;stroke-miterlimit:10;stroke-dasharray:none;stroke-opacity:1"
       transform="matrix(1.3333333,0,0,-1.3333333,0,284)" />
    <path
       id="path16"
       d="M 0,0 H 59.81 Z"
       style="fill:#ffffff;fill-opacity:1;fill-rule:nonzero;stroke:none"
       transform="matrix(1.3333333,0,0,-1.3333333,384.7608,58.2896)" />
    <path
       id="path17"
       d="M 0,0 H -59.81"
       style="fill:none;stroke:#000000;stroke-width:0.811;stroke-linecap:butt;stroke-linejoin:miter;stroke-miterlimit:10;stroke-dasharray:none;stroke-opacity:1"
       transform="matrix(1.3333333,0,0,-1.3333333,464.5072,58.289067)" />
    <path
       id="path18"
       d="M 0,0 60.79,60.79"
       style="fill:#ffffff;fill-opacity:1;fill-rule:nonzero;stroke:#000000;stroke-width:0.811;stroke-linecap:butt;stroke-linejoin:miter;stroke-miterlimit:10;stroke-dasharray:none;stroke-opacity:1"
       transform="matrix(1.3333333,0,0,-1.3333333,382.28,200)" />
    <path
       id="path19"
       d="m 210.5,200 h 60.79 V 139.21 H 210.5 Z"
       style="fill:#ffffff;fill-opacity:1;fill-rule:nonzero;stroke:#000000;stroke-width:0.811;stroke-linecap:butt;stroke-linejoin:miter;stroke-miterlimit:10;stroke-dasharray:none;stroke-opacity:1"
       transform="matrix(1.3333333,0,0,-1.3333333,0,284)" />
    <path
       id="path20"
       d="M 0,0 -60.79,60.79"
       style="fill:#ffffff;fill-opacity:1;fill-rule:nonzero;stroke:#000000;stroke-width:0.811;stroke-linecap:butt;stroke-linejoin:miter;stroke-miterlimit:10;stroke-dasharray:none;stroke-opacity:1"
       transform="matrix(1.3333333,0,0,-1.3333333,361.72,98.386667)" />
    <path
       id="path21"
       d="m 460.849,123.79 h -60.79 V 63 h 60.79 z"
       style="fill:#ffffff;fill-opacity:1;fill-rule:nonzero;stroke:#000000;stroke-width:0.811;stroke-linecap:butt;stroke-linejoin:miter;stroke-miterlimit:10;stroke-dasharray:none;stroke-opacity:1"
       transform="matrix(1.3333333,0,0,-1.3333333,0,284)" />
    <path
       id="path22"
       d="M 536.5,123.79 H 475.71 V 63 h 60.79 z"
       style="fill:#ffffff;fill-opacity:1;fill-rule:nonzero;stroke:#000000;stroke-width:0.811;stroke-linecap:butt;stroke-linejoin:miter;stroke-miterlimit:10;stroke-dasharray:none;stroke-opacity:1"
       transform="matrix(1.3333333,0,0,-1.3333333,0,284)" />
    <path
       id="path23"
       d="M 0,0 H 59.81 Z"
       style="fill:#ffffff;fill-opacity:1;fill-rule:nonzero;stroke:none"
       transform="matrix(1.3333333,0,0,-1.3333333,533.412,159.4736)" />
    <path
       id="path24"
       d="M 0,0 H 59.811"
       style="fill:none;stroke:#000000;stroke-width:0.811;stroke-linecap:butt;stroke-linejoin:miter;stroke-miterlimit:10;stroke-dasharray:none;stroke-opacity:1"
       transform="matrix(1.3333333,0,0,-1.3333333,533.41147,159.47333)" />
    <path
       id="path25"
       d="m 537.381,199.678 h -60.79 v -60.79 h 60.79 z"
       style="fill:#ffffff;fill-opacity:1;fill-rule:nonzero;stroke:#000000;stroke-width:0.811;stroke-linecap:butt;stroke-linejoin:miter;stroke-miterlimit:10;stroke-dasharray:none;stroke-opacity:1"
       transform="matrix(1.3333333,0,0,-1.3333333,0,284)" />
    <path
       id="path26"
       d="M 0,0 V 59.81 Z"
       style="fill:#ffffff;fill-opacity:1;fill-rule:nonzero;stroke:none"
       transform="matrix(1.3333333,0,0,-1.3333333,675.9804,98.816)" />
    <path
       id="path27"
       d="M 0,0 V 59.811"
       style="fill:none;stroke:#000000;stroke-width:0.811;stroke-linecap:butt;stroke-linejoin:miter;stroke-miterlimit:10;stroke-dasharray:none;stroke-opacity:1"
       transform="matrix(1.3333333,0,0,-1.3333333,675.98053,98.815733)" />
    <path
       id="path28"
       d="M 0,0 60.79,60.79"
       style="fill:#ffffff;fill-opacity:1;fill-rule:nonzero;stroke:#000000;stroke-width:0.811;stroke-linecap:butt;stroke-linejoin:miter;stroke-miterlimit:10;stroke-dasharray:none;stroke-opacity:1"
       transform="matrix(1.3333333,0,0,-1.3333333,634.28,200)" />
    <path
       id="path29"
       d="M 460.29,200 H 399.5 v -60.79 h 60.79 z"
       style="fill:#ffffff;fill-opacity:1;fill-rule:nonzero;stroke:#000000;stroke-width:0.811;stroke-linecap:butt;stroke-linejoin:miter;stroke-miterlimit:10;stroke-dasharray:none;stroke-opacity:1"
       transform="matrix(1.3333333,0,0,-1.3333333,0,284)" />
    <path
       id="path30"
       d="M 0,0 60.79,60.79"
       style="fill:#ffffff;fill-opacity:1;fill-rule:nonzero;stroke:#000000;stroke-width:0.811;stroke-linecap:butt;stroke-linejoin:miter;stroke-miterlimit:10;stroke-dasharray:none;stroke-opacity:1"
       transform="matrix(1.3333333,0,0,-1.3333333,532.66667,98.386667)" />
    <path
       id="path31"
       d="m 645.849,123.79 h -60.79 V 63 h 60.79 z"
       style="fill:#ffffff;fill-opacity:1;fill-rule:nonzero;stroke:#000000;stroke-width:0.811;stroke-linecap:butt;stroke-linejoin:miter;stroke-miterlimit:10;stroke-dasharray:none;stroke-opacity:1"
       transform="matrix(1.3333333,0,0,-1.3333333,0,284)" />
    <path
       id="path32"
       d="M 721.5,123.79 H 660.71 V 63 h 60.79 z"
       style="fill:#ffffff;fill-opacity:1;fill-rule:nonzero;stroke:#000000;stroke-width:0.811;stroke-linecap:butt;stroke-linejoin:miter;stroke-miterlimit:10;stroke-dasharray:none;stroke-opacity:1"
       transform="matrix(1.3333333,0,0,-1.3333333,0,284)" />
    <path
       id="path33"
       d="M 0,0 V 59.81 Z"
       style="fill:#ffffff;fill-opacity:1;fill-rule:nonzero;stroke:none"
       transform="matrix(1.3333333,0,0,-1.3333333,820.6056,200)" />
    <path
       id="path34"
       d="M 0,0 V 59.811"
       style="fill:none;stroke:#000000;stroke-width:0.811;stroke-linecap:butt;stroke-linejoin:miter;stroke-miterlimit:10;stroke-dasharray:none;stroke-opacity:1"
       transform="matrix(1.3333333,0,0,-1.3333333,820.60547,200)" />
    <path
       id="path35"
       d="m 722.381,199.678 h -60.79 v -60.79 h 60.79 z"
       style="fill:#ffffff;fill-opacity:1;fill-rule:nonzero;stroke:#000000;stroke-width:0.811;stroke-linecap:butt;stroke-linejoin:miter;stroke-miterlimit:10;stroke-dasharray:none;stroke-opacity:1"
       transform="matrix(1.3333333,0,0,-1.3333333,0,284)" />
    <path
       id="path36"
       d="M 0,0 V 59.81 Z"
       style="fill:#ffffff;fill-opacity:1;fill-rule:nonzero;stroke:none"
       transform="matrix(1.3333333,0,0,-1.3333333,922.6476,98.816)" />
    <path
       id="path37"
       d="M 0,0 V 59.811"
       style="fill:none;stroke:#000000;stroke-width:0.811;stroke-linecap:butt;stroke-linejoin:miter;stroke-miterlimit:10;stroke-dasharray:none;stroke-opacity:1"
       transform="matrix(1.3333333,0,0,-1.3333333,922.6472,98.815733)" />
    <path
       id="path38"
       d="M 0,0 60.79,60.79"
       style="fill:#ffffff;fill-opacity:1;fill-rule:nonzero;stroke:#000000;stroke-width:0.811;stroke-linecap:butt;stroke-linejoin:miter;stroke-miterlimit:10;stroke-dasharray:none;stroke-opacity:1"
       transform="matrix(1.3333333,0,0,-1.3333333,880.94667,200)" />
    <path
       id="path39"
       d="m 584.5,200 h 60.79 V 139.21 H 584.5 Z"
       style="fill:#ffffff;fill-opacity:1;fill-rule:nonzero;stroke:#000000;stroke-width:0.811;stroke-linecap:butt;stroke-linejoin:miter;stroke-miterlimit:10;stroke-dasharray:none;stroke-opacity:1"
       transform="matrix(1.3333333,0,0,-1.3333333,0,284)" />
    <path
       id="path40"
       d="M 0,0 -60.79,60.79"
       style="fill:#ffffff;fill-opacity:1;fill-rule:nonzero;stroke:#000000;stroke-width:0.811;stroke-linecap:butt;stroke-linejoin:miter;stroke-miterlimit:10;stroke-dasharray:none;stroke-opacity:1"
       transform="matrix(1.3333333,0,0,-1.3333333,860.38667,98.386667)" />
    <path
       id="path41"
       d="M 16.839844,-9.765625e-4 C 16.59375,-1.3251953 16.523437,-2.9658203 16.523437,-4.6416016 v -7.2421874 c 0,-3.878906 -1.441406,-7.910156 -7.3593745,-7.910156 -2.4492188,0 -4.7695313,0.679687 -6.3632812,1.710937 l 0.796875,2.320313 c 1.3593749,-0.878907 3.2460937,-1.441407 5.0390625,-1.441407 3.9609372,0 4.4062502,2.882813 4.4062502,4.488282 v 0.398437 c -7.4882815,-0.04687 -11.6484378,2.5195314 -11.6484378,7.1953127 0,2.8007812 2.0039063,5.56640624 5.9296875,5.56640624 2.7539063,0 4.8398443,-1.359375 5.9179693,-2.88281254 h 0.117187 l 0.28125,2.4375000375 z M 13.113281,-6.5166016 c 0,0.3515625 -0.07031,0.7617188 -0.199218,1.1132813 -0.550782,1.640625 -2.15625,3.2460937 -4.6757817,3.2460937 -1.8046876,0 -3.3164063,-1.078125 -3.3164063,-3.3632812 0,-3.7617188 4.359375,-4.4414063 8.191406,-4.359375 z M 200.80078,-9.765625e-4 200.96484,-3.2001953 h 0.11719 c 1.44141,2.55468749 3.67969,3.64453124 6.48047,3.64453124 4.3125,0 8.67187,-3.44531254 8.67187,-10.35937504 0.0469,-5.8828129 -3.35156,-9.8789059 -8.15625,-9.8789059 -3.11718,0 -5.35546,1.394531 -6.59765,3.550781 h -0.082 V -28.395508 H 197.918 v 23.3906252 c 0,1.7226562 -0.082,3.6796875 -0.16406,5.0039062375 z M 201.39844,-11.239258 c 0,-0.5625 0.11718,-1.042969 0.19922,-1.441406 0.72656,-2.683594 2.96484,-4.324219 5.35546,-4.324219 3.76172,0 5.76563,3.328125 5.76563,7.2070314 0,4.4414063 -2.20313,7.4414063 -5.88281,7.4414063 -2.55469,0 -4.59375,-1.6875 -5.27344,-4.125 -0.082,-0.3984375 -0.16406,-0.84375 -0.16406,-1.2773438 z m 197.71582,7.8750002 c -0.9961,0.4453125 -2.32031,0.9609375 -4.3125,0.9609375 -3.84375,0 -6.72656,-2.7539063 -6.72656,-7.2421875 0,-4.0312502 2.40234,-7.3125002 6.84375,-7.3125002 1.92187,0 3.24609,0.433594 4.07812,0.914063 l 0.79688,-2.71875 c -0.94922,-0.480469 -2.78907,-0.996094 -4.875,-0.996094 -6.31641,0 -10.39454,4.324219 -10.39454,10.2773437 0,5.9179687 3.79688,9.87890624 9.63282,9.87890624 2.60156,0 4.64062,-0.6328125 5.5664,-1.11328125 z m 183,-25.0312502 v 11.554688 h -0.0703 c -0.87891,-1.558594 -2.88282,-2.953125 -5.84766,-2.953125 -4.71094,0 -8.71875,3.949218 -8.67188,10.3945309 0,5.8828125 3.59766,9.84375004 8.27344,9.84375004 3.16406,0 5.51953,-1.64062504 6.59766,-3.80859374 h 0.082 l 0.16406,3.3632812375 h 3.15235 C 585.67676,-1.3251953 585.6416,-3.2822266 585.6416,-5.0048828 V -28.395508 Z m 0,20.2734377 c 0,0.5625 -0.0352,1.0429687 -0.15235,1.5234375 -0.64453,2.6367187 -2.80078,4.1953125 -5.15625,4.1953125 -3.80859,0 -5.73046,-3.234375 -5.73046,-7.1601563 0,-4.2773434 2.16796,-7.4765624 5.80078,-7.4765624 2.64843,0 4.55859,1.839844 5.08593,4.078125 0.11719,0.445312 0.15235,1.042969 0.15235,1.476562 z m 0,0"
       style="fill:#000000;fill-opacity:1;fill-rule:nonzero;stroke:none"
       aria-label="abcd"
       transform="matrix(1.3333333,0,0,1.3333333,100,265.33333)" />
  </g>
</svg>
