<?xml version="1.0" encoding="UTF-8" standalone="no"?>
<!-- Created with Inkscape (http://www.inkscape.org/) -->

<svg
   version="1.1"
   id="svg1"
   width="494.77493"
   height="142.81723"
   viewBox="0 0 494.77493 142.81723"
   sodipodi:docname="upload_pzid43nejhpxvab4ucm6qjlr6p.pdf"
   xmlns:inkscape="http://www.inkscape.org/namespaces/inkscape"
   xmlns:sodipodi="http://sodipodi.sourceforge.net/DTD/sodipodi-0.dtd"
   xmlns="http://www.w3.org/2000/svg"
   xmlns:svg="http://www.w3.org/2000/svg">
  <defs
     id="defs1" />
  <sodipodi:namedview
     id="namedview1"
     pagecolor="#ffffff"
     bordercolor="#000000"
     borderopacity="0.25"
     inkscape:showpageshadow="2"
     inkscape:pageopacity="0.0"
     inkscape:pagecheckerboard="0"
     inkscape:deskcolor="#d1d1d1">
    <inkscape:page
       x="0"
       y="0"
       inkscape:label="1"
       id="page1"
       width="494.77493"
       height="142.81723"
       margin="0"
       bleed="0" />
  </sodipodi:namedview>
  <g
     id="g1"
     inkscape:groupmode="layer"
     inkscape:label="1">
    <path
       id="path1"
       d="M 20.52,0.527 V 80.484"
       style="fill:none;stroke:#000000;stroke-width:1.05776;stroke-linecap:butt;stroke-linejoin:miter;stroke-miterlimit:4;stroke-dasharray:none;stroke-opacity:1"
       transform="scale(1.3333333)" />
    <path
       id="path2"
       d="M 40.508,0.527 V 80.484"
       style="fill:none;stroke:#000000;stroke-width:1.05776;stroke-linecap:butt;stroke-linejoin:miter;stroke-miterlimit:4;stroke-dasharray:none;stroke-opacity:1"
       transform="scale(1.3333333)" />
    <path
       id="path3"
       d="M 60.496,0.527 V 80.484"
       style="fill:none;stroke:#000000;stroke-width:1.05776;stroke-linecap:butt;stroke-linejoin:miter;stroke-miterlimit:4;stroke-dasharray:none;stroke-opacity:1"
       transform="scale(1.3333333)" />
    <path
       id="path4"
       d="M 0.527,20.52 H 80.484"
       style="fill:none;stroke:#000000;stroke-width:1.05776;stroke-linecap:butt;stroke-linejoin:miter;stroke-miterlimit:4;stroke-dasharray:none;stroke-opacity:1"
       transform="scale(1.3333333)" />
    <path
       id="path5"
       d="M 0.527,40.508 H 80.484"
       style="fill:none;stroke:#000000;stroke-width:1.05776;stroke-linecap:butt;stroke-linejoin:miter;stroke-miterlimit:4;stroke-dasharray:none;stroke-opacity:1"
       transform="scale(1.3333333)" />
    <path
       id="path6"
       d="M 0.527,60.496 H 80.484"
       style="fill:none;stroke:#000000;stroke-width:1.05776;stroke-linecap:butt;stroke-linejoin:miter;stroke-miterlimit:4;stroke-dasharray:none;stroke-opacity:1"
       transform="scale(1.3333333)" />
    <path
       id="path7"
       d="M 0.527,0.527 H 80.484 V 80.484 H 0.527 Z"
       style="fill:none;stroke:#000000;stroke-width:1.05776;stroke-linecap:butt;stroke-linejoin:miter;stroke-miterlimit:4;stroke-dasharray:none;stroke-opacity:1"
       transform="scale(1.3333333)" />
    <path
       id="path8"
       d="M 117.391,0.527 V 80.484"
       style="fill:none;stroke:#000000;stroke-width:1.05776;stroke-linecap:butt;stroke-linejoin:miter;stroke-miterlimit:4;stroke-dasharray:none;stroke-opacity:1"
       transform="scale(1.3333333)" />
    <path
       id="path9"
       d="M 137.379,0.527 V 80.484"
       style="fill:none;stroke:#000000;stroke-width:1.05776;stroke-linecap:butt;stroke-linejoin:miter;stroke-miterlimit:4;stroke-dasharray:none;stroke-opacity:1"
       transform="scale(1.3333333)" />
    <path
       id="path10"
       d="M 157.371,0.527 V 80.484"
       style="fill:none;stroke:#000000;stroke-width:1.05776;stroke-linecap:butt;stroke-linejoin:miter;stroke-miterlimit:4;stroke-dasharray:none;stroke-opacity:1"
       transform="scale(1.3333333)" />
    <path
       id="path11"
       d="m 97.402,20.52 h 79.957"
       style="fill:none;stroke:#000000;stroke-width:1.05776;stroke-linecap:butt;stroke-linejoin:miter;stroke-miterlimit:4;stroke-dasharray:none;stroke-opacity:1"
       transform="scale(1.3333333)" />
    <path
       id="path12"
       d="m 97.402,40.508 h 79.957"
       style="fill:none;stroke:#000000;stroke-width:1.05776;stroke-linecap:butt;stroke-linejoin:miter;stroke-miterlimit:4;stroke-dasharray:none;stroke-opacity:1"
       transform="scale(1.3333333)" />
    <path
       id="path13"
       d="m 97.402,60.496 h 79.957"
       style="fill:none;stroke:#000000;stroke-width:1.05776;stroke-linecap:butt;stroke-linejoin:miter;stroke-miterlimit:4;stroke-dasharray:none;stroke-opacity:1"
       transform="scale(1.3333333)" />
    <path
       id="path14"
       d="m 97.402,0.527 h 79.957 V 80.484 H 97.402 Z"
       style="fill:none;stroke:#000000;stroke-width:1.05776;stroke-linecap:butt;stroke-linejoin:miter;stroke-miterlimit:4;stroke-dasharray:none;stroke-opacity:1"
       transform="scale(1.3333333)" />
    <path
       id="path15"
       d="M 310.582,0.527 V 80.484"
       style="fill:none;stroke:#000000;stroke-width:1.05776;stroke-linecap:butt;stroke-linejoin:miter;stroke-miterlimit:4;stroke-dasharray:none;stroke-opacity:1"
       transform="scale(1.3333333)" />
    <path
       id="path16"
       d="M 330.57,0.527 V 80.484"
       style="fill:none;stroke:#000000;stroke-width:1.05776;stroke-linecap:butt;stroke-linejoin:miter;stroke-miterlimit:4;stroke-dasharray:none;stroke-opacity:1"
       transform="scale(1.3333333)" />
    <path
       id="path17"
       d="M 350.563,0.527 V 80.484"
       style="fill:none;stroke:#000000;stroke-width:1.05776;stroke-linecap:butt;stroke-linejoin:miter;stroke-miterlimit:4;stroke-dasharray:none;stroke-opacity:1"
       transform="scale(1.3333333)" />
    <path
       id="path18"
       d="m 290.594,20.52 h 79.957"
       style="fill:none;stroke:#000000;stroke-width:1.05776;stroke-linecap:butt;stroke-linejoin:miter;stroke-miterlimit:4;stroke-dasharray:none;stroke-opacity:1"
       transform="scale(1.3333333)" />
    <path
       id="path19"
       d="m 290.594,40.508 h 79.957"
       style="fill:none;stroke:#000000;stroke-width:1.05776;stroke-linecap:butt;stroke-linejoin:miter;stroke-miterlimit:4;stroke-dasharray:none;stroke-opacity:1"
       transform="scale(1.3333333)" />
    <path
       id="path20"
       d="m 290.594,60.496 h 79.957"
       style="fill:none;stroke:#000000;stroke-width:1.05776;stroke-linecap:butt;stroke-linejoin:miter;stroke-miterlimit:4;stroke-dasharray:none;stroke-opacity:1"
       transform="scale(1.3333333)" />
    <path
       id="path21"
       d="m 290.594,0.527 h 79.957 v 79.957 h -79.957 z"
       style="fill:none;stroke:#000000;stroke-width:1.05776;stroke-linecap:butt;stroke-linejoin:miter;stroke-miterlimit:4;stroke-dasharray:none;stroke-opacity:1"
       transform="scale(1.3333333)" />
    <path
       id="path22"
       d="M 214.367,0.527 V 80.484"
       style="fill:none;stroke:#000000;stroke-width:1.05776;stroke-linecap:butt;stroke-linejoin:miter;stroke-miterlimit:4;stroke-dasharray:none;stroke-opacity:1"
       transform="scale(1.3333333)" />
    <path
       id="path23"
       d="M 234.355,0.527 V 80.484"
       style="fill:none;stroke:#000000;stroke-width:1.05776;stroke-linecap:butt;stroke-linejoin:miter;stroke-miterlimit:4;stroke-dasharray:none;stroke-opacity:1"
       transform="scale(1.3333333)" />
    <path
       id="path24"
       d="M 254.344,0.527 V 80.484"
       style="fill:none;stroke:#000000;stroke-width:1.05776;stroke-linecap:butt;stroke-linejoin:miter;stroke-miterlimit:4;stroke-dasharray:none;stroke-opacity:1"
       transform="scale(1.3333333)" />
    <path
       id="path25"
       d="m 194.375,20.52 h 79.957"
       style="fill:none;stroke:#000000;stroke-width:1.05776;stroke-linecap:butt;stroke-linejoin:miter;stroke-miterlimit:4;stroke-dasharray:none;stroke-opacity:1"
       transform="scale(1.3333333)" />
    <path
       id="path26"
       d="m 194.375,40.508 h 79.957"
       style="fill:none;stroke:#000000;stroke-width:1.05776;stroke-linecap:butt;stroke-linejoin:miter;stroke-miterlimit:4;stroke-dasharray:none;stroke-opacity:1"
       transform="scale(1.3333333)" />
    <path
       id="path27"
       d="m 194.375,60.496 h 79.957"
       style="fill:none;stroke:#000000;stroke-width:1.05776;stroke-linecap:butt;stroke-linejoin:miter;stroke-miterlimit:4;stroke-dasharray:none;stroke-opacity:1"
       transform="scale(1.3333333)" />
    <path
       id="path28"
       d="m 194.375,0.527 h 79.957 v 79.957 h -79.957 z"
       style="fill:none;stroke:#000000;stroke-width:1.05776;stroke-linecap:butt;stroke-linejoin:miter;stroke-miterlimit:4;stroke-dasharray:none;stroke-opacity:1"
       transform="scale(1.3333333)" />
    <path
       id="path29"
       d="M 1.125,10.449 V 1.168 H 19.688 V 19.73 H 1.125 Z"
       style="fill:#979797;fill-opacity:1;fill-rule:nonzero;stroke:#000000;stroke-width:1.1468;stroke-linecap:butt;stroke-linejoin:miter;stroke-miterlimit:4;stroke-dasharray:none;stroke-opacity:1"
       transform="scale(1.3333333)" />
    <path
       id="path30"
       d="M 1.199,30.516 V 21.234 H 19.758 V 39.797 H 1.199 Z"
       style="fill:#979797;fill-opacity:1;fill-rule:nonzero;stroke:#000000;stroke-width:1.1468;stroke-linecap:butt;stroke-linejoin:miter;stroke-miterlimit:4;stroke-dasharray:none;stroke-opacity:1"
       transform="scale(1.3333333)" />
    <path
       id="path31"
       d="M 1.383,70.395 V 61.113 H 19.941 V 79.676 H 1.383 Z"
       style="fill:#979797;fill-opacity:1;fill-rule:nonzero;stroke:#000000;stroke-width:1.1468;stroke-linecap:butt;stroke-linejoin:miter;stroke-miterlimit:4;stroke-dasharray:none;stroke-opacity:1"
       transform="scale(1.3333333)" />
    <path
       id="path32"
       d="M 1.422,50.41 V 41.129 H 19.984 V 59.691 H 1.422 Z"
       style="fill:#979797;fill-opacity:1;fill-rule:nonzero;stroke:#000000;stroke-width:1.1468;stroke-linecap:butt;stroke-linejoin:miter;stroke-miterlimit:4;stroke-dasharray:none;stroke-opacity:1"
       transform="scale(1.3333333)" />
    <path
       id="path33"
       d="m 98.18,70.117 v -9.281 h 18.562 V 79.395 H 98.18 Z"
       style="fill:#7f7f7f;fill-opacity:1;fill-rule:nonzero;stroke:#000000;stroke-width:1.1468;stroke-linecap:butt;stroke-linejoin:miter;stroke-miterlimit:4;stroke-dasharray:none;stroke-opacity:1"
       transform="scale(1.3333333)" />
    <path
       id="path34"
       d="M 98.098,10.66 V 1.379 H 116.66 V 19.938 H 98.098 Z"
       style="fill:#7f7f7f;fill-opacity:1;fill-rule:nonzero;stroke:#000000;stroke-width:1.1468;stroke-linecap:butt;stroke-linejoin:miter;stroke-miterlimit:4;stroke-dasharray:none;stroke-opacity:1"
       transform="scale(1.3333333)" />
    <path
       id="path35"
       d="M 157.949,10.66 V 1.379 h 18.563 v 18.559 h -18.563 z"
       style="fill:#7f7f7f;fill-opacity:1;fill-rule:nonzero;stroke:#000000;stroke-width:1.1468;stroke-linecap:butt;stroke-linejoin:miter;stroke-miterlimit:4;stroke-dasharray:none;stroke-opacity:1"
       transform="scale(1.3333333)" />
    <path
       id="path36"
       d="M 157.949,70.512 V 61.23 h 18.563 v 18.559 h -18.563 z"
       style="fill:#7f7f7f;fill-opacity:1;fill-rule:nonzero;stroke:#000000;stroke-width:1.1468;stroke-linecap:butt;stroke-linejoin:miter;stroke-miterlimit:4;stroke-dasharray:none;stroke-opacity:1"
       transform="scale(1.3333333)" />
    <path
       id="path37"
       d="m 118.008,70.277 v -9.281 h 18.558 v 18.559 h -18.558 z"
       style="fill:#7f7f7f;fill-opacity:1;fill-rule:nonzero;stroke:#000000;stroke-width:1.1468;stroke-linecap:butt;stroke-linejoin:miter;stroke-miterlimit:4;stroke-dasharray:none;stroke-opacity:1"
       transform="scale(1.3333333)" />
    <path
       id="path38"
       d="M 195.07,10.66 V 1.379 h 18.563 V 19.938 H 195.07 Z"
       style="fill:#7f7f7f;fill-opacity:1;fill-rule:nonzero;stroke:#000000;stroke-width:1.1468;stroke-linecap:butt;stroke-linejoin:miter;stroke-miterlimit:4;stroke-dasharray:none;stroke-opacity:1"
       transform="scale(1.3333333)" />
    <path
       id="path39"
       d="M 254.922,70.512 V 61.23 h 18.562 v 18.559 h -18.562 z"
       style="fill:#7f7f7f;fill-opacity:1;fill-rule:nonzero;stroke:#000000;stroke-width:1.1468;stroke-linecap:butt;stroke-linejoin:miter;stroke-miterlimit:4;stroke-dasharray:none;stroke-opacity:1"
       transform="scale(1.3333333)" />
    <path
       id="path40"
       d="M 291.289,70.512 V 61.23 h 18.563 v 18.559 h -18.563 z"
       style="fill:#7f7f7f;fill-opacity:1;fill-rule:nonzero;stroke:#000000;stroke-width:1.1468;stroke-linecap:butt;stroke-linejoin:miter;stroke-miterlimit:4;stroke-dasharray:none;stroke-opacity:1"
       transform="scale(1.3333333)" />
    <path
       id="path41"
       d="M 351.141,70.512 V 61.23 h 18.562 v 18.559 h -18.562 z"
       style="fill:#7f7f7f;fill-opacity:1;fill-rule:nonzero;stroke:#000000;stroke-width:1.1468;stroke-linecap:butt;stroke-linejoin:miter;stroke-miterlimit:4;stroke-dasharray:none;stroke-opacity:1"
       transform="scale(1.3333333)" />
    <path
       id="path42"
       d="M 351.141,10.66 V 1.379 h 18.562 v 18.559 h -18.562 z"
       style="fill:#7f7f7f;fill-opacity:1;fill-rule:nonzero;stroke:#000000;stroke-width:1.1468;stroke-linecap:butt;stroke-linejoin:miter;stroke-miterlimit:4;stroke-dasharray:none;stroke-opacity:1"
       transform="scale(1.3333333)" />
    <path
       id="path43"
       d="M 291.289,10.66 V 1.379 h 18.563 v 18.559 h -18.563 z"
       style="fill:#7f7f7f;fill-opacity:1;fill-rule:nonzero;stroke:#000000;stroke-width:1.1468;stroke-linecap:butt;stroke-linejoin:miter;stroke-miterlimit:4;stroke-dasharray:none;stroke-opacity:1"
       transform="scale(1.3333333)" />
    <path
       id="path44"
       d="m 290.992,30.52 v -9.282 h 18.559 v 18.559 h -18.559 z"
       style="fill:#7f7f7f;fill-opacity:1;fill-rule:nonzero;stroke:#000000;stroke-width:1.1468;stroke-linecap:butt;stroke-linejoin:miter;stroke-miterlimit:4;stroke-dasharray:none;stroke-opacity:1"
       transform="scale(1.3333333)" />
    <path
       id="path45"
       d="M 331.441,70.512 V 61.23 h 18.563 v 18.559 h -18.563 z"
       style="fill:#7f7f7f;fill-opacity:1;fill-rule:nonzero;stroke:#000000;stroke-width:1.1468;stroke-linecap:butt;stroke-linejoin:miter;stroke-miterlimit:4;stroke-dasharray:none;stroke-opacity:1"
       transform="scale(1.3333333)" />
    <path
       id="path46"
       d="m 5.477,90.02 h 7.64 v 1.5 H 7.273 v 3.921 h 5.266 v 1.516 H 7.273 v 6.359 H 5.477 Z"
       style="fill:#000000;fill-opacity:1;fill-rule:nonzero;stroke:none"
       transform="scale(1.3333333)" />
    <path
       id="path47"
       d="m 14.563,93.332 h 1.64 v 9.984 h -1.64 z m 0,-3.875 h 1.64 v 2.063 h -1.64 z"
       style="fill:#000000;fill-opacity:1;fill-rule:nonzero;stroke:none"
       transform="scale(1.3333333)" />
    <path
       id="path48"
       d="m 26.184,98.207 c 0,-1.187 -0.246,-2.102 -0.735,-2.75 -0.492,-0.656 -1.179,-0.984 -2.062,-0.984 -0.875,0 -1.559,0.328 -2.047,0.984 -0.492,0.648 -0.735,1.563 -0.735,2.75 0,1.188 0.243,2.109 0.735,2.766 0.488,0.648 1.172,0.968 2.047,0.968 0.883,0 1.57,-0.32 2.062,-0.968 0.489,-0.657 0.735,-1.578 0.735,-2.766 z m 1.64,3.875 c 0,1.695 -0.383,2.957 -1.14,3.781 -0.75,0.832 -1.903,1.25 -3.454,1.25 -0.574,0 -1.117,-0.047 -1.625,-0.14 -0.511,-0.086 -1.011,-0.215 -1.5,-0.391 v -1.594 c 0.489,0.258 0.969,0.453 1.438,0.578 0.469,0.125 0.945,0.188 1.437,0.188 1.071,0 1.875,-0.281 2.407,-0.844 0.531,-0.562 0.797,-1.406 0.797,-2.531 v -0.813 c -0.336,0.586 -0.766,1.024 -1.297,1.313 -0.532,0.293 -1.164,0.437 -1.891,0.437 -1.23,0 -2.219,-0.461 -2.969,-1.39 -0.75,-0.938 -1.125,-2.176 -1.125,-3.719 0,-1.539 0.375,-2.773 1.125,-3.703 0.75,-0.938 1.739,-1.406 2.969,-1.406 0.727,0 1.359,0.148 1.891,0.437 0.531,0.293 0.961,0.731 1.297,1.313 v -1.516 h 1.64 z"
       style="fill:#000000;fill-opacity:1;fill-rule:nonzero;stroke:none"
       transform="scale(1.3333333)" />
    <path
       id="path49"
       d="m 31.023,99.379 v -6.047 h 1.641 v 5.984 c 0,0.95 0.18,1.657 0.547,2.125 0.375,0.469 0.93,0.704 1.672,0.704 0.883,0 1.582,-0.282 2.094,-0.844 0.507,-0.563 0.765,-1.332 0.765,-2.313 v -5.656 h 1.641 v 9.984 h -1.641 v -1.531 c -0.398,0.606 -0.859,1.059 -1.39,1.36 -0.524,0.289 -1.133,0.437 -1.829,0.437 -1.148,0 -2.015,-0.352 -2.609,-1.062 -0.594,-0.719 -0.891,-1.766 -0.891,-3.141 z"
       style="fill:#000000;fill-opacity:1;fill-rule:nonzero;stroke:none"
       transform="scale(1.3333333)" />
    <path
       id="path50"
       d="m 48.535,94.863 c -0.18,-0.101 -0.375,-0.179 -0.594,-0.234 -0.218,-0.051 -0.461,-0.078 -0.718,-0.078 -0.93,0 -1.641,0.304 -2.141,0.906 -0.492,0.606 -0.734,1.477 -0.734,2.609 v 5.25 h -1.657 v -9.984 h 1.657 v 1.547 c 0.343,-0.602 0.789,-1.051 1.343,-1.344 0.551,-0.289 1.223,-0.437 2.016,-0.437 0.102,0 0.223,0.011 0.359,0.031 0.145,0.012 0.301,0.031 0.469,0.062 z"
       style="fill:#000000;fill-opacity:1;fill-rule:nonzero;stroke:none"
       transform="scale(1.3333333)" />
    <path
       id="path51"
       d="m 54.789,98.301 c -1.324,0 -2.242,0.152 -2.75,0.453 -0.512,0.305 -0.766,0.82 -0.766,1.547 0,0.586 0.192,1.047 0.579,1.39 0.382,0.344 0.906,0.516 1.562,0.516 0.906,0 1.633,-0.32 2.188,-0.969 0.55,-0.644 0.828,-1.504 0.828,-2.578 v -0.359 z m 3.281,-0.672 v 5.687 h -1.64 v -1.515 c -0.375,0.605 -0.844,1.054 -1.407,1.344 -0.554,0.289 -1.234,0.437 -2.046,0.437 -1.024,0 -1.836,-0.285 -2.438,-0.859 -0.605,-0.582 -0.906,-1.352 -0.906,-2.313 0,-1.125 0.375,-1.969 1.125,-2.531 0.75,-0.57 1.875,-0.859 3.375,-0.859 h 2.297 v -0.157 c 0,-0.758 -0.25,-1.343 -0.75,-1.75 -0.5,-0.414 -1.2,-0.625 -2.094,-0.625 -0.563,0 -1.117,0.071 -1.656,0.203 -0.543,0.137 -1.063,0.34 -1.563,0.61 v -1.516 c 0.602,-0.226 1.188,-0.398 1.75,-0.515 0.563,-0.114 1.11,-0.172 1.641,-0.172 1.445,0 2.523,0.375 3.234,1.125 0.719,0.75 1.078,1.886 1.078,3.406 z"
       style="fill:#000000;fill-opacity:1;fill-rule:nonzero;stroke:none"
       transform="scale(1.3333333)" />
    <path
       id="path52"
       d="m 67.766,101.801 h 2.937 V 91.645 L 67.5,92.301 V 90.66 l 3.188,-0.64 h 1.796 v 11.781 h 2.938 v 1.515 h -7.656 z"
       style="fill:#000000;fill-opacity:1;fill-rule:nonzero;stroke:none"
       transform="scale(1.3333333)" />
    <path
       id="path53"
       d="m 101.406,89.977 h 7.641 v 1.5 h -5.844 v 3.921 h 5.266 v 1.516 h -5.266 v 6.359 h -1.797 z"
       style="fill:#000000;fill-opacity:1;fill-rule:nonzero;stroke:none"
       transform="scale(1.3333333)" />
    <path
       id="path54"
       d="m 110.492,93.289 h 1.641 v 9.984 h -1.641 z m 0,-3.875 h 1.641 v 2.063 h -1.641 z"
       style="fill:#000000;fill-opacity:1;fill-rule:nonzero;stroke:none"
       transform="scale(1.3333333)" />
    <path
       id="path55"
       d="m 122.113,98.164 c 0,-1.187 -0.246,-2.101 -0.734,-2.75 -0.492,-0.656 -1.18,-0.984 -2.063,-0.984 -0.875,0 -1.558,0.328 -2.046,0.984 -0.493,0.649 -0.735,1.563 -0.735,2.75 0,1.188 0.242,2.109 0.735,2.766 0.488,0.648 1.171,0.968 2.046,0.968 0.883,0 1.571,-0.32 2.063,-0.968 0.488,-0.657 0.734,-1.578 0.734,-2.766 z m 1.641,3.875 c 0,1.695 -0.383,2.957 -1.141,3.781 -0.75,0.832 -1.902,1.25 -3.453,1.25 -0.574,0 -1.117,-0.047 -1.625,-0.14 -0.512,-0.086 -1.012,-0.215 -1.5,-0.391 v -1.594 c 0.488,0.258 0.969,0.453 1.438,0.578 0.468,0.125 0.945,0.188 1.437,0.188 1.07,0 1.875,-0.281 2.406,-0.844 0.532,-0.562 0.797,-1.406 0.797,-2.531 v -0.813 c -0.336,0.586 -0.765,1.024 -1.297,1.313 -0.531,0.293 -1.164,0.437 -1.89,0.437 -1.231,0 -2.219,-0.46 -2.969,-1.39 -0.75,-0.938 -1.125,-2.176 -1.125,-3.719 0,-1.539 0.375,-2.773 1.125,-3.703 0.75,-0.938 1.738,-1.406 2.969,-1.406 0.726,0 1.359,0.148 1.89,0.437 0.532,0.293 0.961,0.731 1.297,1.313 v -1.516 h 1.641 z"
       style="fill:#000000;fill-opacity:1;fill-rule:nonzero;stroke:none"
       transform="scale(1.3333333)" />
    <path
       id="path56"
       d="m 126.953,99.336 v -6.047 h 1.641 v 5.984 c 0,0.95 0.179,1.657 0.547,2.125 0.375,0.469 0.929,0.704 1.672,0.704 0.882,0 1.582,-0.282 2.093,-0.844 0.508,-0.563 0.766,-1.332 0.766,-2.313 v -5.656 h 1.641 v 9.984 h -1.641 v -1.531 c -0.399,0.606 -0.859,1.059 -1.391,1.36 -0.523,0.289 -1.133,0.437 -1.828,0.437 -1.148,0 -2.015,-0.351 -2.609,-1.062 -0.594,-0.719 -0.891,-1.766 -0.891,-3.141 z"
       style="fill:#000000;fill-opacity:1;fill-rule:nonzero;stroke:none"
       transform="scale(1.3333333)" />
    <path
       id="path57"
       d="m 144.465,94.82 c -0.18,-0.101 -0.375,-0.179 -0.594,-0.234 -0.219,-0.051 -0.461,-0.078 -0.719,-0.078 -0.929,0 -1.64,0.305 -2.14,0.906 -0.492,0.606 -0.735,1.477 -0.735,2.609 v 5.25 h -1.656 v -9.984 h 1.656 v 1.547 c 0.344,-0.602 0.789,-1.051 1.344,-1.344 0.551,-0.289 1.223,-0.437 2.016,-0.437 0.101,0 0.222,0.011 0.359,0.031 0.145,0.012 0.301,0.031 0.469,0.062 z"
       style="fill:#000000;fill-opacity:1;fill-rule:nonzero;stroke:none"
       transform="scale(1.3333333)" />
    <path
       id="path58"
       d="m 150.719,98.258 c -1.324,0 -2.242,0.152 -2.75,0.453 -0.512,0.305 -0.766,0.82 -0.766,1.547 0,0.586 0.192,1.047 0.578,1.39 0.383,0.344 0.907,0.516 1.563,0.516 0.906,0 1.633,-0.32 2.187,-0.969 0.551,-0.644 0.828,-1.504 0.828,-2.578 V 98.258 Z M 154,97.586 v 5.687 h -1.641 v -1.515 c -0.375,0.605 -0.843,1.055 -1.406,1.344 -0.555,0.289 -1.234,0.437 -2.047,0.437 -1.023,0 -1.836,-0.285 -2.437,-0.859 -0.606,-0.582 -0.906,-1.352 -0.906,-2.313 0,-1.125 0.375,-1.969 1.125,-2.531 0.75,-0.57 1.875,-0.859 3.375,-0.859 h 2.296 V 96.82 c 0,-0.757 -0.25,-1.343 -0.75,-1.75 -0.5,-0.414 -1.199,-0.625 -2.093,-0.625 -0.563,0 -1.118,0.071 -1.657,0.203 -0.543,0.137 -1.062,0.34 -1.562,0.61 v -1.516 c 0.601,-0.226 1.187,-0.398 1.75,-0.515 0.562,-0.114 1.109,-0.172 1.641,-0.172 1.445,0 2.523,0.375 3.234,1.125 0.719,0.75 1.078,1.886 1.078,3.406 z"
       style="fill:#000000;fill-opacity:1;fill-rule:nonzero;stroke:none"
       transform="scale(1.3333333)" />
    <path
       id="path59"
       d="m 164.93,101.758 h 6.281 v 1.515 h -8.438 v -1.515 c 0.676,-0.707 1.602,-1.656 2.782,-2.844 1.187,-1.195 1.929,-1.969 2.234,-2.312 0.57,-0.645 0.973,-1.192 1.203,-1.641 0.227,-0.445 0.344,-0.891 0.344,-1.328 0,-0.695 -0.25,-1.27 -0.75,-1.719 -0.492,-0.445 -1.137,-0.672 -1.938,-0.672 -0.562,0 -1.156,0.102 -1.781,0.297 -0.625,0.199 -1.297,0.496 -2.015,0.891 v -1.813 c 0.726,-0.289 1.406,-0.508 2.031,-0.656 0.633,-0.156 1.211,-0.234 1.734,-0.234 1.375,0 2.473,0.343 3.297,1.031 0.82,0.687 1.234,1.609 1.234,2.765 0,0.555 -0.105,1.075 -0.312,1.563 -0.211,0.492 -0.586,1.07 -1.125,1.734 -0.148,0.168 -0.621,0.664 -1.422,1.485 -0.793,0.824 -1.914,1.976 -3.359,3.453 z"
       style="fill:#000000;fill-opacity:1;fill-rule:nonzero;stroke:none"
       transform="scale(1.3333333)" />
    <path
       id="path60"
       d="m 200.141,89.945 h 7.64 v 1.5 h -5.843 v 3.922 h 5.265 v 1.516 h -5.265 v 6.359 h -1.797 z"
       style="fill:#000000;fill-opacity:1;fill-rule:nonzero;stroke:none"
       transform="scale(1.3333333)" />
    <path
       id="path61"
       d="m 209.227,93.258 h 1.64 v 9.984 h -1.64 z m 0,-3.875 h 1.64 v 2.062 h -1.64 z"
       style="fill:#000000;fill-opacity:1;fill-rule:nonzero;stroke:none"
       transform="scale(1.3333333)" />
    <path
       id="path62"
       d="m 220.848,98.133 c 0,-1.188 -0.246,-2.102 -0.735,-2.75 -0.492,-0.656 -1.179,-0.985 -2.062,-0.985 -0.875,0 -1.559,0.329 -2.047,0.985 -0.492,0.648 -0.734,1.562 -0.734,2.75 0,1.187 0.242,2.109 0.734,2.765 0.488,0.649 1.172,0.969 2.047,0.969 0.883,0 1.57,-0.32 2.062,-0.969 0.489,-0.656 0.735,-1.578 0.735,-2.765 z m 1.64,3.875 c 0,1.695 -0.383,2.957 -1.14,3.781 -0.75,0.832 -1.903,1.25 -3.453,1.25 -0.575,0 -1.118,-0.047 -1.625,-0.141 -0.512,-0.085 -1.012,-0.214 -1.5,-0.39 v -1.594 c 0.488,0.258 0.968,0.453 1.437,0.578 0.469,0.125 0.945,0.188 1.438,0.188 1.07,0 1.875,-0.282 2.406,-0.844 0.531,-0.563 0.797,-1.406 0.797,-2.531 v -0.813 c -0.336,0.586 -0.766,1.024 -1.297,1.313 -0.531,0.293 -1.164,0.437 -1.891,0.437 -1.23,0 -2.219,-0.461 -2.969,-1.39 -0.75,-0.938 -1.125,-2.176 -1.125,-3.719 0,-1.539 0.375,-2.774 1.125,-3.703 0.75,-0.938 1.739,-1.407 2.969,-1.407 0.727,0 1.36,0.149 1.891,0.438 0.531,0.293 0.961,0.73 1.297,1.312 v -1.515 h 1.64 z"
       style="fill:#000000;fill-opacity:1;fill-rule:nonzero;stroke:none"
       transform="scale(1.3333333)" />
    <path
       id="path63"
       d="m 225.688,99.305 v -6.047 h 1.64 v 5.984 c 0,0.949 0.18,1.656 0.547,2.125 0.375,0.469 0.93,0.703 1.672,0.703 0.883,0 1.582,-0.281 2.094,-0.843 0.507,-0.563 0.765,-1.332 0.765,-2.313 v -5.656 h 1.641 v 9.984 h -1.641 v -1.531 c -0.398,0.605 -0.859,1.059 -1.39,1.359 -0.524,0.289 -1.133,0.438 -1.828,0.438 -1.149,0 -2.016,-0.352 -2.61,-1.063 -0.594,-0.718 -0.89,-1.765 -0.89,-3.14 z"
       style="fill:#000000;fill-opacity:1;fill-rule:nonzero;stroke:none"
       transform="scale(1.3333333)" />
    <path
       id="path64"
       d="m 243.199,94.789 c -0.179,-0.101 -0.375,-0.18 -0.594,-0.234 -0.218,-0.051 -0.46,-0.078 -0.718,-0.078 -0.93,0 -1.641,0.304 -2.141,0.906 -0.492,0.605 -0.734,1.476 -0.734,2.609 v 5.25 h -1.657 v -9.984 h 1.657 v 1.547 c 0.343,-0.602 0.789,-1.051 1.343,-1.344 0.551,-0.289 1.223,-0.438 2.016,-0.438 0.102,0 0.223,0.012 0.359,0.032 0.145,0.011 0.301,0.031 0.469,0.062 z"
       style="fill:#000000;fill-opacity:1;fill-rule:nonzero;stroke:none"
       transform="scale(1.3333333)" />
    <path
       id="path65"
       d="m 249.449,98.227 c -1.324,0 -2.242,0.152 -2.75,0.453 -0.511,0.304 -0.765,0.82 -0.765,1.547 0,0.586 0.191,1.046 0.578,1.39 0.383,0.344 0.906,0.516 1.562,0.516 0.906,0 1.633,-0.32 2.188,-0.969 0.551,-0.644 0.828,-1.504 0.828,-2.578 v -0.359 z m 3.281,-0.672 v 5.687 h -1.64 v -1.515 c -0.375,0.605 -0.844,1.054 -1.406,1.343 -0.555,0.289 -1.235,0.438 -2.047,0.438 -1.024,0 -1.836,-0.285 -2.438,-0.86 -0.605,-0.582 -0.906,-1.351 -0.906,-2.312 0,-1.125 0.375,-1.969 1.125,-2.531 0.75,-0.571 1.875,-0.86 3.375,-0.86 h 2.297 v -0.156 c 0,-0.758 -0.25,-1.344 -0.75,-1.75 -0.5,-0.414 -1.199,-0.625 -2.094,-0.625 -0.562,0 -1.117,0.07 -1.656,0.203 -0.543,0.137 -1.063,0.34 -1.563,0.61 v -1.516 c 0.602,-0.227 1.188,-0.398 1.75,-0.516 0.563,-0.113 1.11,-0.172 1.641,-0.172 1.445,0 2.523,0.375 3.234,1.125 0.719,0.75 1.078,1.887 1.078,3.407 z"
       style="fill:#000000;fill-opacity:1;fill-rule:nonzero;stroke:none"
       transform="scale(1.3333333)" />
    <path
       id="path66"
       d="m 267.566,96.07 c 0.864,0.188 1.536,0.575 2.016,1.157 0.488,0.574 0.734,1.289 0.734,2.14 0,1.324 -0.453,2.344 -1.359,3.063 -0.906,0.718 -2.187,1.078 -3.844,1.078 -0.562,0 -1.14,-0.059 -1.734,-0.172 -0.594,-0.113 -1.203,-0.281 -1.828,-0.5 v -1.734 c 0.5,0.293 1.047,0.515 1.64,0.671 0.594,0.149 1.211,0.219 1.86,0.219 1.125,0 1.984,-0.222 2.578,-0.672 0.594,-0.445 0.891,-1.097 0.891,-1.953 0,-0.781 -0.278,-1.39 -0.829,-1.828 -0.554,-0.445 -1.32,-0.672 -2.296,-0.672 h -1.547 v -1.469 h 1.625 c 0.882,0 1.562,-0.175 2.031,-0.531 0.469,-0.351 0.703,-0.863 0.703,-1.531 0,-0.688 -0.246,-1.211 -0.734,-1.578 -0.481,-0.363 -1.172,-0.547 -2.078,-0.547 -0.493,0 -1.016,0.059 -1.579,0.172 -0.562,0.105 -1.183,0.265 -1.859,0.484 v -1.594 c 0.676,-0.195 1.313,-0.343 1.906,-0.437 0.602,-0.094 1.172,-0.141 1.703,-0.141 1.364,0 2.442,0.313 3.235,0.938 0.801,0.617 1.203,1.453 1.203,2.515 0,0.743 -0.215,1.368 -0.641,1.875 -0.418,0.5 -1.015,0.852 -1.797,1.047 z"
       style="fill:#000000;fill-opacity:1;fill-rule:nonzero;stroke:none"
       transform="scale(1.3333333)" />
    <path
       id="path67"
       d="m 297.129,89.566 h 7.641 v 1.5 h -5.844 v 3.922 h 5.265 v 1.516 h -5.265 v 6.359 h -1.797 z"
       style="fill:#000000;fill-opacity:1;fill-rule:nonzero;stroke:none"
       transform="scale(1.3333333)" />
    <path
       id="path68"
       d="m 306.215,92.879 h 1.64 v 9.984 h -1.64 z m 0,-3.875 h 1.64 v 2.062 h -1.64 z"
       style="fill:#000000;fill-opacity:1;fill-rule:nonzero;stroke:none"
       transform="scale(1.3333333)" />
    <path
       id="path69"
       d="m 317.836,97.754 c 0,-1.188 -0.246,-2.102 -0.734,-2.75 -0.493,-0.656 -1.18,-0.984 -2.063,-0.984 -0.875,0 -1.559,0.328 -2.047,0.984 -0.492,0.648 -0.734,1.562 -0.734,2.75 0,1.187 0.242,2.109 0.734,2.766 0.488,0.648 1.172,0.968 2.047,0.968 0.883,0 1.57,-0.32 2.063,-0.968 0.488,-0.657 0.734,-1.579 0.734,-2.766 z m 1.641,3.875 c 0,1.695 -0.383,2.957 -1.141,3.781 -0.75,0.832 -1.902,1.25 -3.453,1.25 -0.574,0 -1.117,-0.047 -1.625,-0.14 -0.512,-0.086 -1.012,-0.215 -1.5,-0.391 v -1.594 c 0.488,0.258 0.969,0.453 1.437,0.578 0.469,0.125 0.946,0.188 1.438,0.188 1.07,0 1.875,-0.281 2.406,-0.844 0.531,-0.562 0.797,-1.406 0.797,-2.531 v -0.813 c -0.336,0.586 -0.766,1.024 -1.297,1.313 -0.531,0.293 -1.164,0.437 -1.891,0.437 -1.23,0 -2.218,-0.461 -2.968,-1.39 -0.75,-0.938 -1.125,-2.176 -1.125,-3.719 0,-1.539 0.375,-2.774 1.125,-3.703 0.75,-0.938 1.738,-1.406 2.968,-1.406 0.727,0 1.36,0.148 1.891,0.437 0.531,0.293 0.961,0.731 1.297,1.313 v -1.516 h 1.641 z"
       style="fill:#000000;fill-opacity:1;fill-rule:nonzero;stroke:none"
       transform="scale(1.3333333)" />
    <path
       id="path70"
       d="m 322.676,98.926 v -6.047 h 1.64 v 5.984 c 0,0.95 0.18,1.657 0.547,2.125 0.375,0.469 0.93,0.703 1.672,0.703 0.883,0 1.582,-0.281 2.094,-0.843 0.508,-0.563 0.766,-1.332 0.766,-2.313 v -5.656 h 1.64 v 9.984 h -1.64 v -1.531 c -0.399,0.606 -0.86,1.059 -1.391,1.359 -0.524,0.289 -1.133,0.438 -1.828,0.438 -1.149,0 -2.016,-0.352 -2.61,-1.063 -0.593,-0.718 -0.89,-1.765 -0.89,-3.14 z"
       style="fill:#000000;fill-opacity:1;fill-rule:nonzero;stroke:none"
       transform="scale(1.3333333)" />
    <path
       id="path71"
       d="m 340.188,94.41 c -0.18,-0.101 -0.375,-0.18 -0.594,-0.234 -0.219,-0.051 -0.461,-0.078 -0.719,-0.078 -0.93,0 -1.641,0.304 -2.141,0.906 C 336.242,95.609 336,96.48 336,97.613 v 5.25 h -1.656 V 92.879 H 336 v 1.547 c 0.344,-0.602 0.789,-1.051 1.344,-1.344 0.551,-0.289 1.222,-0.437 2.015,-0.437 0.102,0 0.223,0.011 0.36,0.031 0.144,0.012 0.301,0.031 0.469,0.062 z"
       style="fill:#000000;fill-opacity:1;fill-rule:nonzero;stroke:none"
       transform="scale(1.3333333)" />
    <path
       id="path72"
       d="m 346.441,97.848 c -1.324,0 -2.242,0.152 -2.75,0.453 -0.511,0.304 -0.765,0.82 -0.765,1.547 0,0.586 0.191,1.047 0.578,1.39 0.383,0.344 0.906,0.516 1.562,0.516 0.907,0 1.633,-0.32 2.188,-0.969 0.551,-0.644 0.828,-1.504 0.828,-2.578 v -0.359 z m 3.282,-0.672 v 5.687 h -1.641 v -1.515 c -0.375,0.605 -0.844,1.054 -1.406,1.343 -0.555,0.289 -1.235,0.438 -2.047,0.438 -1.024,0 -1.836,-0.285 -2.438,-0.859 -0.605,-0.582 -0.906,-1.352 -0.906,-2.313 0,-1.125 0.375,-1.969 1.125,-2.531 0.75,-0.571 1.875,-0.86 3.375,-0.86 h 2.297 V 96.41 c 0,-0.758 -0.25,-1.344 -0.75,-1.75 -0.5,-0.414 -1.199,-0.625 -2.094,-0.625 -0.562,0 -1.117,0.07 -1.656,0.203 -0.543,0.137 -1.062,0.34 -1.562,0.61 v -1.516 c 0.601,-0.227 1.187,-0.398 1.75,-0.516 0.562,-0.113 1.109,-0.171 1.64,-0.171 1.445,0 2.524,0.375 3.235,1.125 0.718,0.75 1.078,1.886 1.078,3.406 z"
       style="fill:#000000;fill-opacity:1;fill-rule:nonzero;stroke:none"
       transform="scale(1.3333333)" />
    <path
       id="path73"
       d="m 364.043,91.129 -4.531,7.094 h 4.531 z m -0.469,-1.563 h 2.266 v 8.657 h 1.906 v 1.5 h -1.906 v 3.14 h -1.797 v -3.14 h -6 v -1.735 z"
       style="fill:#000000;fill-opacity:1;fill-rule:nonzero;stroke:none"
       transform="scale(1.3333333)" />
    <path
       id="path74"
       d="m 98.02,30.504 v -9.281 h 18.558 V 39.781 H 98.02 Z"
       style="fill:#7f7f7f;fill-opacity:1;fill-rule:nonzero;stroke:#000000;stroke-width:1.1468;stroke-linecap:butt;stroke-linejoin:miter;stroke-miterlimit:4;stroke-dasharray:none;stroke-opacity:1"
       transform="scale(1.3333333)" />
    <path
       id="path75"
       d="M 41.086,70.215 V 60.934 H 59.645 V 79.496 H 41.086 Z"
       style="fill:#979797;fill-opacity:1;fill-rule:nonzero;stroke:#000000;stroke-width:1.1468;stroke-linecap:butt;stroke-linejoin:miter;stroke-miterlimit:4;stroke-dasharray:none;stroke-opacity:1"
       transform="scale(1.3333333)" />
    <path
       id="path76"
       d="M 61.48,70.336 V 61.055 H 80.039 V 79.617 H 61.48 Z"
       style="fill:#979797;fill-opacity:1;fill-rule:nonzero;stroke:#000000;stroke-width:1.1468;stroke-linecap:butt;stroke-linejoin:miter;stroke-miterlimit:4;stroke-dasharray:none;stroke-opacity:1"
       transform="scale(1.3333333)" />
    <path
       id="path77"
       d="M 61.414,10.488 V 1.207 H 79.973 V 19.77 H 61.414 Z"
       style="fill:#979797;fill-opacity:1;fill-rule:nonzero;stroke:#000000;stroke-width:1.1468;stroke-linecap:butt;stroke-linejoin:miter;stroke-miterlimit:4;stroke-dasharray:none;stroke-opacity:1"
       transform="scale(1.3333333)" />
    <path
       id="path78"
       d="M 61.375,30.398 V 21.117 H 79.934 V 39.68 H 61.375 Z"
       style="fill:#979797;fill-opacity:1;fill-rule:nonzero;stroke:#000000;stroke-width:1.1468;stroke-linecap:butt;stroke-linejoin:miter;stroke-miterlimit:4;stroke-dasharray:none;stroke-opacity:1"
       transform="scale(1.3333333)" />
    <path
       id="path79"
       d="M 138.438,10.883 V 1.602 H 157 V 20.16 h -18.562 z"
       style="fill:#7f7f7f;fill-opacity:1;fill-rule:nonzero;stroke:#000000;stroke-width:1.1468;stroke-linecap:butt;stroke-linejoin:miter;stroke-miterlimit:4;stroke-dasharray:none;stroke-opacity:1"
       transform="scale(1.3333333)" />
    <path
       id="path80"
       d="m 157.793,50.57 v -9.281 h 18.562 v 18.559 h -18.562 z"
       style="fill:#7f7f7f;fill-opacity:1;fill-rule:nonzero;stroke:#000000;stroke-width:1.1468;stroke-linecap:butt;stroke-linejoin:miter;stroke-miterlimit:4;stroke-dasharray:none;stroke-opacity:1"
       transform="scale(1.3333333)" />
    <path
       id="path81"
       d="M 214.922,10.664 V 1.383 h 18.562 v 18.558 h -18.562 z"
       style="fill:#7f7f7f;fill-opacity:1;fill-rule:nonzero;stroke:#000000;stroke-width:1.1468;stroke-linecap:butt;stroke-linejoin:miter;stroke-miterlimit:4;stroke-dasharray:none;stroke-opacity:1"
       transform="scale(1.3333333)" />
    <path
       id="path82"
       d="M 255.215,10.602 V 1.32 h 18.562 v 18.559 h -18.562 z"
       style="fill:#7f7f7f;fill-opacity:1;fill-rule:nonzero;stroke:#000000;stroke-width:1.1468;stroke-linecap:butt;stroke-linejoin:miter;stroke-miterlimit:4;stroke-dasharray:none;stroke-opacity:1"
       transform="scale(1.3333333)" />
    <path
       id="path83"
       d="M 254.98,30.441 V 21.16 h 18.563 V 39.719 H 254.98 Z"
       style="fill:#7f7f7f;fill-opacity:1;fill-rule:nonzero;stroke:#000000;stroke-width:1.1468;stroke-linecap:butt;stroke-linejoin:miter;stroke-miterlimit:4;stroke-dasharray:none;stroke-opacity:1"
       transform="scale(1.3333333)" />
    <path
       id="path84"
       d="m 195.359,70.313 v -9.282 h 18.563 V 79.59 h -18.563 z"
       style="fill:#7f7f7f;fill-opacity:1;fill-rule:nonzero;stroke:#000000;stroke-width:1.1468;stroke-linecap:butt;stroke-linejoin:miter;stroke-miterlimit:4;stroke-dasharray:none;stroke-opacity:1"
       transform="scale(1.3333333)" />
    <path
       id="path85"
       d="m 215.125,70.145 v -9.282 h 18.563 v 18.559 h -18.563 z"
       style="fill:#7f7f7f;fill-opacity:1;fill-rule:nonzero;stroke:#000000;stroke-width:1.1468;stroke-linecap:butt;stroke-linejoin:miter;stroke-miterlimit:4;stroke-dasharray:none;stroke-opacity:1"
       transform="scale(1.3333333)" />
    <path
       id="path86"
       d="M 311.297,70.512 V 61.23 h 18.562 v 18.559 h -18.562 z"
       style="fill:#7f7f7f;fill-opacity:1;fill-rule:nonzero;stroke:#000000;stroke-width:1.1468;stroke-linecap:butt;stroke-linejoin:miter;stroke-miterlimit:4;stroke-dasharray:none;stroke-opacity:1"
       transform="scale(1.3333333)" />
    <path
       id="path87"
       d="m 351.063,30.406 v -9.281 h 18.562 v 18.559 h -18.562 z"
       style="fill:#7f7f7f;fill-opacity:1;fill-rule:nonzero;stroke:#000000;stroke-width:1.1468;stroke-linecap:butt;stroke-linejoin:miter;stroke-miterlimit:4;stroke-dasharray:none;stroke-opacity:1"
       transform="scale(1.3333333)" />
  </g>
</svg>
