<?xml version="1.0" encoding="UTF-8" standalone="no"?>
<!-- Created with Inkscape (http://www.inkscape.org/) -->

<svg
   version="1.1"
   id="svg1"
   width="291.70114"
   height="67.942093"
   viewBox="0 0 291.70114 67.942093"
   sodipodi:docname="upload_kwgatqtlsvrqxkh7fgyloo6ohx.pdf"
   xmlns:inkscape="http://www.inkscape.org/namespaces/inkscape"
   xmlns:sodipodi="http://sodipodi.sourceforge.net/DTD/sodipodi-0.dtd"
   xmlns="http://www.w3.org/2000/svg"
   xmlns:svg="http://www.w3.org/2000/svg">
  <defs
     id="defs1" />
  <sodipodi:namedview
     id="namedview1"
     pagecolor="#ffffff"
     bordercolor="#000000"
     borderopacity="0.25"
     inkscape:showpageshadow="2"
     inkscape:pageopacity="0.0"
     inkscape:pagecheckerboard="0"
     inkscape:deskcolor="#d1d1d1">
    <inkscape:page
       x="0"
       y="0"
       inkscape:label="1"
       id="page1"
       width="291.70114"
       height="67.942093"
       margin="0"
       bleed="0" />
  </sodipodi:namedview>
  <g
     id="g1"
     inkscape:groupmode="layer"
     inkscape:label="1">
    <path
       id="path1"
       d="m 152.918,-1.418 h 64.789 v -48.121 h -64.789 z"
       style="fill:none;stroke:#150808;stroke-width:0.75;stroke-linecap:butt;stroke-linejoin:miter;stroke-miterlimit:10;stroke-dasharray:none;stroke-opacity:1"
       transform="scale(1.3333333,-1.3333333)" />
    <path
       id="path2"
       d="M 2.57,-1.418 H 67.359 V -49.539 H 2.57 Z"
       style="fill:none;stroke:#150808;stroke-width:0.75;stroke-linecap:butt;stroke-linejoin:miter;stroke-miterlimit:10;stroke-dasharray:none;stroke-opacity:1"
       transform="scale(1.3333333,-1.3333333)" />
    <path
       id="path3"
       d="m 79.07,-1.418 h 64.789 V -49.539 H 79.07 Z"
       style="fill:#b3b3b3;fill-opacity:1;fill-rule:nonzero;stroke:#150808;stroke-width:0.75;stroke-linecap:butt;stroke-linejoin:miter;stroke-miterlimit:10;stroke-dasharray:none;stroke-opacity:1"
       transform="scale(1.3333333,-1.3333333)" />
    <path
       id="path4"
       d="m 152.918,-49.539 64.789,48.121"
       style="fill:none;stroke:#000000;stroke-width:0.75;stroke-linecap:butt;stroke-linejoin:miter;stroke-miterlimit:4;stroke-dasharray:none;stroke-opacity:1"
       transform="scale(1.3333333,-1.3333333)" />
    <path
       id="path5"
       d="M 67.359,-1.418 2.57,-49.539 l 64.789,0.648 z"
       style="fill:#b3b3b3;fill-opacity:1;fill-rule:nonzero;stroke:#000000;stroke-width:0.75;stroke-linecap:butt;stroke-linejoin:miter;stroke-miterlimit:4;stroke-dasharray:none;stroke-opacity:1"
       transform="scale(1.3333333,-1.3333333)" />
    <path
       id="path6"
       d="m 152.918,-1.418 64.789,-48.121"
       style="fill:none;stroke:#000000;stroke-width:0.75;stroke-linecap:butt;stroke-linejoin:miter;stroke-miterlimit:4;stroke-dasharray:none;stroke-opacity:1"
       transform="scale(1.3333333,-1.3333333)" />
    <path
       id="path7"
       d="m 190.387,-39.797 c 0,-1.504 -0.598,-2.949 -1.664,-4.016 -1.067,-1.066 -2.512,-1.664 -4.02,-1.664 -1.504,0 -2.949,0.598 -4.015,1.664 -1.067,1.067 -1.665,2.512 -1.665,4.016 0,3.141 2.543,5.684 5.68,5.684 3.141,0 5.684,-2.543 5.684,-5.684 z"
       style="fill:none;stroke:#150808;stroke-width:2.83465;stroke-linecap:butt;stroke-linejoin:miter;stroke-miterlimit:10;stroke-dasharray:none;stroke-opacity:1"
       transform="scale(1.3333333,-1.3333333)" />
  </g>
</svg>
