<?xml version="1.0" encoding="UTF-8" standalone="no"?>
<!-- Created with Inkscape (http://www.inkscape.org/) -->

<svg
   version="1.1"
   id="svg1"
   width="291.70114"
   height="219.84196"
   viewBox="0 0 291.70114 219.84196"
   sodipodi:docname="upload_btxqx54wgn7vi3dmtlurzx6kkd.pdf"
   xmlns:inkscape="http://www.inkscape.org/namespaces/inkscape"
   xmlns:sodipodi="http://sodipodi.sourceforge.net/DTD/sodipodi-0.dtd"
   xmlns="http://www.w3.org/2000/svg"
   xmlns:svg="http://www.w3.org/2000/svg">
  <defs
     id="defs1" />
  <sodipodi:namedview
     id="namedview1"
     pagecolor="#ffffff"
     bordercolor="#000000"
     borderopacity="0.25"
     inkscape:showpageshadow="2"
     inkscape:pageopacity="0.0"
     inkscape:pagecheckerboard="0"
     inkscape:deskcolor="#d1d1d1">
    <inkscape:page
       x="0"
       y="0"
       inkscape:label="1"
       id="page1"
       width="291.70114"
       height="219.84196"
       margin="0"
       bleed="0" />
  </sodipodi:namedview>
  <g
     id="g1"
     inkscape:groupmode="layer"
     inkscape:label="1">
    <path
       id="path1"
       d="M 1.418,-1.418 H 66.207 V -49.539 H 1.418 Z"
       style="fill:none;stroke:#150808;stroke-width:0.75;stroke-linecap:butt;stroke-linejoin:miter;stroke-miterlimit:10;stroke-dasharray:none;stroke-opacity:1"
       transform="scale(1.3333333,-1.3333333)" />
    <path
       id="path2"
       d="m 76.07,-1.418 h 64.789 V -49.539 H 76.07 Z"
       style="fill:none;stroke:#150808;stroke-width:0.75;stroke-linecap:butt;stroke-linejoin:miter;stroke-miterlimit:10;stroke-dasharray:none;stroke-opacity:1"
       transform="scale(1.3333333,-1.3333333)" />
    <path
       id="path3"
       d="m 152.57,-1.418 h 64.789 V -49.539 H 152.57 Z"
       style="fill:#b3b3b3;fill-opacity:1;fill-rule:nonzero;stroke:#150808;stroke-width:0.75;stroke-linecap:butt;stroke-linejoin:miter;stroke-miterlimit:10;stroke-dasharray:none;stroke-opacity:1"
       transform="scale(1.3333333,-1.3333333)" />
    <path
       id="path4"
       d="m 1.418,-58.344 h 64.789 v -48.121 H 1.418 Z"
       style="fill:none;stroke:#150808;stroke-width:0.75;stroke-linecap:butt;stroke-linejoin:miter;stroke-miterlimit:10;stroke-dasharray:none;stroke-opacity:1"
       transform="scale(1.3333333,-1.3333333)" />
    <path
       id="path5"
       d="m 76.07,-58.344 h 64.789 v -48.121 H 76.07 Z"
       style="fill:none;stroke:#150808;stroke-width:0.75;stroke-linecap:butt;stroke-linejoin:miter;stroke-miterlimit:10;stroke-dasharray:none;stroke-opacity:1"
       transform="scale(1.3333333,-1.3333333)" />
    <path
       id="path6"
       d="m 152.57,-58.344 h 64.789 v -48.121 H 152.57 Z"
       style="fill:none;stroke:#150808;stroke-width:0.75;stroke-linecap:butt;stroke-linejoin:miter;stroke-miterlimit:10;stroke-dasharray:none;stroke-opacity:1"
       transform="scale(1.3333333,-1.3333333)" />
    <path
       id="path7"
       d="m 1.418,-115.344 h 64.789 v -48.121 H 1.418 Z"
       style="fill:#b3b3b3;fill-opacity:1;fill-rule:nonzero;stroke:#150808;stroke-width:0.75;stroke-linecap:butt;stroke-linejoin:miter;stroke-miterlimit:10;stroke-dasharray:none;stroke-opacity:1"
       transform="scale(1.3333333,-1.3333333)" />
    <path
       id="path8"
       d="m 76.07,-115.344 h 64.789 v -48.121 H 76.07 Z"
       style="fill:none;stroke:#150808;stroke-width:0.75;stroke-linecap:butt;stroke-linejoin:miter;stroke-miterlimit:10;stroke-dasharray:none;stroke-opacity:1"
       transform="scale(1.3333333,-1.3333333)" />
    <path
       id="path9"
       d="m 152.57,-115.344 h 64.789 v -48.121 H 152.57 Z"
       style="fill:none;stroke:#150808;stroke-width:0.75;stroke-linecap:butt;stroke-linejoin:miter;stroke-miterlimit:10;stroke-dasharray:none;stroke-opacity:1"
       transform="scale(1.3333333,-1.3333333)" />
    <path
       id="path10"
       d="M 1.418,-49.539 66.207,-1.418"
       style="fill:none;stroke:#000000;stroke-width:0.75;stroke-linecap:butt;stroke-linejoin:miter;stroke-miterlimit:4;stroke-dasharray:none;stroke-opacity:1"
       transform="scale(1.3333333,-1.3333333)" />
    <path
       id="path11"
       d="m 76.07,-49.539 64.789,48.121 H 76.07 Z"
       style="fill:#b3b3b3;fill-opacity:1;fill-rule:nonzero;stroke:#000000;stroke-width:0.75;stroke-linecap:butt;stroke-linejoin:miter;stroke-miterlimit:4;stroke-dasharray:none;stroke-opacity:1"
       transform="scale(1.3333333,-1.3333333)" />
    <path
       id="path12"
       d="m 152.57,-106.465 64.789,48.121"
       style="fill:none;stroke:#000000;stroke-width:0.75;stroke-linecap:butt;stroke-linejoin:miter;stroke-miterlimit:4;stroke-dasharray:none;stroke-opacity:1"
       transform="scale(1.3333333,-1.3333333)" />
    <path
       id="path13"
       d="m 76.07,-163.465 64.789,48.121"
       style="fill:none;stroke:#000000;stroke-width:0.75;stroke-linecap:butt;stroke-linejoin:miter;stroke-miterlimit:4;stroke-dasharray:none;stroke-opacity:1"
       transform="scale(1.3333333,-1.3333333)" />
    <path
       id="path14"
       d="M 1.418,-1.418 66.207,-49.539"
       style="fill:none;stroke:#000000;stroke-width:0.75;stroke-linecap:butt;stroke-linejoin:miter;stroke-miterlimit:4;stroke-dasharray:none;stroke-opacity:1"
       transform="scale(1.3333333,-1.3333333)" />
    <path
       id="path15"
       d="m 152.57,-58.344 64.789,-48.121"
       style="fill:none;stroke:#000000;stroke-width:0.75;stroke-linecap:butt;stroke-linejoin:miter;stroke-miterlimit:4;stroke-dasharray:none;stroke-opacity:1"
       transform="scale(1.3333333,-1.3333333)" />
    <path
       id="path16"
       d="m 76.07,-115.344 64.789,-48.121"
       style="fill:none;stroke:#000000;stroke-width:0.75;stroke-linecap:butt;stroke-linejoin:miter;stroke-miterlimit:4;stroke-dasharray:none;stroke-opacity:1"
       transform="scale(1.3333333,-1.3333333)" />
    <path
       id="path17"
       d="m 19.387,-24.797 c 0,-3.137 -2.543,-5.68 -5.684,-5.68 -3.137,0 -5.68,2.543 -5.68,5.68 0,1.508 0.598,2.953 1.665,4.02 1.066,1.066 2.511,1.664 4.015,1.664 1.508,0 2.953,-0.598 4.02,-1.664 1.066,-1.067 1.664,-2.512 1.664,-4.02 z"
       style="fill:none;stroke:#150808;stroke-width:2.83465;stroke-linecap:butt;stroke-linejoin:miter;stroke-miterlimit:10;stroke-dasharray:none;stroke-opacity:1"
       transform="scale(1.3333333,-1.3333333)" />
    <path
       id="path18"
       d="m 189.691,-69.828 c 0,-1.504 -0.601,-2.949 -1.664,-4.016 -1.066,-1.066 -2.511,-1.664 -4.019,-1.664 -1.508,0 -2.953,0.598 -4.016,1.664 -1.066,1.067 -1.668,2.512 -1.668,4.016 0,3.14 2.547,5.683 5.684,5.683 3.137,0 5.683,-2.543 5.683,-5.683 z"
       style="fill:none;stroke:#150808;stroke-width:2.83465;stroke-linecap:butt;stroke-linejoin:miter;stroke-miterlimit:10;stroke-dasharray:none;stroke-opacity:1"
       transform="scale(1.3333333,-1.3333333)" />
    <path
       id="path19"
       d="m 134.191,-138.828 c 0,-1.504 -0.601,-2.949 -1.664,-4.016 -1.066,-1.066 -2.511,-1.664 -4.019,-1.664 -1.508,0 -2.953,0.598 -4.016,1.664 -1.066,1.067 -1.668,2.512 -1.668,4.016 0,3.14 2.547,5.683 5.684,5.683 3.137,0 5.683,-2.543 5.683,-5.683 z"
       style="fill:none;stroke:#150808;stroke-width:2.83465;stroke-linecap:butt;stroke-linejoin:miter;stroke-miterlimit:10;stroke-dasharray:none;stroke-opacity:1"
       transform="scale(1.3333333,-1.3333333)" />
    <path
       id="path20"
       d="m 66.207,-58.344 -63.809,-47.797 63.809,-0.324 z"
       style="fill:#b3b3b3;fill-opacity:1;fill-rule:nonzero;stroke:#000000;stroke-width:0.75;stroke-linecap:butt;stroke-linejoin:miter;stroke-miterlimit:4;stroke-dasharray:none;stroke-opacity:1"
       transform="scale(1.3333333,-1.3333333)" />
    <path
       id="path21"
       d="m 152.57,-163.465 64.11,47.813 -64.11,0.308 z"
       style="fill:#b3b3b3;fill-opacity:1;fill-rule:nonzero;stroke:#000000;stroke-width:0.75;stroke-linecap:butt;stroke-linejoin:miter;stroke-miterlimit:4;stroke-dasharray:none;stroke-opacity:1"
       transform="scale(1.3333333,-1.3333333)" />
  </g>
</svg>
