<?xml version="1.0" encoding="UTF-8" standalone="no"?>
<!-- Created with Inkscape (http://www.inkscape.org/) -->

<svg
   version="1.1"
   id="svg1"
   width="443.27539"
   height="314.36255"
   viewBox="0 0 443.27539 314.36255"
   sodipodi:docname="upload_lq3lnt6wn3tejen2y4ty2dsdex.pdf"
   xmlns:inkscape="http://www.inkscape.org/namespaces/inkscape"
   xmlns:sodipodi="http://sodipodi.sourceforge.net/DTD/sodipodi-0.dtd"
   xmlns="http://www.w3.org/2000/svg"
   xmlns:svg="http://www.w3.org/2000/svg">
  <defs
     id="defs1" />
  <sodipodi:namedview
     id="namedview1"
     pagecolor="#ffffff"
     bordercolor="#000000"
     borderopacity="0.25"
     inkscape:showpageshadow="2"
     inkscape:pageopacity="0.0"
     inkscape:pagecheckerboard="0"
     inkscape:deskcolor="#d1d1d1">
    <inkscape:page
       x="0"
       y="0"
       inkscape:label="1"
       id="page1"
       width="443.27539"
       height="314.36255"
       margin="0"
       bleed="0" />
  </sodipodi:namedview>
  <g
     id="g1"
     inkscape:groupmode="layer"
     inkscape:label="1">
    <path
       id="path1"
       d="m 79.039,3.359 h 1.5 l 2.703,7.235 2.688,-7.235 h 1.515 l -3.234,8.625 h -1.938 z"
       style="fill:#000000;fill-opacity:1;fill-rule:nonzero;stroke:none"
       transform="scale(1.3333333)" />
    <path
       id="path2"
       d="m 89.379,3.359 h 1.422 v 8.625 h -1.422 z m 0,-3.359 h 1.422 v 1.797 h -1.422 z"
       style="fill:#000000;fill-opacity:1;fill-rule:nonzero;stroke:none"
       transform="scale(1.3333333)" />
    <path
       id="path3"
       d="M 99.25,3.609 V 4.953 C 98.852,4.746 98.438,4.59 98,4.484 97.57,4.383 97.129,4.328 96.672,4.328 c -0.711,0 -1.242,0.11 -1.594,0.328 -0.355,0.219 -0.531,0.543 -0.531,0.969 0,0.336 0.125,0.594 0.375,0.781 0.258,0.188 0.769,0.367 1.531,0.532 l 0.485,0.109 c 1.007,0.219 1.722,0.527 2.14,0.922 0.426,0.386 0.641,0.933 0.641,1.64 0,0.805 -0.321,1.438 -0.953,1.907 -0.637,0.461 -1.508,0.687 -2.61,0.687 -0.468,0 -0.953,-0.047 -1.453,-0.14 -0.5,-0.083 -1.027,-0.211 -1.578,-0.391 v -1.469 c 0.52,0.274 1.035,0.477 1.547,0.61 0.508,0.136 1.016,0.203 1.516,0.203 0.664,0 1.175,-0.114 1.531,-0.344 0.363,-0.227 0.547,-0.547 0.547,-0.953 0,-0.383 -0.133,-0.68 -0.391,-0.891 C 97.613,8.621 97.047,8.422 96.172,8.234 l -0.5,-0.125 C 94.797,7.934 94.16,7.652 93.766,7.266 93.379,6.883 93.188,6.355 93.188,5.688 c 0,-0.813 0.285,-1.438 0.859,-1.875 0.57,-0.446 1.391,-0.672 2.453,-0.672 0.52,0 1.008,0.043 1.469,0.125 0.469,0.074 0.894,0.187 1.281,0.343 z"
       style="fill:#000000;fill-opacity:1;fill-rule:nonzero;stroke:none"
       transform="scale(1.3333333)" />
    <path
       id="path4"
       d="m 103.359,0.906 v 2.453 h 2.922 v 1.094 h -2.922 v 4.688 c 0,0.711 0.094,1.164 0.282,1.359 0.195,0.199 0.593,0.297 1.187,0.297 h 1.453 v 1.187 h -1.453 c -1.094,0 -1.851,-0.203 -2.265,-0.609 -0.418,-0.406 -0.625,-1.148 -0.625,-2.234 V 4.453 h -1.047 V 3.359 h 1.047 V 0.906 Z"
       style="fill:#000000;fill-opacity:1;fill-rule:nonzero;stroke:none"
       transform="scale(1.3333333)" />
    <path
       id="path5"
       d="m 112.063,7.641 c -1.149,0 -1.946,0.136 -2.391,0.406 -0.438,0.262 -0.656,0.703 -0.656,1.328 0,0.512 0.164,0.914 0.5,1.203 0.332,0.293 0.785,0.438 1.359,0.438 0.781,0 1.406,-0.274 1.875,-0.828 0.477,-0.563 0.719,-1.301 0.719,-2.219 V 7.641 Z m 2.828,-0.578 v 4.921 h -1.422 v -1.312 c -0.324,0.523 -0.727,0.906 -1.203,1.156 -0.481,0.25 -1.071,0.375 -1.766,0.375 -0.887,0 -1.59,-0.242 -2.109,-0.734 -0.524,-0.5 -0.782,-1.164 -0.782,-2 0,-0.969 0.321,-1.696 0.969,-2.188 0.645,-0.5 1.613,-0.75 2.906,-0.75 h 1.985 v -0.14 c 0,-0.645 -0.215,-1.145 -0.641,-1.5 -0.43,-0.364 -1.027,-0.547 -1.797,-0.547 -0.5,0 -0.984,0.062 -1.453,0.187 -0.461,0.117 -0.906,0.293 -1.344,0.532 V 3.75 c 0.52,-0.195 1.024,-0.348 1.516,-0.453 0.488,-0.102 0.961,-0.156 1.422,-0.156 1.25,0 2.18,0.328 2.797,0.984 0.613,0.648 0.922,1.625 0.922,2.938 z"
       style="fill:#000000;fill-opacity:1;fill-rule:nonzero;stroke:none"
       transform="scale(1.3333333)" />
    <path
       id="path6"
       d="m 128.297,3.609 v 1.344 c -0.399,-0.207 -0.813,-0.363 -1.25,-0.469 -0.43,-0.101 -0.871,-0.156 -1.328,-0.156 -0.711,0 -1.242,0.11 -1.594,0.328 -0.355,0.219 -0.531,0.543 -0.531,0.969 0,0.336 0.125,0.594 0.375,0.781 0.258,0.188 0.769,0.367 1.531,0.532 l 0.484,0.109 c 1.008,0.219 1.723,0.527 2.141,0.922 0.426,0.386 0.641,0.933 0.641,1.64 0,0.805 -0.321,1.438 -0.953,1.907 -0.637,0.461 -1.508,0.687 -2.61,0.687 -0.469,0 -0.953,-0.047 -1.453,-0.14 -0.5,-0.083 -1.027,-0.211 -1.578,-0.391 v -1.469 c 0.519,0.274 1.035,0.477 1.547,0.61 0.508,0.136 1.015,0.203 1.515,0.203 0.664,0 1.176,-0.114 1.532,-0.344 0.363,-0.227 0.547,-0.547 0.547,-0.953 0,-0.383 -0.133,-0.68 -0.391,-0.891 -0.262,-0.207 -0.828,-0.406 -1.703,-0.594 l -0.5,-0.125 c -0.875,-0.175 -1.512,-0.457 -1.906,-0.843 -0.387,-0.383 -0.579,-0.911 -0.579,-1.578 0,-0.813 0.286,-1.438 0.86,-1.875 0.57,-0.446 1.39,-0.672 2.453,-0.672 0.519,0 1.008,0.043 1.469,0.125 0.468,0.074 0.894,0.187 1.281,0.343 z"
       style="fill:#000000;fill-opacity:1;fill-rule:nonzero;stroke:none"
       transform="scale(1.3333333)" />
    <path
       id="path7"
       d="M 130.863,8.578 V 3.359 h 1.422 v 5.172 c 0,0.813 0.156,1.422 0.469,1.828 0.32,0.407 0.801,0.61 1.437,0.61 0.758,0 1.364,-0.239 1.813,-0.719 0.445,-0.488 0.672,-1.156 0.672,-2 V 3.359 h 1.406 v 8.625 h -1.406 v -1.328 c -0.344,0.524 -0.746,0.914 -1.203,1.172 -0.461,0.25 -0.985,0.375 -1.578,0.375 -1,0 -1.758,-0.305 -2.266,-0.922 -0.512,-0.613 -0.766,-1.515 -0.766,-2.703 z"
       style="fill:#000000;fill-opacity:1;fill-rule:nonzero;stroke:none"
       transform="scale(1.3333333)" />
    <path
       id="path8"
       d="m 142.367,10.688 v 4.578 h -1.422 V 3.359 h 1.422 v 1.297 c 0.301,-0.508 0.676,-0.89 1.125,-1.14 0.457,-0.25 1.004,-0.375 1.641,-0.375 1.039,0 1.89,0.418 2.547,1.25 0.656,0.836 0.984,1.929 0.984,3.281 0,1.367 -0.328,2.465 -0.984,3.297 -0.657,0.824 -1.508,1.234 -2.547,1.234 -0.637,0 -1.184,-0.125 -1.641,-0.375 -0.449,-0.25 -0.824,-0.629 -1.125,-1.14 z m 4.828,-3.016 c 0,-1.039 -0.218,-1.859 -0.656,-2.453 -0.43,-0.594 -1.016,-0.891 -1.766,-0.891 -0.75,0 -1.339,0.297 -1.765,0.891 -0.43,0.594 -0.641,1.414 -0.641,2.453 0,1.043 0.211,1.859 0.641,2.453 0.426,0.594 1.015,0.891 1.765,0.891 0.75,0 1.336,-0.297 1.766,-0.891 0.438,-0.594 0.656,-1.41 0.656,-2.453 z"
       style="fill:#000000;fill-opacity:1;fill-rule:nonzero;stroke:none"
       transform="scale(1.3333333)" />
    <path
       id="path9"
       d="m 158.383,7.313 v 0.703 h -6.531 c 0.062,0.968 0.351,1.711 0.875,2.218 0.531,0.512 1.269,0.766 2.218,0.766 0.539,0 1.067,-0.062 1.578,-0.187 0.508,-0.133 1.016,-0.336 1.516,-0.61 v 1.344 c -0.5,0.219 -1.023,0.383 -1.562,0.484 -0.532,0.114 -1.075,0.172 -1.625,0.172 -1.375,0 -2.465,-0.398 -3.266,-1.203 -0.805,-0.801 -1.203,-1.883 -1.203,-3.25 0,-1.406 0.379,-2.523 1.14,-3.359 0.758,-0.832 1.786,-1.25 3.079,-1.25 1.164,0 2.086,0.375 2.765,1.125 0.676,0.75 1.016,1.765 1.016,3.047 z m -1.422,-0.407 c -0.012,-0.781 -0.231,-1.398 -0.656,-1.859 -0.418,-0.469 -0.981,-0.703 -1.688,-0.703 -0.781,0 -1.414,0.226 -1.89,0.672 -0.481,0.449 -0.758,1.078 -0.829,1.89 z"
       style="fill:#000000;fill-opacity:1;fill-rule:nonzero;stroke:none"
       transform="scale(1.3333333)" />
    <path
       id="path10"
       d="m 165.699,4.672 c -0.156,-0.082 -0.328,-0.145 -0.515,-0.188 -0.188,-0.05 -0.399,-0.078 -0.625,-0.078 -0.805,0 -1.418,0.262 -1.844,0.782 -0.43,0.523 -0.641,1.273 -0.641,2.25 v 4.546 h -1.422 V 3.359 h 1.422 v 1.329 c 0.301,-0.52 0.688,-0.907 1.156,-1.157 0.477,-0.258 1.063,-0.39 1.75,-0.39 0.094,0 0.196,0.011 0.313,0.031 0.125,0.012 0.258,0.027 0.406,0.047 z"
       style="fill:#000000;fill-opacity:1;fill-rule:nonzero;stroke:none"
       transform="scale(1.3333333)" />
    <path
       id="path11"
       d="m 167.184,3.359 h 1.421 v 8.625 h -1.421 z m 0,-3.359 h 1.421 v 1.797 h -1.421 z"
       style="fill:#000000;fill-opacity:1;fill-rule:nonzero;stroke:none"
       transform="scale(1.3333333)" />
    <path
       id="path12"
       d="m 174.898,4.344 c -0.761,0 -1.367,0.297 -1.812,0.89 -0.438,0.594 -0.656,1.407 -0.656,2.438 0,1.031 0.218,1.844 0.656,2.437 0.445,0.594 1.051,0.891 1.812,0.891 0.758,0 1.36,-0.297 1.797,-0.891 0.446,-0.593 0.672,-1.406 0.672,-2.437 0,-1.02 -0.226,-1.828 -0.672,-2.422 -0.437,-0.602 -1.039,-0.906 -1.797,-0.906 z m 0,-1.203 c 1.239,0 2.207,0.402 2.907,1.203 0.707,0.804 1.062,1.914 1.062,3.328 0,1.418 -0.355,2.527 -1.062,3.328 -0.7,0.805 -1.668,1.203 -2.907,1.203 -1.242,0 -2.21,-0.398 -2.906,-1.203 -0.699,-0.801 -1.047,-1.91 -1.047,-3.328 0,-1.414 0.348,-2.524 1.047,-3.328 0.696,-0.801 1.664,-1.203 2.906,-1.203 z"
       style="fill:#000000;fill-opacity:1;fill-rule:nonzero;stroke:none"
       transform="scale(1.3333333)" />
    <path
       id="path13"
       d="m 186.195,4.672 c -0.156,-0.082 -0.328,-0.145 -0.515,-0.188 -0.188,-0.05 -0.399,-0.078 -0.625,-0.078 -0.805,0 -1.418,0.262 -1.844,0.782 -0.43,0.523 -0.641,1.273 -0.641,2.25 v 4.546 h -1.422 V 3.359 h 1.422 v 1.329 c 0.301,-0.52 0.688,-0.907 1.157,-1.157 0.476,-0.258 1.062,-0.39 1.75,-0.39 0.093,0 0.195,0.011 0.312,0.031 0.125,0.012 0.258,0.027 0.406,0.047 z"
       style="fill:#000000;fill-opacity:1;fill-rule:nonzero;stroke:none"
       transform="scale(1.3333333)" />
    <path
       id="path14"
       d="m 0,226.93 h 1.5 l 2.703,7.234 2.688,-7.234 h 1.515 l -3.234,8.625 H 3.234 Z"
       style="fill:#000000;fill-opacity:1;fill-rule:nonzero;stroke:none"
       transform="scale(1.3333333)" />
    <path
       id="path15"
       d="m 10.34,226.93 h 1.422 v 8.625 H 10.34 Z m 0,-3.36 h 1.422 v 1.797 H 10.34 Z"
       style="fill:#000000;fill-opacity:1;fill-rule:nonzero;stroke:none"
       transform="scale(1.3333333)" />
    <path
       id="path16"
       d="m 20.211,227.18 v 1.343 c -0.398,-0.207 -0.813,-0.363 -1.25,-0.468 -0.43,-0.102 -0.871,-0.157 -1.328,-0.157 -0.711,0 -1.242,0.11 -1.594,0.329 -0.355,0.218 -0.531,0.543 -0.531,0.968 0,0.336 0.125,0.594 0.375,0.782 0.258,0.187 0.769,0.367 1.531,0.531 l 0.484,0.109 c 1.008,0.219 1.723,0.528 2.141,0.922 0.426,0.387 0.641,0.934 0.641,1.641 0,0.804 -0.321,1.437 -0.953,1.906 -0.637,0.461 -1.508,0.687 -2.61,0.687 -0.469,0 -0.953,-0.046 -1.453,-0.14 -0.5,-0.082 -1.027,-0.211 -1.578,-0.391 v -1.469 c 0.519,0.274 1.035,0.477 1.547,0.61 0.508,0.137 1.015,0.203 1.515,0.203 0.665,0 1.176,-0.113 1.532,-0.344 0.363,-0.226 0.547,-0.547 0.547,-0.953 0,-0.383 -0.133,-0.68 -0.391,-0.891 -0.262,-0.207 -0.828,-0.406 -1.703,-0.593 l -0.5,-0.125 c -0.875,-0.176 -1.512,-0.457 -1.906,-0.844 -0.387,-0.383 -0.579,-0.91 -0.579,-1.578 0,-0.813 0.286,-1.438 0.86,-1.875 0.57,-0.445 1.39,-0.672 2.453,-0.672 0.519,0 1.008,0.043 1.469,0.125 0.468,0.074 0.894,0.187 1.281,0.344 z"
       style="fill:#000000;fill-opacity:1;fill-rule:nonzero;stroke:none"
       transform="scale(1.3333333)" />
    <path
       id="path17"
       d="m 24.324,224.477 v 2.453 h 2.922 v 1.093 h -2.922 v 4.688 c 0,0.711 0.094,1.164 0.281,1.359 0.196,0.2 0.594,0.297 1.188,0.297 h 1.453 v 1.188 h -1.453 c -1.094,0 -1.852,-0.203 -2.266,-0.61 -0.418,-0.406 -0.625,-1.148 -0.625,-2.234 v -4.688 h -1.047 v -1.093 h 1.047 v -2.453 z"
       style="fill:#000000;fill-opacity:1;fill-rule:nonzero;stroke:none"
       transform="scale(1.3333333)" />
    <path
       id="path18"
       d="m 33.023,231.211 c -1.148,0 -1.945,0.137 -2.39,0.406 -0.438,0.262 -0.656,0.703 -0.656,1.328 0,0.512 0.164,0.914 0.5,1.203 0.332,0.293 0.785,0.438 1.359,0.438 0.781,0 1.406,-0.273 1.875,-0.828 0.477,-0.563 0.719,-1.301 0.719,-2.219 v -0.328 z m 2.829,-0.578 v 4.922 H 34.43 v -1.313 c -0.325,0.524 -0.727,0.906 -1.203,1.156 -0.481,0.25 -1.071,0.375 -1.766,0.375 -0.887,0 -1.59,-0.242 -2.109,-0.734 -0.524,-0.5 -0.782,-1.164 -0.782,-2 0,-0.969 0.321,-1.695 0.969,-2.187 0.645,-0.5 1.613,-0.75 2.906,-0.75 h 1.985 v -0.141 c 0,-0.645 -0.215,-1.145 -0.641,-1.5 -0.43,-0.363 -1.027,-0.547 -1.797,-0.547 -0.5,0 -0.984,0.063 -1.453,0.188 -0.461,0.117 -0.906,0.293 -1.344,0.531 v -1.313 c 0.52,-0.195 1.024,-0.347 1.516,-0.453 0.488,-0.101 0.961,-0.156 1.422,-0.156 1.25,0 2.18,0.328 2.797,0.984 0.613,0.649 0.922,1.625 0.922,2.938 z"
       style="fill:#000000;fill-opacity:1;fill-rule:nonzero;stroke:none"
       transform="scale(1.3333333)" />
    <path
       id="path19"
       d="m 48.133,223.57 v 1.172 h -1.36 c -0.511,0 -0.867,0.106 -1.062,0.313 -0.199,0.211 -0.297,0.578 -0.297,1.109 v 0.766 h 2.344 v 1.093 h -2.344 v 7.532 h -1.422 v -7.532 h -1.359 v -1.093 h 1.359 v -0.61 c 0,-0.957 0.223,-1.656 0.672,-2.093 0.445,-0.438 1.156,-0.657 2.125,-0.657 z"
       style="fill:#000000;fill-opacity:1;fill-rule:nonzero;stroke:none"
       transform="scale(1.3333333)" />
    <path
       id="path20"
       d="m 54.313,228.242 c -0.157,-0.082 -0.329,-0.144 -0.516,-0.187 -0.188,-0.051 -0.399,-0.078 -0.625,-0.078 -0.805,0 -1.418,0.261 -1.844,0.781 -0.43,0.523 -0.64,1.273 -0.64,2.25 v 4.547 h -1.422 v -8.625 h 1.422 v 1.328 c 0.3,-0.52 0.687,-0.906 1.156,-1.156 0.476,-0.258 1.062,-0.391 1.75,-0.391 0.094,0 0.195,0.012 0.312,0.031 0.125,0.012 0.258,0.028 0.407,0.047 z"
       style="fill:#000000;fill-opacity:1;fill-rule:nonzero;stroke:none"
       transform="scale(1.3333333)" />
    <path
       id="path21"
       d="m 58.797,227.914 c -0.762,0 -1.367,0.297 -1.813,0.891 -0.437,0.593 -0.656,1.406 -0.656,2.437 0,1.031 0.219,1.844 0.656,2.438 0.446,0.593 1.051,0.89 1.813,0.89 0.758,0 1.359,-0.297 1.797,-0.89 0.445,-0.594 0.672,-1.407 0.672,-2.438 0,-1.019 -0.227,-1.828 -0.672,-2.422 -0.438,-0.601 -1.039,-0.906 -1.797,-0.906 z m 0,-1.203 c 1.238,0 2.207,0.402 2.906,1.203 0.707,0.805 1.063,1.914 1.063,3.328 0,1.418 -0.356,2.528 -1.063,3.328 -0.699,0.805 -1.668,1.203 -2.906,1.203 -1.242,0 -2.211,-0.398 -2.906,-1.203 -0.7,-0.8 -1.047,-1.91 -1.047,-3.328 0,-1.414 0.347,-2.523 1.047,-3.328 0.695,-0.801 1.664,-1.203 2.906,-1.203 z"
       style="fill:#000000;fill-opacity:1;fill-rule:nonzero;stroke:none"
       transform="scale(1.3333333)" />
    <path
       id="path22"
       d="m 72.266,230.352 v 5.203 h -1.407 v -5.157 c 0,-0.82 -0.164,-1.437 -0.484,-1.843 -0.324,-0.407 -0.805,-0.61 -1.437,-0.61 -0.762,0 -1.368,0.246 -1.813,0.735 -0.437,0.492 -0.656,1.156 -0.656,2 v 4.875 h -1.422 v -8.625 h 1.422 v 1.328 c 0.344,-0.508 0.742,-0.895 1.203,-1.156 0.457,-0.258 0.984,-0.391 1.578,-0.391 1,0 1.75,0.309 2.25,0.922 0.508,0.617 0.766,1.523 0.766,2.719 z"
       style="fill:#000000;fill-opacity:1;fill-rule:nonzero;stroke:none"
       transform="scale(1.3333333)" />
    <path
       id="path23"
       d="m 76.484,224.477 v 2.453 h 2.922 v 1.093 h -2.922 v 4.688 c 0,0.711 0.094,1.164 0.282,1.359 0.195,0.2 0.593,0.297 1.187,0.297 h 1.453 v 1.188 h -1.453 c -1.094,0 -1.851,-0.203 -2.265,-0.61 -0.418,-0.406 -0.625,-1.148 -0.625,-2.234 v -4.688 h -1.047 v -1.093 h 1.047 v -2.453 z"
       style="fill:#000000;fill-opacity:1;fill-rule:nonzero;stroke:none"
       transform="scale(1.3333333)" />
    <path
       id="path24"
       d="m 85.188,231.211 c -1.149,0 -1.946,0.137 -2.391,0.406 -0.438,0.262 -0.656,0.703 -0.656,1.328 0,0.512 0.164,0.914 0.5,1.203 0.332,0.293 0.785,0.438 1.359,0.438 0.781,0 1.406,-0.273 1.875,-0.828 0.477,-0.563 0.719,-1.301 0.719,-2.219 v -0.328 z m 2.828,-0.578 v 4.922 h -1.422 v -1.313 c -0.324,0.524 -0.727,0.906 -1.203,1.156 -0.481,0.25 -1.071,0.375 -1.766,0.375 -0.887,0 -1.59,-0.242 -2.109,-0.734 -0.524,-0.5 -0.782,-1.164 -0.782,-2 0,-0.969 0.321,-1.695 0.969,-2.187 0.645,-0.5 1.613,-0.75 2.906,-0.75 h 1.985 v -0.141 c 0,-0.645 -0.215,-1.145 -0.641,-1.5 -0.43,-0.363 -1.027,-0.547 -1.797,-0.547 -0.5,0 -0.984,0.063 -1.453,0.188 -0.461,0.117 -0.906,0.293 -1.344,0.531 v -1.313 c 0.52,-0.195 1.024,-0.347 1.516,-0.453 0.488,-0.101 0.961,-0.156 1.422,-0.156 1.25,0 2.18,0.328 2.797,0.984 0.613,0.649 0.922,1.625 0.922,2.938 z"
       style="fill:#000000;fill-opacity:1;fill-rule:nonzero;stroke:none"
       transform="scale(1.3333333)" />
    <path
       id="path25"
       d="m 90.922,223.57 h 1.422 v 11.984 h -1.422 z"
       style="fill:#000000;fill-opacity:1;fill-rule:nonzero;stroke:none"
       transform="scale(1.3333333)" />
    <path
       id="path26"
       d="m 241.219,216.891 h 1.5 l 2.703,7.234 2.687,-7.234 h 1.516 l -3.234,8.625 h -1.938 z"
       style="fill:#000000;fill-opacity:1;fill-rule:nonzero;stroke:none"
       transform="scale(1.3333333)" />
    <path
       id="path27"
       d="m 251.559,216.891 h 1.421 v 8.625 h -1.421 z m 0,-3.36 h 1.421 v 1.797 h -1.421 z"
       style="fill:#000000;fill-opacity:1;fill-rule:nonzero;stroke:none"
       transform="scale(1.3333333)" />
    <path
       id="path28"
       d="m 261.43,217.141 v 1.343 c -0.399,-0.207 -0.813,-0.363 -1.25,-0.468 -0.43,-0.102 -0.871,-0.157 -1.328,-0.157 -0.711,0 -1.243,0.11 -1.594,0.329 -0.356,0.218 -0.531,0.542 -0.531,0.968 0,0.336 0.125,0.594 0.375,0.782 0.257,0.187 0.769,0.367 1.531,0.531 l 0.484,0.109 c 1.008,0.219 1.723,0.527 2.141,0.922 0.426,0.387 0.64,0.934 0.64,1.641 0,0.804 -0.32,1.437 -0.953,1.906 -0.636,0.461 -1.507,0.687 -2.609,0.687 -0.469,0 -0.953,-0.046 -1.453,-0.14 -0.5,-0.082 -1.028,-0.211 -1.578,-0.391 v -1.469 c 0.519,0.274 1.035,0.477 1.547,0.61 0.507,0.136 1.015,0.203 1.515,0.203 0.664,0 1.176,-0.113 1.531,-0.344 0.364,-0.226 0.547,-0.547 0.547,-0.953 0,-0.383 -0.132,-0.68 -0.39,-0.891 -0.262,-0.207 -0.828,-0.406 -1.703,-0.593 l -0.5,-0.125 c -0.875,-0.176 -1.512,-0.457 -1.907,-0.844 -0.386,-0.383 -0.578,-0.91 -0.578,-1.578 0,-0.813 0.285,-1.438 0.86,-1.875 0.57,-0.446 1.39,-0.672 2.453,-0.672 0.519,0 1.008,0.043 1.468,0.125 0.469,0.074 0.895,0.187 1.282,0.344 z"
       style="fill:#000000;fill-opacity:1;fill-rule:nonzero;stroke:none"
       transform="scale(1.3333333)" />
    <path
       id="path29"
       d="m 265.539,214.438 v 2.453 h 2.922 v 1.093 h -2.922 v 4.688 c 0,0.711 0.094,1.164 0.281,1.359 0.196,0.199 0.594,0.297 1.188,0.297 h 1.453 v 1.188 h -1.453 c -1.094,0 -1.852,-0.203 -2.266,-0.61 -0.418,-0.406 -0.625,-1.148 -0.625,-2.234 v -4.688 h -1.047 v -1.093 h 1.047 v -2.453 z"
       style="fill:#000000;fill-opacity:1;fill-rule:nonzero;stroke:none"
       transform="scale(1.3333333)" />
    <path
       id="path30"
       d="m 274.242,221.172 c -1.148,0 -1.945,0.137 -2.39,0.406 -0.438,0.262 -0.657,0.703 -0.657,1.328 0,0.512 0.164,0.914 0.5,1.203 0.332,0.293 0.785,0.438 1.36,0.438 0.781,0 1.406,-0.274 1.875,-0.828 0.476,-0.563 0.718,-1.301 0.718,-2.219 v -0.328 z m 2.828,-0.578 v 4.922 h -1.422 v -1.313 c -0.324,0.524 -0.726,0.906 -1.203,1.156 -0.48,0.25 -1.07,0.375 -1.765,0.375 -0.887,0 -1.59,-0.242 -2.11,-0.734 -0.523,-0.5 -0.781,-1.164 -0.781,-2 0,-0.969 0.32,-1.695 0.969,-2.187 0.644,-0.5 1.613,-0.75 2.906,-0.75 h 1.984 v -0.141 c 0,-0.645 -0.214,-1.145 -0.64,-1.5 -0.43,-0.363 -1.028,-0.547 -1.797,-0.547 -0.5,0 -0.984,0.063 -1.453,0.188 -0.461,0.117 -0.906,0.292 -1.344,0.531 v -1.313 c 0.52,-0.195 1.024,-0.347 1.516,-0.453 0.488,-0.101 0.961,-0.156 1.422,-0.156 1.25,0 2.179,0.328 2.796,0.984 0.614,0.649 0.922,1.625 0.922,2.938 z"
       style="fill:#000000;fill-opacity:1;fill-rule:nonzero;stroke:none"
       transform="scale(1.3333333)" />
    <path
       id="path31"
       d="m 284.977,213.531 h 1.422 v 11.984 h -1.422 z"
       style="fill:#000000;fill-opacity:1;fill-rule:nonzero;stroke:none"
       transform="scale(1.3333333)" />
    <path
       id="path32"
       d="m 293.27,221.172 c -1.149,0 -1.946,0.137 -2.391,0.406 -0.438,0.262 -0.656,0.703 -0.656,1.328 0,0.512 0.164,0.914 0.5,1.203 0.332,0.293 0.785,0.438 1.359,0.438 0.781,0 1.406,-0.274 1.875,-0.828 0.477,-0.563 0.719,-1.301 0.719,-2.219 v -0.328 z m 2.828,-0.578 v 4.922 h -1.422 v -1.313 c -0.324,0.524 -0.727,0.906 -1.203,1.156 -0.481,0.25 -1.071,0.375 -1.766,0.375 -0.887,0 -1.59,-0.242 -2.109,-0.734 -0.524,-0.5 -0.782,-1.164 -0.782,-2 0,-0.969 0.321,-1.695 0.969,-2.187 0.645,-0.5 1.613,-0.75 2.906,-0.75 h 1.985 v -0.141 c 0,-0.645 -0.215,-1.145 -0.641,-1.5 -0.43,-0.363 -1.027,-0.547 -1.797,-0.547 -0.5,0 -0.984,0.063 -1.453,0.188 -0.461,0.117 -0.906,0.292 -1.344,0.531 v -1.313 c 0.52,-0.195 1.024,-0.347 1.516,-0.453 0.488,-0.101 0.961,-0.156 1.422,-0.156 1.25,0 2.18,0.328 2.797,0.984 0.613,0.649 0.922,1.625 0.922,2.938 z"
       style="fill:#000000;fill-opacity:1;fill-rule:nonzero;stroke:none"
       transform="scale(1.3333333)" />
    <path
       id="path33"
       d="m 300.41,214.438 v 2.453 h 2.922 v 1.093 h -2.922 v 4.688 c 0,0.711 0.094,1.164 0.281,1.359 0.196,0.199 0.594,0.297 1.188,0.297 h 1.453 v 1.188 h -1.453 c -1.094,0 -1.852,-0.203 -2.266,-0.61 -0.418,-0.406 -0.625,-1.148 -0.625,-2.234 v -4.688 h -1.047 v -1.093 h 1.047 v -2.453 z"
       style="fill:#000000;fill-opacity:1;fill-rule:nonzero;stroke:none"
       transform="scale(1.3333333)" />
    <path
       id="path34"
       d="m 312.578,220.844 v 0.703 h -6.531 c 0.062,0.969 0.351,1.711 0.875,2.219 0.531,0.511 1.269,0.765 2.219,0.765 0.539,0 1.066,-0.062 1.578,-0.187 0.508,-0.133 1.015,-0.336 1.515,-0.61 v 1.344 c -0.5,0.219 -1.023,0.383 -1.562,0.485 -0.531,0.113 -1.074,0.171 -1.625,0.171 -1.375,0 -2.465,-0.398 -3.266,-1.203 -0.804,-0.801 -1.203,-1.883 -1.203,-3.25 0,-1.406 0.379,-2.523 1.141,-3.359 0.758,-0.832 1.785,-1.25 3.078,-1.25 1.164,0 2.086,0.375 2.766,1.125 0.675,0.75 1.015,1.766 1.015,3.047 z m -1.422,-0.406 c -0.011,-0.782 -0.23,-1.399 -0.656,-1.86 -0.418,-0.469 -0.98,-0.703 -1.687,-0.703 -0.782,0 -1.415,0.227 -1.891,0.672 -0.481,0.449 -0.758,1.078 -0.828,1.891 z"
       style="fill:#000000;fill-opacity:1;fill-rule:nonzero;stroke:none"
       transform="scale(1.3333333)" />
    <path
       id="path35"
       d="m 319.895,218.203 c -0.157,-0.082 -0.329,-0.144 -0.516,-0.187 -0.188,-0.051 -0.399,-0.078 -0.625,-0.078 -0.805,0 -1.418,0.261 -1.844,0.781 -0.43,0.523 -0.64,1.273 -0.64,2.25 v 4.547 h -1.422 v -8.625 h 1.422 v 1.328 c 0.3,-0.52 0.687,-0.906 1.156,-1.156 0.476,-0.258 1.062,-0.391 1.75,-0.391 0.094,0 0.195,0.012 0.312,0.031 0.125,0.012 0.258,0.027 0.407,0.047 z"
       style="fill:#000000;fill-opacity:1;fill-rule:nonzero;stroke:none"
       transform="scale(1.3333333)" />
    <path
       id="path36"
       d="m 325.301,221.172 c -1.149,0 -1.946,0.137 -2.391,0.406 -0.437,0.262 -0.656,0.703 -0.656,1.328 0,0.512 0.164,0.914 0.5,1.203 0.332,0.293 0.785,0.438 1.359,0.438 0.782,0 1.407,-0.274 1.875,-0.828 0.477,-0.563 0.719,-1.301 0.719,-2.219 v -0.328 z m 2.828,-0.578 v 4.922 h -1.422 v -1.313 c -0.324,0.524 -0.727,0.906 -1.203,1.156 -0.481,0.25 -1.07,0.375 -1.766,0.375 -0.886,0 -1.59,-0.242 -2.109,-0.734 -0.524,-0.5 -0.781,-1.164 -0.781,-2 0,-0.969 0.32,-1.695 0.968,-2.187 0.645,-0.5 1.614,-0.75 2.907,-0.75 h 1.984 v -0.141 c 0,-0.645 -0.215,-1.145 -0.641,-1.5 -0.429,-0.363 -1.027,-0.547 -1.796,-0.547 -0.5,0 -0.985,0.063 -1.454,0.188 -0.461,0.117 -0.906,0.292 -1.343,0.531 v -1.313 c 0.519,-0.195 1.023,-0.347 1.515,-0.453 0.489,-0.101 0.961,-0.156 1.422,-0.156 1.25,0 2.18,0.328 2.797,0.984 0.613,0.649 0.922,1.625 0.922,2.938 z"
       style="fill:#000000;fill-opacity:1;fill-rule:nonzero;stroke:none"
       transform="scale(1.3333333)" />
    <path
       id="path37"
       d="m 331.035,213.531 h 1.422 v 11.984 h -1.422 z"
       style="fill:#000000;fill-opacity:1;fill-rule:nonzero;stroke:none"
       transform="scale(1.3333333)" />
    <path
       id="path38"
       d="m 257.84,174.453 41.855,-29.437"
       style="fill:none;stroke:#000000;stroke-width:0.749999;stroke-linecap:butt;stroke-linejoin:miter;stroke-miterlimit:4;stroke-dasharray:none;stroke-opacity:1"
       transform="scale(1.3333333)" />
    <path
       id="path39"
       d="m 257.801,206.668 0.039,-32.215"
       style="fill:none;stroke:#000000;stroke-width:0.75;stroke-linecap:butt;stroke-linejoin:miter;stroke-miterlimit:4;stroke-dasharray:none;stroke-opacity:1"
       transform="scale(1.3333333)" />
    <path
       id="path40"
       d="m 274.266,194.801 12.449,-40.567"
       style="fill:none;stroke:#000000;stroke-width:0.75;stroke-linecap:butt;stroke-linejoin:miter;stroke-miterlimit:4;stroke-dasharray:none;stroke-opacity:1"
       transform="scale(1.3333333)" />
    <path
       id="path41"
       d="M 67.367,148.434 169.016,183.199 147.352,145.68 87.938,129.762 Z"
       style="fill:none;stroke:#000000;stroke-width:0.749999;stroke-linecap:butt;stroke-linejoin:miter;stroke-miterlimit:4;stroke-dasharray:none;stroke-opacity:1"
       transform="scale(1.3333333)" />
    <path
       id="path42"
       d="M 87.938,129.762 128.773,100.25"
       style="fill:none;stroke:#000000;stroke-width:0.749999;stroke-linecap:butt;stroke-linejoin:miter;stroke-miterlimit:4;stroke-dasharray:none;stroke-opacity:1"
       transform="scale(1.3333333)" />
    <path
       id="path43"
       d="m 147.352,145.68 28.914,-20.231"
       style="fill:none;stroke:#000000;stroke-width:0.749999;stroke-linecap:butt;stroke-linejoin:miter;stroke-miterlimit:4;stroke-dasharray:none;stroke-opacity:1"
       transform="scale(1.3333333)" />
    <path
       id="path44"
       d="M 176.266,125.449 128.773,100.25"
       style="fill:none;stroke:#000000;stroke-width:0.749999;stroke-linecap:butt;stroke-linejoin:miter;stroke-miterlimit:4;stroke-dasharray:none;stroke-opacity:1"
       transform="scale(1.3333333)" />
    <path
       id="path45"
       d="M 169.016,183.199 184.941,171.34"
       style="fill:none;stroke:#000000;stroke-width:0.749999;stroke-linecap:butt;stroke-linejoin:miter;stroke-miterlimit:4;stroke-dasharray:none;stroke-opacity:1"
       transform="scale(1.3333333)" />
    <path
       id="path46"
       d="m 176.266,125.449 8.675,45.891"
       style="fill:none;stroke:#000000;stroke-width:0.749999;stroke-linecap:butt;stroke-linejoin:miter;stroke-miterlimit:4;stroke-dasharray:none;stroke-opacity:1"
       transform="scale(1.3333333)" />
    <path
       id="path47"
       d="M 87.848,129.883 V 56.465"
       style="fill:none;stroke:#000000;stroke-width:0.75;stroke-linecap:butt;stroke-linejoin:miter;stroke-miterlimit:4;stroke-dasharray:1.5, 1.5;stroke-dashoffset:0;stroke-opacity:1"
       transform="scale(1.3333333)" />
    <path
       id="path48"
       d="M 192.676,165.887 192.73,61.262"
       style="fill:none;stroke:#000000;stroke-width:0.776038;stroke-linecap:butt;stroke-linejoin:miter;stroke-miterlimit:4;stroke-dasharray:1.55209, 1.55209;stroke-dashoffset:0;stroke-opacity:1"
       transform="scale(1.3333333)" />
    <path
       id="path49"
       d="m 169.016,183.199 88.785,23.469"
       style="fill:none;stroke:#000000;stroke-width:0.75;stroke-linecap:butt;stroke-linejoin:miter;stroke-miterlimit:4;stroke-dasharray:1.5, 1.5;stroke-dashoffset:0;stroke-opacity:1"
       transform="scale(1.3333333)" />
    <path
       id="path50"
       d="m 184.941,171.34 89.325,23.461"
       style="fill:none;stroke:#000000;stroke-width:0.75;stroke-linecap:butt;stroke-linejoin:miter;stroke-miterlimit:4;stroke-dasharray:1.5, 1.5;stroke-dashoffset:0;stroke-opacity:1"
       transform="scale(1.3333333)" />
    <path
       id="path51"
       d="M 147.352,145.68 257.84,174.453"
       style="fill:none;stroke:#000000;stroke-width:0.75;stroke-linecap:butt;stroke-linejoin:miter;stroke-miterlimit:4;stroke-dasharray:1.5, 1.5;stroke-dashoffset:0;stroke-opacity:1"
       transform="scale(1.3333333)" />
    <path
       id="path52"
       d="M 176.266,125.449 286.75,154.223"
       style="fill:none;stroke:#000000;stroke-width:0.75;stroke-linecap:butt;stroke-linejoin:miter;stroke-miterlimit:4;stroke-dasharray:1.5, 1.5;stroke-dashoffset:0;stroke-opacity:1"
       transform="scale(1.3333333)" />
    <path
       id="path53"
       d="m 128.773,100.25 170.922,44.766"
       style="fill:none;stroke:#000000;stroke-width:0.75;stroke-linecap:butt;stroke-linejoin:miter;stroke-miterlimit:4;stroke-dasharray:1.5, 1.5;stroke-dashoffset:0;stroke-opacity:1"
       transform="scale(1.3333333)" />
    <path
       id="path54"
       d="M 257.801,206.668 299.66,177.227"
       style="fill:none;stroke:#000000;stroke-width:0.749999;stroke-linecap:butt;stroke-linejoin:miter;stroke-miterlimit:4;stroke-dasharray:none;stroke-opacity:1"
       transform="scale(1.3333333)" />
    <path
       id="path55"
       d="m 299.66,177.227 0.035,-32.211"
       style="fill:none;stroke:#000000;stroke-width:0.75;stroke-linecap:butt;stroke-linejoin:miter;stroke-miterlimit:4;stroke-dasharray:none;stroke-opacity:1"
       transform="scale(1.3333333)" />
    <path
       id="path56"
       d="M 0.785,195.406 67.367,148.434"
       style="fill:none;stroke:#000000;stroke-width:0.75;stroke-linecap:butt;stroke-linejoin:miter;stroke-miterlimit:4;stroke-dasharray:1.5, 1.5;stroke-dashoffset:0;stroke-opacity:1"
       transform="scale(1.3333333)" />
    <path
       id="path57"
       d="m 110.898,224.129 81.778,-58.242"
       style="fill:none;stroke:#000000;stroke-width:0.75;stroke-linecap:butt;stroke-linejoin:miter;stroke-miterlimit:4;stroke-dasharray:1.5, 1.5;stroke-dashoffset:0;stroke-opacity:1"
       transform="scale(1.3333333)" />
    <path
       id="path58"
       d="M 29.023,171.258 87.848,129.883"
       style="fill:none;stroke:#000000;stroke-width:0.75;stroke-linecap:butt;stroke-linejoin:miter;stroke-miterlimit:4;stroke-dasharray:1.5, 1.5;stroke-dashoffset:0;stroke-opacity:1"
       transform="scale(1.3333333)" />
    <path
       id="path59"
       d="M 89.504,186.422 147.27,145.797"
       style="fill:none;stroke:#000000;stroke-width:0.75;stroke-linecap:butt;stroke-linejoin:miter;stroke-miterlimit:4;stroke-dasharray:1.5, 1.5;stroke-dashoffset:0;stroke-opacity:1"
       transform="scale(1.3333333)" />
    <path
       id="path60"
       d="M 0.785,195.406 110.102,224.695 88.438,187.176 29.023,171.258 Z"
       style="fill:none;stroke:#000000;stroke-width:0.749999;stroke-linecap:butt;stroke-linejoin:miter;stroke-miterlimit:4;stroke-dasharray:none;stroke-opacity:1"
       transform="scale(1.3333333)" />
    <path
       id="path61"
       d="M 147.352,145.68 V 72.262"
       style="fill:none;stroke:#000000;stroke-width:0.75;stroke-linecap:butt;stroke-linejoin:miter;stroke-miterlimit:4;stroke-dasharray:1.5, 1.5;stroke-dashoffset:0;stroke-opacity:1"
       transform="scale(1.3333333)" />
    <path
       id="path62"
       d="M 168.93,183.316 V 78.344"
       style="fill:none;stroke:#000000;stroke-width:0.781829;stroke-linecap:butt;stroke-linejoin:miter;stroke-miterlimit:4;stroke-dasharray:1.56367, 1.56367;stroke-dashoffset:0;stroke-opacity:1"
       transform="scale(1.3333333)" />
    <path
       id="path63"
       d="m 128.773,100.25 -40.835,29.512 c 0,0 59.414,15.918 59.414,15.918 l 28.914,-20.231 z"
       style="fill:#cacaca;fill-opacity:1;fill-rule:nonzero;stroke:#000000;stroke-width:0.749999;stroke-linecap:butt;stroke-linejoin:miter;stroke-miterlimit:4;stroke-dasharray:none;stroke-opacity:1"
       transform="scale(1.3333333)" />
    <path
       id="path64"
       d="M 67.367,148.434 67.199,50.578"
       style="fill:none;stroke:#000000;stroke-width:0.75;stroke-linecap:butt;stroke-linejoin:miter;stroke-miterlimit:4;stroke-dasharray:1.5, 1.5;stroke-dashoffset:0;stroke-opacity:1"
       transform="scale(1.3333333)" />
    <path
       id="path65"
       d="M 127.742,100.25 V 27.805"
       style="fill:none;stroke:#000000;stroke-width:0.75;stroke-linecap:butt;stroke-linejoin:miter;stroke-miterlimit:4;stroke-dasharray:1.5, 1.5;stroke-dashoffset:0;stroke-opacity:1"
       transform="scale(1.3333333)" />
    <path
       id="path66"
       d="m 168.93,78.344 23.8,-17.082"
       style="fill:none;stroke:#000000;stroke-width:0.749999;stroke-linecap:butt;stroke-linejoin:miter;stroke-miterlimit:4;stroke-dasharray:none;stroke-opacity:1"
       transform="scale(1.3333333)" />
    <path
       id="path67"
       d="M 168.93,78.344 67.199,50.578"
       style="fill:none;stroke:#000000;stroke-width:0.75;stroke-linecap:butt;stroke-linejoin:miter;stroke-miterlimit:4;stroke-dasharray:none;stroke-opacity:1"
       transform="scale(1.3333333)" />
    <path
       id="path68"
       d="M 192.73,61.262 176.266,52.031"
       style="fill:none;stroke:#000000;stroke-width:0.75;stroke-linecap:butt;stroke-linejoin:miter;stroke-miterlimit:4;stroke-dasharray:none;stroke-opacity:1"
       transform="scale(1.3333333)" />
    <path
       id="path69"
       d="M 106.75,117.176 106.582,21.898"
       style="fill:none;stroke:#000000;stroke-width:0.75;stroke-linecap:butt;stroke-linejoin:miter;stroke-miterlimit:4;stroke-dasharray:1.5, 1.5;stroke-dashoffset:0;stroke-opacity:1"
       transform="scale(1.3333333)" />
    <path
       id="path70"
       d="M 128.773,26.832 87.938,56.344 c 0,0 59.414,15.918 59.414,15.918 l 28.914,-20.231 z"
       style="fill:#cacaca;fill-opacity:1;fill-rule:nonzero;stroke:#000000;stroke-width:0.749999;stroke-linecap:butt;stroke-linejoin:miter;stroke-miterlimit:4;stroke-dasharray:none;stroke-opacity:1"
       transform="scale(1.3333333)" />
    <path
       id="path71"
       d="m 67.199,50.578 39.383,-28.68"
       style="fill:none;stroke:#000000;stroke-width:0.75;stroke-linecap:butt;stroke-linejoin:miter;stroke-miterlimit:4;stroke-dasharray:none;stroke-opacity:1"
       transform="scale(1.3333333)" />
    <path
       id="path72"
       d="M 128.773,26.832 106.582,21.898"
       style="fill:none;stroke:#000000;stroke-width:0.75;stroke-linecap:butt;stroke-linejoin:miter;stroke-miterlimit:4;stroke-dasharray:none;stroke-opacity:1"
       transform="scale(1.3333333)" />
  </g>
</svg>
